<?xml version="1.0" encoding="utf-8"?>
<svg version="1.1" xmlns:xlink="http://www.w3.org/1999/xlink" width="14px" height="17px" xmlns="http://www.w3.org/2000/svg">
  <g transform="matrix(1 0 0 1 -1571 -19 )">
    <path d="M 8.56888888886719 15.5510444443359  C 8.56888888886719 15.8468666666016  8.32995555546875 16.0858  8.03413333339844 16.0858  C 7.92035555566406 16.0858  7.81795555566406 16.0516666666016  7.72693333339844 15.9834  C 7.5904 15.881  5.0872888890625 13.7078444443359  5.08728888886719 13.7078444443359  C 4.98488888886719 13.6054444443359  4.928 13.4689111109375  4.928 13.3323777777344  L 4.928 6.93806666660156  L 0.297244444335937 1.60188888886719  C 0.1152 1.37433333320313  0.149333333203125 1.033  0.388266666601563 0.850955555664063  C 0.479288888867188 0.7826888890625  0.604444444335938 0.737177777929687  0.718222222265625 1  L 12.9607111111328 1  C 13.1086222222656 0.737177777734376  13.2337777777344 0.794066666601563  13.3361777777344 0.896466666601563  C 13.4385777777344 0.998866666601563  13.4954666666016 1.1354  13.4954666666016 1.27193333339844  C 13.4954666666016 1.3970888890625  13.4499555554688 1.52224444453125  13.3703111111328 1.62464444433594  L 8.56888888886719 6.94944444433594  L 8.56888888886719 15.5510444443359  Z " fill-rule="nonzero" fill="#ffffff" stroke="none" transform="matrix(1 0 0 1 1571 19 )" />
  </g>
</svg>