<?xml version="1.0" encoding="utf-8"?>
<svg version="1.1" xmlns:xlink="http://www.w3.org/1999/xlink" width="253px" height="46px" xmlns="http://www.w3.org/2000/svg">
  <g transform="matrix(1 0 0 1 -1332 0 )">
    <path d="M 1332 33.170909090909  C 1332 33.170909090909  1332 3  1332 3  C 1332 1.34314575050762  1333.34314575051 0  1335 0  C 1335 0  1582 0  1582 0  C 1583.65685424949 0  1585 1.34314575050762  1585 3  C 1585 3  1585 33.170909090909  1585 33.170909090909  C 1585 34.8277633404014  1583.65685424949 36.170909090909  1582 36.170909090909  C 1582 36.170909090909  1551.46511627907 36.170909090909  1551.46511627907 36.170909090909  C 1551.46511627907 36.170909090909  1542.86046511628 45.3023255813954  1542.86046511628 45.3023255813954  C 1542.86046511628 45.3023255813954  1531.46511627907 36.170909090909  1531.46511627907 36.170909090909  C 1531.46511627907 36.170909090909  1335 36.170909090909  1335 36.170909090909  C 1333.34314575051 36.170909090909  1332 34.8277633404014  1332 33.170909090909  Z " fill-rule="nonzero" fill="#282828" stroke="none" />
  </g>
</svg>