<?xml version="1.0" encoding="utf-8"?>
<svg version="1.1" xmlns:xlink="http://www.w3.org/1999/xlink" width="253px" height="55px" xmlns="http://www.w3.org/2000/svg">
  <g transform="matrix(1 0 0 1 -777 7 )">
    <path d="M 777 26.170909090909  C 777 26.170909090909  777 -4  777 -4  C 777 -5.65685424949238  778.343145750508 -7  780 -7  C 780 -7  1027 -7  1027 -7  C 1028.65685424949 -7  1030 -5.65685424949238  1030 -4  C 1030 -4  1030 26.170909090909  1030 26.170909090909  C 1030 27.8277633404014  1028.65685424949 29.170909090909  1027 29.170909090909  C 1027 29.170909090909  996.46511627907 29.170909090909  996.46511627907 29.170909090909  C 996.46511627907 29.170909090909  985.169811320755 47.6037735849056  985.169811320755 47.6037735849056  C 985.169811320755 47.6037735849056  976.46511627907 29.170909090909  976.46511627907 29.170909090909  C 976.46511627907 29.170909090909  780 29.170909090909  780 29.170909090909  C 778.343145750508 29.170909090909  777 27.8277633404014  777 26.170909090909  Z " fill-rule="nonzero" fill="#282828" stroke="none" />
  </g>
</svg>