<?xml version="1.0" encoding="utf-8"?>
<svg version="1.1" xmlns:xlink="http://www.w3.org/1999/xlink" width="30px" height="30px" xmlns="http://www.w3.org/2000/svg">
  <g transform="matrix(1 0 0 1 -321 -17 )">
    <path d="M 15 30  C 6.71586208007812 30  0 23.2841379199219  0 15  C 0 6.71586208007813  6.71586208007813 0  15 0  C 23.2841379199219 0  30 6.71586208007813  30 15  C 30 23.2841379199219  23.2841379199219 30  15 30  Z M 12.2844827636719 20.7020689746094  C 12.6764003742752 21.1062073810986  13.3195398613268 21.122757069584  13.7317241308594 20.7393103417969  L 23.5613793164062 11.6006896582031  C 23.7697722068565 11.4051406518262  23.8879887616595 11.1320968097672  23.8879887616595 10.846322404536  C 23.8879887616595 10.2749933501972  23.4248350523264 9.81183964086416  22.8535059979876 9.81183964086416  C 22.5939609465751 9.81183964086416  22.3438986454612 9.90940268102825  22.1529310253906 10.085172421875  L 13.0965517382812 18.5679310253906  L 8.844827578125 14.1837931054688  C 8.64960931535507 13.9791263891989  8.37910343708052 13.8633172514925  8.09626313785212 13.8633172514925  C 7.52493408351333 13.8633172514925  7.06178037418025 14.3264709608256  7.06178037418025 14.8978000151644  C 7.06178037418025 15.1697307408861  7.16885244803752 15.430726201745  7.359827578125 15.6243103417969  L 12.285 20.7020689746094  Z " fill-rule="nonzero" fill="#0085ff" stroke="none" transform="matrix(1 0 0 1 321 17 )" />
  </g>
</svg>