<?xml version="1.0" encoding="utf-8"?>
<svg version="1.1" xmlns:xlink="http://www.w3.org/1999/xlink" width="253px" height="54px" xmlns="http://www.w3.org/2000/svg">
  <g transform="matrix(1 0 0 1 -13 -109 )">
    <path d="M 13 142.170909090909  C 13 142.170909090909  13 112  13 112  C 13 110.343145750508  14.3431457505076 109  16 109  C 16 109  263 109  263 109  C 264.656854249492 109  266 110.343145750508  266 112  C 266 112  266 142.170909090909  266 142.170909090909  C 266 143.827763340401  264.656854249492 145.170909090909  263 145.170909090909  C 263 145.170909090909  28.6991761658981 145.170909090909  28.6991761658981 145.170909090909  C 28.6991761658981 145.170909090909  20.1544715447154 162.80487804878  20.1544715447154 162.80487804878  C 20.1544715447154 162.80487804878  13.8786796564404 144.292229434469  13.8786796564404 144.292229434469  C 13.3160705210963 143.729620299125  13 142.966558560428  13 142.170909090909  Z " fill-rule="nonzero" fill="#282828" stroke="none" />
  </g>
</svg>