<?xml version="1.0" encoding="utf-8"?>
<svg version="1.1" xmlns:xlink="http://www.w3.org/1999/xlink" width="116px" height="232px" xmlns="http://www.w3.org/2000/svg">
  <g transform="matrix(1 0 0 1 -997 -464 )">
    <path d="M 115.317647058823 24.5647220910563  C 115.54531402952 24.5647220910563  115.772765691102 24.5655115583278  116 24.5671423734601  L 116 0  C 51.04 0  0 51.0400336780833  0 116.000076541099  C 0 180.895159527549  50.9379713010633 231.898059356228  116 231.9999970207  L 115.999999509608 208.797771906127  C 115.772765691102 208.799348306706  115.54531402952 208.800137773977  115.317647058823 208.800137773977  C 63.7317647058826 208.800137773977  23.1999999999998 168.268346323735  23.1999999999998 116.682429932517  C 23.1999999999998 65.0965135412986  63.7317647058826 24.5647220910563  115.317647058823 24.5647220910563  Z M 115.805162295799 232  C 115.870094252524 232.000102042425  115.935040166298 232.000153082197  115.805162295799 232  Z " fill-rule="nonzero" fill="#2f9688" stroke="none" transform="matrix(1 0 0 1 997 464 )" />
  </g>
</svg>