<?xml version="1.0" encoding="utf-8"?>
<svg version="1.1" xmlns:xlink="http://www.w3.org/1999/xlink" width="116px" height="232px" xmlns="http://www.w3.org/2000/svg">
  <g transform="matrix(1 0 0 1 -1113 -464 )">
    <path d="M 0.682352941176532 24.564722091056  C 0.454685970480114 24.564722091056  0.227234308897778 24.5655115583278  0 24.5671423734597  L 0 0  C 64.9599999999998 0  116 51.0400336780833  116 116.000076541099  C 116 180.895159527549  65.0620286989365 231.898059356228  0 231.9999970207  L 0 208.797771906127  C 0.227234308897778 208.799348306706  0.454685970480114 208.800137773977  0.682352941176532 208.800137773977  C 52.2682352941176 208.800137773977  92.8 168.268346323735  92.8 116.682429932517  C 92.8 65.096513541299  52.2682352941176 24.564722091056  0.682352941176532 24.564722091056  Z M 0.194837704201291 232  C 0.129905747475959 232.000102042425  0.0649598337022326 232.000153082197  0.194837704201291 232  Z " fill-rule="nonzero" fill="#2f9688" stroke="none" transform="matrix(1 0 0 1 1113 464 )" />
  </g>
</svg>