<?xml version="1.0" encoding="utf-8"?>
<svg version="1.1" xmlns:xlink="http://www.w3.org/1999/xlink" width="118px" height="236px" xmlns="http://www.w3.org/2000/svg">
  <g transform="matrix(1 0 0 1 -995 -462 )">
    <path d="M 117.305882352941 24.9882517822811  C 117.537474616236 24.9882517822811  117.76884785819 24.989054861058  118 24.9907137936917  L 118 0  C 51.92 0  0 51.92003425874  0 118.000077860773  C 0 184.014041588368  51.8162121855644 235.896301758922  118 235.999996969332  L 117.999999501153 212.397733490716  C 117.76884785819 212.399337070615  117.537474616236 212.400140149391  117.305882352941 212.400140149391  C 64.8305882352945 212.400140149391  23.5999999999998 171.169524708627  23.5999999999998 118.694195965836  C 23.5999999999998 66.2188672230456  64.8305882352945 24.9882517822811  117.305882352941 24.9882517822811  Z M 117.801803025037 236  C 117.867854498257 236.000103801777  117.933920169165 236.000155721546  117.801803025037 236  Z " fill-rule="nonzero" fill="#ecf6fd" stroke="none" transform="matrix(1 0 0 1 995 462 )" />
  </g>
</svg>