<?xml version="1.0" encoding="utf-8"?>
<svg version="1.1" xmlns:xlink="http://www.w3.org/1999/xlink" width="118px" height="236px" xmlns="http://www.w3.org/2000/svg">
  <g transform="matrix(1 0 0 1 -1113 -462 )">
    <path d="M 0.694117647058874 24.9882517822811  C 0.462525383764387 24.9882517822811  0.231152141809844 24.989054861058  0 24.9907137936917  L 0 0  C 66.0799999999999 0  118 51.92003425874  118 118.000077860773  C 118 184.014041588368  66.1837878144354 235.896301758922  0 235.999996969332  L 0 212.397733490716  C 0.231152141809844 212.399337070615  0.462525383764387 212.400140149391  0.694117647058874 212.400140149391  C 53.1694117647057 212.400140149391  94.4000000000001 171.169524708627  94.4000000000001 118.694195965836  C 94.4000000000001 66.2188672230456  53.1694117647057 24.9882517822811  0.694117647058874 24.9882517822811  Z M 0.198196974963366 236  C 0.132145501742798 236.000103801777  0.0660798308351787 236.000155721546  0.198196974963366 236  Z " fill-rule="nonzero" fill="#ecf6fd" stroke="none" transform="matrix(1 0 0 1 1113 462 )" />
  </g>
</svg>