<?xml version="1.0" encoding="utf-8"?>
<svg version="1.1" xmlns:xlink="http://www.w3.org/1999/xlink" width="71px" height="75px" xmlns="http://www.w3.org/2000/svg">
  <g transform="matrix(1 0 0 1 -153 -208 )">
    <path d="M 69.8212890625 62.890625  C 69.8212890625 62.890625  64.62109375 23.1770833333333  44.1669921875 24  L 26.1396484375 24  C 5.685546875 23.1770833333333  0.83203125 62.890625  0.83203125 62.890625  C 0.83203125 68.4244791666667  4.9921875 73.3072916666667  10.1923828125 73  L 60.4609375 73  C 66.0078125 73.3072916666667  69.8212890625 68.0989583333333  69.8212890625 62.890625  Z M 43.126953125 33.2682291666667  C 43.8203125 32.2916666666667  45.20703125 31.640625  46.59375 32.2916666666667  C 47.6337890625 32.6171875  47.98046875 33.9192708333333  47.6337890625 35.546875  L 40.7001953125 46.6145833333333  L 46.59375 46.6145833333333  C 47.98046875 46.6145833333333  49.0205078125 47.5911458333333  49.0205078125 48.8932291666667  C 49.0205078125 50.1953125  47.98046875 51.171875  46.59375 51.171875  L 37.580078125 51.171875  L 37.580078125 53.7760416666667  L 46.59375 53.7760416666667  C 47.98046875 53.7760416666667  49.0205078125 54.7526041666667  49.0205078125 56.0546875  C 49.0205078125 57.3567708333333  47.98046875 58.3333333333333  46.59375 58.3333333333333  L 37.580078125 58.3333333333333  L 37.580078125 64.1927083333333  C 37.580078125 65.4947916666667  36.5400390625 66.4713541666666  35.1533203125 66.4713541666666  C 33.7666015625 66.4713541666666  32.7265625 65.4947916666667  32.7265625 64.1927083333333  L 32.7265625 58.3333333333333  L 23.712890625 58.3333333333333  C 22.326171875 58.3333333333333  21.2861328125 57.3567708333333  21.2861328125 56.0546875  C 21.2861328125 54.7526041666667  22.326171875 53.7760416666667  23.712890625 53.7760416666667  L 32.7265625 53.7760416666667  L 32.7265625 51.171875  L 23.712890625 51.171875  C 22.326171875 51.171875  21.2861328125 50.1953125  21.2861328125 48.8932291666667  C 21.2861328125 47.5911458333333  22.326171875 46.6145833333333  23.712890625 46.6145833333333  L 29.953125 46.6145833333333  L 23.712890625 35.546875  C 22.6728515625 34.5703125  23.3662109375 33.2682291666667  24.7529296875 32.9427083333333  C 25.79296875 31.9661458333333  27.1796875 32.6171875  27.5263671875 33.2682291666667  L 35.1533203125 46.6145833333333  L 35.5 46.6145833333333  L 43.126953125 33.2682291666667  Z M 23.01953125 1.69270833333333  C 17.47265625 1.3671875  16.779296875 4.94791666666666  16.779296875 7.87760416666666  L 17.1259765625 8.85416666666666  C 18.166015625 11.4583333333333  21.6328125 19.5963541666667  26.1396484375 20  L 43.8203125 20  C 49.3671875 19.5963541666667  53.1806640625 7.87760416666666  53.1806640625 7.87760416666666  L 53.1806640625 7.2265625  C 53.1806640625 3.97135416666666  52.140625 1.69270833333333  46.9404296875 1.69270833333333  C 40.7001953125 1.69270833333333  39.3134765625 5.59895833333333  34.806640625 5.59895833333333  C 30.646484375 5.59895833333333  28.56640625 2.34375  23.01953125 1.69270833333333  Z " fill-rule="nonzero" fill="#ffffff" stroke="none" transform="matrix(1 0 0 1 153 208 )" />
  </g>
</svg>