<?xml version="1.0" encoding="utf-8"?>
<svg version="1.1" xmlns:xlink="http://www.w3.org/1999/xlink" width="25px" height="24px" xmlns="http://www.w3.org/2000/svg">
  <g transform="matrix(1 0 0 1 -301 -23 )">
    <path d="M 5 7.44827586206897  C 5 3.33470668965517  8.357864375 0  12.5 0  C 16.642135625 0  20 3.33470668965517  20 7.44827586206897  C 20 9.82100540689655  18.8828229166667 11.9346038068966  17.1423564166667 13.2985894344828  C 21.378226125 14.9817748551724  24.4699622083333 18.9009211034483  24.9383057083333 23.5864547172414  L 22.4226337916667 23.5862148413793  C 21.80751475 18.687341462069  17.5995248333333 14.8965517241379  12.5 14.8965517241379  C 7.40047516666667 14.8965517241379  3.19248525 18.687341462069  2.57736620833333 23.5862148413793  L 0.0616942791666671 23.5864547172414  C 0.530037800000001 18.9009211034483  3.621773875 14.9817748551724  7.85759554166667 13.2981207724138  C 6.11717708333333 11.9346038068966  5 9.82100540689655  5 7.44827586206897  Z M 17.5 7.44827586206897  C 17.5 4.7058964137931  15.26142375 2.48275862068966  12.5 2.48275862068966  C 9.73857625 2.48275862068966  7.5 4.7058964137931  7.5 7.44827586206897  C 7.5 10.1906553103448  9.73857625 12.4137931034483  12.5 12.4137931034483  C 15.26142375 12.4137931034483  17.5 10.1906553103448  17.5 7.44827586206897  Z " fill-rule="nonzero" fill="#ffffff" stroke="none" fill-opacity="0.996078431372549" transform="matrix(1 0 0 1 301 23 )" />
  </g>
</svg>