<svg t="1617244352739" class="icon" viewBox="0 0 1024 1024" version="1.1" xmlns="http://www.w3.org/2000/svg" p-id="2047" width="200" height="200"><path d="M503.629166 1005.714286a53.76 53.76 0 0 1-37.851429-91.428572l381.805714-382.537143a237.714286 237.714286 0 0 0-336.274285-336.274285l-356.571429 356.571428a161.097143 161.097143 0 0 0 228.022857 227.84l334.811429-334.811428a81.554286 81.554286 0 0 0-115.2-115.931429L333.389166 598.674286a53.577143 53.577143 0 0 1-75.885715-75.885715l268.982858-268.982857a188.891429 188.891429 0 0 1 266.971428 267.154286L458.646309 855.771429A268.434286 268.434286 0 0 1 78.852023 475.428571l356.571428-356.571428a345.051429 345.051429 0 0 1 488.045715 488.777143L541.663451 989.622857a54.857143 54.857143 0 0 1-38.034285 16.091429z" p-id="2048"></path></svg>