<?xml version="1.0" encoding="utf-8"?>
<svg version="1.1" xmlns:xlink="http://www.w3.org/1999/xlink" width="14px" height="14px" xmlns="http://www.w3.org/2000/svg">
  <g transform="matrix(1 0 0 1 -338 -112 )">
    <path d="M 12.01880859375 12.0006640625  C 10.7534765625 13.26595703125  9.07111328125 13.9628515625  7.28171875 13.9628515625  C 5.49228515625 13.9628515625  3.8099609375 13.26599609375  2.5446484375 12.0006640625  C -0.0673632812500005 9.38861328125  -0.0673632812500005 5.1384765625  2.5446484375 2.526484375  C 3.8099609375 1.261171875  5.49228515625 0.564335937500001  7.28171875 0.564335937500001  C 9.07115234375 0.564335937500001  10.7534765625 1.26115234375  12.01880859375 2.526484375  C 14.63078125 5.13849609375  14.6308203125 9.38859375  12.01880859375 12.0006640625  Z M 10.41693359375 4.1283984375  C 9.57951171875 3.2909765625  8.4660546875 2.82978515625  7.28171875 2.82978515625  C 6.09740234375 2.82978515625  4.98400390625 3.2909765625  4.14650390625 4.1283984375  C 2.41775390625 5.857109375  2.41779296875 8.67  4.14650390625 10.3987109375  C 4.98392578125 11.2361328125  6.0973828125 11.69736328125  7.28171875 11.69736328125  C 8.4660546875 11.69736328125  9.57943359375 11.23615234375  10.41693359375 10.3987109375  C 12.14564453125 8.67  12.14564453125 5.857109375  10.41693359375 4.1283984375  Z " fill-rule="nonzero" fill="#7b7b7b" stroke="none" transform="matrix(1 0 0 1 338 112 )" />
  </g>
</svg>