<?xml version="1.0" encoding="utf-8"?>
<svg version="1.1" xmlns:xlink="http://www.w3.org/1999/xlink" width="28px" height="28px" xmlns="http://www.w3.org/2000/svg">
  <g transform="matrix(1 0 0 1 -16 -158 )">
    <path d="M 27.06640625 14  C 27.06640625 12.236328125  26.720703125 10.52509765625  26.03896484375 8.91376953125  C 25.38095703125 7.3578125  24.43876953125 5.9603515625  23.2390625 4.76064453125  C 22.03935546875 3.5609375  20.6421875 2.61904296875  19.0859375 1.9607421875  C 17.47490234375 1.279296875  15.763671875 0.93359375  14 0.93359375  C 12.236328125 0.93359375  10.52509765625 1.279296875  8.91376953125 1.9607421875  C 7.3578125 2.61875  5.9603515625 3.5609375  4.76064453125 4.76064453125  C 3.5609375 5.9603515625  2.61904296875 7.35751953125  1.9607421875 8.91376953125  C 1.279296875 10.52509765625  0.93359375 12.236328125  0.93359375 14  C 0.93359375 15.763671875  1.279296875 17.47490234375  1.9607421875 19.08623046875  C 2.61875 20.6421875  3.5609375 22.0396484375  4.76064453125 23.23935546875  C 5.9603515625 24.4390625  7.35751953125 25.38095703125  8.91376953125 26.0392578125  C 10.52509765625 26.720703125  12.236328125 27.06640625  14 27.06640625  C 15.763671875 27.06640625  17.47490234375 26.720703125  19.08623046875 26.0392578125  C 20.6421875 25.38125  22.0396484375 24.4390625  23.23935546875 23.23935546875  C 24.4390625 22.0396484375  25.38095703125 20.64248046875  26.0392578125 19.08623046875  C 26.720703125 17.47490234375  27.06640625 15.763671875  27.06640625 14  Z M 25.30859375 14  C 25.30859375 16.9466796875  24.175390625 19.63349609375  22.32236328125 21.64853515625  L 22.32236328125 21.308984375  C 22.32236328125 18.3974609375  20.82822265625 16.8482421875  19.5751953125 16.0607421875  C 19.03583984375 15.72177734375  18.42001953125 15.447265625  17.73271484375 15.23984375  C 16.73515625 16.11318359375  15.42734375 16.6431640625  14 16.6431640625  C 12.57265625 16.6431640625  11.26484375 16.11318359375  10.26728515625 15.23984375  C 9.57998046875001 15.447265625  8.96416015625 15.7220703125  8.42480468750001 16.0607421875  C 7.17177734375 16.8458984375  5.67792968750001 18.39716796875  5.67792968750001 21.308984375  L 5.67792968750001 21.648828125  C 3.824609375 19.6337890625  2.69140625 16.9466796875  2.69140625 14  C 2.69140625 7.764453125  7.764453125 2.69140625  14 2.69140625  C 20.235546875 2.69140625  25.30859375 7.764453125  25.30859375 14  Z " fill-rule="nonzero" fill="#cccccc" stroke="none" transform="matrix(1 0 0 1 16 158 )" />
  </g>
</svg>