<?xml version="1.0" encoding="utf-8"?>
<svg version="1.1" xmlns:xlink="http://www.w3.org/1999/xlink" width="36px" height="36px" xmlns="http://www.w3.org/2000/svg">
  <g transform="matrix(1 0 0 1 -246 -206 )">
    <path d="M 17.8225 0.245  C 22.8125 0.36  26.95 2.0575  30.23 5.3375  C 33.51 8.6175  35.2075 12.755  35.3225 17.745  C 35.2075 22.735  33.51 26.87  30.23 30.1525  C 26.95 33.435  22.8125 35.13  17.8225 35.245  C 12.8325 35.13  8.6975 33.4325  5.415 30.1525  C 2.1325 26.8725  0.4375 22.735  0.3225 17.745  C 0.4375 12.755  2.135 8.62  5.415 5.3375  C 8.695 2.055  12.8325 0.36  17.8225 0.245  Z M 24.315 22.7375  C 24.8425 22.735  25.2625 22.57  25.5825 22.24  C 25.9025 21.91  26.06 21.495  26.06 20.9925  C 26.06 20.4925  25.9 20.075  25.5825 19.745  C 25.2625 19.415  24.8425 19.25  24.3175 19  L 11.09 19  C 10.8175 19.25  10.5325 19.325  10.235 19.4725  C 9.9375 19.62  9.7225 19.8825  9.585 20.2575  C 9.4475 20.6325  9.39 20.9925  9.415 21.335  C 9.4375 21.6775  9.575 21.985  9.825 22.2575  L 14.3375 27.4875  C 14.4525 27.625  14.6225 27.745  14.85 27.8475  C 15.0775 27.95  15.3175 28.0025  15.5675 28.0025  C 15.8175 28.0025  16.0575 27.95  16.285 27.8475  C 16.5125 27.745  16.695 27.625  16.8325 27.4875  C 17.22 27.1  17.4475 26.685  17.515 26.24  C 17.5825 25.795  17.435 25.38  17.07 24.9925  L 15.0875 22.7375  L 24.315 22.7375  Z M 11.33 12.7575  C 10.805 12.755  10.3825 12.92  10.065 13.25  C 9.745 13.58  9.5875 13.9975  9.5875 14.4975  C 9.5875 15  9.7475 15.425  10.065 15.78  C 10.385 16.1325  10.805 16.3675  11.33 17  L 24.3175 17  C 24.59 16.5025  24.875 16.435  25.1725 16.275  C 25.4675 16.115  25.685 15.8475  25.8225 15.4725  C 25.96 15.0975  26.01 14.7375  25.9775 14.395  C 25.945 14.0525  25.8125 13.7575  25.585 13.5075  L 21.07 8.245  C 20.6825 7.8575  20.2675 7.63  19.8225 7.5625  C 19.3775 7.495  18.9625 7.6425  18.575 8.0075  C 18.1875 8.28  17.995 8.6625  17.995 9.1525  C 17.995 9.6425  18.1875 10.0925  18.575 10.5025  L 20.5575 12.7575  L 11.33 12.7575  Z " fill-rule="nonzero" fill="#ff7c15" stroke="none" transform="matrix(1 0 0 1 246 206 )" />
  </g>
</svg>