<?xml version="1.0" encoding="utf-8"?>
<svg version="1.1" xmlns:xlink="http://www.w3.org/1999/xlink" width="30px" height="29px" xmlns="http://www.w3.org/2000/svg">
  <g transform="matrix(1 0 0 1 -313 -84 )">
    <path d="M 6 9  C 6 4.02943725  10.02943725 0  15 0  C 19.97056275 0  24 4.02943725  24 9  C 24 11.8670482  22.6593875 14.4209796  20.5708277 16.0691289  C 25.65387135 18.10297795  29.36395465 22.838613  29.92596685 28.50029945  L 26.90716055 28.5000096  C 26.1690177 22.5805376  21.1194298 18  15 18  C 8.8805702 18  3.8309823 22.5805376  3.09283945 28.5000096  L 0.0740331350000005 28.50029945  C 0.636045360000001 22.838613  4.34612865 18.10297795  9.42911465 16.0685626  C 7.3406125 14.4209796  6 11.8670482  6 9  Z M 21 9  C 21 5.6862915  18.3137085 3  15 3  C 11.6862915 3  9 5.6862915  9 9  C 9 12.3137085  11.6862915 15  15 15  C 18.3137085 15  21 12.3137085  21 9  Z " fill-rule="nonzero" fill="#d9d9d9" stroke="none" fill-opacity="0.996078431372549" transform="matrix(1 0 0 1 313 84 )" />
  </g>
</svg>