<?xml version="1.0" encoding="utf-8"?>
<svg version="1.1" xmlns:xlink="http://www.w3.org/1999/xlink" width="27px" height="31px" xmlns="http://www.w3.org/2000/svg">
  <g transform="matrix(1 0 0 1 -95 -209 )">
    <path d="M 12.0634615519832 30.2833333203125  C 12.4961538731971 28.5333333203125  13.8461538731971 27.1333333203125  15.5942307827524 26.6166666796875  L 16.9961538596755 24.9333333203125  C 16.0788461808894 23.866666640625  15.525 22.5  15.525 21.0333333203125  C 15.525 17.666666640625  18.3807692307692 14.916666640625  21.8942307557091 14.9166666796875  C 23.7807692307692 14.9166666796875  25.4942307692308 15.7166666796875  26.6538461673678 16.9666666796875  L 26.6538461673678 2.2833333203125  C 26.6538461673678 1.1833333203125  25.7192307827524 0.2833333203125  24.5769230904447 0.2833333203125  L 2.07692307692308 0.2833333203125  C 0.934615384615385 0.2833333203125  0 1.1833333203125  0 2.2833333203125  L 0 28.2833333203125  C 0 29.3833333203125  0.934615384615385 30.2833333203125  2.07692307692308 30.2833333203125  L 12.0634615519832 30.2833333203125  Z M 6.075 6.3333333203125  C 6.075 5.5999999609375  6.6807692172476 5  7.45961537109375 5  L 19.2288461673678 5  C 19.9903846153846 5  20.6134615384615 5.6  20.6134615384615 6.3333333203125  C 20.6134615384615 7.066666640625  19.9903846153846 7.666666640625  19.2288461673678 8  L 7.45961537109375 8  C 6.69807692307692 7.6666666796875  6.075 7.0666666796875  6.075 6.3333333203125  Z M 6.075 12.3333333203125  C 6.075 11.5999999609375  6.6807692172476 11  7.45961537109375 11  L 19.2288461673678 11  C 19.9903846153846 11  20.6134615384615 11.6  20.6134615384615 12.3333333203125  C 20.6134615384615 13.066666640625  19.9903846153846 13.666666640625  19.2288461673678 14  L 7.45961537109375 14  C 6.69807692307692 13.6666666796875  6.075 13.0666666796875  6.075 12.3333333203125  Z M 7.45961537109375 19.6666666796875  C 6.6807692172476 19.6666666796875  6.075 19.0666666796875  6.075 18.3333333203125  C 6.075 17.6  6.69807692307692 17  7.45961537109375 17  L 12.3057692307692 17  C 13.0673076787861 17  13.690384601863 17.6  13.690384601863 18.3333333203125  C 13.690384601863 19.066666640625  13.0673076787861 19.666666640625  12.3057692307692 19.6666666796875  L 7.45961537109375 19.6666666796875  Z " fill-rule="nonzero" fill="#ff7c15" stroke="none" transform="matrix(1 0 0 1 95 209 )" />
  </g>
</svg>