<?xml version="1.0" encoding="utf-8"?>
<svg version="1.1" xmlns:xlink="http://www.w3.org/1999/xlink" width="15px" height="17px" xmlns="http://www.w3.org/2000/svg">
  <g transform="matrix(1 0 0 1 -109 -225 )">
    <path d="M 15 14.3666666796875  C 15 15.633333359375  13.892857156808 16.6666666796875  12.5178571289063 16.6666666796875  L 2.64285715680803 16.6666666796875  C 1.28571428571429 16.6666666796875  0.17857144252232 15.633333359375  0.17857144252232 14.3666666796875  C 0.17857144252232 13.1  1.28571428571429 12.0666666796875  2.64285715680803 12.0666666796875  L 6.69642857142857 7.3666666796875  C 5.07142855747767 7  3.87500001395089 5.65  3.87500001395089 4.0333333203125  C 3.87500001395089 2.1333333203125  5.53571429966518 0.583333320312498  7.58928570033482 0.583333320312498  C 9.64285710100447 0.583333320312498  11.3035714285714 2.1333333203125  11.3035714285714 4.03333332031249  C 11.3035714285714 5.65  10.107142843192 7  8.48214287109375 7.3666666796875  L 12.5357142857143 12.0666666796875  C 13.892857156808 12.0666666796875  15 13.1  15 14.3666666796875  Z " fill-rule="nonzero" fill="#ff7c15" stroke="none" transform="matrix(1 0 0 1 109 225 )" />
  </g>
</svg>