<?xml version="1.0" encoding="utf-8"?>
<svg version="1.1" xmlns:xlink="http://www.w3.org/1999/xlink" width="12px" height="18px" xmlns="http://www.w3.org/2000/svg">
  <g transform="matrix(1 0 0 1 -217 -164 )">
    <path d="M 0.720000000000001 13  L 11.28 13  L 11.28 1.68  C 11.28 1.26  10.94 0.91  10.51 0.91  L 1.49 0.91  C 1.07 0.91  0.720000000000001 1.25  0.720000000000001 1.68  L 0.720000000000001 13  Z M 0.72 13.6  L 0.72 13.59  L 0.72 16.31  C 0.72 16.8  1.11 17.19  1.6 17.19  L 10.07 17.19  C 10.93 17.19  11.26 16.82  11.26 15.89  L 11.26 13.6  L 0.72 13.6  Z M 6.56 14.95  C 6.57 15.25  6.32 15.51  6 15.51  C 5.68 15.51  5.43 15.26  5.43 14.94  C 5.43 14.64  5.69 14.38  5.99 14.38  C 6.31 14.38  6.56 14.63  6.56 14.95  Z " fill-rule="nonzero" fill="#a0a0a0" stroke="none" transform="matrix(1 0 0 1 217 164 )" />
  </g>
</svg>