<?xml version="1.0" encoding="utf-8"?>
<svg version="1.1" xmlns:xlink="http://www.w3.org/1999/xlink" width="15px" height="18px" xmlns="http://www.w3.org/2000/svg">
  <g transform="matrix(1 0 0 1 -29 -165 )">
    <path d="M 2.81765280330882 4.806  C 2.82352941176471 7.421994140625  4.90588235294118 9.54  7.47058249080882 9.54  C 10.0352998621324 9.54  12.1176528033088 7.410005859375  12.1117589613971 4.793994140625  C 12.1117589613971 2.178  10.0235294117647 0.054  7.45882927389706 0.0599941406250002  C 4.89411190257353 0.0599941406250002  2.81175896139706 2.190005859375  2.81765280330882 4.806  Z M 14.5529469209559 15.426  C 14.5529469209559 14.009994140625  13.9999942555147 12.659994140625  13.0176528033088 11.664  C 12.0352941176471 10.661994140625  10.6999942555147 10.139994140625  9.31177045036765 10.139994140625  L 5.61764131433823 10.139994140625  C 2.73529411764706 10.139994140625  0.394111902573529 12.51  0.394111902573529 15.456005859375  C 0.394111902573529 16.835994140625  1.49412339154412 17.940005859375  2.85294692095588 17.940005859375  L 12.07646484375 17.940005859375  C 12.7294060202206 18  13.3588235294118 17.670005859375  13.8235236672794 17.195994140625  C 14.2882410386029 16.727994140625  14.5529469209559 16.092  14.5529469209559 15.426  Z " fill-rule="nonzero" fill="#0094ff" stroke="none" transform="matrix(1 0 0 1 29 165 )" />
  </g>
</svg>