<?xml version="1.0" encoding="utf-8"?>
<svg version="1.1" xmlns:xlink="http://www.w3.org/1999/xlink" width="6px" height="6px" xmlns="http://www.w3.org/2000/svg">
  <g transform="matrix(1 0 0 1 -2 -52 )">
    <path d="M 3.440625 3  L 4.904375 1.53625  C 4.97938153853275 1.46124346146725  5.02151977310864 1.35951276405967  5.02151977310864 1.2534375  C 5.02151977310864 1.03254719747819  4.84245280252181 0.853480226891358  4.6215625 0.853480226891358  C 4.51548723594033 0.853480226891358  4.41375653853275 0.895618461467253  4.33875 0.970625  L 2.875 2.4346875  L 1.41 0.970625  C 1.33502054060968 0.895686965725365  1.23335143043595 0.853590697061284  1.12734375 0.853590697061284  C 0.906514458468348 0.853590697061284  0.727496947061284 1.03260820846835  0.727496947061284 1.2534375  C 0.727496947061284 1.35952175171414  0.769653881580638 1.46125783661844  0.8446875 1.53625  L 2.3084375 3  L 0.8446875 4.465  C 0.769749465725365 4.53997945939032  0.727653197061284 4.64164856956405  0.727653197061284 4.74765625  C 0.727653197061284 4.96848554153165  0.906670708468349 5.14750305293872  1.1275 5.14750305293872  C 1.23358425171414 5.14750305293872  1.33532033661844 5.10534611841936  1.4103125 5.0303125  L 2.8740625 3.5665625  L 4.3378125 5.0303125  C 4.41281903853275 5.10531903853275  4.51454973594033 5.14745727310864  4.620625 5.14745727310864  C 4.84151530252181 5.14745727310864  5.02058227310864 4.96839030252181  5.02058227310864 4.7475  C 5.02058227310864 4.64142473594033  4.97844403853275 4.53969403853275  4.9034375 4.4646875  L 3.4403125 3  Z " fill-rule="nonzero" fill="#ffffff" stroke="none" transform="matrix(1 0 0 1 2 52 )" />
  </g>
</svg>