<?xml version="1.0" encoding="utf-8"?>
<svg version="1.1" xmlns:xlink="http://www.w3.org/1999/xlink" width="30px" height="30px" xmlns="http://www.w3.org/2000/svg">
  <g transform="matrix(1 0 0 1 -54 -60 )">
    <path d="M 30 15  C 30 6.7090908984375  23.2909091015625 0  15 0  C 6.7090908984375 0  0 6.7090908984375  0 15  C 0 23.2909091015625  6.7090908984375 30  15 30  C 23.2909091015625 30  30 23.2909091015625  30 15  Z M 13.0363636230469 18.4363636230469  C 12.818181796875 18.4363636230469  12.6272727246094 18.4636363476563  12.4363636230469 18.4636363769531  C 11.6454545214844 18.4636363769531  11.018181796875 18.3  10.2272727246094 18.1363636230469  L 8.01818182617188 19.2272727246094  L 8.64545455078125 17.3454545507812  C 7.06363637695313 16.2545454492188  6.13636365234375 14.8363636523438  6.13636362304688 13.0909091015625  C 6.13636362304688 10.0909091015625  8.97272724609375 7.74545455078125  12.4363636230469 7.74545455078125  C 15.518181796875 7.74545455078125  18.2454545214844 9.62727272460938  18.7909091015625 12.1636363769531  C 18.6 12.1363636523438  18.381818203125 12.1363636523438  18.1909091015625 12.1363636230469  C 15.1909091015625 12.1363636230469  12.8454545507813 14.3727272460938  12.8454545507813 17.1272727246094  C 12.8454545507813 17.5909091015625  12.9272727246094 18.0272727246094  13.0363636230469 18.4363636230469  Z M 23.8636363769531 17.0727272753906  C 23.8636363769531 18.4636363769531  22.9363636523438 19.7181818261719  21.6545454492188 20.6727272753906  L 22.1181818261719 22.2545454492188  L 20.4 21.3  C 19.7727272753906 21.4636363769531  19.1454545507813 21.6272727246094  18.5181818261719 21.6272727246094  C 15.5181818261719 21.6272727246094  13.1727272753906 19.5818181738281  13.1727272753906 17.0727272753906  C 13.1727272753906 14.5636363769531  15.5181818261719 12.5181818261719  18.5181818261719 12.5181818261719  C 21.3545454492188 12.5181818261719  23.8636363769531 14.5636363769531  23.8636363769531 17.0727272753906  Z " fill-rule="nonzero" fill="#50b674" stroke="none" transform="matrix(1 0 0 1 54 60 )" />
  </g>
</svg>