<?xml version="1.0" encoding="utf-8"?>
<svg version="1.1" xmlns:xlink="http://www.w3.org/1999/xlink" width="17px" height="12px" xmlns="http://www.w3.org/2000/svg">
  <g transform="matrix(1 0 0 1 -277 -69 )">
    <path d="M 15.3344086861979 3.17104684570313  C 15.9711913658854 2.76570225585938  16.5235275084635 2.2594489453125  16.9602765670573 1.68255354492188  C 16.3760860104167 1.91121793945313  15.7479383346354 2.06600059570312  15.0885822115885 2.13544283203125  C 15.7615708404948 1.77956270507812  16.2784489342448 1.21589581054688  16.5214877408854 0.544271044921874  C 15.8917762643229 0.8740541015625  15.1945823580729 1.11327732421875  14.4522074986979 1.24217288085937  C 13.8580900377604 0.683125488281249  13.0110068990885 0.334084599609374  12.0736638873698 0.334084570312498  C 10.2740754303385 0.334084570312498  8.81523082291666 1.62148037109375  8.81523082291666 3.20977250976562  C 8.81523082291666 3.43519725585938  8.84382163541667 3.65480267578125  8.89967736002604 3.86522909179688  C 6.19130270377604 3.74533250976562  3.79052558268229 2.60036077148438  2.18321961002604 0.860585625000001  C 1.90288702018229 1.285338046875  1.74211901627604 1.779232734375  1.74211901627604 2.30633370117188  C 1.74211901627604 3.30387196289063  2.31740256901041 4.18415337890625  3.19164865299479 4.69979563476562  C 2.65753448502604 4.6848573046875  2.15500276432291 4.55554177734375  1.71587397135416 4.34013591796875  C 1.71553400455729 4.3521345703125  1.71553400455729 4.36416322265625  1.71553400455729 4.37646184570313  C 1.71553400455729 5.76974581054688  2.83853023111979 6.93202561523437  4.32926325260417 7.19623602539063  C 4.05586586588541 7.261928671875  3.76795210611979 7.29726471679688  3.47092737565104 7.29726471679688  C 3.26069491666667 7.29726471679688  3.05671776041666 7.27920673828125  2.85780607291666 7.24546051757813  C 3.27228765494791 8.38809254882813  4.47565088346354 9.2194794140625  5.90162114322916 9.2426368359375  C 4.78658002018229 10.0141504394531  3.38158540299479 10.4738189355469  1.85468039908854 10.4738189355469  C 1.59158385026042 10.4738189355469  1.33219290299479 10.4603204589844  1.07745945768229 10.4336534179688  C 2.51961192447916 11.2494120410156  4.23223811002604 11.7257886914063  6.07265598502604 11.7257887207031  C 12.0659807174479 11.7257887207031  15.3436556236979 7.34366953125  15.343655656901 3.54333515625  C 15.343655656901 3.41845913085938  15.3406639889323 3.29448301757813  15.3344086861979 3.17104684570313  Z " fill-rule="nonzero" fill="#ffffff" stroke="none" transform="matrix(1 0 0 1 277 69 )" />
  </g>
</svg>