<?xml version="1.0" encoding="utf-8"?>
<svg version="1.1" xmlns:xlink="http://www.w3.org/1999/xlink" width="10px" height="20px" xmlns="http://www.w3.org/2000/svg">
  <g transform="matrix(1 0 0 1 -136 -65 )">
    <path d="M 6.253463046875 0.884388173828125  C 2.28358361328125 0.88419841796875  2.37725966796875 3.96096091796875  2.37725966796875 4.42054928710938  L 2.37725966796875 6.93424331054688  L 0.535680400390625 6.93424331054688  L 0.535680400390625 10.0081595019531  L 2.37725966796875 10.0081595019531  L 2.37725966796875 19.1418613867187  L 6.1602297265625 19.1418613867187  L 6.1602297265625 10.0081595019531  L 8.69878176757812 10.0081595019531  C 8.69878176757812 10.0081595019531  8.93660893554687 8.53394731445312  9.05166415039063 6.92266823242187  L 6.174651171875 6.92266823242187  L 6.174651171875 4.8207441015625  C 6.174651171875 4.50688814453125  6.586927109375 4.08442864257812  6.99471212890625 4.08442864257812  L 9.05590203125 4.08442864257812  L 9.05590203125 0.884388173828125  L 6.253463046875 0.884388173828125  Z " fill-rule="nonzero" fill="#ffffff" stroke="none" transform="matrix(1 0 0 1 136 65 )" />
  </g>
</svg>