<?xml version="1.0" encoding="utf-8"?>
<svg version="1.1" xmlns:xlink="http://www.w3.org/1999/xlink" width="30px" height="30px" xmlns="http://www.w3.org/2000/svg">
  <g transform="matrix(1 0 0 1 -199 -60 )">
    <path d="M 30 15  C 30 23.2845  23.2845 30  15 30  C 6.7155 30  0 23.2845  0 15  C 0 6.7155  6.7155 0  15 0  C 23.2845 0  30 6.7155  30 15  Z M 7.96400000976562 21.6099999902344  L 10.9640000097656 21.6099999902344  L 10.9640000097656 11.6420000097656  L 7.96400000976562 11.6420000097656  L 7.96400000976562 21.6099999902344  Z M 11.0630000097656 8.8695  C 11.043 7.9725  10.431 7.29999999023438  9.46400000976563 7.29999999023438  C 8.49650000976563 7.29999999023438  7.86500000976563 7.9725  7.88450000976563 8.87000000976563  C 7.8645 9.726  8.49650000976563 10.419  9.44450000976563 10.419  C 10.431 10.419  11.0630000097656 9.726  11.0630000097656 8.8695  Z M 13.3725 14.8220000097656  L 13.3725 21.6099999902344  L 16.3725 21.6099999902344  L 16.3725 15.8615000097656  C 16.3725 15.5765000097656  16.4124999902344 15.2705000097656  16.4915000097656 15.0864999902344  C 16.6885000195313 14.5164999902344  17.1820000195312 13.9249999804687  18.0114999902344 13.9250000097656  C 19.0965 13.9250000097656  19.5315 14.8015000195312  19.5315 16.086  L 19.5315 21.6099999902344  L 22.5315 21.6099999902344  L 22.5315 15.6984999902344  C 22.5315 12.7635  21.0515000097656 11.4174999902344  19.077 11.4174999902344  C 17.4785000097656 11.4174999902344  16.4915000097656 12.3759999902344  16.0965 13.0074999902344  L 16.0370000097656 13.0074999902344  L 15.8990000097656 11.6420000097656  L 13.2935000097656 11.6420000097656  C 13.3330000195312 12.5185000195313  13.3725 13.5785000097656  13.3725 14.8220000097656  Z " fill-rule="nonzero" fill="#0073b1" stroke="none" transform="matrix(1 0 0 1 199 60 )" />
  </g>
</svg>