<?xml version="1.0" encoding="utf-8"?>
<svg version="1.1" xmlns:xlink="http://www.w3.org/1999/xlink" width="16px" height="16px" xmlns="http://www.w3.org/2000/svg">
  <g transform="matrix(1 0 0 1 -136 -132 )">
    <path d="M 12.94954146875 13.6764878125  C 16.378224390625 10.574360984375  16.378224390625 5.42563903125  12.94954146875 2.323668296875  C 10.020214640625 -0.32655609375  5.534126828125 -0.3061073125  2.62883903125 2.38485853125  C -0.684643890625 5.453892671875  -0.684643890625 10.54626340625  2.62883903125 13.6152975625  C 5.53412684375 16.306263421875  10.020214640625 16.32655609375  12.94954146875 13.6764878125  Z M 11.04515121875 11.22435121875  C 10.862204875 11.4072975625  10.565775609375 11.4072975625  10.382829265625 11.22435121875  L 7.85514146875 8.696663421875  C 7.84483903125 8.686360984375  7.82813659375 8.686360984375  7.817678046875 8.696663421875  L 5.290770734375 11.223726828125  C 5.107824390625 11.406673171875  4.811395125 11.406673171875  4.62844878125 11.223726828125  L 4.627824390625 11.2231024375  C 4.444878046875 11.04015609375  4.444878046875 10.743726828125  4.627824390625 10.560780484375  L 7.1548878125 8.033717078125  C 7.16519025 8.023414640625  7.16519025 8.006712203125  7.1548878125 7.99625365625  L 4.6272 5.468878046875  C 4.44425365625 5.285931703125  4.44425365625 4.9895024375  4.6272 4.80655609375  L 4.627824390625 4.805931703125  C 4.810770734375 4.622985359375  5.1072 4.622985359375  5.29014634375 4.805931703125  L 7.817834140625 7.333619515625  C 7.828136578125 7.343921953125  7.844839015625 7.343921953125  7.8552975625 7.333619515625  L 10.38360975 4.8053073125  C 10.56655609375 4.62236096875  10.862985359375 4.62236096875  11.045931703125 4.8053073125  L 11.04655609375 4.805931703125  C 11.2295024375 4.988878046875  11.2295024375 5.2853073125  11.04655609375 5.46825365625  L 8.5180878125 7.99640975  C 8.507785375 8.0067121875  8.507785375 8.023414625  8.5180878125 8.033873171875  L 11.045619515625 10.56156096875  C 11.228565859375 10.7445073125  11.228565859375 11.040936578125  11.045619515625 11.223882921875  Z " fill-rule="nonzero" fill="#d81e06" stroke="none" transform="matrix(1 0 0 1 136 132 )" />
  </g>
</svg>