<?xml version="1.0" standalone="no"?><!DOCTYPE svg PUBLIC "-//W3C//DTD SVG 1.1//EN" "http://www.w3.org/Graphics/SVG/1.1/DTD/svg11.dtd"><svg t="1611825610596" class="icon" viewBox="0 0 1024 1024" version="1.1" xmlns="http://www.w3.org/2000/svg" p-id="21276" xmlns:xlink="http://www.w3.org/1999/xlink" width="200" height="200"><defs><style type="text/css"></style></defs><path d="M819.2 102.4a153.6 153.6 0 0 1 153.6 153.6v512a153.6 153.6 0 0 1-153.6 153.6H204.8a153.6 153.6 0 0 1-153.6-153.6V256a153.6 153.6 0 0 1 153.6-153.6h614.4z m0 76.8H204.8a76.8 76.8 0 0 0-76.4416 69.4272L128 256v512a76.8 76.8 0 0 0 69.4272 76.4416L204.8 844.8h614.4a76.8 76.8 0 0 0 76.4416-69.4272L896 768V256a76.8 76.8 0 0 0-69.4272-76.4416L819.2 179.2z" fill="#969799" p-id="21277"></path><path d="M240.5376 768c-12.6976 0-24.4736-8.0384-30.9248-21.1456-9.9328-20.0704-3.84-46.1312 12.4928-58.88L412.672 540.16a35.328 35.328 0 0 1 44.1344-0.3072l101.4272 76.5952a17.7152 17.7152 0 0 0 22.3744-0.4096l182.8864-147.8656a31.1296 31.1296 0 0 1 27.4944-6.4 36.6592 36.6592 0 0 1 22.9376 19.1488c10.4448 19.968 4.7104 46.4384-11.5712 59.5968l-209.3056 169.216a35.328 35.328 0 0 1-44.7488 0.8192l-102.0416-77.056a17.664 17.664 0 0 0-22.016 0.1536l-164.2496 127.488a31.5392 31.5392 0 0 1-19.456 6.912zM200.0384 357.5808a51.2 51.2 0 1 0 102.4 0 51.2 51.2 0 0 0-102.4 0z" fill="#969799" p-id="21278"></path></svg>