<?xml version="1.0" standalone="no"?><!DOCTYPE svg PUBLIC "-//W3C//DTD SVG 1.1//EN" "http://www.w3.org/Graphics/SVG/1.1/DTD/svg11.dtd"><svg t="1614937284583" class="icon" viewBox="0 0 1078 1024" version="1.1" xmlns="http://www.w3.org/2000/svg" p-id="15092" xmlns:xlink="http://www.w3.org/1999/xlink" width="210.546875" height="200"><defs><style type="text/css"></style></defs><path d="M0.277131 588.103323 0.277131 495.449105 1077.763464 495.449105 1077.763464 588.103323 0.277131 588.103323ZM954.347677 134.870546C954.347677 112.977176 936.642069 95.240776 914.810284 95.240776L726.330236 95.240776 726.330236 0 962.538445 0C1011.683055 0 1051.528372 39.783732 1051.528372 88.866757L1051.528372 341.979973 954.347677 341.979973 954.347677 134.870546ZM123.569749 134.870546 123.569749 341.979973 28.144219 341.979973 28.144219 88.866757C28.144219 39.783732 67.989535 0 117.134145 0L359.254488 0 359.254488 95.240776 163.137934 95.240776C141.306149 95.240776 123.569749 112.977176 123.569749 134.870546ZM123.569749 887.37429C123.569749 909.236867 141.306149 926.973267 163.137934 926.973267L359.254488 926.973267 359.254488 1022.521967 117.134145 1022.029289C67.989535 1022.029289 28.144219 982.245557 28.144219 933.162532L28.144219 711.334356 123.569749 711.334356 123.569749 887.37429ZM954.347677 887.37429 954.347677 711.334356 1051.528372 711.334356 1051.528372 933.162532C1051.528372 982.245557 1014.208029 1023.692076 965.063419 1023.692076L726.330236 1023.230191 726.330236 926.973267 914.810284 926.973267C936.642069 926.973267 954.347677 909.236867 954.347677 887.37429Z" p-id="15093" fill="#8a8a8a"></path></svg>