<?xml version="1.0" standalone="no"?><!DOCTYPE svg PUBLIC "-//W3C//DTD SVG 1.1//EN" "http://www.w3.org/Graphics/SVG/1.1/DTD/svg11.dtd"><svg t="1614937383763" class="icon" viewBox="0 0 1024 1024" version="1.1" xmlns="http://www.w3.org/2000/svg" p-id="16594" xmlns:xlink="http://www.w3.org/1999/xlink" width="200" height="200"><defs><style type="text/css"></style></defs><path d="M512 0C324.266667 0 170.666667 153.6 170.666667 341.333333c0 260.266667 200.533333 682.666667 341.333333 682.666667s341.333333-422.4 341.333333-682.666667C853.333333 153.6 699.733333 0 512 0zM512 938.666667c-21.333333 0-89.6-76.8-145.066667-196.266667C298.666667 605.866667 256 452.266667 256 341.333333c0-140.8 115.2-256 256-256s256 115.2 256 256c0 110.933333-42.666667 264.533333-110.933333 401.066667C601.6 861.866667 533.333333 938.666667 512 938.666667z" p-id="16595" fill="#8a8a8a"></path><path d="M512 170.666667C418.133333 170.666667 341.333333 247.466667 341.333333 341.333333c0 93.866667 76.8 170.666667 170.666667 170.666667 93.866667 0 170.666667-76.8 170.666667-170.666667C682.666667 247.466667 605.866667 170.666667 512 170.666667zM512 426.666667c-46.933333 0-85.333333-38.4-85.333333-85.333333 0-46.933333 38.4-85.333333 85.333333-85.333333s85.333333 38.4 85.333333 85.333333C597.333333 388.266667 558.933333 426.666667 512 426.666667z" p-id="16596" fill="#8a8a8a"></path></svg>