<?xml version="1.0" encoding="utf-8"?>
<svg version="1.1" xmlns:xlink="http://www.w3.org/1999/xlink" width="25px" height="25px" xmlns="http://www.w3.org/2000/svg">
  <g transform="matrix(1 0 0 1 -19 -17 )">
    <path d="M 19 17  L 44 17  L 44 42  L 19 42  L 19 17  " fill-rule="nonzero" fill="#cccccc" stroke="none" />
    <path d="M 21 19  L 42 19  L 42 40  L 21 40  L 21 19  " fill-rule="nonzero" fill="#ffffff" stroke="none" />
    <path d="M 33.875 24.5  C 32.825 24.5  32 23.675  32 22.625  C 32 21.575  32.825 20.75  33.875 20.75  C 34.925 20.75  35.75 21.575  35.75 22.625  C 35.75 23.675  34.925 24.5  33.875 24.5  " fill-rule="nonzero" fill="#cccccc" stroke="none" />
    <path d="M 22 40  L 22 29  L 27 24  L 34 28  L 38 27  L 42 28  L 42 40  L 22 40  " fill-rule="nonzero" fill="#169bd5" stroke="none" />
  </g>
</svg>