<?xml version="1.0" encoding="utf-8"?>
<svg version="1.1" xmlns:xlink="http://www.w3.org/1999/xlink" width="16px" height="16px" xmlns="http://www.w3.org/2000/svg">
  <g transform="matrix(1 0 0 1 -145 -56 )">
    <path d="M 153 56  C 157.48 56  161 59.52  161 64  C 161 68.48  157.48 72  153 72  C 148.52 72  145 68.48  145 64  C 145 59.52  148.52 56  153 56  Z " fill-rule="nonzero" fill="#ffffff" stroke="none" />
    <path d="M 153 56.5  C 157.2 56.5  160.5 59.8  160.5 64  C 160.5 68.2  157.2 71.5  153 71.5  C 148.8 71.5  145.5 68.2  145.5 64  C 145.5 59.8  148.8 56.5  153 56.5  Z " stroke-width="1" stroke="#b3c7d5" fill="none" />
  </g>
</svg>