<?xml version="1.0" encoding="utf-8"?>
<svg version="1.1" xmlns:xlink="http://www.w3.org/1999/xlink" width="35px" height="40px" xmlns="http://www.w3.org/2000/svg">
  <g transform="matrix(1 0 0 1 -77 -71 )">
    <path d="M 0.101123046875002 31.39482421875  L 0.101074218749999 31.393359375  C 1.80771484375 26.775  7.40146484375 21.152587890625  12.433837890625 21  L 22.56689453125 21  C 27.600732421875 21.152587890625  32.72939453125 27.3595703125  34.43603515625 31.979736328125  C 30.2033203125 36.341162109375  23.563623046875 39.83896484375  17.500390625 39.830859375  C 11.437109375 39.83896484375  4.333837890625 35.75625  0.101123046875002 31.39482421875  Z M 17.500390625 18.891162109375  C 17.4859050523354 18.8912316621816  17.4714193335635 18.8912664387352  17.4569335939202 18.8912664387352  C 12.4583251354907 18.8912664387352  8.40615234392017 14.8390936471647  8.40615234392017 9.84048518873523  C 8.40615234392017 4.84187673030575  12.4583251354907 0.789703938735232  17.4569335939202 0.789703938735232  C 22.4555420523497 0.789703938735232  26.5077148439202 4.84187673030575  26.5077148439202 9.84048518873523  C 26.519324599275 14.8270293707402  22.4865983361693 18.8790363316205  17.5 18.8912109375  Z " fill-rule="nonzero" fill="#b4b9ce" stroke="none" transform="matrix(1 0 0 1 77 71 )" />
  </g>
</svg>