<?xml version="1.0" encoding="utf-8"?>
<svg version="1.1" xmlns:xlink="http://www.w3.org/1999/xlink" width="50px" height="50px" xmlns="http://www.w3.org/2000/svg">
  <g transform="matrix(1 0 0 1 -69 -62 )">
    <path d="M 50 25  C 50 38.8071187457698  38.8071187457698 50  25 50  C 11.1928812542302 50  0 38.8071187457698  0 25  C 0 11.1928812542302  11.1928812542302 0  25 0  C 38.8071187457698 0  50 11.1928812542302  50 25  Z M 25 47.55625  C 37.4574728883708 47.55625  47.55625 37.4574728883708  47.55625 25  C 47.55625 12.5425271116292  37.4574728883708 2.44375000000001  25 2.44375000000001  C 12.5425271116292 2.44375000000001  2.44375000000001 12.5425271116292  2.44375000000001 25  C 2.4437499966175 37.4576477805229  12.5423522194771 47.5562500033825  24.9996093716175 47.5562500033825  Z " fill-rule="nonzero" fill="#b4b9ce" stroke="none" transform="matrix(1 0 0 1 69 62 )" />
  </g>
</svg>