<?xml version="1.0" encoding="utf-8"?>
<svg version="1.1" xmlns:xlink="http://www.w3.org/1999/xlink" width="10px" height="8px" xmlns="http://www.w3.org/2000/svg">
  <g transform="matrix(1 0 0 1 -22 -4 )">
    <path d="M 1.18584490234375 0.62520650390625  C 0.773712624724433 0.63059066940534  0.439750645671372 0.961167896454479  0.43016857421875 1.3732239453125  C 0.430168585005561 1.7962122907727  0.773068392821054 2.13911208984375  1.19605673828125 2.13911208984375  L 8.81409095703125 2.13911208984375  C 8.852689498437 2.14506029130061  8.89168646837388 2.1480474609375  8.93074064227659 2.1480474609375  C 9.35372899536421 2.1480474609375  9.69662880633909 1.80514764996262  9.69662880633909 1.382159296875  C 9.69662880633909 0.959170943787377  9.35372899536421 0.6162711328125  8.93074064227659 0.6162711328125  C 8.89168646837388 0.6162711328125  8.852689498437 0.619258302449393  8.81409095703125 0.62520650390625  L 1.18584490234375 0.62520650390625  Z M 1.18584490234375 5.483490390625  C 0.773712632119836 5.48887455578294  0.439750656013413 5.81945177128371  0.43016857421875 6.2315078125  C 0.43016857421875 6.65449616558762  0.773068385193627 6.9973959765625  1.19605673828125 6.9973959765625  L 8.81409095703125 6.9973959765625  C 8.852689498437 7.00334417801936  8.89168646837389 7.00633134765625  8.93074064227659 7.00633134765625  C 9.35372899536421 7.00633134765625  9.69662880633909 6.66343153668137  9.69662880633909 6.24044318359375  C 9.69662880633909 5.81745483050613  9.35372899536421 5.47455501953125  8.93074064227659 5.47455501953125  C 8.89168646837389 5.47455501953125  8.852689498437 5.47754218916814  8.81409095703125 5.483490390625  L 1.18584490234375 5.483490390625  Z " fill-rule="nonzero" fill="#1891ff" stroke="none" transform="matrix(1 0 0 1 22 4 )" />
  </g>
</svg>