<?xml version="1.0" encoding="utf-8"?>
<svg version="1.1" xmlns:xlink="http://www.w3.org/1999/xlink" width="20px" height="20px" xmlns="http://www.w3.org/2000/svg">
  <g transform="matrix(1 0 0 1 -17 -1 )">
    <path d="M 18.2000771484453 19.9998990427674  C 18.1992261575107 19.9998990427674  18.1983751670264 19.9998978058561  18.1975241796875 19.9998953320374  C 18.0144306669285 20.0001516144324  17.8358623291004 19.9430097505007  17.6869320703125 19.8365058689704  L 9.9974149609375 14.281264085629  L 2.3104508203125 19.8313999513013  C 2.16080783474061 19.9409440084318  1.98017162049003 19.9999945705022  1.79471832450419 19.9999945705022  C 1.31251160586755 19.9999945705022  0.921605824504188 19.6090888120809  0.921605824504188 19.1268821217447  C 0.921605824504188 19.1242960418819  0.921617314105771 19.1217099747809  1 19.1191239970106  L 1 0.878222098807683  C 0.92164029296875 0.878222098807683  0.92164029296875 0.878222098807683  0.92164029296875 0.878222098807683  C 0.92164029296875 0.393195488008925  1.31483207167283 0  1.7998587109375 0  L 18.2000771484375 0  C 18.2009293733672 0  18.2017816014753 0  18.2026338300375 0  C 18.6862505143815 0  19.0782992987875 0.392048761396845  19.0782992987875 0.875665417357744  C 19.0782992987875 0.876517645869529  19.0782980546591 0.877369873928384  19 0.878222098807683  L 19 19.1216769656107  C 19.0782955664115 19.1216782022865  19.0782955664141 19.1216794396649  19.0782955664141 19.1216806763407  C 19.0782955664141 19.6067072871395  18.68510378771 19.9998990427674  18.2000771484453 19.9998990427674  Z M 9.99486201171875 12.3205905092935  L 9.9974149609375 12.3205905092935  C 10.1802461376897 12.3219976008282  10.3583247373556 12.3789827485594  10.5080070703125 12.4839799723605  L 17 17.400981656441  L 17 2  L 3 2  L 3 17.4060875936413  L 9.48426990234375 12.4890858900296  C 9.63234350538451 12.380294482193  9.81112071757954 12.3212980075459  9.99486201171875 12.3205905092935  Z " fill-rule="nonzero" fill="#1891ff" stroke="none" transform="matrix(1 0 0 1 17 1 )" />
  </g>
</svg>