<?xml version="1.0" encoding="utf-8"?>
<svg version="1.1" xmlns:xlink="http://www.w3.org/1999/xlink" width="25px" height="24px" xmlns="http://www.w3.org/2000/svg">
  <g transform="matrix(1 0 0 1 -8 -122 )">
    <path d="M 24.994514471243 13.764919364564  L 0.00642697124304267 13.764919364564  L 0.00642697124304267 12  L 24.994514471243 12  L 24.994514471243 13.764919364564  Z M 22.1323672773655 8.05704946660482  L 22.1323672773655 3.25395514842301  C 22.1323672773655 2.74622393320965  21.7217548469388 2.3348974025974  21.2154518552876 2.3348974025974  L 16.8443932282004 2.3348974025974  L 16.8443932282004 0.126159554730984  L 22.3223201530612 0.126159554730984  C 23.4620374536178 0.126159554730984  24.3860939703154 1.04878784786642  24.3860939703154 2.18707692486085  L 24.3860939703154 8.05704946660482  L 22.1323672773655 8.05704946660482  Z M 3.78334726345083 2.3348974025974  C 3.27704427179963 2.3348974025974  2.86571774118738 2.74622393320965  2.86571774118738 3.25395514842301  L 2.86571774118738 8.05704946660482  L 0.652695245825603 8.05704946660482  L 0.652695245825603 2.18707692486085  C 0.652695245825603 1.04878784786642  1.5767517393321 0.126159554730984  2.71646903988868 0.126159554730984  L 8.33150482374768 0.126159554730984  L 8.33150482374768 2.3348974025974  L 3.78334726345083 2.3348974025974  Z M 2.86571774118738 16.6227819109462  L 2.86571774118738 20.70534067718  C 2.86571774118738 21.2123577690167  3.27704427179963 21.6236842996289  3.78334726345083 21.6236842996289  L 8.33150482374768 21.6236842996289  L 8.33150482374768 23.839563242115  L 2.71646903988868 23.8281375  C 1.5767517393321 23.8281375  0.652695245825603 22.9055092068646  0.652695245825603 21.7672201298701  L 0.652695245825603 16.6227819109462  L 2.86571774118738 16.6227819109462  Z M 21.2154518552876 21.6236842996289  C 21.7217548469388 21.6236842996289  22.1323672773655 21.2123577690167  22.1323672773655 20.70534067718  L 22.1323672773655 16.6227819109462  L 24.3860939703154 16.6227819109462  L 24.3860939703154 21.7672201298701  C 24.3860939703154 22.9055092068646  23.520594364564 23.8666993506493  22.3808770640074 23.8666993506493  L 16.8443932282004 23.8559877319109  L 16.8443932282004 21.6236842996289  L 21.2154518552876 21.6236842996289  Z " fill-rule="nonzero" fill="#8a8a8a" stroke="none" transform="matrix(1 0 0 1 8 122 )" />
  </g>
</svg>