<?xml version="1.0" encoding="utf-8"?>
<svg version="1.1" xmlns:xlink="http://www.w3.org/1999/xlink" width="22px" height="21px" xmlns="http://www.w3.org/2000/svg">
  <g transform="matrix(1 0 0 1 -77 -230 )">
    <path d="M 21.9951727346939 12  L 0.00565573469387755 12  L 0.00565573469387755 10  L 21.9951727346939 10  L 21.9951727346939 12  Z M 19.4764832040816 7.03020353061224  L 19.4764832040816 2.80348053061225  C 19.4764832040816 2.35667706122449  19.1151442653061 1.99470971428571  18.6695976326531 1.99470971428571  L 14.8230660408163 1.99470971428571  L 14.8230660408163 0.0510204081632661  L 19.6436417346939 0.0510204081632661  C 20.6465929591837 0.0510204081632661  21.4597626938776 0.86293330612245  21.4597626938776 1.86462769387755  L 21.4597626938776 7.03020353061224  L 19.4764832040816 7.03020353061224  Z M 3.32934559183673 1.99470971428571  C 2.88379895918367 1.99470971428571  2.5218316122449 2.35667706122449  2.5218316122449 2.80348053061225  L 2.5218316122449 7.03020353061224  L 0.574371816326531 7.03020353061224  L 0.574371816326531 1.86462769387755  C 0.574371816326531 0.86293330612245  1.38754153061224 0.0510204081632661  2.39049275510204 0.0510204081632661  L 7.33172424489796 0.0510204081632661  L 7.33172424489796 1.99470971428571  L 3.32934559183673 1.99470971428571  Z M 2.5218316122449 14.5680480816327  L 2.5218316122449 18.1606997959184  C 2.5218316122449 18.6068748367347  2.88379895918367 18.9688421836735  3.32934559183673 18.9688421836735  L 7.33172424489796 18.9688421836735  L 7.33172424489796 20.9188156530612  L 2.39049275510204 20.908761  C 1.38754153061224 20.908761  0.574371816326531 20.0968481020408  0.574371816326531 19.0951537142857  L 0.574371816326531 14.5680480816327  L 2.5218316122449 14.5680480816327  Z M 18.6695976326531 18.9688421836735  C 19.1151442653061 18.9688421836735  19.4764832040816 18.6068748367347  19.4764832040816 18.1606997959184  L 19.4764832040816 14.5680480816327  L 21.4597626938776 14.5680480816327  L 21.4597626938776 19.0951537142857  C 21.4597626938776 20.0968481020408  20.6981230408163 20.9426954285714  19.6951718163265 20.9426954285714  L 14.8230660408163 20.9332692040816  L 14.8230660408163 18.9688421836735  L 18.6695976326531 18.9688421836735  Z " fill-rule="nonzero" fill="#8a8a8a" stroke="none" transform="matrix(1 0 0 1 77 230 )" />
  </g>
</svg>