<?xml version="1.0" encoding="utf-8"?>
<svg version="1.1" xmlns:xlink="http://www.w3.org/1999/xlink" width="61px" height="33px" xmlns="http://www.w3.org/2000/svg">
  <g transform="matrix(1 0 0 1 -40 -47 )">
    <path d="M 61 1.1962500201416  L 0 1.1962500201416  L 0 31.8037499798584  L 30.8304166865234 31.8037499798584  L 61 1.1962500201416  Z M 2.29004168652344 9.11367187499998  C 3.60916668652344 7.72921874999998  5.73908337304688 6.88875002014159  8.296 6.8887500201416  L 8.30870831347656 6.8887500201416  C 10.5021666269531 6.8913281652832  13.176 7.520390625  15.1102083134766 8.5207031451416  L 13.0260416865234 12.207421875  C 10.90375 11.1658593951416  9.83625 11.0678906048584  8.62895831347656 11.0034375201416  C 6.82945831347656 10.9054687902832  5.924625 11.557734375  5.91191668652344 12.2615625  C 5.894125 13.1174999798584  7.61229168652344 13.893515625  9.22879168652344 14.4220312701416  C 11.6789583730469 15.2109375201416  14.7950416865234 16.2653906652832  15.2703333134766 19.3204687298584  L 19.74875 7.3141406451416  L 24.949 7.3141406451416  L 30 21.689765625  L 30 7.31671872985839  L 36.2009583134766 7.31671872985839  C 41.9375 7.31671872985839  44.6342083134766 9.28640620971679  44.6342083134766 13.8110156451416  C 44.6342083134766 17.8715625201416  41.8637916269531 20.2924218951416  37.171875 20.2924218951416  L 35.2325833134766 20.2924218951416  L 35.2071666865234 25.6910156451416  L 26.0876666865234 25.6832812701416  L 25.45225 23.3423437298584  C 24.5118333134766 23.6568749597168  23.4519583134766 23.8296093548584  22.326 23.8296093548584  C 21.167 23.8296093548584  20.076625 23.6465625  19.115875 23.313984375  L 18.2059583134766 25.6832812701416  L 13.122625 25.6987500201416  L 13.351375 24.5076562701416  C 13.2776666865234 24.5721094152832  13.2065 24.6365625  13.13025 24.6984375  C 11.7704583134766 25.8070312701416  10.0599166865234 26.3200781048584  7.952875 26.3587499798584  L 7.4115 26.3639062701416  C 5.1109489860826 26.3876276806185  2.84600890028981 25.7867890300487  0.851458313476567 24.6236718951416  L 2.706875 20.8905468548584  C 4.71479168652344 22.0945312097168  5.97545831347657 22.3652343347168  7.678375 22.3291406048584  C 8.56033331347657 22.3110937097168  9.19829168652344 22.1486718347168  9.61258331347656 21.71296875  C 9.85649417355236 21.4567148334401  9.99780915280736 21.1176557811095  10.0090833134766 20.761640625  C 10.026875 19.7922656048584  8.662 19.3359374798584  6.99720831347657 18.812578125  C 5.64758331347657 18.3897656451416  4.11241662695313 17.8096875201416  2.91529168652344 16.91765625  C 1.4945 15.8606250201416  0.818416686523442 14.53546875  0.851458313476567 12.66375  C 0.860090710620327 11.3361616704768  1.37574267781193 10.0636565080106  2.29004168652344 9.11367187499998  Z M 36.55425 11.19421875  L 35.2300416865234 11.19421875  L 35.2300416865234 16.1029687298584  L 36.55425 16.1029687298584  C 38.3181666865234 16.1029687298584  39.7237083134766 15.51  39.72625 13.6176562701416  C 39.72625 11.789765625  38.3181666865234 11.19421875  36.55425 11.19421875  Z M 22.3387083134766 13.1690625201416  L 22.3005833134766 13.1716406048584  L 20.3994166865234 19.261171875  C 20.9662083730469 19.4803125201416  21.6219583730469 19.6040625201416  22.3234583134766 19.6040625201416  C 23.004625 19.6040625201416  23.645125 19.4828906652832  24.209375 19.2792187701416  L 22.3387083134766 13.1690625201416  Z " fill-rule="nonzero" fill="#ffffff" stroke="none" transform="matrix(1 0 0 1 40 47 )" />
  </g>
</svg>