<?xml version="1.0" encoding="utf-8"?>
<svg version="1.1" xmlns:xlink="http://www.w3.org/1999/xlink" width="36px" height="36px" xmlns="http://www.w3.org/2000/svg">
  <g transform="matrix(1 0 0 1 -1285 -45 )">
    <path d="M 35 4.68  C 35.22 2.1  33.12 0  30.54 0  L 5.46 0  C 2.88 0  0.779999999999998 2.1  1 4.68  L 1 31.26  C 0.779999999999998 33.84  2.88 35.94  5.46 36  L 30.48 36  C 33.06 35.94  35.16 33.84  35 31.26  L 35 4.68  Z M 28.92 28.2  L 28.98 28.2  C 28.98 29.04  28.26 29.76  27.42 29.76  L 8.58 29.76  C 7.74 29.76  7.02 29.04  7.02 28.2  L 7.02 26.64  C 7.02 25.8  7.74 25.08  8.58 25  L 27.36 25  C 28.2 25.08  28.92 25.8  28.92 26.64  L 28.92 28.2  Z M 12.6 18.9  C 12.3 18.6  12.3 18.24  12.54 18  L 13.38 17.16  C 13.62 16.92  13.98 16.92  14.22 17.16  L 16.38 19.32  L 21.78 13.92  C 22.02 13.68  22.38 13.68  22.62 13.92  L 23.46 14.76  C 23.64 15  23.64 15.42  23.46 15.6  L 17.28 21.9  C 17.04 22.14  16.74 22.26  16.44 22.26  C 16.14 22.26  15.84 22.14  15.6 21.9  L 12.6 18.9  Z M 28.92 9.42  L 28.98 9.42  C 28.98 10.26  28.26 10.98  27.42 11  L 8.58 11  C 7.74 10.98  7.02 10.26  7.02 9.42  L 7.02 7.8  C 7.02 6.96  7.74 6.24  8.58 6.24  L 27.36 6.24  C 28.2 6.24  28.92 6.96  28.92 7.8  L 28.92 9.42  Z " fill-rule="nonzero" fill="#ffffff" stroke="none" transform="matrix(1 0 0 1 1285 45 )" />
  </g>
</svg>