<?xml version="1.0" encoding="utf-8"?>
<svg version="1.1" xmlns:xlink="http://www.w3.org/1999/xlink" width="23px" height="24px" xmlns="http://www.w3.org/2000/svg">
  <g transform="matrix(1 0 0 1 -116 -14 )">
    <path d="M 19.5705836132813 9.77921823828125  C 20.0168613476563 9.77921823828125  20.4034258828125 9.9395010859375  20.719277390625 10.2553525722656  C 21.0306132170755 10.5568197410365  21.2030143303419 10.9738825002181  21.1954117460938 11.4071891484375  C 21.1954117460938 11.8581810917969  21.0367002871094 12.2384600292969  20.719277390625 12.5590257246094  C 20.4197658162856 12.8713236965097  20.0032026713958 13.0439894046523  19.5705836132813 13.0351600800781  C 19.12273446875 13.0351600800781  18.7408841425781 12.8748772324219  18.4187470371094 12.5590257246094  C 18.1074112106589 12.2575585558385  17.9350100973925 11.8404957966569  17.9426126816406 11.4071891484375  C 17.9426126816406 10.9561972050781  18.101324140625 10.5759182675781  18.4187470371094 10.2553525722656  C 18.7202142095657 9.94401675371421  19.1372769682718 9.77161564842355  19.5705836132813 9.77921823828125  Z M 18.0934671328125 16.6022392421875  C 18.4061133396415 16.901759916438  18.5797937968986 17.3180235724643  18.5727442871094 17.7509330195312  C 18.5762368628115 18.1836358886547  18.4011437305691 18.5986293442701  18.0887529238281 18.8980553867187  C 17.7895436569029 19.2107609297771  17.3744076178919 19.3859142204942  16.9416305566406 19.38204675  C 16.4906386132812 19.38204675  16.1119310859375 19.2217639023437  15.7897939804687 18.9059123945312  C 15.4784581540182 18.6044452257604  15.3060570407519 18.1873824665787  15.313659625 17.7540758183594  C 15.313659625 17.303083875  15.4739424726562 16.9243763476562  15.7897939804687 16.6022392421875  C 16.0912611492396 16.290903415737  16.5083239084213 16.1185023024706  16.9416305566406 16.1261048867188  C 17.3926225 16.1261048867188  17.7729014375 16.286387734375  18.0934671328125 16.6022392421875  Z M 18.9545946132813 3.06148104882812  C 19.5155846015625 3.61618543945312  19.795293890625 4.28717345117187  19.795293890625 5.07130230664063  C 19.795293890625 5.86014537109375  19.5155846015625 6.53427618164062  18.9545946132813 7.08898055078125  C 18.4268668204429 7.6307257715958  17.6994168483442 7.93136721032461  16.9432019667969 7.92025143164063  C 16.1559303125 7.92025143164063  15.4817995019531 7.64211353125  14.9255237011719 7.08898055078125  C 14.3824374035625 6.55969140815757  14.08218259191 5.82952630312705  14.0958242304688 5.07130230664063  C 14.0958242304688 4.29031625  14.3739621308594 3.61932823828125  14.9255237011719 3.05990963867187  C 15.4533056554086 2.51237751661724  16.1843657790964 2.2080061792884  16.9447733554688 2.21921036132812  C 17.7257594121094 2.21921036132812  18.3967474238281 2.50049106054687  18.9545946132813 3.06148104882812  Z M 10.6026008945312 18.7440581367187  C 11.0535928378906 18.7440581367187  11.4354431640625 18.904340984375  11.7560088808594 19.2201924921875  C 12.0667670384955 19.5219290242958  12.2385848642226 19.9389570667623  12.2305718261719 20.3720290683594  C 12.2305718261719 20.8230210117187  12.0718603671875 21.2032999492187  11.7560088808594 21.5238656445312  C 11.4541664127885 21.8356045120552  11.0364503482385 22.0080404337074  10.6026008945312 22  C 10.1516089511719 22  9.77290142382812 21.8397171523437  9.45076431835937 21.5238656445312  C 9.13846482166203 21.2230540833456  8.96588206360462 20.8055518996364  8.97462996289062 20.3720290683594  C 8.97462996289062 19.921037125  9.13491281054687 19.5423295976562  9.45076431835937 19.2201924921875  C 9.75223148713025 18.908856665737  10.1692942463119 18.7364555524706  10.6026008945312 18.7440581367187  Z M 12.3358556621094 0.71223728125  L 12.3374270722656 0.71223728125  C 12.8119900175781 1.18837163671875  13.0508429003906 1.76350423046875  13.0508429003906 2.44549204882812  C 13.0508429003906 3.1274798671875  12.8119900175781 3.69946966210937  12.3374270722656 4.17717540625  C 11.8834510521543 4.6436815585705  11.2565659034917 4.90137572638831  10.6057436933594 4.88901984570312  C 9.923755875 4.88901984570312  9.35176608007813 4.65016696289062  8.8740603359375 4.17717540625  C 8.4064975190429 3.72379300614726  8.14813057259958 3.09665561498552  8.1606445078125 2.44549204882812  C 8.1606445078125 1.76350423046875  8.40106877929688 1.19151443554687  8.8740603359375 0.71223728125  C 9.32798214363491 0.246609597120131  9.95399907481816 -0.0109614037835133  10.6041723046875 0.000392841796875  C 11.2830173242188 0.000392841796875  11.8581499179688 0.239245724609375  12.3358556621094 0.71223728125  Z M 4.26357123242187 16.1213906992188  C 4.71456317578125 16.1213906992188  5.09955630078125 16.2801021582031  5.41855060742188 16.5990964433594  C 5.7293087729547 16.9008329717876  5.90112660665556 17.3178610147279  5.89311357421875 17.7509330195312  C 5.89311357421875 18.2019249628906  5.73440211523437 18.5822039003906  5.41855060742188 18.904340984375  C 5.11643850619503 19.215502202244  4.69875722913152 19.3873547228269  4.26514264257812 19.3789039511719  C 3.83243977345462 19.382396526874  3.41744631783924 19.2073033946316  3.11802027539062 18.8949125878906  C 2.80589322562041 18.5954334774142  2.63132331477423 18.1803324038491  2.63560030078125 17.7477902207031  C 2.63560030078125 17.2967982773437  2.79431175976562 16.91809075  3.11016326757812 16.5959536445312  C 3.41227537248886 16.2847924345587  3.82995664907769 16.1129399219512  4.26357123242187 16.1213906992188  Z M 4.26199984375 3.03319583789063  C 4.821418421875 3.03319583789063  5.2991241875 3.23119229296875  5.7014026953125 3.6303280234375  C 6.10053842578125 4.02946375390625  6.30010629101563 4.51031231835938  6.30010629101563 5.0681595078125  C 6.30010629101563 5.6275780859375  6.10053842578125 6.1052838515625  5.7014026953125 6.507562359375  C 5.30226696484375 6.9082695  4.82141840039062 7.10940875390625  4.26199984375 7.10940875390625  C 3.70415265429687 7.10940875390625  3.2248755 6.91141229882812  2.82416838085937 6.50913376953125  C 2.43436031718909 6.13326728514649  2.21761986777873 5.61274888559138  2.22546478515625 5.07130230664063  C 2.22546478515625 4.5134551171875  2.42346124023437 4.03417796289063  2.82416838085937 3.63347082226563  C 3.22644691015625 3.23119229296875  3.70415267578125 3.03319583789063  4.26199984375 3.03319583789063  Z M 2.79274037109375 10.2569239824219  L 2.79274037109375 10.2553525722656  C 3.10407618964517 10.5568197447219  3.27647729493583 10.9738825034281  3.26887470507813 11.4071891484375  C 3.26887470507813 11.8581810917969  3.10859185742187 12.2384600292969  2.79274037109375 12.5590257246094  C 2.4922605773453 12.871811845659  2.07453529258491 13.0444868269341  1.64090379492188 13.0351600800781  C 1.1899118515625 13.0351600800781  0.8096329140625 12.8748772324219  0.48906721875 12.5590257246094  C 0.176687663986306 12.2589191196303  0.0040481849839484 11.8418494906597  0.01293286328125 11.4087605585937  C 0.01293286328125 10.9577686152344  0.1732157109375 10.5774896777344  0.48906721875 10.2569239824219  C 0.790534387520872 9.94558815597136  1.20759714670251 9.77318704270498  1.64090379492188 9.78078962695313  C 2.09189573828125 9.78078962695313  2.47374606445313 9.94107247460938  2.79274037109375 10.2569239824219  Z " fill-rule="nonzero" fill="#ffffff" stroke="none" transform="matrix(1 0 0 1 116 14 )" />
  </g>
</svg>