<?xml version="1.0" encoding="utf-8"?>
<svg version="1.1" xmlns:xlink="http://www.w3.org/1999/xlink" width="17px" height="20px" xmlns="http://www.w3.org/2000/svg">
  <g transform="matrix(1 0 0 1 -42 -116 )">
    <path d="M 14.3863777043269 12.6034146012931  C 13.603984375 11.7781721443965  12.6932673527644 11.1376212284483  11.7016943359375 10.7021080280172  C 13.0346784855769 9.66374595905172  13.9009352463942 7.99527882543103  13.9009352463942 6.11722790948276  C 13.9009352463942 2.97605738146552  11.4780712890625 0.420480872844827  8.49998084435096 0.420480872844827  C 5.52189039963942 0.420480872844827  3.09902644230769 2.97603717672414  3.09902644230769 6.11722790948276  C 3.09902644230769 7.99525862068966  3.96526404747596 9.66374595905172  5.29826735276442 10.7021080280172  C 4.30673264723558 11.1376212284483  3.39595815805288 11.7782125538793  2.613583984375 12.6034146012931  C 1.04128831129808 14.2618197737069  0.175376352163461 16.4668238146552  0.175376352163461 18.8121699892241  C 0.175376352163461 19.4622373383621  0.674993990384615 19.9891769935345  1.29126953125 19.9891769935345  C 1.90754507211538 19.9891769935345  2.40716271033654 19.4622373383621  2.40716271033654 18.8121699892241  C 2.40716271033654 15.2685614224138  5.14038649338942 12.3856883081897  8.49996168870192 12.3856883081897  C 11.8595751953125 12.3856883081897  14.5927606670673 15.2686018318966  14.5927606670673 18.8121699892241  C 14.5927606670673 19.4622373383621  15.0923399939904 19.9891769935345  15.7086538461538 19.9891769935345  C 16.3249676983173 19.9891769935345  16.8245470252404 19.4622373383621  16.8245470252404 18.8121699892241  C 16.8245470252404 16.4667834051724  15.9586350661058 14.2618399784483  14.3863393930288 12.6034146012931  Z M 5.33085111177885 6.11722790948276  C 5.33085111177885 4.27407058189655  6.75254507211539 2.7745150862069  8.5 2.7745150862069  C 10.2474740835337 2.7745150862069  11.6691488882212 4.27407058189655  11.6691488882212 6.11722790948276  C 11.6691488882212 7.96038523706897  10.2474549278846 9.45994073275862  8.5 9.45994073275862  C 6.75254507211538 9.45994073275862  5.33085111177885 7.96038523706897  5.33085111177885 6.11722790948276  Z " fill-rule="nonzero" fill="#ffffff" stroke="none" transform="matrix(1 0 0 1 42 116 )" />
  </g>
</svg>