<?xml version="1.0" encoding="utf-8"?>
<svg version="1.1" xmlns:xlink="http://www.w3.org/1999/xlink" width="13px" height="15px" xmlns="http://www.w3.org/2000/svg">
  <g transform="matrix(1 0 0 1 -45 -226 )">
    <path d="M 12.2552083333333 14.2215401785714  L 12.2552083333333 14.7698102678571  L 11.3898111979167 14.7698102678571  L 11.7325846354167 14.7698102678571  C 12.0245768229167 14.7530691964286  12.2552083333333 14.5145089285714  12.2552083333333 14.2215401785714  Z M 11.6966145833333 6.23814174107143  L 12.2509765625 6.23814174107143  L 12.2509765625 7.09402901785714  L 12.2509765625 6.75502232142857  C 12.2340494791667 6.46623883928571  11.9928385416667 6.23814174107143  11.6966145833333 6.23814174107143  Z M 0.192545572916668 6.77804129464286  L 0.192545572916667 6.22977120535714  L 1.05794270833333 6.22977120535714  L 0.715169270833333 6.22977120535714  C 0.423177083333333 6.24651227678571  0.192545572916668 6.48507254464286  0.192545572916668 6.77804129464286  Z M 0.7490234375 14.7572544642857  L 0.194661458333333 14.7572544642857  L 0.194661458333333 13.9013671875  L 0.194661458333333 14.2403738839286  C 0.211588541666667 14.5291573660714  0.452799479166667 14.7572544642857  0.7490234375 14.7572544642857  Z M 1.091796875 1.80803571428571  C 1.091796875 1.33510044642857  1.48111979166667 0.950055803571429  1.95930989583333 0.950055803571429  C 2.4375 0.950055803571429  2.82682291666667 1.3330078125  2.82682291666667 1.80803571428571  L 2.82682291666667 5.38225446428571  C 2.82682291666667 5.85518973214286  2.43961588541667 6.240234375  1.95930989583333 6.240234375  C 1.48111979166667 6.240234375  1.091796875 5.85728236607143  1.091796875 5.38225446428571  L 1.091796875 1.80803571428571  Z M 9.64208984375 1.72433035714286  C 9.64208984375 1.25139508928571  10.0314127604167 0.866350446428572  10.5096028645833 0.866350446428572  C 10.98779296875 0.866350446428572  11.3771158854167 1.24930245535714  11.3771158854167 1.72433035714286  L 11.3771158854167 5.26297433035714  C 11.3771158854167 5.73590959821429  10.9899088541667 6.12095424107143  10.5096028645833 6.12095424107143  C 10.0314127604167 6.12095424107143  9.64208984375 5.73800223214286  9.64208984375 5.26297433035714  L 9.64208984375 1.72433035714286  Z " fill-rule="nonzero" fill="#ffffff" stroke="none" transform="matrix(1 0 0 1 45 226 )" />
  </g>
</svg>