<?xml version="1.0" encoding="utf-8"?>
<svg version="1.1" xmlns:xlink="http://www.w3.org/1999/xlink" width="16px" height="21px" xmlns="http://www.w3.org/2000/svg">
  <g transform="matrix(1 0 0 1 -43 -222 )">
    <path d="M 4.91458333333333 5.89189453125  C 4.91458333333333 4.06669921875  6.41875 2.5880859375  8.27083333333333 2.5880859375  C 10.125 2.5880859375  11.6270833333333 4.06669921875  11.6270833333333 5.89189453125  L 13.3333333333333 5.89189453125  C 13.3333333333333 3.13974609375  11.0666666666667 0.90849609375  8.27083333333333 0.90849609375  C 5.475 0.90849609375  3.20833333333333 3.13974609375  3.20833333333333 5.89189453125  L 4.91458333333333 5.89189453125  Z M 14.78125 20  C 15.34375 20.22890625  15.7875 19.7900390625  15.8958333333333 19.236328125  L 15.8958333333333 9.88681640625  C 15.825 9.20185546875  15.25 8.6625  14.54375 9  L 2.04583333333333 9  C 1.26458333333333 8.63583984375  0.629166666666667 9.25927734375  0.627083333333333 10.0283203125  L 0.627083333333333 19.13994140625  C 0.710416666666667 19.75927734375  1.20625 20.25146484375  1.83333333333333 20  L 14.78125 20  Z M 14.1895833333333 18.6580078125  L 2.33333333333333 18.6580078125  L 2.33333333333333 10  L 14.1895833333333 10  L 14.1895833333333 18.6580078125  Z " fill-rule="nonzero" fill="#ffffff" stroke="none" transform="matrix(1 0 0 1 43 222 )" />
  </g>
</svg>