<?xml version="1.0" encoding="utf-8"?>
<svg version="1.1" xmlns:xlink="http://www.w3.org/1999/xlink" width="18px" height="20px" xmlns="http://www.w3.org/2000/svg">
  <g transform="matrix(1 0 0 1 -41 -338 )">
    <path d="M 9.02267578125 0.48828125  C 12.15349609375 1.95705078125  14.6467578125 2.757421875  16.50248046875 2.8893359375  C 16.80919921875 2.9111328125  17.046875 3.16630859375  17.046875 3.4737890625  L 17.046875 10.72607421875  C 16.39943359375 15.01048828125  13.7171484375 17.9390625  9 19.51171875  C 4.22193359375 17.93314453125  1.5396484375 15.00458984375  0.953125 10.72607421875  L 0.953125 3.90279296875  C 0.953125 3.36904296875  1.358984375 2.92279296875  1.8903515625 2.87228515625  C 3.76015625 2.69458984375  6.1376171875 1.899921875  9.02265625 0.48828125  Z M 15.44865234375 4.3076953125  C 13.92484375 4.31080078125  11.7813671875 3.66310546875  9.01818359375 2.364609375  C 6.3276953125 3.68326171875  4.1880859375 4.33125  2.599296875 4.30859375  L 2.551328125 4.30771484375  L 2.551328125 10.58287109375  C 3.02138671875 14.01736328125  5.1709375 16.368203125  9 17.635390625  C 12.7424609375 16.38556640625  14.88666015625 14.068984375  15.43259765625 10.685703125  L 15.44865234375 10.5828515625  L 15.44865234375 4.3076953125  Z M 13.328203125 7.07951171875  C 13.59892578125 7.351484375  13.59892578125 7.79212890625  13.328203125 8.0641015625  L 8.469296875 12.94072265625  C 8.33926951526666 13.0711762950294  8.16266468831316 13.1445098154934  7.9784765625 13.14453125  C 7.8005859375 13.14453125  7.6233984375 13.0763671875  7.48765625 12.94072265625  L 4.710859375 10.15419921875  C 4.44013671875 9.88220703125  4.44013671875 9.440859375  4.710859375 9.16888671875  C 4.98228515625 8.8969140625  5.4217578125 8.8969140625  5.69248046875 9.16888671875  L 7.97849609375 11.4627734375  L 12.34658203125 7.0794921875  C 12.6173046875 6.80681640625  13.05677734375 6.80681640625  13.32822265625 7.0794921875  Z " fill-rule="nonzero" fill="#ffffff" stroke="none" transform="matrix(1 0 0 1 41 338 )" />
  </g>
</svg>