<?xml version="1.0" encoding="utf-8"?>
<svg version="1.1" xmlns:xlink="http://www.w3.org/1999/xlink" width="19px" height="12px" xmlns="http://www.w3.org/2000/svg">
  <g transform="matrix(1 0 0 1 -315 -277 )">
    <path d="M 18.2083333271484 6  C 16.83875 2.86428570870536  13.4583333271484 0.642857142857143  9.5 0.642857142857143  C 5.54166667285156 0.642857142857143  2.16125 2.86428570870536  0.791666672851562 6  C 2.16125 9.13571429129464  5.54166667285156 11.3571428571429  9.5 11.3571428571429  C 13.4583333271484 11.3571428571429  16.83875 9.13571429129464  18.2083333271484 6  Z M 13.4583333271484 6  C 13.4583333271484 7.97142857142857  11.685 9.57142856584822  9.5 9.57142856584822  C 7.315 9.57142856584822  5.54166667285156 7.97142857142857  5.54166667285156 6  C 5.54166667285156 4.02857142857143  7.315 2.42857143415179  9.5 2.42857143415179  C 11.685 2.42857143415179  13.4583333271484 4.02857142857143  13.4583333271484 6  Z M 11.875 6  C 11.875 4.81428570870536  10.8141666728516 3.85714285714286  9.5 3.85714285714286  C 8.18583332714844 3.85714285714286  7.125 4.81428570870536  7.125 6  C 7.125 7.18571429129464  8.18583332714844 8.14285714285714  9.5 8.14285714285714  C 10.8141666728516 8.14285714285714  11.875 7.18571429129464  11.875 6  Z " fill-rule="nonzero" fill="#b0b0b0" stroke="none" transform="matrix(1 0 0 1 315 277 )" />
  </g>
</svg>