<?xml version="1.0" encoding="utf-8"?>
<svg version="1.1" xmlns:xlink="http://www.w3.org/1999/xlink" width="18px" height="20px" xmlns="http://www.w3.org/2000/svg">
  <g transform="matrix(1 0 0 1 -48 -203 )">
    <path d="M 4 5  C 4 7.7777777734375  6.2222222265625 10  9 10  C 11.7777777734375 10  14 7.7777777734375  14 5  C 14 2.2222222265625  11.7777777734375 0  9 0  C 6.2222222265625 0  4 2.2222222265625  4 5  Z M 17.7797619140625 16.4484126953125  C 17.7797619140625 13.5615079296875  15.3392857226562 11.2202380859375  12.4424603125 11.2202380859375  L 11.7777777734375 11.2202380859375  C 10.884920625 11.6666666601562  9.89285712890625 11.884920625  8.8908730078125 11.8849206445312  C 7.88888888671875 11.8849206640625  6.88690474609375 11.6666666796875  6.00396826171875 11.2202380859375  L 5.4484126953125 11.2202380859375  C 2.5515873046875 11.2202380859375  0.2202380859375 13.5615079296875  0.2202380859375 16.4484126953125  L 0.2202380859375 18.1150793554688  C 0.2202380859375 19.1170634765625  1.113095234375 20  2.10515873046875 20  L 15.8948412695313 20  C 16.896825390625 20  17.7797619140625 19.1071428515625  17.7797619140625 18.1150793554688  L 17.7797619140625 16.4484126953125  Z " fill-rule="nonzero" fill="#a0cdff" stroke="none" transform="matrix(1 0 0 1 48 203 )" />
  </g>
</svg>