<?xml version="1.0" encoding="utf-8"?>
<svg version="1.1" xmlns:xlink="http://www.w3.org/1999/xlink" width="14px" height="18px" xmlns="http://www.w3.org/2000/svg">
  <g transform="matrix(1 0 0 1 -51 -274 )">
    <path d="M 5 11.5  C 5.00428692251034 12.2102221196063  5.38491092805142 12.8648954091369  6 13.22  L 6 14.5  L 8 14.5  L 8 13.22  C 8.61508907194858 12.8648954091369  8.99571307748966 12.2102221196063  9 11.5  C 9 10.3954305003384  8.10456949966159 9.5  7 9.5  C 5.89543050033842 9.5  5 10.3954305003384  5 11.5  Z M 14 8.5  C 14 7.39543050033841  13.1045694996616 6.5  12 6.5  L 12 5.5  C 12 2.73857625084603  9.76142374915397 0.499999999999999  7 0.499999999999999  C 4.23857625084603 0.499999999999999  2 2.73857625084603  2 5.5  L 2 6.5  C 0.895430500338413 6.5  0 7.39543050033841  0 8.5  L 0 15.5  C 0 16.6045694996616  0.895430500338413 17.5  2 17.5  L 12 17.5  C 13.1045694996616 17.5  14 16.6045694996616  14 15.5  L 14 8.5  Z M 4 6.5  L 4 5.5  C 4.00000003491559 3.84314577519667  5.34314577519667 2.50000006322027  7 2.50000006322027  C 8.65685424949238 2.50000006322027  10 3.84314581372789  10 5.50000006322027  L 10 6.5  L 4 6.5  Z M 12 8.5  L 12 15.5  L 2 15.5  L 2 8.5  L 12 8.5  Z " fill-rule="nonzero" fill="#a0cdff" stroke="none" transform="matrix(1 0 0 1 51 274 )" />
  </g>
</svg>