<?xml version="1.0" encoding="utf-8"?>
<svg version="1.1" xmlns:xlink="http://www.w3.org/1999/xlink" width="12px" height="8px" xmlns="http://www.w3.org/2000/svg">
  <g transform="matrix(1 0 0 1 -83 -210 )">
    <path d="M 6.833984375 6.725390625  C 6.60880671428925 6.94925820691815  6.30404735735025 7.07470190627124  5.9865234375 7.07421875  C 5.67004941139876 7.07481130054417  5.36626104993269 6.94985419186252  5.141796875 6.7267578125  L 0.510546875 2.0939453125  C 0.382212137973151 1.96561057547315  0.310114433441534 1.79155131937696  0.310114433441534 1.61005859375  C 0.310114433441534 1.23211955749462  0.616494557494621 0.925739433441535  0.994433593749999 0.925739433441535  C 1.17592631937695 0.925739433441535  1.34998557547315 0.997837137973152  1.4783203125 1.126171875  L 5.987890625 5.6359375  L 10.49765625 1.1263671875  C 10.6259909870268 0.99803245047315  10.800050243123 0.925934745941534  10.98154296875 0.925934745941534  C 11.3594820050054 0.925934745941534  11.6658621290585 1.23231486999462  11.6658621290585 1.61025390625  C 11.6658621290585 1.79174663187696  11.5937644245268 1.96580588797315  11.4654296875 2.094140625  L 6.833984375 6.725390625  Z " fill-rule="nonzero" fill="#42494f" stroke="none" transform="matrix(1 0 0 1 83 210 )" />
  </g>
</svg>