<?xml version="1.0" encoding="utf-8"?>
<svg version="1.1" xmlns:xlink="http://www.w3.org/1999/xlink" width="8px" height="16px" xmlns="http://www.w3.org/2000/svg">
  <g transform="matrix(1 0 0 1 -13 -57 )">
    <path d="M 0.249933250584112 1.54108983569588  L 6.10520693633177 8.00942562822165  L 0.252069421728972 14.4565537532216  C 0.104864299751844 14.6186217877051  0.0221414383789806 14.838621083242  0.0221414383789806 15.0680412371134  C 0.0221414383789806 15.5451827742029  0.372791579694556 15.9319824146232  0.805340449766356 15.9319824146232  C 1.01279604216299 15.9319824146232  1.21177683035755 15.8411888751224  1.35861147780374 15.6795287210052  L 7.76715620619159 8.61973490657217  C 7.91410507794375 8.4577559460397  7.99666919053233 8.23799372707878  7.99666919053233 8.00883652545103  C 7.99666919053233 7.77967932382329  7.91410507794375 7.55991710486236  7.76715620619159 7.3979381443299  L 1.35861147780374 0.319293073453606  C 1.21164075411177 0.157014392750395  1.01222059388741 0.0658340255196669  0.804272364193926 0.0658340255196669  C 0.371515089730405 0.0658340255196669  0.0206960032748397 0.452820028104672  0.0206960032748397 0.930191454574741  C 0.0206960032748397 1.15928895657709  0.103147494028533 1.37901538765964  0.249933250584112 1.54108983569588  Z " fill-rule="nonzero" fill="#333333" stroke="none" transform="matrix(1 0 0 1 13 57 )" />
  </g>
</svg>