<?xml version="1.0" encoding="utf-8"?>
<svg version="1.1" xmlns:xlink="http://www.w3.org/1999/xlink" width="15px" height="15px" xmlns="http://www.w3.org/2000/svg">
  <g transform="matrix(1 0 0 1 -26 -44 )">
    <path d="M 3 4.6551724137931  C 3 2.08419168103448  5.014718625 0  7.5 0  C 9.985281375 0  12 2.08419168103448  12 4.6551724137931  C 12 6.13812837931034  11.32969375 7.45912737931034  10.28541385 8.31161839655172  C 12.826935675 9.36360928448276  14.681977325 11.8130756896552  14.962983425 14.7415341982759  L 13.453580275 14.7413842758621  C 13.08450885 11.6795884137931  10.5597149 9.31034482758621  7.5 9.31034482758621  C 4.4402851 9.31034482758621  1.91549115 11.6795884137931  1.546419725 14.7413842758621  L 0.0370165675000003 14.7415341982759  C 0.31802268 11.8130756896552  2.173064325 9.36360928448276  4.714557325 8.31132548275862  C 3.67030625 7.45912737931034  3 6.13812837931034  3 4.6551724137931  Z M 10.5 4.6551724137931  C 10.5 2.94118525862069  9.15685425 1.55172413793103  7.5 1.55172413793103  C 5.84314575 1.55172413793103  4.5 2.94118525862069  4.5 4.6551724137931  C 4.5 6.36915956896552  5.84314575 7.75862068965517  7.5 7.75862068965517  C 9.15685425 7.75862068965517  10.5 6.36915956896552  10.5 4.6551724137931  Z " fill-rule="nonzero" fill="#ffffff" stroke="none" fill-opacity="0.996078431372549" transform="matrix(1 0 0 1 26 44 )" />
  </g>
</svg>