<?xml version="1.0" encoding="utf-8"?>
<svg version="1.1" xmlns:xlink="http://www.w3.org/1999/xlink" width="30px" height="30px" xmlns="http://www.w3.org/2000/svg">
  <g transform="matrix(1 0 0 1 -302 -142 )">
    <path d="M 29.9041193181818 15.0009987571023  C 29.9041193181818 23.2284268465909  23.21044921875 29.9220969460227  14.9833540482955 29.9220969460227  C 6.75625887784091 29.9220969460227  0.0625887784090906 23.2284268465909  0.0625887784090906 15.0013316761364  C 0.0625887784090906 6.77423650568181  6.75625887784091 0.0808993252840909  14.9833540482955 0.0808993252840909  C 15.6168989701705 0.0808993252840909  16.1312588778409 0.594926313920455  16.1312588778409 1.22880415482955  C 16.1312588778409 1.86268199573864  15.6172318892045 2.376708984375  14.9833540482955 2.376708984375  C 8.02201704545454 2.376708984375  2.35806551846591 8.04066051136364  2.35806551846591 15.0019975142045  C 2.35806551846591 21.9633345170455  8.02234996448864 27.6266202059659  14.9833540482955 27.6266202059659  C 21.9443581321023 27.6266202059659  27.608642578125 21.9626686789773  27.608642578125 15.0013316761364  C 27.608642578125 14.5755282315341  27.5863370028409 14.1553844105114  27.5443892045455 13.7399014559659  C 27.4801358309659 13.1093528053977  27.9388982599432 12.5457208806818  28.5694469105114 12.4814675071023  C 29.2136452414773 12.4112215909091  29.7636274857955 12.8776411576705  29.827880859375 13.5065252130682  C 29.8788174715909 13.9995783025568  29.9041193181818 14.4972922585227  29.9041193181818 15.0009987571023  Z " fill-rule="nonzero" fill="#ffffff" stroke="none" transform="matrix(1 0 0 1 302 142 )" />
  </g>
</svg>