<?xml version="1.0" encoding="utf-8"?>
<svg version="1.1" xmlns:xlink="http://www.w3.org/1999/xlink" width="11px" height="19px" xmlns="http://www.w3.org/2000/svg">
  <g transform="matrix(1 0 0 1 -312 -148 )">
    <path d="M 10.8468950749465 11.5675223214286  C 10.9489650249822 11.8785342261905  11 12.2107514880952  11 12.5641741071429  C 11 13.6456473214286  10.609386152748 14.576915922619  9.82815845824411 15.3579799107143  C 9.04693076374019 16.1390438988095  8.03211991434689 16.6214657738095  6.78372591006424 16.8052455357143  L 6.78372591006424 18.6607142857143  C 6.78372591006424 18.7596726190476  6.74839400428266 18.8409598214286  6.67773019271949 18.9045758928571  C 6.60706638115632 18.9681919642857  6.51677373304782 19  6.406852248394 19  L 4.8169164882227 19  C 4.71484653818701 19  4.62651677373305 18.9664248511905  4.55192719486081 18.8992745535714  C 4.47733761598858 18.8321242559524  4.44004282655246 18.7526041666667  4.44004282655246 18.6607142857143  L 4.44004282655246 16.8052455357143  C 3.92184154175589 16.7416294642857  3.42130620985011 16.632068452381  2.93843683083512 16.4765625  C 2.45556745182013 16.321056547619  2.05710206995004 16.1637834821429  1.74304068522484 16.0047433035714  C 1.42897930049964 15.845703125  1.13847251962884 15.6760602678571  0.87152034261242 15.4958147321429  C 0.604568165596003 15.3155691964286  0.422019985724483 15.1830357142857  0.323875802997859 15.0982142857143  C 0.225731620271235 15.0133928571429  0.157030692362598 14.9497767857143  0.117773019271949 14.9073660714286  C -0.0157030692362598 14.7589285714286  -0.0235546038543897 14.614025297619  0.0942184154175589 14.47265625  L 1.30728051391863 13.0412946428571  C 1.36224125624554 12.9706101190476  1.45253390435403 12.9281994047619  1.57815845824411 12.9140625  C 1.69593147751606 12.8999255952381  1.79014989293362 12.9317336309524  1.86081370449679 13.0094866071429  L 1.88436830835118 13.0306919642857  C 2.77159172019986 13.73046875  3.72555317630264 14.1722470238095  4.74625267665953 14.3560267857143  C 5.03675945753034 14.4125744047619  5.32726623840114 14.4408482142857  5.61777301927195 14.4408482142857  C 6.25374732334047 14.4408482142857  6.81316916488223 14.2888764880952  7.29603854389722 13.9849330357143  C 7.77890792291221 13.6809895833333  8.0203426124197 13.2498139880952  8.0203426124197 12.69140625  C 8.0203426124197 12.4934895833333  7.96145610278373 12.3061755952381  7.84368308351178 12.1294642857143  C 7.72591006423983 11.9527529761905  7.59439685938615 11.8043154761905  7.44914346895075 11.6841517857143  C 7.30389007851535 11.5639880952381  7.07423269093505 11.4314546130952  6.76017130620985 11.2865513392857  C 6.44610992148465 11.1416480654762  6.18700927908637 11.028552827381  5.98286937901499 10.947265625  C 5.77872947894361 10.865978422619  5.46466809421841 10.7511160714286  5.0406852248394 10.6026785714286  C 4.73447537473233 10.4895833333333  4.49304068522484 10.4012276785714  4.31638115631692 10.3376116071429  C 4.13972162740899 10.2739955357143  3.8982869379015 10.1803385416667  3.59207708779443 10.056640625  C 3.28586723768737 9.93294270833333  3.04050678087081 9.82338169642857  2.85599571734475 9.72795758928571  C 2.6714846538187 9.63253348214286  2.44967880085653 9.50706845238095  2.19057815845824 9.3515625  C 1.93147751605996 9.19605654761905  1.72144896502498 9.04585193452381  1.56049250535332 8.90094866071428  C 1.39953604568166 8.75604538690476  1.22876516773733 8.58286830357143  1.04817987152034 8.38141741071428  C 0.867594575303355 8.17996651785714  0.728229835831549 7.97498139880952  0.630085653104925 7.76646205357143  C 0.531941470378301 7.55794270833333  0.449500356887937 7.32291666666667  0.382762312633833 7.06138392857143  C 0.316024268379729 6.79985119047619  0.282655246252677 6.52418154761905  0.282655246252677 6.234375  C 0.282655246252677 5.25892857142857  0.667380442541042 4.40364583333333  1.43683083511777 3.66852678571428  C 2.2062812276945 2.93340773809524  3.20735189150607 2.45982142857143  4.44004282655246 2.24776785714286  L 4.44004282655246 0.339285714285715  C 4.44004282655246 0.247395833333332  4.47733761598858 0.167875744047619  4.55192719486081 0.100725446428572  C 4.62651677373305 0.0335751488095246  4.71484653818701 0  4.8169164882227 0  L 6.406852248394 0  C 6.51677373304782 0  6.60706638115632 0.0318080357142848  6.67773019271949 0.0954241071428565  C 6.74839400428266 0.159040178571428  6.78372591006424 0.240327380952379  6.78372591006424 0.339285714285715  L 6.78372591006424 2.20535714285714  C 7.23126338329764 2.24776785714286  7.66506067094932 2.32905505952381  8.08511777301927 2.44921875  C 8.50517487508922 2.56938244047619  8.84671663097787 2.68777901785714  9.10974304068523 2.80440848214286  C 9.37276945039258 2.92103794642857  9.6220556745182 3.05357142857143  9.8576017130621 3.20200892857143  C 10.093147751606 3.35044642857143  10.2462526766595 3.45293898809524  10.3169164882227 3.50948660714286  C 10.3875802997859 3.56603422619048  10.4464668094218 3.61551339285714  10.4935760171306 3.65792410714286  C 10.6270521056388 3.78515625  10.6466809421842 3.91945684523809  10.5524625267666 4.06082589285714  L 9.59850107066381 5.60881696428572  C 9.53568879371877 5.71484375  9.44539614561028 5.77139136904762  9.32762312633833 5.77845982142857  C 9.21770164168451 5.79966517857143  9.11170592433976 5.77492559523809  9.00963597430407 5.70424107142857  C 8.98608137044968 5.68303571428572  8.92915774446824 5.640625  8.83886509635974 5.57700892857143  C 8.74857244825125 5.51339285714286  8.59546752319772 5.41973586309524  8.37955032119914 5.29603794642857  C 8.16363311920057 5.1723400297619  7.93397573162027 5.05924479166667  7.69057815845824 4.95675223214286  C 7.44718058529622 4.85425967261905  7.15471092077088 4.76236979166667  6.81316916488223 4.68108258928572  C 6.47162740899358 4.59979538690476  6.13597430406852 4.55915178571428  5.80620985010707 4.55915178571428  C 5.06031406138473 4.55915178571428  4.45182012847966 4.71112351190476  3.98072805139186 5.01506696428572  C 3.50963597430407 5.31901041666667  3.27408993576017 5.71130952380952  3.27408993576017 6.19196428571428  C 3.27408993576017 6.37574404761905  3.30745895788722 6.5453869047619  3.37419700214133 6.70089285714286  C 3.44093504639543 6.85639880952381  3.55674518201285 7.00306919642857  3.72162740899358 7.14090401785714  C 3.8865096359743 7.27873883928572  4.04157744468237 7.39536830357143  4.18683083511777 7.49079241071428  C 4.33208422555318 7.58621651785714  4.55192719486081 7.6957775297619  4.84635974304069 7.81947544642857  C 5.14079229122056 7.94317336309524  5.37830121341899 8.03859747023809  5.55888650963597 8.10574776785714  C 5.73947180585296 8.17289806547619  6.01427551748751 8.27008928571428  6.38329764453962 8.39732142857143  C 6.7994289793005 8.53869047619047  7.11741613133476 8.65001860119047  7.3372591006424 8.73130580357143  C 7.55710206995004 8.81259300595238  7.85546038543897 8.93629092261905  8.23233404710921 9.10239955357143  C 8.60920770877944 9.26850818452381  8.90560314061385 9.41871279761905  9.12152034261242 9.55301339285714  C 9.33743754461099 9.68731398809524  9.58083511777302 9.86402529761905  9.8517130620985 10.0831473214286  C 10.122591006424 10.3022693452381  10.3306566738044 10.5266927083333  10.4759100642398 10.7564174107143  C 10.6211634546752 10.9861421130952  10.7448251249108 11.2565104166667  10.8468950749465 11.5675223214286  Z " fill-rule="nonzero" fill="#ffffff" stroke="none" transform="matrix(1 0 0 1 312 148 )" />
  </g>
</svg>