<?xml version="1.0" encoding="utf-8"?>
<svg version="1.1" xmlns:xlink="http://www.w3.org/1999/xlink" width="16px" height="11px" xmlns="http://www.w3.org/2000/svg">
  <g transform="matrix(1 0 0 1 -311 -388 )">
    <path d="M 2.145 6.197  C 2.145 5.61775  1.676 5.147  1.095 5.147  C 0.515750000000001 5.147  0.0450000000000017 5.61775  0.0450000000000017 6.197  L 0.0450000000000017 9.31375  C 0.0450000000000017 9.893  0.515750000000002 10.36375  1.095 10.36375  C 1.67425 10.36375  2.145 9.893  2.145 9.31375  L 2.145 6.197  Z M 8.6305 1.92525  C 8.6305 1.34425  8.15975 0.875250000000001  7.5805 0.875250000000001  C 7.00125 0.875250000000001  6.5305 1.346  6.5305 1.92525  L 6.5305 9.31375  C 6.5305 9.893  7.00125 10.36375  7.5805 10.36375  C 8.15975 10.36375  8.6305 9.893  8.6305 9.31375  L 8.6305 1.92525  Z M 15.18075 4.28775  C 15.18075 3.70675  14.71175 3.23775  14.13075 3.23775  C 13.5515 3.23775  13.08075 3.7085  13.08075 4.28775  L 13.08075 9.31375  C 13.08075 9.893  13.5515 10.36375  14.13075 10.36375  C 14.71 10.36375  15.18075 9.893  15.18075 9.31375  L 15.18075 4.28775  Z " fill-rule="nonzero" fill="#ffffff" stroke="none" transform="matrix(1 0 0 1 311 388 )" />
  </g>
</svg>