<?xml version="1.0" encoding="utf-8"?>
<svg version="1.1" xmlns:xlink="http://www.w3.org/1999/xlink" width="31px" height="31px" xmlns="http://www.w3.org/2000/svg">
  <g transform="matrix(1 0 0 1 -303 -381 )">
    <path d="M 30.63225 5.371  C 30.63225 2.8615  28.59 0.821  26.08225 1  L 5.35 1  C 2.8405 0.821  0.799999999999999 2.8615  1 5.371  L 1 20.533  C 0.799999999999999 23.0425  2.8405 25.083  5.35 25  L 26.08225 25  C 28.59175 25.083  30.63225 23.0425  30.63225 20.533  L 30.63225 5.371  Z M 28 5.371  L 28 20.533  C 28.53225 21.884  27.43325 22.983  26.08225 23  L 5.35 23  C 3.999 22.983  2.9 21.884  3 20.533  L 3 5.371  C 2.9 4.02  3.999 2.921  5.35 3  L 26.08225 3  C 27.43325 2.921  28.53225 4.02  28 5.371  Z M 23.403 29.164  C 23.403 28.58475  22.934 28.114  22.353 28  L 9.0775 28  C 8.49825 28.114  8.0275 28.58475  8.0275 29.164  C 8.0275 29.74325  8.49825 30.214  9.0775 30  L 22.353 30  C 22.93225 30.214  23.403 29.74325  23.403 29.164  Z " fill-rule="nonzero" fill="#ffffff" stroke="none" transform="matrix(1 0 0 1 303 381 )" />
  </g>
</svg>