<?xml version="1.0" encoding="utf-8"?>
<svg version="1.1" xmlns:xlink="http://www.w3.org/1999/xlink" width="12px" height="12px" xmlns="http://www.w3.org/2000/svg">
  <g transform="matrix(1 0 0 1 -166 -279 )">
    <path d="M 1.56057692307692 11.9870192307692  C 1.53461538461538 11.9899038461538  1.50865384615385 11.9913461538462  1.48413461538462 11.9913461538462  C 1.31394230769231 11.9913461538462  1.14951923076923 11.9235576923077  1.02836538461538 11.8024038461538  C 0.888461538461539 11.6625  0.820673076923077 11.4663461538462  0.84375 11.26875  C 1.12211538461538 8.96394230769231  2.17932692307692 6.78894230769231  3.82211538461538 5.14759615384615  L 7.54326923076923 1.42644230769231  C 8.21682692307692 0.752884615384615  9.31298076923077 0.752884615384615  9.98798076923077 1.42644230769231  L 11.4057692307692 2.84423076923077  C 12.0793269230769 3.51778846153846  12.0793269230769 4.61394230769231  11.4057692307692 5.28894230769231  L 7.68461538461538 9.01009615384615  C 6.04038461538462 10.6514423076923  3.86682692307692 11.7086538461538  1.56057692307692 11.9870192307692  Z M 9.07355769230769 2.33798076923077  C 8.98846153846154 2.25432692307692  8.87596153846154 2.21105769230769  8.76346153846154 2.21105769230769  C 8.65096153846154 2.21105769230769  8.53846153846154 2.25432692307692  8.45336538461538 2.33942307692308  L 4.73221153846154 6.06057692307692  C 3.50192307692308 7.29086538461539  2.64519230769231 8.86442307692308  2.27163461538462 10.5576923076923  C 3.96634615384615 10.1841346153846  5.53846153846154 9.32740384615385  6.77019230769231 8.09711538461539  L 10.4913461538462 4.37596153846154  C 10.6615384615385 4.20576923076923  10.6615384615385 3.92740384615385  10.4913461538462 3.75576923076923  L 9.07355769230769 2.33798076923077  Z M 10.95 4.83173076923077  L 10.9471153846154 4.83173076923077  L 10.95 4.83173076923077  Z " fill-rule="nonzero" fill="#ff0000" stroke="none" transform="matrix(1 0 0 1 166 279 )" />
  </g>
</svg>