<?xml version="1.0" encoding="utf-8"?>
<svg version="1.1" xmlns:xlink="http://www.w3.org/1999/xlink" width="14px" height="14px" xmlns="http://www.w3.org/2000/svg">
  <g transform="matrix(1 0 0 1 -144 -280 )">
    <path d="M 6.492682921875 0.7482926875  L 7.4917073125 0.7482926875  C 7.56067555337772 0.7482926875  7.616585359375 0.804202493497282  7.616585359375 0.873170734375  L 7.616585359375 6.367804875  L 13.111219515625 6.367804875  C 13.1801877565027 6.367804875  13.2360975625 6.42371468099728  13.2360975625 6.492682921875  L 13.2360975625 7.4917073125  C 13.2360975625 7.56067555337772  13.1801877565027 7.616585359375  13.111219515625 7.616585359375  L 7.616585359375 7.616585359375  L 7.616585359375 13.111219515625  C 7.616585359375 13.1801877565027  7.56067555337772 13.2360975625  7.4917073125 13.2360975625  L 6.492682921875 13.2360975625  C 6.42371468099728 13.2360975625  6.367804875 13.1801877565027  6.367804875 13.111219515625  L 6.367804875 7.616585359375  L 0.873170734375 7.616585359375  C 0.804202493497282 7.616585359375  0.7482926875 7.56067555337772  0.7482926875 7.4917073125  L 0.7482926875 6.492682921875  C 0.7482926875 6.42371468099728  0.804202493497282 6.367804875  0.873170734375 6.367804875  L 6.367804875 6.367804875  L 6.367804875 0.873170734375  C 6.367804875 0.804202493497282  6.42371468099728 0.7482926875  6.492682921875 0.7482926875  Z " fill-rule="nonzero" fill="#ff0000" stroke="none" transform="matrix(1 0 0 1 144 280 )" />
  </g>
</svg>