<?xml version="1.0" encoding="utf-8"?>
<svg version="1.1" xmlns:xlink="http://www.w3.org/1999/xlink" width="13px" height="10px" xmlns="http://www.w3.org/2000/svg">
  <g transform="matrix(1 0 0 1 -166 -283 )">
    <path d="M 9.52801339285714 3.30113636363636  C 9.40033482142857 3.42471590909091  9.23493303571428 3.48721590909091  9.06953125 3.48721590909091  C 8.90267857142857 3.48721590909091  8.73582589285714 3.42471590909091  8.60959821428571 3.29971590909091  C 8.58203125 3.27272727272727  8.55881696428571 3.24431818181818  8.53705357142857 3.21448863636364  C 8.38616071428571 3.05255681818182  7.69988839285714 2.390625  7.08761160714286 1.80823863636364  C 6.83080357142857 1.56392045454546  6.82354910714286 1.16193181818182  7.07310267857143 0.909090909090909  C 7.32265625 0.657670454545455  7.73325892857143 0.650568181818182  7.99151785714286 0.894886363636364  C 9.71808035714286 2.53409090909091  9.71808035714286 2.53409090909091  9.71953125 2.84517045454546  C 9.72098214285714 3.015625  9.65133928571429 3.18039772727273  9.52801339285714 3.30113636363636  Z M 8.50513392857143 3.16193181818182  C 8.48337053571429 3.12642045454546  8.46741071428572 3.08948863636364  8.45435267857143 3.05113636363636  C 8.46741071428572 3.09090909090909  8.48482142857143 3.12784090909091  8.50513392857143 3.16193181818182  Z M 12.1642857142857 9.34375  C 12.1642857142857 9.69318181818182  11.8741071428571 9.97869318181818  11.5157366071429 10  L 1.49296875 10  C 1.13459821428571 9.97869318181818  0.844419642857143 9.69460227272727  0.844419642857143 9.34375  C 0.844419642857143 8.99289772727273  1.13459821428571 8.70880681818182  1.49296875 8.70880681818182  L 11.5157366071429 8.70880681818182  C 11.8741071428571 8.70880681818182  12.1642857142857 8.99289772727273  12.1642857142857 9.34375  Z " fill-rule="nonzero" fill="#ff0000" stroke="none" transform="matrix(1 0 0 1 166 283 )" />
  </g>
</svg>