<?xml version="1.0" encoding="utf-8"?>
<svg version="1.1" xmlns:xlink="http://www.w3.org/1999/xlink" width="20px" height="20px" xmlns="http://www.w3.org/2000/svg">
  <g transform="matrix(1 0 0 1 -1362 -25 )">
    <path d="M 13.89931640625 9.6233203125  C 12.85515625 10.66748046875  11.466875 11.24251953125  9.990234375 11.24251953125  C 8.51357421875 11.24251953125  7.12529296875 10.66748046875  6.08115234375 9.6233203125  C 5.0369921875 8.57916015625  4.461953125 7.1908984375  4.461953125 5.71423828125  C 4.461953125 4.237578125  5.0369921875 2.84931640625  6.08115234375 1.80515625  C 7.12529296875 0.761015624999999  8.51357421875 0.185976562499999  9.990234375 0.185976562499999  C 11.46689453125 0.185976562499999  12.85515625 0.761015624999999  13.89931640625 1.80515625  C 14.94345703125 2.84931640625  15.51849609375 4.237578125  15.51849609375 5.71423828125  C 15.51849609375 7.1908984375  14.94345703125 8.5791796875  13.89931640625 9.6233203125  Z M 14.26849609375 5.71423828125  C 14.26849609375 3.3551953125  12.3492578125 1.4359765625  9.990234375 1.4359765625  C 7.631171875 1.4359765625  5.711953125 3.3551953125  5.711953125 5.71423828125  C 5.711953125 8.07328125  7.631171875 9.99251953125  9.990234375 9.99251953125  C 12.34927734375 9.99251953125  14.26849609375 8.07328125  14.26849609375 5.71423828125  Z M 2.05078125 19.31640625  C 2.05078125 19.66158203125  1.77095703125 19.94140625  1.42578125 19.94140625  C 1.08060546875 19.94140625  0.80078125 19.66158203125  0.80078125 19.31640625  C 0.80078125 18.08271484375  1.0425390625 16.88556640625  1.51935546875 15.75826171875  C 1.979765625 14.66974609375  2.63875 13.692265625  3.4780078125 12.8530078125  C 4.317265625 12.01375  5.29474609375 11.354765625  6.38328125 10.89435546875  C 7.5105859375 10.4175390625  8.7076953125 10.17578125  9.94140625 10.17578125  C 11.42552734375 10.17578125  12.89935546875 10.539765625  14.20357421875 11.22837890625  C 14.508828125 11.38955078125  14.625625 11.76763671875  14.464453125 12.07287109375  C 14.30326171875 12.378125  13.92515625 12.4948828125  13.61994140625 12.33375  C 12.494921875 11.73974609375  11.222890625 11.42578125  9.94140625 11.42578125  C 5.59048828125 11.42578125  2.05078125 14.96548828125  2.05078125 19.31640625  Z M 19.6262890625 16.00302734375  C 19.6262890625 16.348203125  19.34646484375 16.62802734375  19.0012890625 16.62802734375  L 13.4929296875 16.62802734375  C 13.14775390625 16.62802734375  12.8679296875 16.348203125  12.8679296875 16.00302734375  C 12.8679296875 15.6578515625  13.14775390625 15.37802734375  13.4929296875 15.37802734375  L 19.0012890625 15.37802734375  C 19.34646484375 15.37802734375  19.6262890625 15.6578515625  19.6262890625 16.00302734375  Z M 16.87212890625 18.7572265625  C 16.87212890625 19.10240234375  16.59228515625 19.3822265625  16.24712890625 19.3822265625  C 15.901953125 19.3822265625  15.62212890625 19.10240234375  15.62212890625 18.7572265625  L 15.62212890625 13.2488671875  C 15.62212890625 12.90369140625  15.901953125 12.6238671875  16.24712890625 12.6238671875  C 16.5923046875 12.6238671875  16.87212890625 12.90369140625  16.87212890625 13.2488671875  L 16.87212890625 18.7572265625  Z " fill-rule="nonzero" fill="#ffffff" stroke="none" transform="matrix(1 0 0 1 1362 25 )" />
  </g>
</svg>