<?xml version="1.0" encoding="utf-8"?>
<svg version="1.1" xmlns:xlink="http://www.w3.org/1999/xlink" width="16px" height="16px" xmlns="http://www.w3.org/2000/svg">
  <g transform="matrix(1 0 0 1 -21 -734 )">
    <path d="M 16 8.004  C 16 5.864  15.17 3.854  13.66 2.344  C 12.15 0.834  10.14 0.004  8 0.004  C 5.86 0.004  3.85 0.834  2.34 2.344  C -0.78 5.464  -0.78 10.534  2.34 13.654  C 3.85 15.164  5.86 15.994  8 15.994  C 10.14 15.994  12.15 15.164  13.66 13.654  C 15.17 12.144  16 10.144  16 8.004  Z M 14.4 8.014  C 14.4 9.724  13.73 11.324  12.53 12.534  C 11.32 13.734  9.71 14.404  8 14.404  C 6.29 14.404  4.68 13.734  3.47 12.534  C 0.97 10.034  0.97 5.974  3.47 3.484  C 4.68 2.274  6.29 1.614  8 1.614  C 9.71 1.614  11.32 2.284  12.53 3.484  C 13.74 4.694  14.4 6.304  14.4 8.014  Z M 12 8.004  C 12 7.564  11.64 7.204  11.2 7.204  L 8.8 7.204  L 8.8 4.804  C 8.8 4.364  8.44 4.004  8 4.004  C 7.56 4.004  7.2 4.364  7.2 4.804  L 7.2 7.204  L 4.8 7.204  C 4.36 7.204  4 7.564  4 8.004  C 4 8.444  4.36 8.804  4.8 8.804  L 7.2 8.804  L 7.2 11.204  C 7.2 11.644  7.56 12.004  8 12.004  C 8.44 12.004  8.8 11.644  8.8 11.204  L 8.8 8.804  L 11.2 8.804  C 11.64 8.804  12 8.444  12 8.004  Z " fill-rule="nonzero" fill="#ffffff" stroke="none" transform="matrix(1 0 0 1 21 734 )" />
  </g>
</svg>