<?xml version="1.0" encoding="utf-8"?>
<svg version="1.1" xmlns:xlink="http://www.w3.org/1999/xlink" width="16px" height="16px" xmlns="http://www.w3.org/2000/svg">
  <g transform="matrix(1 0 0 1 -1496 -26 )">
    <path d="M 15.5 8  C 15.4944912080429 3.86014833963489  12.1398516603651 0.505508791957058  8 0.5  C 3.85786437626905 0.5  0.499999999999998 3.85786437626905  0.499999999999998 8  C 0.499999999999998 12.142135623731  3.85786437626905 15.5  8 15.5  C 12.1421356237309 15.5  15.5 12.142135623731  15.5 8  Z M 14.5 8  C 14.4944933632991 11.5875674746878  11.5875674746878 14.4944933632991  8 14.5  C 4.41014912609984 14.5  1.5 11.5898508739002  1.5 8  C 1.5 4.41014912609984  4.41014912609984 1.5  8 1.5  C 11.5898508739002 1.5  14.5 4.41014912609984  14.5 8  Z " fill-rule="nonzero" fill="#ffffff" stroke="none" transform="matrix(1 0 0 1 1496 26 )" />
  </g>
</svg>