<?xml version="1.0" encoding="utf-8"?>
<!-- Generator: Adobe Illustrator 23.0.6, SVG Export Plug-In . SVG Version: 6.00 Build 0)  -->
<svg version="1.1" id="图层_1" xmlns="http://www.w3.org/2000/svg" xmlns:xlink="http://www.w3.org/1999/xlink" x="0px" y="0px"
	 viewBox="0 0 1024 1024" style="enable-background:new 0 0 1024 1024;" xml:space="preserve">
<style type="text/css">
	.st0{opacity:0.5;fill:url(#SVGID_1_);}
	.st1{fill:#FFFFFF;}
	.st2{fill:url(#SVGID_2_);}
	.st3{fill:#AEDCFF;}
	.st4{fill:url(#SVGID_3_);}
	.st5{fill:#236FFB;}
</style>
<g>
	<g>
		<linearGradient id="SVGID_1_" gradientUnits="userSpaceOnUse" x1="680.7061" y1="59.4251" x2="680.7061" y2="677.7788">
			<stop  offset="0" style="stop-color:#39C2FF"/>
			<stop  offset="1" style="stop-color:#236FFB;stop-opacity:0"/>
		</linearGradient>
		<path class="st0" d="M914.8,681.6H446.6c-18.6,0-33.8-15.1-33.8-33.8V249.4c0-6.7,2-13.3,5.8-18.9L529.1,66.7
			c6.3-9.3,16.8-14.9,28-14.9h246c11.2,0,21.6,5.5,27.9,14.7l111.7,163.9c3.8,5.6,5.9,12.2,5.9,19v398.3
			C948.6,666.4,933.5,681.6,914.8,681.6z"/>
		<path class="st1" d="M886.4,239.1H475.1l85.7-130.7c4.9-7.5,13.3-12.1,22.4-12.1h195.2c9,0,17.4,4.5,22.4,12.1L886.4,239.1z"/>
		<path class="st1" d="M738,457.2h-41.1v-33.2H738c9,0,16.2-7.3,16.2-16.2s-7.3-16.2-16.2-16.2h-23.6l30.2-30.2
			c6.3-6.3,6.3-16.6,0-22.9c-6.3-6.3-16.6-6.3-22.9,0l-41.4,41.4l-40.6-40.6c-6.3-6.3-16.6-6.3-22.9,0c-6.3,6.3-6.3,16.6,0,22.9
			l29.3,29.3h-22.7c-9,0-16.2,7.3-16.2,16.2s7.3,16.2,16.2,16.2h41.1v33.2h-41.1c-9,0-16.2,7.3-16.2,16.2s7.3,16.2,16.2,16.2h41.1
			V516c0,9,7.3,16.2,16.2,16.2s16.2-7.3,16.2-16.2v-26.3H738c9,0,16.2-7.3,16.2-16.2S747,457.2,738,457.2z"/>
	</g>
	<linearGradient id="SVGID_2_" gradientUnits="userSpaceOnUse" x1="104.5162" y1="216.4638" x2="519.8489" y2="966.5059">
		<stop  offset="0" style="stop-color:#39C2FF"/>
		<stop  offset="1" style="stop-color:#236FFB"/>
	</linearGradient>
	<path class="st2" d="M499.7,972.8H104.3c-22.2,0-40.1-18-40.1-40.1v-719c0-22.2,18-40.1,40.1-40.1h395.4c22.2,0,40.1,18,40.1,40.1
		v719C539.8,954.8,521.9,972.8,499.7,972.8z"/>
	<rect x="94.7" y="269.3" class="st3" width="413" height="593.8"/>
	<path class="st3" d="M344.6,230.6h-86.9c-4.7,0-8.5-3.8-8.5-8.5v0c0-4.7,3.8-8.5,8.5-8.5h86.9c4.7,0,8.5,3.8,8.5,8.5v0
		C353.1,226.8,349.3,230.6,344.6,230.6z"/>
	<circle class="st3" cx="303" cy="915.6" r="33.2"/>
	<g>
		
			<linearGradient id="SVGID_3_" gradientUnits="userSpaceOnUse" x1="1003.8442" y1="621.8459" x2="815.0057" y2="819.2035" gradientTransform="matrix(1.1591 0.129 0.129 1.1591 -346.6596 -262.3566)">
			<stop  offset="0" style="stop-color:#236FFB"/>
			<stop  offset="1" style="stop-color:#236FFB;stop-opacity:0"/>
		</linearGradient>
		<polygon class="st4" points="912.3,623.7 726,810.1 680.7,764.8 867,578.4 		"/>
		
			<rect x="834.8" y="591.9" transform="matrix(0.7071 -0.7071 0.7071 0.7071 -187.3128 795.679)" class="st5" width="64" height="64"/>
	</g>
</g>
</svg>
