
<svg xmlns="http://www.w3.org/2000/svg" version="1.1" xmlns:xlink="http://www.w3.org/1999/xlink" preserveAspectRatio="none" x="0px" y="0px" width="1024px" height="1024px" viewBox="0 0 1024 1024">
<defs>
<g id="Layer0_0_MEMBER_0_MEMBER_0_MEMBER_0_FILL">
<path fill="#96A670" stroke="none" d="
M 311 426.4
L 299.1 419.5 299.1 424.95 311 431.85 311 426.4 Z"/>
</g>

<g id="Layer0_0_MEMBER_0_MEMBER_1_MEMBER_0_FILL">
<path fill="#5B7A43" stroke="none" d="
M 309.15 426.5
L 299.15 420.65 299.2 426.15 309.2 431.95 309.15 426.5 Z"/>
</g>

<g id="Layer0_0_MEMBER_0_MEMBER_2_MEMBER_0_FILL">
<path fill="#68734E" stroke="none" d="
M 299.1 424.95
L 299.1 419.5 273.2 434.45 273.2 439.9 299.1 424.95 Z"/>
</g>

<g id="Layer0_0_MEMBER_0_MEMBER_3_MEMBER_0_FILL">
<path fill="#40542F" stroke="none" d="
M 299.2 426.15
L 299.15 420.65 275.4 434.4 275.4 439.9 299.2 426.15 Z"/>
</g>

<g id="Layer0_0_MEMBER_0_MEMBER_4_MEMBER_0_FILL">
<path fill="#96A670" stroke="none" d="
M 304.7 425.1
L 301.65 423.35 301.65 428.8 304.75 430.6 304.7 425.1 Z"/>
</g>

<g id="Layer0_0_MEMBER_0_MEMBER_5_MEMBER_0_FILL">
<path fill="#68734E" stroke="none" d="
M 295.95 428.95
L 295.95 423.45 279.85 432.75 279.85 438.25 295.95 428.95 Z"/>
</g>

<g id="Layer0_0_MEMBER_0_MEMBER_6_MEMBER_0_FILL">
<path fill="#68734E" stroke="none" d="
M 289.65 428.75
L 289.25 429 289.25 434.5 289.65 434.25 289.65 428.75 Z"/>
</g>

<g id="Layer0_0_MEMBER_0_MEMBER_7_MEMBER_0_FILL">
<path fill="#96A670" stroke="none" d="
M 290.3 429.15
L 289.65 428.75 289.65 434.25 290.35 434.65 290.3 429.15 Z"/>
</g>

<g id="Layer0_0_MEMBER_0_MEMBER_8_MEMBER_0_FILL">
<path fill="#5B7A43" stroke="none" d="
M 289.9 429.4
L 289.25 429 289.25 434.5 289.9 434.85 289.9 429.4 Z"/>
</g>

<g id="Layer0_0_MEMBER_0_MEMBER_9_MEMBER_0_FILL">
<path fill="#5A7842" stroke="none" d="
M 289.85 430.2
L 289.25 430.05 289.25 435.5 289.85 435.7 289.85 430.2 Z"/>
</g>

<g id="Layer0_0_MEMBER_0_MEMBER_10_MEMBER_0_FILL">
<path fill="#80BE63" stroke="none" d="
M 301.65 423.35
Q 300.4 424.05 298.75 424.1 297.1 424.15 295.95 423.45
L 279.85 432.75
Q 280.9 433.35 280.9 434.25 280.95 435.15 279.95 435.85
L 283.1 437.65
Q 284.25 437.1 285.75 437.1 287.25 437.1 288.3 437.65
L 304.4 428.35
Q 303.35 427.65 303.45 426.75 303.5 425.8 304.7 425.1
L 301.65 423.35
M 296.1 428.4
Q 297.65 429.25 297.65 430.55 297.65 431.8 296.1 432.7 294.55 433.6 292.35 433.6 290.15 433.6 288.6 432.7 287.05 431.8 287.05 430.55 287.05 429.25 288.6 428.4 290.2 427.45 292.35 427.45 294.55 427.45 296.1 428.4 Z"/>
</g>

<g id="Layer0_0_MEMBER_0_MEMBER_11_MEMBER_0_FILL">
<path fill="#5B7A43" stroke="none" d="
M 283.1 437.65
L 279.95 435.85 280 441.3 283.1 443.1 283.1 437.65 Z"/>
</g>

<g id="Layer0_0_MEMBER_0_MEMBER_12_MEMBER_0_FILL">
<path fill="#40542F" stroke="none" d="
M 304.4 428.35
L 288.3 437.65 288.3 443.15 304.4 433.85 304.4 428.35 Z"/>
</g>

<g id="Layer0_0_MEMBER_0_MEMBER_13_MEMBER_0_FILL">
<path fill="#F0E6C1" stroke="none" d="
M 285.4 440.2
L 309.15 426.5 299.15 420.65 275.4 434.4 285.4 440.2
M 288.3 437.65
Q 287.25 437.1 285.75 437.1 284.25 437.1 283.1 437.65
L 279.95 435.85
Q 280.95 435.15 280.9 434.25 280.9 433.35 279.85 432.75
L 295.95 423.45
Q 297.1 424.15 298.75 424.1 300.4 424.05 301.65 423.35
L 304.7 425.1
Q 303.5 425.8 303.45 426.75 303.35 427.65 304.4 428.35
L 288.3 437.65 Z"/>
</g>

<g id="Layer0_0_MEMBER_0_MEMBER_14_MEMBER_0_FILL">
<path fill="#68734E" stroke="none" d="
M 309.15 426.5
L 285.4 440.2 285.4 445.7 309.2 431.95 309.15 426.5 Z"/>
</g>

<g id="Layer0_0_MEMBER_0_MEMBER_15_MEMBER_0_FILL">
<path fill="#96A670" stroke="none" d="
M 275.4 434.4
L 275.4 439.9 285.4 445.7 285.4 440.2 275.4 434.4 Z"/>
</g>

<g id="Layer0_0_MEMBER_0_MEMBER_16_MEMBER_0_FILL">
<path fill="#80BE63" stroke="none" d="
M 311 426.4
L 299.1 419.5 273.2 434.45 285.1 441.35 311 426.4
M 299.15 420.65
L 309.15 426.5 285.4 440.2 275.4 434.4 299.15 420.65 Z"/>
</g>

<g id="Layer0_0_MEMBER_0_MEMBER_17_MEMBER_0_FILL">
<path fill="#A7B97D" stroke="none" d="
M 296.1 432.7
Q 297.65 431.8 297.65 430.55 297.65 429.25 296.1 428.4 294.55 427.45 292.35 427.45 290.2 427.45 288.6 428.4 287.05 429.25 287.05 430.55 287.05 431.8 288.6 432.7 290.15 433.6 292.35 433.6 294.55 433.6 296.1 432.7
M 293.95 431.35
Q 294.45 431.1 294.65 430.6
L 295.25 430.8
Q 295.15 431.15 294.5 431.55
L 295.2 431.95 294.8 432.2 294.1 431.8
Q 292.8 432.25 291.85 431.75 291.1 431.25 291.7 430.45 292.2 429.75 291.75 429.5 291.2 429.15 290.45 429.55 289.95 429.85 289.85 430.2
L 289.25 430.05
Q 289.3 429.75 289.9 429.4
L 289.25 429 289.65 428.75 290.3 429.15
Q 291.45 428.7 292.45 429.2 293.15 429.65 292.45 430.5 292 431.1 292.5 431.45 293.15 431.8 293.95 431.35 Z"/>
</g>

<g id="Layer0_0_MEMBER_0_MEMBER_18_MEMBER_0_FILL">
<path fill="#40542F" stroke="none" d="
M 311 426.4
L 285.1 441.35 285.1 446.8 311 431.85 311 426.4 Z"/>
</g>

<g id="Layer0_0_MEMBER_0_MEMBER_19_MEMBER_0_FILL">
<path fill="#5B7A43" stroke="none" d="
M 273.2 434.45
L 273.2 439.9 285.1 446.8 285.1 441.35 273.2 434.45 Z"/>
</g>

<g id="Layer0_0_MEMBER_0_MEMBER_20_MEMBER_0_FILL">
<path fill="#EFE7BE" stroke="none" d="
M 311.75 426.4
L 299.15 419.05 272.5 434.45 285.15 441.8 311.75 426.4
M 299.1 419.5
L 311 426.4 285.1 441.35 273.2 434.45 299.1 419.5 Z"/>
</g>

<g id="Layer0_0_MEMBER_0_MEMBER_21_MEMBER_0_FILL">
<path fill="#66884B" stroke="none" d="
M 294.65 430.6
Q 294.45 431.1 293.95 431.35 293.15 431.8 292.5 431.45 292 431.1 292.45 430.5 293.15 429.65 292.45 429.2 291.45 428.7 290.3 429.15
L 289.65 428.75 289.25 429 289.9 429.4
Q 289.3 429.75 289.25 430.05
L 289.85 430.2
Q 289.95 429.85 290.45 429.55 291.2 429.15 291.75 429.5 292.2 429.75 291.7 430.45 291.1 431.25 291.85 431.75 292.8 432.25 294.1 431.8
L 294.8 432.2 295.2 431.95 294.5 431.55
Q 295.15 431.15 295.25 430.8
L 294.65 430.6 Z"/>
</g>

<g id="Layer0_0_MEMBER_0_MEMBER_22_MEMBER_0_FILL">
<path fill="#908B70" stroke="none" d="
M 311.75 426.4
L 285.15 441.8 285.15 447.25 311.8 431.9 311.75 426.4 Z"/>
</g>

<g id="Layer0_0_MEMBER_0_MEMBER_23_MEMBER_0_FILL">
<path fill="#CAC19E" stroke="none" d="
M 272.5 434.45
L 272.5 439.9 285.15 447.25 285.15 441.8 272.5 434.45 Z"/>
</g>

<g id="Layer0_0_MEMBER_0_MEMBER_24_FILL">
<path fill="#CAC19E" stroke="none" d="
M 285.15 444.75
L 285.15 441.8 272.5 434.45 272.5 437.5 285.15 444.75 Z"/>
</g>

<g id="Layer0_0_MEMBER_0_MEMBER_25_FILL">
<path fill="#908B70" stroke="none" d="
M 311.75 426.4
L 285.15 441.8 285.15 444.75 311.8 429.2 311.75 426.4 Z"/>
</g>

<g id="Layer0_0_MEMBER_0_MEMBER_26_FILL">
<path fill="#D1A35E" stroke="none" d="
M 294.7 441.8
L 302.35 437.35 302.35 431.85 294.65 436.3 294.7 441.8 Z"/>
</g>

<g id="Layer0_0_MEMBER_0_MEMBER_27_FILL">
<path fill="#FDD17B" stroke="none" d="
M 294.65 436.3
L 302.35 431.85 289.65 424.55 282 428.9 294.65 436.3 Z"/>
</g>

<g id="Layer0_0_MEMBER_0_MEMBER_28_FILL">
<path fill="#F6CE93" stroke="none" d="
M 295.5 441.3
L 301.5 437.8 301.5 432.35 295.5 435.8 295.5 441.3 Z"/>
</g>

<g id="Layer0_0_MEMBER_0_MEMBER_29_FILL">
<path fill="#FEDEA9" stroke="none" d="
M 295.5 435.8
L 301.5 432.35 288.85 425 282.8 428.45 295.5 435.8 Z"/>
</g>

<g id="Layer0_0_MEMBER_1_FILL">
<path fill="#000000" fill-opacity="0.09803921568627451" stroke="none" d="
M 0 37.85
L 18.1 48.35 83.6 10.5 65.55 0 0 37.85 Z"/>
</g>

<g id="Layer0_0_MEMBER_2_MEMBER_0_MEMBER_0_FILL">
<path fill="#90C2FD" stroke="none" d="
M 23.45 27.3
L 23.5 6.8 11.8 13.6 11.75 34.1 23.45 27.3 Z"/>
</g>

<g id="Layer0_0_MEMBER_2_MEMBER_1_MEMBER_0_FILL">
<path fill="#4899F7" stroke="none" d="
M 11.75 34.1
L 11.8 13.6 0.05 6.8 0 27.3 11.75 34.1 Z"/>
</g>

<g id="Layer0_0_MEMBER_2_MEMBER_2_MEMBER_0_FILL">
<path fill="#C6DFFD" stroke="none" d="
M 11.8 13.6
L 23.5 6.8 11.75 0 0.05 6.8 11.8 13.6 Z"/>
</g>

<g id="Layer0_0_MEMBER_3_MEMBER_0_MEMBER_0_FILL">
<path fill="#D12775" stroke="none" d="
M 23.45 19.1
L 23.5 6.8 11.8 13.6 11.75 25.9 23.45 19.1 Z"/>
</g>

<g id="Layer0_0_MEMBER_3_MEMBER_1_MEMBER_0_FILL">
<path fill="#BF2474" stroke="none" d="
M 11.75 25.9
L 11.8 13.6 0.05 6.8 0 19.1 11.75 25.9 Z"/>
</g>

<g id="Layer0_0_MEMBER_3_MEMBER_2_MEMBER_0_FILL">
<path fill="#FD81B7" stroke="none" d="
M 11.8 13.6
L 23.5 6.8 11.75 0 0.05 6.8 11.8 13.6 Z"/>
</g>

<g id="Layer0_0_MEMBER_4_MEMBER_0_MEMBER_0_FILL">
<path fill="#FDBB2C" stroke="none" d="
M 23.5 35.5
L 23.6 6.8 11.9 13.6 11.8 42.3 23.5 35.5 Z"/>
</g>

<g id="Layer0_0_MEMBER_4_MEMBER_1_MEMBER_0_FILL">
<path fill="#FD9D28" stroke="none" d="
M 11.8 42.3
L 11.9 13.6 0.1 6.8 0 35.5 11.8 42.3 Z"/>
</g>

<g id="Layer0_0_MEMBER_4_MEMBER_2_MEMBER_0_FILL">
<path fill="#FED831" stroke="none" d="
M 11.9 13.6
L 23.6 6.8 11.8 0 0.1 6.8 11.9 13.6 Z"/>
</g>

<g id="Layer0_0_MEMBER_5_MEMBER_0_MEMBER_0_FILL">
<path fill="#6E9A1F" stroke="none" d="
M 23.5 15
L 23.5 6.8 11.8 13.6 11.8 21.8 23.5 15 Z"/>
</g>

<g id="Layer0_0_MEMBER_5_MEMBER_1_MEMBER_0_FILL">
<path fill="#638319" stroke="none" d="
M 11.8 21.8
L 11.8 13.6 0.05 6.8 0 15 11.8 21.8 Z"/>
</g>

<g id="Layer0_0_MEMBER_5_MEMBER_2_MEMBER_0_FILL">
<path fill="#79B827" stroke="none" d="
M 11.8 13.6
L 23.5 6.8 11.75 0 0.05 6.8 11.8 13.6 Z"/>
</g>

<g id="Layer0_0_MEMBER_6_MEMBER_0_FILL">
<path fill="#FED831" stroke="none" d="
M 366.95 429.05
L 366.95 432.05
Q 366.85 434.75 370.25 436.65
L 371.05 437.1 371.35 437.2 371.85 437.45 371.9 437.45 373.1 437.85 373.2 437.9 373.5 437.95 375.5 438.4 375.75 438.4 376.6 438.5 376.85 438.5 377.4 438.55 379 438.55 380.1 438.45 380.15 438.45 381.45 438.3 381.5 438.3 383.5 437.8 383.65 437.75 383.8 437.65 385.05 437.2 386.2 436.6 386.9 436.15 387.55 435.6 387.65 435.55 388.05 435.15 388.1 435.05 388.35 434.8 388.5 434.6 388.55 434.5 388.8 434.1 388.8 434.05 389.1 433.5 389.1 433.4 389.2 433.1 389.25 432.85 389.25 432.8 389.35 432.2 389.35 429 389.3 429.3 389.3 429.65 388.85 430.9 388.55 431.4 388.1 431.9 388.05 432 387.6 432.5 386.1 433.55 385.05 434.1 384.7 434.2 382.95 434.85 380.2 435.35 379.8 435.35
Q 379.55 435.4 379 435.4
L 378.55 435.45 375.75 435.3 371.9 434.35 370.25 433.55
Q 367.010546875 431.6357421875 366.95 429.05 Z"/>
</g>

<g id="Layer0_0_MEMBER_6_MEMBER_1_FILL">
<path fill="#FED764" stroke="none" d="
M 366.95 429.05
L 366.95 431
Q 366.95 433.7 370.25 435.55
L 371.05 436 371.35 436.1 371.85 436.35 371.9 436.35 373.1 436.8 373.2 436.8 373.5 436.9 375.5 437.3 375.75 437.3 376.3 437.4 376.85 437.4 377.4 437.45 380.1 437.4 380.15 437.35 381.45 437.2 381.5 437.2 383.5 436.7 385.05 436.1 386.2 435.5 387.25 434.8 387.55 434.5 387.65 434.45 388.05 434.05 388.1 433.95 388.35 433.7 388.5 433.5 388.55 433.4 388.8 433.05 388.8 432.95 389.1 432.4 389.1 432.3 389.2 432 389.25 431.75 389.25 431.7 389.35 431.1 389.35 429.05 389.3 429.3 389.3 429.65 388.85 430.9 388.55 431.4 388.1 431.9 388.05 432 387.6 432.5 386.1 433.55 385.05 434.1 384.7 434.2 382.95 434.85 380.2 435.35 379.8 435.35
Q 379.55 435.4 379 435.4
L 378.55 435.45 375.75 435.3 371.9 434.35 370.25 433.55
Q 367.030078125 431.647265625 366.95 429.05 Z"/>
</g>

<g id="Layer0_0_MEMBER_6_MEMBER_2_FILL">
<path fill="#FD9D28" stroke="none" d="
M 366.95 429.05
L 366.95 431
Q 366.95 433.7 370.25 435.55
L 371.05 436 371.35 436.1 371.85 436.35 371.9 436.35 373.1 436.8 373.2 436.8 373.5 436.9 375.5 437.3 375.75 437.3 376.3 437.4 376.85 437.4 377.4 437.45 380.1 437.4 380.15 437.35 381.45 437.2 381.5 437.2 383.5 436.7 385.05 436.1 386.2 435.5 387.25 434.8 387.55 434.5 387.65 434.45 388.05 434.05 388.1 433.95 388.35 433.7 388.5 433.5 388.55 433.4 388.8 433.05 388.8 432.95 389.1 432.4 389.1 432.3 389.2 432 389.25 431.75 389.25 431.7 389.35 431.1 389.35 429.05 389.3 429.3 389.3 429.65 388.85 430.9 388.55 431.4 388.1 431.9 388.05 432 387.6 432.5 386.1 433.55 385.05 434.1 384.7 434.2 382.95 434.85 380.2 435.35 379.8 435.35
Q 379.55 435.4 379 435.4
L 378.55 435.45 375.75 435.3 371.9 434.35 370.25 433.55
Q 367.030078125 431.647265625 366.95 429.05 Z"/>
</g>

<g id="Layer0_0_MEMBER_6_MEMBER_3_MEMBER_0_FILL">
<path fill="#F0B33C" stroke="none" d="
M 386.05 424.35
Q 382.75 422.5 378.1 422.5 373.45 422.5 370.2 424.35 366.95 426.25 366.95 428.95 366.95 431.65 370.25 433.55 373.55 435.45 378.2 435.45 382.85 435.45 386.1 433.55 389.35 431.65 389.35 428.95 389.35 426.25 386.05 424.35 Z"/>
</g>

<g id="Layer0_0_MEMBER_6_MEMBER_4_MEMBER_0_FILL">
<path fill="#FED764" stroke="none" d="
M 386.05 424.35
Q 382.75 422.5 378.1 422.5 373.45 422.5 370.2 424.35 366.95 426.25 366.95 428.95 366.95 431.65 370.25 433.55 373.55 435.45 378.2 435.45 382.85 435.45 386.1 433.55 389.35 431.65 389.35 428.95 389.35 426.25 386.05 424.35 Z"/>
</g>

<g id="Layer0_0_MEMBER_6_MEMBER_5_MEMBER_0_FILL">
<path fill="#FED831" stroke="none" d="
M 386.05 424.9
Q 382.75 423.05 378.1 423.05 373.45 423.05 370.2 424.9 366.95 426.8 366.95 429.25 366.95 431.65 370.25 433.55 373.55 435.45 378.2 435.45 382.85 435.45 386.1 433.55 389.35 431.65 389.35 429.25 389.35 426.8 386.05 424.9 Z"/>
</g>

<g id="Layer0_0_MEMBER_6_MEMBER_6_FILL">
<path fill="#FEEC99" stroke="none" d="
M 366.95 428.95
Q 367.2 426.65 370.2 424.9 373.45 423.05 378.1 423.05 382.75 423.05 386.05 424.9 389.15 426.7 389.3 428.95 389.55 426.4 386.05 424.35 382.75 422.5 378.1 422.5 373.45 422.5 370.2 424.35 366.7 426.4 366.95 428.95 Z"/>
</g>

<g id="Layer0_0_MEMBER_6_MEMBER_7_MEMBER_0_FILL">
<path fill="#DC822E" stroke="none" d="
M 384.4 425.35
Q 381.8 423.8 378.1 423.8 374.45 423.8 371.85 425.35 369.25 426.85 369.25 429 369.3 431.1 371.9 432.6 374.5 434.1 378.15 434.1 381.8 434.1 384.4 432.6 387 431.1 387 429 387 426.85 384.4 425.35 Z"/>
</g>

<g id="Layer0_0_MEMBER_6_MEMBER_8_MEMBER_0_FILL">
<path fill="#FDB02B" stroke="none" d="
M 384.15 425.65
Q 381.65 424.2 378.1 424.2 374.6 424.2 372.1 425.65 369.6 427.15 369.65 429.25 369.65 431.4 372.15 432.85 374.65 434.35 378.15 434.35 381.7 434.35 384.15 432.85 386.65 431.4 386.65 429.25 386.65 427.15 384.15 425.65 Z"/>
</g>

<g id="Layer0_0_MEMBER_6_MEMBER_9_MEMBER_0_FILL">
<path fill="#FED764" stroke="none" d="
M 383.8 426.2
L 383 425.7 381.75 426.45
Q 379.55 425.55 377.8 426.55 376.4 427.3 377.7 429 378.6 430.15 377.65 430.7 377.15 431.05 376.35 431 375.6 430.95 374.9 430.55 373.95 430 373.65 429.2
L 372.5 429.5
Q 372.65 430.2 373.85 430.95
L 372.6 431.65 373.4 432.15 374.7 431.35
Q 375.8 431.8 376.95 431.8 378.05 431.75 378.85 431.3 380.35 430.4 379.15 428.85 378.65 428.1 378.65 427.75 378.6 427.35 379.05 427.1 380.15 426.45 381.45 427.25 382.35 427.75 382.6 428.4
L 383.75 428.1
Q 383.45 427.45 382.55 426.9
L 383.8 426.2 Z"/>
</g>

<g id="Layer0_0_MEMBER_7_MEMBER_0_FILL">
<path fill="#FED831" stroke="none" d="
M 384.7 426.8
L 384.7 426.75 384.75 426.4 384.8 426.2 384.8 422.95 384.75 423.3 384.75 423.65 384.3 424.9 384 425.35 383.95 425.45 383.55 425.9 383.5 426 383.05 426.45 382 427.25 380.5 428.05 379.3 428.55 376.9 429.15 374.45 429.4 372.85 429.4 370.1 429.1 368.95 428.85 368.6 428.7 367.35 428.3 366.8 428.05 366.5 427.95 365.7 427.5
Q 362.4583984375 425.6828125 362.4 423
L 362.4 426
Q 362.3 428.65 365.7 430.65
L 367.3 431.4 367.35 431.45 368.55 431.85 368.65 431.85 368.95 431.95 371.2 432.4 372.05 432.5 372.85 432.5 373.15 432.55 374.3 432.55 374.45 432.5
Q 374.95 432.5 375.25 432.45
L 375.6 432.45 376.9 432.25 376.95 432.25 377.3 432.15 377.95 432.05 378.95 431.75 381.55 430.65 381.65 430.55 382.7 429.85 383 429.55 383.1 429.5 383.5 429.1 383.55 429 383.8 428.75 383.95 428.55 384 428.5 384.25 428.1 384.25 428 384.55 427.45 384.55 427.4 384.7 426.8 Z"/>
</g>

<g id="Layer0_0_MEMBER_7_MEMBER_1_FILL">
<path fill="#FED764" stroke="none" d="
M 384.3 424.9
L 384 425.35 383.95 425.45 383.55 425.9 383.5 426 383.05 426.45 382 427.25 380.5 428.05 379.3 428.55 376.9 429.15 374.45 429.4 372.85 429.4 370.1 429.1 368.95 428.85 368.6 428.7 367.35 428.3 366.8 428.05 366.5 427.95 365.7 427.5
Q 362.47734375 425.693359375 362.4 423
L 362.4 424.95
Q 362.4 427.7 365.7 429.55
L 366.5 430 367.3 430.3 367.35 430.35 368.55 430.75 368.65 430.8 371.2 431.3 372.05 431.4 372.3 431.4 372.85 431.45 374.3 431.45 374.45 431.4
Q 374.95 431.4 375.25 431.35
L 375.6 431.35 376.9 431.15 376.95 431.15 377.3 431.05 378.4 430.85 378.95 430.65 379.1 430.65 379.25 430.55 380.15 430.2 380.5 430.1 381.55 429.55 381.65 429.45 382.7 428.75 383 428.45 383.1 428.4 383.5 428 383.55 427.9 383.8 427.65 383.95 427.45 384 427.4 384.25 427 384.25 426.9 384.55 426.35 384.55 426.3 384.7 425.75 384.7 425.65 384.75 425.3 384.8 425.1 384.8 423 384.75 423.3 384.75 423.65 384.3 424.9 Z"/>
</g>

<g id="Layer0_0_MEMBER_7_MEMBER_2_FILL">
<path fill="#FD9D28" stroke="none" d="
M 384.3 424.9
L 384 425.35 383.95 425.45 383.55 425.9 383.5 426 383.05 426.45 382 427.25 380.5 428.05 379.3 428.55 376.9 429.15 374.45 429.4 372.85 429.4 370.1 429.1 368.95 428.85 368.6 428.7 367.35 428.3 366.8 428.05 366.5 427.95 365.7 427.5
Q 362.47734375 425.693359375 362.4 423
L 362.4 424.95
Q 362.4 427.7 365.7 429.55
L 366.5 430 367.3 430.3 367.35 430.35 368.55 430.75 368.65 430.8 371.2 431.3 372.05 431.4 372.3 431.4 372.85 431.45 374.3 431.45 374.45 431.4
Q 374.95 431.4 375.25 431.35
L 375.6 431.35 376.9 431.15 376.95 431.15 377.3 431.05 378.4 430.85 378.95 430.65 379.1 430.65 379.25 430.55 380.15 430.2 380.5 430.1 381.55 429.55 381.65 429.45 382.7 428.75 383 428.45 383.1 428.4 383.5 428 383.55 427.9 383.8 427.65 383.95 427.45 384 427.4 384.25 427 384.25 426.9 384.55 426.35 384.55 426.3 384.7 425.75 384.7 425.65 384.75 425.3 384.8 425.1 384.8 423 384.75 423.3 384.75 423.65 384.3 424.9 Z"/>
</g>

<g id="Layer0_0_MEMBER_7_MEMBER_3_MEMBER_0_FILL">
<path fill="#F0B33C" stroke="none" d="
M 381.5 418.35
Q 378.2 416.45 373.55 416.45 368.9 416.45 365.65 418.35 362.4 420.25 362.4 422.95 362.4 425.65 365.7 427.5 369 429.4 373.65 429.4 378.3 429.4 381.55 427.5 384.8 425.6 384.8 422.95 384.8 420.2 381.5 418.35 Z"/>
</g>

<g id="Layer0_0_MEMBER_7_MEMBER_4_MEMBER_0_FILL">
<path fill="#FED764" stroke="none" d="
M 381.5 418.35
Q 378.2 416.45 373.55 416.45 368.9 416.45 365.65 418.35 362.4 420.25 362.4 422.95 362.4 425.65 365.7 427.5 369 429.4 373.65 429.4 378.3 429.4 381.55 427.5 384.8 425.6 384.8 422.95 384.8 420.2 381.5 418.35 Z"/>
</g>

<g id="Layer0_0_MEMBER_7_MEMBER_5_MEMBER_0_FILL">
<path fill="#FED831" stroke="none" d="
M 381.5 418.9
Q 378.2 417 373.55 417 368.9 417 365.65 418.9 362.4 420.8 362.4 423.2 362.4 425.65 365.7 427.5 369 429.4 373.65 429.4 378.3 429.4 381.55 427.5 384.8 425.6 384.8 423.2 384.8 420.75 381.5 418.9 Z"/>
</g>

<g id="Layer0_0_MEMBER_7_MEMBER_6_FILL">
<path fill="#FEEC99" stroke="none" d="
M 373.55 416.45
Q 368.9 416.45 365.65 418.35 362.15 420.4 362.4 422.9 362.65 420.6 365.65 418.9 368.9 417 373.55 417 378.2 417 381.5 418.9 384.55 420.7 384.8 422.95 384.95 420.35 381.5 418.35 378.2 416.45 373.55 416.45 Z"/>
</g>

<g id="Layer0_0_MEMBER_7_MEMBER_7_MEMBER_0_FILL">
<path fill="#DC822E" stroke="none" d="
M 379.85 419.3
Q 377.25 417.8 373.55 417.8 369.9 417.8 367.3 419.3 364.7 420.8 364.7 422.95 364.75 425.05 367.35 426.55 369.95 428.05 373.6 428.05 377.3 428.05 379.85 426.55 382.45 425.05 382.45 422.95 382.45 420.8 379.85 419.3 Z"/>
</g>

<g id="Layer0_0_MEMBER_7_MEMBER_8_MEMBER_0_FILL">
<path fill="#FDB02B" stroke="none" d="
M 379.6 419.65
Q 377.1 418.15 373.55 418.15 370.05 418.15 367.55 419.65 365.05 421.15 365.1 423.25 365.1 425.35 367.6 426.85 370.1 428.35 373.65 428.35 377.15 428.35 379.65 426.85 382.1 425.35 382.1 423.25 382.1 421.15 379.6 419.65 Z"/>
</g>

<g id="Layer0_0_MEMBER_7_MEMBER_9_MEMBER_0_FILL">
<path fill="#FED764" stroke="none" d="
M 379.25 420.15
L 378.45 419.7 377.2 420.45
Q 374.95 419.55 373.25 420.5 371.85 421.3 373.15 423 374.05 424.15 373.1 424.7 371.85 425.4 370.35 424.5 369.35 423.95 369.1 423.15
L 367.95 423.45
Q 368.1 424.25 369.3 424.9
L 368.05 425.65 368.85 426.1 370.15 425.35
Q 371.25 425.8 372.4 425.75 373.55 425.7 374.3 425.25 375.8 424.35 374.6 422.8 374.1 422.1 374.1 421.75 374.05 421.35 374.5 421.05 375.55 420.4 376.9 421.2 377.75 421.7 378.05 422.4
L 379.2 422.05
Q 378.85 421.35 378 420.85
L 379.25 420.15 Z"/>
</g>

<g id="Layer0_0_MEMBER_8_MEMBER_0_FILL">
<path fill="#FED831" stroke="none" d="
M 368.95 444.8
L 368.8 445.15 368.5 445.65 368.45 445.7 368.1 446.15 366.9 447.25 365 448.35 363.5 448.9 361.85 449.35 360.15 449.6 358.5 449.7 355.75 449.55 353.1 449 351.9 448.6 350.2 447.8
Q 346.9603515625 445.8857421875 346.9 443.25
L 346.9 446.3
Q 346.9 449.05 350.2 450.9
L 351.8 451.7 351.9 451.7 353.1 452.1 353.2 452.15 354.35 452.45 355.25 452.6 355.45 452.65 356.3 452.7 356.55 452.75 359.75 452.75 360.05 452.7 360.15 452.7 361.4 452.55 361.5 452.5 361.85 452.45 363.5 452.05 363.8 451.9 364.65 451.6 366.05 450.9 366.2 450.85 367.55 449.85 368.1 449.3 368.45 448.85 368.5 448.75 368.75 448.35 368.8 448.3 369.05 447.75 369.05 447.65 369.15 447.3 369.25 447.1 369.25 447.05 369.3 446.7 369.3 443.55 369.1 444.55 368.95 444.8 Z"/>
</g>

<g id="Layer0_0_MEMBER_8_MEMBER_1_FILL">
<path fill="#FED764" stroke="none" d="
M 368.95 444.8
L 368.8 445.15 368.5 445.65 368.45 445.7 368.1 446.15 366.9 447.25 365 448.35 363.8 448.8 361.85 449.35 358.5 449.7 356.8 449.65 353.5 449.1 351.9 448.6 350.2 447.8
Q 346.98046875 445.89765625 346.9 443.25
L 346.9 445.25
Q 346.9 447.95 350.2 449.8
L 351.05 450.25 351.8 450.6 351.9 450.6 353.1 451 353.45 451.15 354.35 451.35 355.25 451.5 355.45 451.55 355.7 451.55 356.3 451.65 356.8 451.65 357.35 451.7 360.05 451.65 360.15 451.6 361.4 451.45 361.5 451.45 363.5 450.95 363.8 450.8
Q 363.95 450.75 364.65 450.5
L 366.05 449.8 366.2 449.75 366.9 449.3 368.1 448.2 368.45 447.75 368.5 447.65 368.75 447.25 368.8 447.2 369.05 446.65 369.05 446.55 369.25 446 369.25 445.95 369.3 445.6 369.3 443.55 369.1 444.55 368.95 444.8 Z"/>
</g>

<g id="Layer0_0_MEMBER_8_MEMBER_2_FILL">
<path fill="#FD9D28" stroke="none" d="
M 368.95 444.8
L 368.8 445.15 368.5 445.65 368.45 445.7 368.1 446.15 366.9 447.25 365 448.35 363.8 448.8 361.85 449.35 358.5 449.7 356.8 449.65 353.5 449.1 351.9 448.6 350.2 447.8
Q 346.98046875 445.89765625 346.9 443.25
L 346.9 445.25
Q 346.9 447.95 350.2 449.8
L 351.05 450.25 351.8 450.6 351.9 450.6 353.1 451 353.45 451.15 354.35 451.35 355.25 451.5 355.45 451.55 355.7 451.55 356.3 451.65 356.8 451.65 357.35 451.7 360.05 451.65 360.15 451.6 361.4 451.45 361.5 451.45 363.5 450.95 363.8 450.8
Q 363.95 450.75 364.65 450.5
L 366.05 449.8 366.2 449.75 366.9 449.3 368.1 448.2 368.45 447.75 368.5 447.65 368.75 447.25 368.8 447.2 369.05 446.65 369.05 446.55 369.25 446 369.25 445.95 369.3 445.6 369.3 443.55 369.1 444.55 368.95 444.8 Z"/>
</g>

<g id="Layer0_0_MEMBER_8_MEMBER_3_MEMBER_0_FILL">
<path fill="#F0B33C" stroke="none" d="
M 369.3 443.2
Q 369.3 440.5 366 438.6 362.7 436.75 358.05 436.75 353.4 436.75 350.15 438.6 346.9 440.5 346.9 443.2 346.9 445.9 350.2 447.8 353.5 449.7 358.15 449.7 362.8 449.7 366.05 447.8 369.3 445.9 369.3 443.2 Z"/>
</g>

<g id="Layer0_0_MEMBER_8_MEMBER_4_MEMBER_0_FILL">
<path fill="#FED764" stroke="none" d="
M 369.3 443.2
Q 369.3 440.5 366 438.6 362.7 436.75 358.05 436.75 353.4 436.75 350.15 438.6 346.9 440.5 346.9 443.2 346.9 445.9 350.2 447.8 353.5 449.7 358.15 449.7 362.8 449.7 366.05 447.8 369.3 445.9 369.3 443.2 Z"/>
</g>

<g id="Layer0_0_MEMBER_8_MEMBER_5_MEMBER_0_FILL">
<path fill="#FED831" stroke="none" d="
M 369.3 443.5
Q 369.3 441.05 366 439.15 362.7 437.25 358.05 437.25 353.45 437.25 350.15 439.15 346.9 441.05 346.9 443.5 346.9 445.9 350.2 447.8 353.5 449.7 358.15 449.7 362.8 449.7 366.05 447.8 369.3 445.9 369.3 443.5 Z"/>
</g>

<g id="Layer0_0_MEMBER_8_MEMBER_6_FILL">
<path fill="#FEEC99" stroke="none" d="
M 369.3 443.2
Q 369.55 440.65 366 438.6 362.7 436.75 358.05 436.75 353.4 436.75 350.15 438.6 346.7 440.6 346.95 443.2 347.1 440.95 350.15 439.15 353.45 437.25 358.05 437.25 362.7 437.25 366 439.15 369.05 440.9 369.3 443.2 Z"/>
</g>

<g id="Layer0_0_MEMBER_8_MEMBER_7_MEMBER_0_FILL">
<path fill="#DC822E" stroke="none" d="
M 364.35 439.55
Q 361.75 438.05 358.1 438.05 354.4 438.05 351.8 439.6 349.2 441.1 349.25 443.25 349.25 445.35 351.85 446.85 354.5 448.35 358.15 448.35 361.8 448.35 364.4 446.85 367 445.35 366.95 443.2 366.95 441.1 364.35 439.55 Z"/>
</g>

<g id="Layer0_0_MEMBER_8_MEMBER_8_MEMBER_0_FILL">
<path fill="#FDB02B" stroke="none" d="
M 364.1 439.9
Q 361.6 438.45 358.1 438.45 354.55 438.45 352.05 439.9 349.55 441.4 349.6 443.5 349.6 445.65 352.1 447.1 354.6 448.6 358.15 448.6 361.7 448.6 364.15 447.1 366.65 445.65 366.6 443.5 366.6 441.4 364.1 439.9 Z"/>
</g>

<g id="Layer0_0_MEMBER_8_MEMBER_9_MEMBER_0_FILL">
<path fill="#FED764" stroke="none" d="
M 353.6 443.45
L 352.45 443.75
Q 352.7 444.5 353.85 445.2
L 352.55 445.9 353.35 446.35 354.65 445.6
Q 355.75 446.05 356.95 446.05 358 446 358.8 445.55 360.3 444.7 359.15 443.1 358.65 442.35 358.6 442 358.55 441.6 359 441.35 360.1 440.7 361.45 441.5 362.35 442.05 362.6 442.65
L 363.7 442.35
Q 363.55 441.8 362.55 441.15
L 363.75 440.45 362.95 439.95 361.7 440.7
Q 359.5 439.8 357.75 440.8 357 441.25 357 441.85 357.05 442.4 357.7 443.25 358.55 444.4 357.6 444.95 356.4 445.65 354.85 444.8 353.9 444.25 353.6 443.45 Z"/>
</g>

<g id="Layer0_0_MEMBER_9_MEMBER_0_FILL">
<path fill="#FED831" stroke="none" d="
M 280.75 451.65
L 280.8 448.2 280.65 449.15 280.45 449.75 280 450.6 279.55 451.1 279.5 451.2 278.35 452.2 277.55 452.75 276.45 453.3 274.95 453.85 274.35 454 273.95 454.15 272.9 454.35 270 454.65 267.2 454.5 264.55 453.95 263.35 453.55 261.7 452.75
Q 258.411328125 450.8357421875 258.35 448.2
L 258.35 451.25
Q 258.35 454 261.65 455.85
L 263.3 456.65 263.35 456.65 264.55 457.05 264.65 457.1 264.95 457.15 265.8 457.4 266.95 457.6 267.2 457.6 267.75 457.65 268 457.7 271.2 457.7 271.5 457.65 271.6 457.65 272.9 457.5 272.95 457.45 273.3 457.4 274.95 457 275.25 456.85 276.15 456.55 276.45 456.4
Q 276.95 456.2 277.5 455.85
L 277.65 455.8 278.65 455.05
Q 278.8 455 279 454.8
L 279.5 454.35 279.55 454.25 279.9 453.8 279.95 453.7 280.2 453.3 280.25 453.25 280.55 452.6 280.7 452.05 280.7 452 280.75 451.65 Z"/>
</g>

<g id="Layer0_0_MEMBER_9_MEMBER_1_FILL">
<path fill="#FED764" stroke="none" d="
M 279.55 451.1
L 279.5 451.2 278.35 452.2 277.55 452.75 276.45 453.3 274.95 453.85 274.35 454 273.95 454.15 272.9 454.35 270 454.65 267.2 454.5 264.55 453.95 263.35 453.55 261.7 452.75
Q 258.431640625 450.84765625 258.35 448.2
L 258.35 450.2
Q 258.45 452.9 261.65 454.75
L 263.3 455.55 263.35 455.55 264.55 455.95 264.65 456 264.95 456.05 265.8 456.3 266.95 456.5 267.2 456.5 267.75 456.55 268 456.6 271.5 456.6 271.6 456.55 272.9 456.4 272.95 456.4 274.95 455.9 275.25 455.75 276.15 455.45 276.45 455.3
Q 276.95 455.1 277.5 454.75
L 277.65 454.7 278.35 454.25 279 453.7 279.5 453.25 279.55 453.15 279.9 452.7 279.95 452.6 280.2 452.2 280.25 452.15 280.55 451.5 280.65 451.2 280.7 450.95 280.7 450.9 280.75 450.55 280.8 448.2 280.65 449.15 280.45 449.75 280 450.6 279.55 451.1 Z"/>
</g>

<g id="Layer0_0_MEMBER_9_MEMBER_2_FILL">
<path fill="#FD9D28" stroke="none" d="
M 279.55 451.1
L 279.5 451.2 278.35 452.2 277.55 452.75 276.45 453.3 274.95 453.85 274.35 454 273.95 454.15 272.9 454.35 270 454.65 267.2 454.5 264.55 453.95 263.35 453.55 261.7 452.75
Q 258.431640625 450.84765625 258.35 448.2
L 258.35 450.2
Q 258.45 452.9 261.65 454.75
L 263.3 455.55 263.35 455.55 264.55 455.95 264.65 456 264.95 456.05 265.8 456.3 266.95 456.5 267.2 456.5 267.75 456.55 268 456.6 271.5 456.6 271.6 456.55 272.9 456.4 272.95 456.4 274.95 455.9 275.25 455.75 276.15 455.45 276.45 455.3
Q 276.95 455.1 277.5 454.75
L 277.65 454.7 278.35 454.25 279 453.7 279.5 453.25 279.55 453.15 279.9 452.7 279.95 452.6 280.2 452.2 280.25 452.15 280.55 451.5 280.65 451.2 280.7 450.95 280.7 450.9 280.75 450.55 280.8 448.2 280.65 449.15 280.45 449.75 280 450.6 279.55 451.1 Z"/>
</g>

<g id="Layer0_0_MEMBER_9_MEMBER_3_MEMBER_0_FILL">
<path fill="#F0B33C" stroke="none" d="
M 277.45 443.55
Q 274.2 441.7 269.55 441.7 264.9 441.7 261.65 443.55 258.35 445.45 258.4 448.15 258.4 450.85 261.7 452.75 264.95 454.65 269.6 454.65 274.25 454.65 277.55 452.75 280.8 450.85 280.8 448.15 280.75 445.45 277.45 443.55 Z"/>
</g>

<g id="Layer0_0_MEMBER_9_MEMBER_4_MEMBER_0_FILL">
<path fill="#FED764" stroke="none" d="
M 277.45 443.55
Q 274.2 441.7 269.55 441.7 264.9 441.7 261.65 443.55 258.35 445.45 258.4 448.15 258.4 450.85 261.7 452.75 264.95 454.65 269.6 454.65 274.25 454.65 277.55 452.75 280.8 450.85 280.8 448.15 280.75 445.45 277.45 443.55 Z"/>
</g>

<g id="Layer0_0_MEMBER_9_MEMBER_5_MEMBER_0_FILL">
<path fill="#FED831" stroke="none" d="
M 277.45 444.1
Q 274.2 442.2 269.55 442.2 264.95 442.2 261.65 444.1 258.35 446 258.4 448.45 258.4 450.85 261.7 452.75 264.95 454.65 269.6 454.65 274.25 454.65 277.55 452.75 280.8 450.85 280.8 448.45 280.75 446 277.45 444.1 Z"/>
</g>

<g id="Layer0_0_MEMBER_9_MEMBER_6_FILL">
<path fill="#FEEC99" stroke="none" d="
M 269.55 441.7
Q 264.9 441.7 261.65 443.55 258.15 445.55 258.4 448.15 258.55 445.9 261.65 444.1 264.95 442.2 269.55 442.2 274.2 442.2 277.45 444.1 280.6 445.9 280.75 448.15 281 445.6 277.45 443.55 274.2 441.7 269.55 441.7 Z"/>
</g>

<g id="Layer0_0_MEMBER_9_MEMBER_7_MEMBER_0_FILL">
<path fill="#DC822E" stroke="none" d="
M 275.8 444.5
Q 273.2 443 269.55 443 265.9 443 263.3 444.55 260.7 446.05 260.7 448.2 260.75 450.3 263.35 451.8 265.95 453.3 269.6 453.3 273.25 453.3 275.85 451.8 278.45 450.3 278.45 448.15 278.4 446.05 275.8 444.5 Z"/>
</g>

<g id="Layer0_0_MEMBER_9_MEMBER_8_MEMBER_0_FILL">
<path fill="#FDB02B" stroke="none" d="
M 275.55 444.85
Q 273.1 443.4 269.55 443.4 266.05 443.4 263.55 444.85 261.05 446.35 261.05 448.45 261.1 450.6 263.6 452.05 266.1 453.55 269.6 453.55 273.15 453.55 275.6 452.05 278.1 450.6 278.1 448.45 278.05 446.35 275.55 444.85 Z"/>
</g>

<g id="Layer0_0_MEMBER_9_MEMBER_9_MEMBER_0_FILL">
<path fill="#FED764" stroke="none" d="
M 275.2 445.4
L 274.45 444.9 273.15 445.65
Q 270.95 444.75 269.2 445.75 267.85 446.5 269.15 448.2 270 449.4 269.05 449.9 267.85 450.6 266.35 449.75 265.3 449.15 265.1 448.4
L 263.9 448.7
Q 264.15 449.4 265.3 450.15
L 264.05 450.85 264.85 451.3 266.15 450.55
Q 267.25 451 268.4 451 269.5 450.95 270.3 450.5 271.1 450.05 271.15 449.45 271.2 448.85 270.6 448.05 270.1 447.3 270.05 446.95 270 446.55 270.45 446.3 271.6 445.65 272.9 446.45 273.8 446.95 274.05 447.6
L 275.2 447.3
Q 274.9 446.65 274 446.1
L 275.2 445.4 Z"/>
</g>

<g id="Layer0_0_MEMBER_10_MEMBER_0_FILL">
<path fill="#BBD1DD" stroke="none" d="
M 327.85 404.55
Q 327.1 399.15 325.4 399.25
L 324.6 399.5
Q 323.85 399.95 323.8 401 323.7 402.8 324.4 406.5 325.2 410.8 326.35 411.85 327.4 412.85 327.95 411.5
L 328.3 409.95
Q 328.25 407.25 327.85 404.55 Z"/>
</g>

<g id="Layer0_0_MEMBER_10_MEMBER_1_FILL">
<path fill="#EEB188" stroke="none" d="
M 337.2 410
Q 337.45 409.75 337.55 409.65 337.7 409.45 337.6 409.4 337.25 409.25 336.7 409.6 336.1 410 334.75 410.45
L 334.6 411.85 335.8 412.05
Q 337.2 412.25 338.1 411.95 339.1 411.65 339.25 411.5 339.25 411.45 339.15 411.2 339.05 410.9 338 410.75 336.95 410.6 336.75 410.55 336.55 410.5 336.8 410.3 337.2 410.05 337.2 410 Z"/>
</g>

<g id="Layer0_0_MEMBER_10_MEMBER_2_FILL">
<path fill="#BBD1DD" stroke="none" d="
M 335.05 410.25
L 327.75 408.9
Q 326.15 409.2 326.2 410.65 326.25 411.4 326.6 412.05 327.6 412.7 331.45 412.55 333.4 412.45 335.1 412.25 334.8 411.8 334.85 411.15
L 335.05 410.25 Z"/>
</g>

<g id="Layer0_0_MEMBER_10_MEMBER_3_FILL">
<path fill="#A4C1CD" stroke="none" d="
M 325.35 406.4
Q 324.5 403.05 324 400.25 323.8 400.5 323.8 401 323.7 402.8 324.4 406.5 325.2 410.8 326.35 411.85
L 326.6 412.05
Q 326.85 412.25 327.15 412.25 328.55 412.65 331.95 412.5 333.7 412.4 335.1 412.25 334.95 412.05 334.9 411.7 327.75 411.5 327 411.3 326.5 411.15 325.35 406.4 Z"/>
</g>

<g id="Layer0_0_MEMBER_10_MEMBER_4_MEMBER_0_FILL">
<path fill="#111114" stroke="none" d="
M 336.25 432.05
L 332.75 432.85 332.7 433.55
Q 332.75 434.35 333.35 434.55 334.75 435.05 335.45 435.6 339.9 437.6 340.4 436.8 340.7 436.25 340.2 435.55 339.5 434.9 339.35 434.75
L 336.25 432.05 Z"/>
</g>

<g id="Layer0_0_MEMBER_10_MEMBER_4_MEMBER_1_FILL">
<path fill="#111114" stroke="none" d="
M 332.95 434.4
L 329.45 435.2 329.4 435.9
Q 329.45 436.7 330.05 436.9 331.5 437.45 332.1 437.95 336.55 439.95 337.1 439.15 337.4 438.6 336.9 437.9 336.2 437.25 336.05 437.1
L 332.95 434.4 Z"/>
</g>

<g id="Layer0_0_MEMBER_10_MEMBER_4_MEMBER_2_FILL">
<path fill="#18375B" stroke="none" d="
M 325.95 413.35
L 324.55 415.5
Q 323.2 417.65 323.4 417.8
L 331.6 423.8 332.65 432.7
Q 333.9 433.4 336.45 432.3 336.5 422.85 336.25 421.25 336.05 420.25 331 416.7
L 325.95 413.35 Z"/>
</g>

<g id="Layer0_0_MEMBER_10_MEMBER_4_MEMBER_3_FILL">
<path fill="#0B2A4E" stroke="none" d="
M 323.4 417.55
Q 323.3 417.7 323.4 417.8
L 331.6 423.8 332.65 432.7
Q 333.4 433.15 334.95 432.75 333.9 424.5 333.5 422.6 333.3 421.4 329.15 418.55
L 325.05 416 323.4 417.55 Z"/>
</g>

<g id="Layer0_0_MEMBER_10_MEMBER_4_MEMBER_4_FILL">
<path fill="#18375B" stroke="none" d="
M 319.95 416.3
L 317.1 415.9
Q 316.55 420.05 322.35 423.3 325.3 424.95 328.3 425.75 328.4 428.45 329.3 435.2 330.8 435.75 332.3 435.35 333.05 435.15 333.5 434.85 333 426.1 332.6 424.05 332.35 422.75 328.25 420.15
L 324.2 417.75
Q 324.6 417.3 325.3 415.4
L 325.95 413.6
Q 323.35 416.2 319.95 416.3 Z"/>
</g>

<g id="Layer0_0_MEMBER_10_MEMBER_4_MEMBER_5_FILL">
<path fill="#0B2A4E" stroke="none" d="
M 317.1 416.25
Q 316.8 420.25 322.55 423.4 325.4 425 328.3 425.75 328.4 428.45 329.3 435.2 329.7 435.35 330.5 435.45
L 330.25 431.2
Q 330 426.95 329.4 425.35
L 328.8 424.55
Q 324 422.4 321.3 419.85
L 319.55 417.75 317.1 416.25 Z"/>
</g>

<g id="Layer0_0_MEMBER_10_MEMBER_5_FILL">
<path fill="#BBD1DD" stroke="none" d="
M 316.45 403.15
Q 316.3 404.4 317.2 406.5
L 318.05 408.8
Q 318.75 411.5 318.15 413.75 317.6 415.9 317.1 417
L 318.55 418.05
Q 320.6 418.85 323.55 417.75 324.3 417.45 325.25 416.65 326.3 415.8 326.6 415.05 326.15 411.9 326.75 408.25 328.1 400 325.65 399.3 325.5 399.15 324.85 399.15 323.45 399.1 320.75 399.9
L 318.85 400.9
Q 316.9 401.95 316.85 402.1 316.8 402.25 316.45 403.15 Z"/>
</g>

<g id="Layer0_0_MEMBER_10_MEMBER_6_FILL">
<path fill="#CBE0E9" stroke="none" d="
M 323.6 402.6
Q 321.7 403.65 321.65 403.85 321.6 404 321.25 404.9 321.05 406.1 321.95 408.2
L 322.8 410.5
Q 323.5 413.2 322.9 415.5
L 322.05 418.2 323.55 417.75
Q 324.3 417.45 325.25 416.65 326.3 415.8 326.6 415.05 326.15 411.9 326.75 408.25 327.55 403.55 327 401.2
L 325.55 401.6 323.6 402.6 Z"/>
</g>

<g id="Layer0_0_MEMBER_10_MEMBER_7_FILL">
<path fill="#FEFFFF" stroke="none" d="
M 323.35 399.7
Q 324.45 400.95 323.65 402.25
L 324.95 403
Q 325.3 402.1 325.1 401.1 324.7 399.1 322.1 398.7
L 323.35 399.7 Z"/>
</g>

<g id="Layer0_0_MEMBER_10_MEMBER_8_FILL">
<path fill="#EEB188" stroke="none" d="
M 321 401.6
Q 321.9 402.4 323.35 402.35 324.3 402.1 324.2 401.75 324.05 401.25 324.2 400.8 324.25 400.7 324.6 400 324.95 399.4 320.35 397.25
L 320.8 398.3
Q 321.15 399.45 320.6 400.2 320.15 400.8 321 401.6 Z"/>
</g>

<g id="Layer0_0_MEMBER_10_MEMBER_9_FILL">
<path fill="#DB956D" stroke="none" d="
M 320.5 397.55
Q 321.35 399.15 320.6 400.2
L 320.45 400.5
Q 320.95 400 321.9 399.8 322.4 399.65 322.75 399.65
L 320.75 397.45 320.55 397.35 320.5 397.55 Z"/>
</g>

<g id="Layer0_0_MEMBER_10_MEMBER_10_FILL">
<path fill="#F1B792" stroke="none" d="
M 322.95 402.35
L 323.35 402.35
Q 324.25 402.15 324.2 401.75 324.05 401 324.2 400.65 324.45 400.3 324.6 400 324.75 399.8 323.95 399.25
L 323.65 399.6
Q 322.7 401 322.95 402.35 Z"/>
</g>

<g id="Layer0_0_MEMBER_10_MEMBER_11_MEMBER_0_FILL">
<path fill="#EEB188" stroke="none" d="
M 321.25 392.65
L 320.3 393.45
Q 319.45 394.6 319.9 396.25
L 320.35 397.55
Q 321 399 322 399.65 325 401.65 325.45 399.5 325.8 397.15 325.85 396.5 325.9 394.45 325.15 394 323.85 393.05 323.3 392.75 322.4 392.25 321.25 392.65 Z"/>
</g>

<g id="Layer0_0_MEMBER_10_MEMBER_11_MEMBER_1_FILL">
<path fill="#E5A37A" stroke="none" d="
M 325.15 394
L 324.4 393.2 320.75 393.3 319.8 394.55
Q 319.65 395.3 319.9 396.25
L 320.25 397.45
Q 320.8 398.8 322 399.7 322.65 400.15 323.35 400.4 322.8 400 321.95 399 321.75 398.75 322.05 398.3 322.4 397.85 321.85 396.85 321.65 396.5 322.4 396.7 322.85 396.8 323.5 397 324.9 396.95 325.35 396.25 325.5 396 325.6 395.15
L 325.4 394.5 325.15 394 Z"/>
</g>

<g id="Layer0_0_MEMBER_10_MEMBER_11_MEMBER_2_FILL">
<path fill="#331C0B" stroke="none" d="
M 325.65 395.5
Q 326.05 395.05 325.85 394.35 324.9 392 322.15 392.4 320.85 392.55 320.15 393.55 319.8 394.1 319.7 394.55 319.35 396 320.05 397.4 320.4 398.1 320.85 398.5 319.9 397.15 320.35 396.7 320.6 396.4 320.95 396.9 321.05 397.05 321.3 397.55 321.75 397.6 321.6 397.15 321.3 396.25 321.8 395.8 322.2 395.45 323.45 395.75 325.05 396.15 325.65 395.5 Z"/>
</g>

<g id="Layer0_0_MEMBER_10_MEMBER_11_MEMBER_3_FILL">
<path fill="#221102" stroke="none" d="
M 320.45 393.2
Q 319.85 393.8 319.7 394.55 319.35 396 320.05 397.4 320.4 398.1 320.85 398.5 319.9 397.15 320.35 396.7 320.6 396.4 320.95 396.9 321.05 397.05 321.3 397.55 321.75 397.6 321.6 397.15 321.3 396.25 321.8 395.8 322 395.6 323.45 395.75 322.9 395.5 322.6 395.35 322.1 395.1 321.9 394.7 321.4 393.5 320.45 393.2 Z"/>
</g>

<g id="Layer0_0_MEMBER_10_MEMBER_12_FILL">
<path fill="#FEFFFF" stroke="none" d="
M 320.85 399.65
Q 319.55 401 321.15 402.6 321.95 403.4 323 403.9
L 323.65 402.25
Q 322.2 401.95 321.35 400.75
L 320.85 399.65 Z"/>
</g>

<g id="Layer0_0_MEMBER_10_MEMBER_13_FILL">
<path fill="#9EBCC8" stroke="none" d="
M 317.1 401.9
L 316.85 402.1
Q 316.8 402.25 316.45 403.15 316.3 404.4 317.2 406.5
L 317.9 408.75
Q 318.5 411.45 317.95 413.75 317.75 414.65 317.5 415.1 317 415.9 316.85 416.25 316.6 416.8 317.55 417.5 318.5 418.25 319.7 418.3 320.2 417.1 320.3 416.4 320.45 415.35 320.6 414.3 320.95 411.95 320.55 410.2 320.05 408.15 318.35 406.1 317.05 404.5 317 403.3 317.15 402.25 317.1 401.9 Z"/>
</g>

<g id="Layer0_0_MEMBER_10_MEMBER_14_FILL">
<path fill="#331C0B" stroke="none" d="
M 325.85 394.35
Q 325.4 394.45 325.35 394.05 325.3 393.5 325.25 393.45 324.85 393.1 324.45 392.85 323.7 392.35 323.1 392.3 321.85 392.25 321 392.75 320.55 393 320.35 393.25 320.9 393.3 321.3 394.1 321.9 395.4 323.3 395.8 325.1 396.3 325.65 395.4
L 325.85 394.35 Z"/>
</g>

<g id="Layer0_0_MEMBER_10_MEMBER_15_MEMBER_0_MEMBER_0_MEMBER_0_FILL">
<path fill="#B4B9BC" stroke="none" d="
M 0 4.5
L 0 4.9 5.25 8.65 5.25 8.25 0 4.5 Z"/>
</g>

<g id="Layer0_0_MEMBER_10_MEMBER_15_MEMBER_0_MEMBER_1_MEMBER_0_FILL">
<path fill="#7D8183" stroke="none" d="
M 5.25 8.25
L 5.25 8.65 15.05 4.1 15.1 3.75 5.25 8.25 Z"/>
</g>

<g id="Layer0_0_MEMBER_10_MEMBER_15_MEMBER_0_MEMBER_2_MEMBER_0_FILL">
<path fill="#E3E5E5" stroke="none" d="
M 0 4.5
L 5.25 8.25 15.1 3.75 9.85 0 0 4.5 Z"/>
</g>

<g id="Layer0_0_MEMBER_10_MEMBER_15_MEMBER_1_MEMBER_0_MEMBER_0_FILL">
<path fill="#BDBBBB" stroke="none" d="
M 2.05 5.1
L 1.65 4.75 0 11.3 0.4 11.65 2.05 5.1 Z"/>
</g>

<g id="Layer0_0_MEMBER_10_MEMBER_15_MEMBER_1_MEMBER_1_MEMBER_0_FILL">
<path fill="#D2D0D0" stroke="none" d="
M 12.3 0.4
L 11.9 0 1.65 4.75 2.05 5.1 12.3 0.4 Z"/>
</g>

<g id="Layer0_0_MEMBER_10_MEMBER_15_MEMBER_1_MEMBER_2_MEMBER_0_FILL">
<path fill="#D5DFE6" stroke="none" d="
M 2.05 5.1
L 0.4 11.65 10.65 6.95 12.3 0.4 2.05 5.1 Z"/>
</g>

<g id="Layer0_0_MEMBER_10_MEMBER_15_MEMBER_1_MEMBER_3_MEMBER_0_FILL">
<path fill="#E9F0F4" stroke="none" d="
M 2.05 5.1
L 10.65 6.95 12.3 0.4 2.05 5.1 Z"/>
</g>

<g id="Layer0_0_MEMBER_10_MEMBER_16_MEMBER_0_FILL">
<path fill="#EEB188" stroke="none" d="
M 322.7 417.45
Q 322.4 418 322.75 418.35
L 324 419.5
Q 325.5 420.65 326.95 420.65 327.05 420.05 326.1 419.65 325.5 419.4 325.15 418.9 324.95 418.55 324.95 418.35 325.05 418.2 326.1 418.35 326.45 418.4 326.55 418.15 326.7 417.95 326.15 417.8 323.95 417 323.1 417
L 322.7 417.45 Z"/>
</g>

<g id="Layer0_0_MEMBER_10_MEMBER_16_MEMBER_1_FILL">
<path fill="#BBD1DD" stroke="none" d="
M 318.3 407.3
Q 319.5 402.2 318.45 401.55 317.95 401.6 317.4 401.8 316.2 402.25 315.75 403.2 314.95 404.75 314.15 408.45 313.2 412.75 313.8 414.15 314.35 415.5 318.65 417.3 320.8 418.2 322.8 418.85 322.6 418 323 417.2
L 323.5 416.6 316.9 412.25
Q 317.7 409.85 318.3 407.3 Z"/>
</g>

<g id="Layer0_0_MEMBER_10_MEMBER_16_MEMBER_2_FILL">
<path fill="#CBE0E9" stroke="none" d="
M 316.9 412.25
Q 319.55 404.15 318.75 402 315.35 411.4 315.85 412.25 316.3 413.2 323.15 417.05
L 323.5 416.6 316.9 412.25 Z"/>
</g>

<g id="Layer0_0_MEMBER_11_MEMBER_0_FILL">
<path fill="#000000" fill-opacity="0.09803921568627451" stroke="none" d="
M 4.45 1.45
Q 4.45 1.2 4.25 1.1
L 2.4 0.05
Q 2.2 -0.1 2 0.05
L 0.2 1.1
Q 0 1.2 0 1.45 0 1.65 0.2 1.75
L 2.05 2.8
Q 2.25 2.9 2.4 2.8
L 4.25 1.75
Q 4.45 1.65 4.45 1.45 Z"/>
</g>

<g id="Layer0_0_MEMBER_11_MEMBER_1_FILL">
<path fill="#FCCEE7" fill-opacity="0.8" stroke="none" d="
M 4.45 1.45
Q 4.45 1.2 4.25 1.1
L 2.4 0.05
Q 2.2 0 2 0.05
L 0.2 1.1
Q 0 1.2 0 1.45 0 1.65 0.2 1.75
L 2.05 2.8
Q 2.25 3 2.4 2.8
L 4.25 1.75
Q 4.45 1.65 4.45 1.45 Z"/>
</g>

<g id="Layer0_0_MEMBER_11_MEMBER_2_FILL">
<path fill="#FCCEE7" fill-opacity="0.6" stroke="none" d="
M 4.45 1.45
Q 4.45 1.2 4.25 1.1
L 2.4 0.05
Q 2.2 0 2 0.05
L 0.2 1.1
Q 0 1.2 0 1.45 0 1.65 0.2 1.75
L 2.05 2.85
Q 2.25 2.95 2.4 2.85
L 4.25 1.75
Q 4.45 1.65 4.45 1.45 Z"/>
</g>

<g id="Layer0_0_MEMBER_11_MEMBER_3_FILL">
<path fill="#FCCEE7" fill-opacity="0.4" stroke="none" d="
M 4.45 1.45
Q 4.45 1.25 4.25 1.15
L 2.4 0.05
Q 2.2 0 2 0.05
L 0.2 1.15
Q 0 1.25 0 1.45 0 1.7 0.2 1.75
L 2.05 2.85
Q 2.25 2.95 2.4 2.85
L 4.25 1.8
Q 4.45 1.7 4.45 1.45 Z"/>
</g>

<g id="Layer0_0_MEMBER_11_MEMBER_4_FILL">
<path fill="#FCCEE7" fill-opacity="0.2" stroke="none" d="
M 4.45 1.45
Q 4.45 1.2 4.25 1.1
L 2.4 0.05
Q 2.2 -0.1 2 0.05
L 0.2 1.1
Q 0 1.2 0 1.45 0 1.65 0.2 1.75
L 2.05 2.8
Q 2.25 2.9 2.4 2.8
L 4.25 1.75
Q 4.45 1.65 4.45 1.45 Z"/>
</g>

<g id="Layer0_0_MEMBER_11_MEMBER_5_FILL">
<path fill="#FCCEE7" fill-opacity="0.09803921568627451" stroke="none" d="
M 4.45 1.45
Q 4.45 1.2 4.25 1.1
L 2.4 0.05
Q 2.2 -0.1 2 0.05
L 0.2 1.1
Q 0 1.2 0 1.45 0 1.65 0.2 1.75
L 2.05 2.8
Q 2.25 2.9 2.4 2.8
L 4.25 1.75
Q 4.45 1.65 4.45 1.45 Z"/>
</g>

<g id="Layer0_0_MEMBER_11_MEMBER_6_MEMBER_0_FILL">
<path fill="#FCCEE7" stroke="none" d="
M 277.5 414.1
Q 277.7 414 277.7 413.8 277.7 413.55 277.5 413.45
L 275.65 412.4
Q 275.45 412.35 275.25 412.4
L 273.45 413.45
Q 273.25 413.55 273.25 413.8 273.25 414 273.45 414.1
L 275.3 415.15
Q 275.5 415.35 275.65 415.15
L 277.5 414.1 Z"/>
</g>

<g id="Layer0_0_MEMBER_12_MEMBER_0_FILL">
<path fill="#000000" fill-opacity="0.09803921568627451" stroke="none" d="
M 2.85 3.35
L 5.05 2.1
Q 5.3 1.95 5.3 1.7 5.3 1.45 5.05 1.3
L 2.85 0.05
Q 2.65 -0.1 2.4 0.05
L 0.2 1.3
Q 0 1.45 0 1.7 0 1.95 0.2 2.1
L 2.4 3.35
Q 2.65 3.55 2.85 3.35 Z"/>
</g>

<g id="Layer0_0_MEMBER_12_MEMBER_1_FILL">
<path fill="#79B827" fill-opacity="0.8" stroke="none" d="
M 2.85 3.35
L 5.05 2.1
Q 5.3 2 5.3 1.75 5.3 1.45 5.05 1.35
L 2.85 0.05
Q 2.65 0 2.4 0.05
L 0.2 1.35
Q 0 1.45 0 1.75 0 2 0.2 2.1
L 2.4 3.35
Q 2.65 3.55 2.85 3.35 Z"/>
</g>

<g id="Layer0_0_MEMBER_12_MEMBER_2_FILL">
<path fill="#79B827" fill-opacity="0.6" stroke="none" d="
M 2.85 3.4
L 5.05 2.15
Q 5.3 2 5.3 1.75 5.3 1.5 5.05 1.35
L 2.85 0.1
Q 2.65 -0.05 2.4 0.1
L 0.2 1.35
Q 0 1.5 0 1.75 0 2 0.2 2.15
L 2.4 3.4
Q 2.65 3.6 2.85 3.4 Z"/>
</g>

<g id="Layer0_0_MEMBER_12_MEMBER_3_FILL">
<path fill="#79B827" fill-opacity="0.4" stroke="none" d="
M 2.85 3.4
L 5.05 2.1
Q 5.3 2 5.3 1.75 5.3 1.45 5.05 1.35
L 2.85 0.05
Q 2.65 0 2.4 0.05
L 0.2 1.35
Q 0 1.45 0 1.75 0 2 0.2 2.1
L 2.4 3.4
Q 2.65 3.5 2.85 3.4 Z"/>
</g>

<g id="Layer0_0_MEMBER_12_MEMBER_4_FILL">
<path fill="#79B827" fill-opacity="0.2" stroke="none" d="
M 2.85 3.35
L 5.05 2.1
Q 5.3 1.95 5.3 1.7 5.3 1.45 5.05 1.3
L 2.85 0.05
Q 2.65 -0.1 2.4 0.05
L 0.2 1.3
Q 0 1.45 0 1.7 0 1.95 0.2 2.1
L 2.4 3.35
Q 2.65 3.55 2.85 3.35 Z"/>
</g>

<g id="Layer0_0_MEMBER_12_MEMBER_5_FILL">
<path fill="#79B827" fill-opacity="0.09803921568627451" stroke="none" d="
M 2.85 3.4
L 5.05 2.1
Q 5.3 2 5.3 1.75 5.3 1.45 5.05 1.35
L 2.85 0.05
Q 2.65 0 2.4 0.05
L 0.2 1.35
Q 0 1.45 0 1.75 0 2 0.2 2.1
L 2.4 3.4
Q 2.65 3.5 2.85 3.4 Z"/>
</g>

<g id="Layer0_0_MEMBER_12_MEMBER_6_FILL">
<path fill="#79B827" stroke="none" d="
M 301.4 389.45
Q 301.65 389.35 301.65 389.1 301.65 388.8 301.4 388.7
L 299.2 387.45
Q 299 387.3 298.75 387.45
L 296.55 388.7
Q 296.35 388.8 296.35 389.1 296.35 389.35 296.55 389.45
L 298.75 390.75
Q 299 390.85 299.2 390.75
L 301.4 389.45 Z"/>
</g>

<g id="Layer0_0_MEMBER_13_MEMBER_0_FILL">
<path fill="#FEDE7C" stroke="none" d="
M 3.95 1.3
Q 3.95 1.1 3.8 1
L 2.15 0.05
Q 2 -0.05 1.8 0.05
L 0.2 1
Q 0 1.1 0 1.3 0 1.5 0.2 1.6
L 1.85 2.55
Q 2 2.65 2.15 2.55
L 3.8 1.6
Q 3.95 1.5 3.95 1.3 Z"/>
</g>

<g id="Layer0_0_MEMBER_13_MEMBER_1_FILL">
<path fill="#FEDE7C" fill-opacity="0.8" stroke="none" d="
M 3.95 1.3
Q 3.95 1.1 3.8 1
L 2.15 0.05
Q 2 -0.05 1.8 0.05
L 0.2 1
Q 0 1.1 0 1.3 0 1.5 0.2 1.6
L 1.85 2.55
Q 2 2.65 2.15 2.55
L 3.8 1.6
Q 3.95 1.5 3.95 1.3 Z"/>
</g>

<g id="Layer0_0_MEMBER_13_MEMBER_2_FILL">
<path fill="#FEDE7C" fill-opacity="0.6" stroke="none" d="
M 3.95 1.3
Q 3.95 1.1 3.8 1
L 2.15 0.05
Q 2 -0.05 1.8 0.05
L 0.2 1
Q 0 1.1 0 1.3 0 1.5 0.2 1.6
L 1.85 2.55
Q 2 2.65 2.15 2.55
L 3.8 1.6
Q 3.95 1.5 3.95 1.3 Z"/>
</g>

<g id="Layer0_0_MEMBER_13_MEMBER_3_FILL">
<path fill="#FEDE7C" fill-opacity="0.4" stroke="none" d="
M 3.95 1.3
Q 3.95 1.1 3.8 1
L 2.15 0.05
Q 2 -0.05 1.8 0.05
L 0.2 1
Q 0 1.1 0 1.3 0 1.5 0.2 1.6
L 1.85 2.55
Q 2 2.65 2.15 2.55
L 3.8 1.6
Q 3.95 1.5 3.95 1.3 Z"/>
</g>

<g id="Layer0_0_MEMBER_13_MEMBER_4_FILL">
<path fill="#FEDE7C" fill-opacity="0.2" stroke="none" d="
M 3.95 1.3
Q 3.95 1.1 3.8 1
L 2.15 0.05
Q 2 -0.05 1.8 0.05
L 0.2 1
Q 0 1.1 0 1.3 0 1.5 0.2 1.6
L 1.85 2.55
Q 2 2.65 2.15 2.55
L 3.8 1.6
Q 3.95 1.5 3.95 1.3 Z"/>
</g>

<g id="Layer0_0_MEMBER_13_MEMBER_5_FILL">
<path fill="#000000" fill-opacity="0.08627450980392157" stroke="none" d="
M 3.95 1.3
Q 3.95 1.1 3.8 1
L 2.15 0.05
Q 2 -0.05 1.8 0.05
L 0.2 1
Q 0 1.1 0 1.3 0 1.5 0.2 1.6
L 1.85 2.55
Q 2 2.65 2.15 2.55
L 3.8 1.6
Q 3.95 1.5 3.95 1.3 Z"/>
</g>

<g id="Layer0_0_MEMBER_13_MEMBER_6_MEMBER_0_FILL">
<path fill="#F4E887" stroke="none" d="
M 341.65 377.3
Q 341.5 377.2 341.3 377.3
L 339.7 378.25
Q 339.5 378.35 339.5 378.55 339.5 378.75 339.7 378.85
L 341.35 379.8
Q 341.5 379.9 341.65 379.8
L 343.3 378.85
Q 343.45 378.75 343.45 378.55 343.45 378.35 343.3 378.25
L 341.65 377.3 Z"/>
</g>
</defs>

<g transform="matrix( 6.56085205078125, 0, 0, 6.56085205078125, -1612.7,-2249.7) ">
<use xlink:href="#Layer0_0_MEMBER_0_MEMBER_0_MEMBER_0_FILL"/>
</g>

<g transform="matrix( 6.56085205078125, 0, 0, 6.56085205078125, -1612.7,-2249.7) ">
<use xlink:href="#Layer0_0_MEMBER_0_MEMBER_1_MEMBER_0_FILL"/>
</g>

<g transform="matrix( 6.56085205078125, 0, 0, 6.56085205078125, -1612.7,-2249.7) ">
<use xlink:href="#Layer0_0_MEMBER_0_MEMBER_2_MEMBER_0_FILL"/>
</g>

<g transform="matrix( 6.56085205078125, 0, 0, 6.56085205078125, -1612.7,-2249.7) ">
<use xlink:href="#Layer0_0_MEMBER_0_MEMBER_3_MEMBER_0_FILL"/>
</g>

<g transform="matrix( 6.56085205078125, 0, 0, 6.56085205078125, -1612.7,-2249.7) ">
<use xlink:href="#Layer0_0_MEMBER_0_MEMBER_4_MEMBER_0_FILL"/>
</g>

<g transform="matrix( 6.56085205078125, 0, 0, 6.56085205078125, -1612.7,-2249.7) ">
<use xlink:href="#Layer0_0_MEMBER_0_MEMBER_5_MEMBER_0_FILL"/>
</g>

<g transform="matrix( 6.56085205078125, 0, 0, 6.56085205078125, -1612.7,-2249.7) ">
<use xlink:href="#Layer0_0_MEMBER_0_MEMBER_6_MEMBER_0_FILL"/>
</g>

<g transform="matrix( 6.56085205078125, 0, 0, 6.56085205078125, -1612.7,-2249.7) ">
<use xlink:href="#Layer0_0_MEMBER_0_MEMBER_7_MEMBER_0_FILL"/>
</g>

<g transform="matrix( 6.56085205078125, 0, 0, 6.56085205078125, -1612.7,-2249.7) ">
<use xlink:href="#Layer0_0_MEMBER_0_MEMBER_8_MEMBER_0_FILL"/>
</g>

<g transform="matrix( 6.56085205078125, 0, 0, 6.56085205078125, -1612.7,-2249.7) ">
<use xlink:href="#Layer0_0_MEMBER_0_MEMBER_9_MEMBER_0_FILL"/>
</g>

<g transform="matrix( 6.56085205078125, 0, 0, 6.56085205078125, -1612.7,-2249.7) ">
<use xlink:href="#Layer0_0_MEMBER_0_MEMBER_10_MEMBER_0_FILL"/>
</g>

<g transform="matrix( 6.56085205078125, 0, 0, 6.56085205078125, -1612.7,-2249.7) ">
<use xlink:href="#Layer0_0_MEMBER_0_MEMBER_11_MEMBER_0_FILL"/>
</g>

<g transform="matrix( 6.56085205078125, 0, 0, 6.56085205078125, -1612.7,-2249.7) ">
<use xlink:href="#Layer0_0_MEMBER_0_MEMBER_12_MEMBER_0_FILL"/>
</g>

<g transform="matrix( 6.56085205078125, 0, 0, 6.56085205078125, -1612.7,-2249.7) ">
<use xlink:href="#Layer0_0_MEMBER_0_MEMBER_13_MEMBER_0_FILL"/>
</g>

<g transform="matrix( 6.56085205078125, 0, 0, 6.56085205078125, -1612.7,-2249.7) ">
<use xlink:href="#Layer0_0_MEMBER_0_MEMBER_14_MEMBER_0_FILL"/>
</g>

<g transform="matrix( 6.56085205078125, 0, 0, 6.56085205078125, -1612.7,-2249.7) ">
<use xlink:href="#Layer0_0_MEMBER_0_MEMBER_15_MEMBER_0_FILL"/>
</g>

<g transform="matrix( 6.56085205078125, 0, 0, 6.56085205078125, -1612.7,-2249.7) ">
<use xlink:href="#Layer0_0_MEMBER_0_MEMBER_16_MEMBER_0_FILL"/>
</g>

<g transform="matrix( 6.56085205078125, 0, 0, 6.56085205078125, -1612.7,-2249.7) ">
<use xlink:href="#Layer0_0_MEMBER_0_MEMBER_17_MEMBER_0_FILL"/>
</g>

<g transform="matrix( 6.56085205078125, 0, 0, 6.56085205078125, -1612.7,-2249.7) ">
<use xlink:href="#Layer0_0_MEMBER_0_MEMBER_18_MEMBER_0_FILL"/>
</g>

<g transform="matrix( 6.56085205078125, 0, 0, 6.56085205078125, -1612.7,-2249.7) ">
<use xlink:href="#Layer0_0_MEMBER_0_MEMBER_19_MEMBER_0_FILL"/>
</g>

<g transform="matrix( 6.56085205078125, 0, 0, 6.56085205078125, -1612.7,-2249.7) ">
<use xlink:href="#Layer0_0_MEMBER_0_MEMBER_20_MEMBER_0_FILL"/>
</g>

<g transform="matrix( 6.56085205078125, 0, 0, 6.56085205078125, -1612.7,-2249.7) ">
<use xlink:href="#Layer0_0_MEMBER_0_MEMBER_21_MEMBER_0_FILL"/>
</g>

<g transform="matrix( 6.56085205078125, 0, 0, 6.56085205078125, -1612.7,-2249.7) ">
<use xlink:href="#Layer0_0_MEMBER_0_MEMBER_22_MEMBER_0_FILL"/>
</g>

<g transform="matrix( 6.56085205078125, 0, 0, 6.56085205078125, -1612.7,-2249.7) ">
<use xlink:href="#Layer0_0_MEMBER_0_MEMBER_23_MEMBER_0_FILL"/>
</g>

<g transform="matrix( 6.56085205078125, 0, 0, 6.56085205078125, -1612.7,-2249.7) ">
<use xlink:href="#Layer0_0_MEMBER_0_MEMBER_24_FILL"/>
</g>

<g transform="matrix( 6.56085205078125, 0, 0, 6.56085205078125, -1612.7,-2249.7) ">
<use xlink:href="#Layer0_0_MEMBER_0_MEMBER_25_FILL"/>
</g>

<g transform="matrix( 6.56085205078125, 0, 0, 6.56085205078125, -1612.7,-2249.7) ">
<use xlink:href="#Layer0_0_MEMBER_0_MEMBER_26_FILL"/>
</g>

<g transform="matrix( 6.56085205078125, 0, 0, 6.56085205078125, -1612.7,-2249.7) ">
<use xlink:href="#Layer0_0_MEMBER_0_MEMBER_27_FILL"/>
</g>

<g transform="matrix( 6.56085205078125, 0, 0, 6.56085205078125, -1612.7,-2249.7) ">
<use xlink:href="#Layer0_0_MEMBER_0_MEMBER_28_FILL"/>
</g>

<g transform="matrix( 6.56085205078125, 0, 0, 6.56085205078125, -1612.7,-2249.7) ">
<use xlink:href="#Layer0_0_MEMBER_0_MEMBER_29_FILL"/>
</g>

<g transform="matrix( 6.56085205078125, 0, 0, 6.56085205078125, 268.5,481.5) ">
<use xlink:href="#Layer0_0_MEMBER_1_FILL"/>
</g>

<g transform="matrix( 6.56085205078125, 0, 0, 6.56085205078125, 647.1,361.7) ">
<use xlink:href="#Layer0_0_MEMBER_2_MEMBER_0_MEMBER_0_FILL"/>
</g>

<g transform="matrix( 6.56085205078125, 0, 0, 6.56085205078125, 647.1,361.7) ">
<use xlink:href="#Layer0_0_MEMBER_2_MEMBER_1_MEMBER_0_FILL"/>
</g>

<g transform="matrix( 6.56085205078125, 0, 0, 6.56085205078125, 647.1,361.7) ">
<use xlink:href="#Layer0_0_MEMBER_2_MEMBER_2_MEMBER_0_FILL"/>
</g>

<g transform="matrix( 6.56085205078125, 0, 0, 6.56085205078125, 529.65,482.15) ">
<use xlink:href="#Layer0_0_MEMBER_3_MEMBER_0_MEMBER_0_FILL"/>
</g>

<g transform="matrix( 6.56085205078125, 0, 0, 6.56085205078125, 529.65,482.15) ">
<use xlink:href="#Layer0_0_MEMBER_3_MEMBER_1_MEMBER_0_FILL"/>
</g>

<g transform="matrix( 6.56085205078125, 0, 0, 6.56085205078125, 529.65,482.15) ">
<use xlink:href="#Layer0_0_MEMBER_3_MEMBER_2_MEMBER_0_FILL"/>
</g>

<g transform="matrix( 6.56085205078125, 0, 0, 6.56085205078125, 412.85,442.45) ">
<use xlink:href="#Layer0_0_MEMBER_4_MEMBER_0_MEMBER_0_FILL"/>
</g>

<g transform="matrix( 6.56085205078125, 0, 0, 6.56085205078125, 412.85,442.45) ">
<use xlink:href="#Layer0_0_MEMBER_4_MEMBER_1_MEMBER_0_FILL"/>
</g>

<g transform="matrix( 6.56085205078125, 0, 0, 6.56085205078125, 412.85,442.45) ">
<use xlink:href="#Layer0_0_MEMBER_4_MEMBER_2_MEMBER_0_FILL"/>
</g>

<g transform="matrix( 6.56085205078125, 0, 0, 6.56085205078125, 311.8,635) ">
<use xlink:href="#Layer0_0_MEMBER_5_MEMBER_0_MEMBER_0_FILL"/>
</g>

<g transform="matrix( 6.56085205078125, 0, 0, 6.56085205078125, 311.8,635) ">
<use xlink:href="#Layer0_0_MEMBER_5_MEMBER_1_MEMBER_0_FILL"/>
</g>

<g transform="matrix( 6.56085205078125, 0, 0, 6.56085205078125, 311.8,635) ">
<use xlink:href="#Layer0_0_MEMBER_5_MEMBER_2_MEMBER_0_FILL"/>
</g>

<g transform="matrix( 6.56085205078125, 0, 0, 6.56085205078125, -1612.7,-2249.7) ">
<use xlink:href="#Layer0_0_MEMBER_6_MEMBER_0_FILL"/>
</g>

<g transform="matrix( 6.56085205078125, 0, 0, 6.56085205078125, -1612.7,-2249.7) ">
<use xlink:href="#Layer0_0_MEMBER_6_MEMBER_1_FILL"/>
</g>

<g transform="matrix( 6.56085205078125, 0, 0, 6.56085205078125, -1612.7,-2249.7) ">
<use xlink:href="#Layer0_0_MEMBER_6_MEMBER_2_FILL"/>
</g>

<g transform="matrix( 6.56085205078125, 0, 0, 6.56085205078125, -1612.7,-2249.7) ">
<use xlink:href="#Layer0_0_MEMBER_6_MEMBER_3_MEMBER_0_FILL"/>
</g>

<g transform="matrix( 6.56085205078125, 0, 0, 6.56085205078125, -1612.7,-2249.7) ">
<use xlink:href="#Layer0_0_MEMBER_6_MEMBER_4_MEMBER_0_FILL"/>
</g>

<g transform="matrix( 6.56085205078125, 0, 0, 6.56085205078125, -1612.7,-2249.7) ">
<use xlink:href="#Layer0_0_MEMBER_6_MEMBER_5_MEMBER_0_FILL"/>
</g>

<g transform="matrix( 6.56085205078125, 0, 0, 6.56085205078125, -1612.7,-2249.7) ">
<use xlink:href="#Layer0_0_MEMBER_6_MEMBER_6_FILL"/>
</g>

<g transform="matrix( 6.56085205078125, 0, 0, 6.56085205078125, -1612.7,-2249.7) ">
<use xlink:href="#Layer0_0_MEMBER_6_MEMBER_7_MEMBER_0_FILL"/>
</g>

<g transform="matrix( 6.56085205078125, 0, 0, 6.56085205078125, -1612.7,-2249.7) ">
<use xlink:href="#Layer0_0_MEMBER_6_MEMBER_8_MEMBER_0_FILL"/>
</g>

<g transform="matrix( 6.56085205078125, 0, 0, 6.56085205078125, -1612.7,-2249.7) ">
<use xlink:href="#Layer0_0_MEMBER_6_MEMBER_9_MEMBER_0_FILL"/>
</g>

<g transform="matrix( 6.56085205078125, 0, 0, 6.56085205078125, -1612.7,-2249.7) ">
<use xlink:href="#Layer0_0_MEMBER_7_MEMBER_0_FILL"/>
</g>

<g transform="matrix( 6.56085205078125, 0, 0, 6.56085205078125, -1612.7,-2249.7) ">
<use xlink:href="#Layer0_0_MEMBER_7_MEMBER_1_FILL"/>
</g>

<g transform="matrix( 6.56085205078125, 0, 0, 6.56085205078125, -1612.7,-2249.7) ">
<use xlink:href="#Layer0_0_MEMBER_7_MEMBER_2_FILL"/>
</g>

<g transform="matrix( 6.56085205078125, 0, 0, 6.56085205078125, -1612.7,-2249.7) ">
<use xlink:href="#Layer0_0_MEMBER_7_MEMBER_3_MEMBER_0_FILL"/>
</g>

<g transform="matrix( 6.56085205078125, 0, 0, 6.56085205078125, -1612.7,-2249.7) ">
<use xlink:href="#Layer0_0_MEMBER_7_MEMBER_4_MEMBER_0_FILL"/>
</g>

<g transform="matrix( 6.56085205078125, 0, 0, 6.56085205078125, -1612.7,-2249.7) ">
<use xlink:href="#Layer0_0_MEMBER_7_MEMBER_5_MEMBER_0_FILL"/>
</g>

<g transform="matrix( 6.56085205078125, 0, 0, 6.56085205078125, -1612.7,-2249.7) ">
<use xlink:href="#Layer0_0_MEMBER_7_MEMBER_6_FILL"/>
</g>

<g transform="matrix( 6.56085205078125, 0, 0, 6.56085205078125, -1612.7,-2249.7) ">
<use xlink:href="#Layer0_0_MEMBER_7_MEMBER_7_MEMBER_0_FILL"/>
</g>

<g transform="matrix( 6.56085205078125, 0, 0, 6.56085205078125, -1612.7,-2249.7) ">
<use xlink:href="#Layer0_0_MEMBER_7_MEMBER_8_MEMBER_0_FILL"/>
</g>

<g transform="matrix( 6.56085205078125, 0, 0, 6.56085205078125, -1612.7,-2249.7) ">
<use xlink:href="#Layer0_0_MEMBER_7_MEMBER_9_MEMBER_0_FILL"/>
</g>

<g transform="matrix( 6.56085205078125, 0, 0, 6.56085205078125, -1612.7,-2249.7) ">
<use xlink:href="#Layer0_0_MEMBER_8_MEMBER_0_FILL"/>
</g>

<g transform="matrix( 6.56085205078125, 0, 0, 6.56085205078125, -1612.7,-2249.7) ">
<use xlink:href="#Layer0_0_MEMBER_8_MEMBER_1_FILL"/>
</g>

<g transform="matrix( 6.56085205078125, 0, 0, 6.56085205078125, -1612.7,-2249.7) ">
<use xlink:href="#Layer0_0_MEMBER_8_MEMBER_2_FILL"/>
</g>

<g transform="matrix( 6.56085205078125, 0, 0, 6.56085205078125, -1612.7,-2249.7) ">
<use xlink:href="#Layer0_0_MEMBER_8_MEMBER_3_MEMBER_0_FILL"/>
</g>

<g transform="matrix( 6.56085205078125, 0, 0, 6.56085205078125, -1612.7,-2249.7) ">
<use xlink:href="#Layer0_0_MEMBER_8_MEMBER_4_MEMBER_0_FILL"/>
</g>

<g transform="matrix( 6.56085205078125, 0, 0, 6.56085205078125, -1612.7,-2249.7) ">
<use xlink:href="#Layer0_0_MEMBER_8_MEMBER_5_MEMBER_0_FILL"/>
</g>

<g transform="matrix( 6.56085205078125, 0, 0, 6.56085205078125, -1612.7,-2249.7) ">
<use xlink:href="#Layer0_0_MEMBER_8_MEMBER_6_FILL"/>
</g>

<g transform="matrix( 6.56085205078125, 0, 0, 6.56085205078125, -1612.7,-2249.7) ">
<use xlink:href="#Layer0_0_MEMBER_8_MEMBER_7_MEMBER_0_FILL"/>
</g>

<g transform="matrix( 6.56085205078125, 0, 0, 6.56085205078125, -1612.7,-2249.7) ">
<use xlink:href="#Layer0_0_MEMBER_8_MEMBER_8_MEMBER_0_FILL"/>
</g>

<g transform="matrix( 6.56085205078125, 0, 0, 6.56085205078125, -1612.7,-2249.7) ">
<use xlink:href="#Layer0_0_MEMBER_8_MEMBER_9_MEMBER_0_FILL"/>
</g>

<g transform="matrix( 6.56085205078125, 0, 0, 6.56085205078125, -1612.7,-2249.7) ">
<use xlink:href="#Layer0_0_MEMBER_9_MEMBER_0_FILL"/>
</g>

<g transform="matrix( 6.56085205078125, 0, 0, 6.56085205078125, -1612.7,-2249.7) ">
<use xlink:href="#Layer0_0_MEMBER_9_MEMBER_1_FILL"/>
</g>

<g transform="matrix( 6.56085205078125, 0, 0, 6.56085205078125, -1612.7,-2249.7) ">
<use xlink:href="#Layer0_0_MEMBER_9_MEMBER_2_FILL"/>
</g>

<g transform="matrix( 6.56085205078125, 0, 0, 6.56085205078125, -1612.7,-2249.7) ">
<use xlink:href="#Layer0_0_MEMBER_9_MEMBER_3_MEMBER_0_FILL"/>
</g>

<g transform="matrix( 6.56085205078125, 0, 0, 6.56085205078125, -1612.7,-2249.7) ">
<use xlink:href="#Layer0_0_MEMBER_9_MEMBER_4_MEMBER_0_FILL"/>
</g>

<g transform="matrix( 6.56085205078125, 0, 0, 6.56085205078125, -1612.7,-2249.7) ">
<use xlink:href="#Layer0_0_MEMBER_9_MEMBER_5_MEMBER_0_FILL"/>
</g>

<g transform="matrix( 6.56085205078125, 0, 0, 6.56085205078125, -1612.7,-2249.7) ">
<use xlink:href="#Layer0_0_MEMBER_9_MEMBER_6_FILL"/>
</g>

<g transform="matrix( 6.56085205078125, 0, 0, 6.56085205078125, -1612.7,-2249.7) ">
<use xlink:href="#Layer0_0_MEMBER_9_MEMBER_7_MEMBER_0_FILL"/>
</g>

<g transform="matrix( 6.56085205078125, 0, 0, 6.56085205078125, -1612.7,-2249.7) ">
<use xlink:href="#Layer0_0_MEMBER_9_MEMBER_8_MEMBER_0_FILL"/>
</g>

<g transform="matrix( 6.56085205078125, 0, 0, 6.56085205078125, -1612.7,-2249.7) ">
<use xlink:href="#Layer0_0_MEMBER_9_MEMBER_9_MEMBER_0_FILL"/>
</g>

<g transform="matrix( 6.56085205078125, 0, 0, 6.56085205078125, -1612.7,-2249.7) ">
<use xlink:href="#Layer0_0_MEMBER_10_MEMBER_0_FILL"/>
</g>

<g transform="matrix( 6.56085205078125, 0, 0, 6.56085205078125, -1612.7,-2249.7) ">
<use xlink:href="#Layer0_0_MEMBER_10_MEMBER_1_FILL"/>
</g>

<g transform="matrix( 6.56085205078125, 0, 0, 6.56085205078125, -1612.7,-2249.7) ">
<use xlink:href="#Layer0_0_MEMBER_10_MEMBER_2_FILL"/>
</g>

<g transform="matrix( 6.56085205078125, 0, 0, 6.56085205078125, -1612.7,-2249.7) ">
<use xlink:href="#Layer0_0_MEMBER_10_MEMBER_3_FILL"/>
</g>

<g transform="matrix( 6.56085205078125, 0, 0, 6.56085205078125, -1612.7,-2249.7) ">
<use xlink:href="#Layer0_0_MEMBER_10_MEMBER_4_MEMBER_0_FILL"/>
</g>

<g transform="matrix( 6.56085205078125, 0, 0, 6.56085205078125, -1612.7,-2249.7) ">
<use xlink:href="#Layer0_0_MEMBER_10_MEMBER_4_MEMBER_1_FILL"/>
</g>

<g transform="matrix( 6.56085205078125, 0, 0, 6.56085205078125, -1612.7,-2249.7) ">
<use xlink:href="#Layer0_0_MEMBER_10_MEMBER_4_MEMBER_2_FILL"/>
</g>

<g transform="matrix( 6.56085205078125, 0, 0, 6.56085205078125, -1612.7,-2249.7) ">
<use xlink:href="#Layer0_0_MEMBER_10_MEMBER_4_MEMBER_3_FILL"/>
</g>

<g transform="matrix( 6.56085205078125, 0, 0, 6.56085205078125, -1612.7,-2249.7) ">
<use xlink:href="#Layer0_0_MEMBER_10_MEMBER_4_MEMBER_4_FILL"/>
</g>

<g transform="matrix( 6.56085205078125, 0, 0, 6.56085205078125, -1612.7,-2249.7) ">
<use xlink:href="#Layer0_0_MEMBER_10_MEMBER_4_MEMBER_5_FILL"/>
</g>

<g transform="matrix( 6.56085205078125, 0, 0, 6.56085205078125, -1612.7,-2249.7) ">
<use xlink:href="#Layer0_0_MEMBER_10_MEMBER_5_FILL"/>
</g>

<g transform="matrix( 6.56085205078125, 0, 0, 6.56085205078125, -1612.7,-2249.7) ">
<use xlink:href="#Layer0_0_MEMBER_10_MEMBER_6_FILL"/>
</g>

<g transform="matrix( 6.56085205078125, 0, 0, 6.56085205078125, -1612.7,-2249.7) ">
<use xlink:href="#Layer0_0_MEMBER_10_MEMBER_7_FILL"/>
</g>

<g transform="matrix( 6.56085205078125, 0, 0, 6.56085205078125, -1612.7,-2249.7) ">
<use xlink:href="#Layer0_0_MEMBER_10_MEMBER_8_FILL"/>
</g>

<g transform="matrix( 6.56085205078125, 0, 0, 6.56085205078125, -1612.7,-2249.7) ">
<use xlink:href="#Layer0_0_MEMBER_10_MEMBER_9_FILL"/>
</g>

<g transform="matrix( 6.56085205078125, 0, 0, 6.56085205078125, -1612.7,-2249.7) ">
<use xlink:href="#Layer0_0_MEMBER_10_MEMBER_10_FILL"/>
</g>

<g transform="matrix( 6.56085205078125, 0, 0, 6.56085205078125, -1612.7,-2249.7) ">
<use xlink:href="#Layer0_0_MEMBER_10_MEMBER_11_MEMBER_0_FILL"/>
</g>

<g transform="matrix( 6.56085205078125, 0, 0, 6.56085205078125, -1612.7,-2249.7) ">
<use xlink:href="#Layer0_0_MEMBER_10_MEMBER_11_MEMBER_1_FILL"/>
</g>

<g transform="matrix( 6.56085205078125, 0, 0, 6.56085205078125, -1612.7,-2249.7) ">
<use xlink:href="#Layer0_0_MEMBER_10_MEMBER_11_MEMBER_2_FILL"/>
</g>

<g transform="matrix( 6.56085205078125, 0, 0, 6.56085205078125, -1612.7,-2249.7) ">
<use xlink:href="#Layer0_0_MEMBER_10_MEMBER_11_MEMBER_3_FILL"/>
</g>

<g transform="matrix( 6.56085205078125, 0, 0, 6.56085205078125, -1612.7,-2249.7) ">
<use xlink:href="#Layer0_0_MEMBER_10_MEMBER_12_FILL"/>
</g>

<g transform="matrix( 6.56085205078125, 0, 0, 6.56085205078125, -1612.7,-2249.7) ">
<use xlink:href="#Layer0_0_MEMBER_10_MEMBER_13_FILL"/>
</g>

<g transform="matrix( 6.56085205078125, 0, 0, 6.56085205078125, -1612.7,-2249.7) ">
<use xlink:href="#Layer0_0_MEMBER_10_MEMBER_14_FILL"/>
</g>

<g transform="matrix( 6.56085205078125, 0, 0, 6.56085205078125, 492.9,462.8) ">
<use xlink:href="#Layer0_0_MEMBER_10_MEMBER_15_MEMBER_0_MEMBER_0_MEMBER_0_FILL"/>
</g>

<g transform="matrix( 6.56085205078125, 0, 0, 6.56085205078125, 492.9,462.8) ">
<use xlink:href="#Layer0_0_MEMBER_10_MEMBER_15_MEMBER_0_MEMBER_1_MEMBER_0_FILL"/>
</g>

<g transform="matrix( 6.56085205078125, 0, 0, 6.56085205078125, 492.9,462.8) ">
<use xlink:href="#Layer0_0_MEMBER_10_MEMBER_15_MEMBER_0_MEMBER_2_MEMBER_0_FILL"/>
</g>

<g transform="matrix( 6.56085205078125, 0, 0, 6.56085205078125, 524.4,442.75) ">
<use xlink:href="#Layer0_0_MEMBER_10_MEMBER_15_MEMBER_1_MEMBER_0_MEMBER_0_FILL"/>
</g>

<g transform="matrix( 6.56085205078125, 0, 0, 6.56085205078125, 524.4,442.75) ">
<use xlink:href="#Layer0_0_MEMBER_10_MEMBER_15_MEMBER_1_MEMBER_1_MEMBER_0_FILL"/>
</g>

<g transform="matrix( 6.56085205078125, 0, 0, 6.56085205078125, 524.4,442.75) ">
<use xlink:href="#Layer0_0_MEMBER_10_MEMBER_15_MEMBER_1_MEMBER_2_MEMBER_0_FILL"/>
</g>

<g transform="matrix( 6.56085205078125, 0, 0, 6.56085205078125, 524.4,442.75) ">
<use xlink:href="#Layer0_0_MEMBER_10_MEMBER_15_MEMBER_1_MEMBER_3_MEMBER_0_FILL"/>
</g>

<g transform="matrix( 6.56085205078125, 0, 0, 6.56085205078125, -1612.7,-2249.7) ">
<use xlink:href="#Layer0_0_MEMBER_10_MEMBER_16_MEMBER_0_FILL"/>
</g>

<g transform="matrix( 6.56085205078125, 0, 0, 6.56085205078125, -1612.7,-2249.7) ">
<use xlink:href="#Layer0_0_MEMBER_10_MEMBER_16_MEMBER_1_FILL"/>
</g>

<g transform="matrix( 6.56085205078125, 0, 0, 6.56085205078125, -1612.7,-2249.7) ">
<use xlink:href="#Layer0_0_MEMBER_10_MEMBER_16_MEMBER_2_FILL"/>
</g>

<g transform="matrix( 6.56085205078125, 0, 0, 6.56085205078125, 179.9,506.4) ">
<use xlink:href="#Layer0_0_MEMBER_11_MEMBER_0_FILL"/>
</g>

<g transform="matrix( 6.56085205078125, 0, 0, 6.56085205078125, 179.9,464.1) ">
<use xlink:href="#Layer0_0_MEMBER_11_MEMBER_1_FILL"/>
</g>

<g transform="matrix( 6.56085205078125, 0, 0, 6.56085205078125, 179.9,472.65) ">
<use xlink:href="#Layer0_0_MEMBER_11_MEMBER_2_FILL"/>
</g>

<g transform="matrix( 6.56085205078125, 0, 0, 6.56085205078125, 179.9,481.15) ">
<use xlink:href="#Layer0_0_MEMBER_11_MEMBER_3_FILL"/>
</g>

<g transform="matrix( 6.56085205078125, 0, 0, 6.56085205078125, 179.9,490) ">
<use xlink:href="#Layer0_0_MEMBER_11_MEMBER_4_FILL"/>
</g>

<g transform="matrix( 6.56085205078125, 0, 0, 6.56085205078125, 179.9,498.55) ">
<use xlink:href="#Layer0_0_MEMBER_11_MEMBER_5_FILL"/>
</g>

<g transform="matrix( 6.56085205078125, 0, 0, 6.56085205078125, -1612.7,-2249.7) ">
<use xlink:href="#Layer0_0_MEMBER_11_MEMBER_6_MEMBER_0_FILL"/>
</g>

<g transform="matrix( 6.56085205078125, 0, 0, 6.56085205078125, 331.5,365.7) ">
<use xlink:href="#Layer0_0_MEMBER_12_MEMBER_0_FILL"/>
</g>

<g transform="matrix( 6.56085205078125, 0, 0, 6.56085205078125, 331.5,304) ">
<use xlink:href="#Layer0_0_MEMBER_12_MEMBER_1_FILL"/>
</g>

<g transform="matrix( 6.56085205078125, 0, 0, 6.56085205078125, 331.5,316.15) ">
<use xlink:href="#Layer0_0_MEMBER_12_MEMBER_2_FILL"/>
</g>

<g transform="matrix( 6.56085205078125, 0, 0, 6.56085205078125, 331.5,328.6) ">
<use xlink:href="#Layer0_0_MEMBER_12_MEMBER_3_FILL"/>
</g>

<g transform="matrix( 6.56085205078125, 0, 0, 6.56085205078125, 331.5,341.05) ">
<use xlink:href="#Layer0_0_MEMBER_12_MEMBER_4_FILL"/>
</g>

<g transform="matrix( 6.56085205078125, 0, 0, 6.56085205078125, 331.5,353.2) ">
<use xlink:href="#Layer0_0_MEMBER_12_MEMBER_5_FILL"/>
</g>

<g transform="matrix( 6.56085205078125, 0, 0, 6.56085205078125, -1612.7,-2249.7) ">
<use xlink:href="#Layer0_0_MEMBER_12_MEMBER_6_FILL"/>
</g>

<g transform="matrix( 6.56085205078125, 0, 0, 6.56085205078125, 614.6,237.05) ">
<use xlink:href="#Layer0_0_MEMBER_13_MEMBER_0_FILL"/>
</g>

<g transform="matrix( 6.56085205078125, 0, 0, 6.56085205078125, 614.6,248.9) ">
<use xlink:href="#Layer0_0_MEMBER_13_MEMBER_1_FILL"/>
</g>

<g transform="matrix( 6.56085205078125, 0, 0, 6.56085205078125, 614.6,260.7) ">
<use xlink:href="#Layer0_0_MEMBER_13_MEMBER_2_FILL"/>
</g>

<g transform="matrix( 6.56085205078125, 0, 0, 6.56085205078125, 614.6,272.55) ">
<use xlink:href="#Layer0_0_MEMBER_13_MEMBER_3_FILL"/>
</g>

<g transform="matrix( 6.56085205078125, 0, 0, 6.56085205078125, 614.6,284.3) ">
<use xlink:href="#Layer0_0_MEMBER_13_MEMBER_4_FILL"/>
</g>

<g transform="matrix( 6.56085205078125, 0, 0, 6.56085205078125, 614.6,296.1) ">
<use xlink:href="#Layer0_0_MEMBER_13_MEMBER_5_FILL"/>
</g>

<g transform="matrix( 6.56085205078125, 0, 0, 6.56085205078125, -1612.7,-2249.7) ">
<use xlink:href="#Layer0_0_MEMBER_13_MEMBER_6_MEMBER_0_FILL"/>
</g>
</svg>
