<?xml version="1.0" encoding="utf-8"?>
<svg version="1.1" xmlns:xlink="http://www.w3.org/1999/xlink" width="10px" height="8px" xmlns="http://www.w3.org/2000/svg">
  <g transform="matrix(1 0 0 1 -91 -86 )">
    <path d="M 4.40825 7.135  C 4.2635 7.27975  4.07375 7.3525  3.88475 7.3525  C 3.695 7.3525  3.506 7.27975  3.36125 7.135  L 0.3995 4.16125  C 0.11075 3.871  0.11075 3.4  0.3995 3.10975  C 0.689 2.8195  1.15775 2.8195  1.4465 3.10975  L 3.88475 5.55775  L 8.54375 0.88  C 8.8325 0.589  9.30125 0.589  9.59075 0.88  C 9.8795 1.17025  9.8795 1.6405  9.59075 1.93075  L 4.40825 7.135  Z " fill-rule="nonzero" fill="#ffffff" stroke="none" transform="matrix(1 0 0 1 91 86 )" />
  </g>
</svg>