<?xml version="1.0" encoding="utf-8"?>
<svg version="1.1" xmlns:xlink="http://www.w3.org/1999/xlink" width="40px" height="40px" xmlns="http://www.w3.org/2000/svg">
  <g transform="matrix(1 0 0 1 -69 -68 )">
    <path d="M 0.03515625 39.765625  C 0.62890625 29.546875  8.9609375 21.38671875  19.33984375 21.0546875  C 30.1484375 20.7109375  39.28125 28.98828125  39.99609375 39.765625  L 37.05078125 39.765625  C 36.35546875 30.65625  28.6015625 23.68359375  19.4296875 23.9765625  C 10.62890625 24.25390625  3.55078125 31.12890625  2.95703125 39.765625  L 0.03515625 39.765625  Z M 26.828125 9.890625  C 26.828125 6.109375  23.76171875 3.0390625  19.9765625 3.0390625  C 16.19140625 3.0390625  13.12109375 6.10546875  13.12109375 9.890625  C 13.12109375 13.6796875  16.19140625 16.75  19.9765625 16.75  C 23.765625 16.75  26.828125 13.6796875  26.828125 9.890625  Z M 10.3125 9.890625  C 10.3125 4.55859375  14.640625 0.23046875  19.9765625 0.23046875  C 25.31640625 0.23046875  29.640625 4.55859375  29.640625 9.890625  C 29.640625 15.23046875  25.3125 19.5546875  19.9765625 19.5546875  C 14.640625 19.55859375  10.3125 15.23046875  10.3125 9.890625  Z " fill-rule="nonzero" fill="#ffffff" stroke="none" transform="matrix(1 0 0 1 69 68 )" />
  </g>
</svg>