<?xml version="1.0" encoding="utf-8"?>
<svg version="1.1" xmlns:xlink="http://www.w3.org/1999/xlink" width="36px" height="36px" xmlns="http://www.w3.org/2000/svg">
  <g transform="matrix(1 0 0 1 -494 -70 )">
    <path d="M 35.5 28  C 35.5 27.25  35 26.75  34.25 26.75  L 29.25 26.75  L 29.25 21.75  C 29.25 21.125  28.75 20.5  28 20.5  C 27.25 20.5  26.75 21  26.75 21.75  L 26.75 26.75  L 21.75 26.75  C 21.125 26.75  20.5 27.25  20.5 28  C 20.5 28.75  21 29.25  21.75 29.25  L 26.75 29.25  L 26.75 34.25  C 26.75 34.875  27.25 35.5  28 35.5  C 28.75 35.5  29.25 35  29.25 34.25  L 29.25 29.25  L 34.25 29.25  C 34.875 29.25  35.5 28.75  35.5 28  Z M 18 20.5  C 23.5 20.5  28 16  28 10.5  C 28 5  23.5 0.5  18 0.5  C 12.5 0.5  8 5  8 10.5  C 8 14  9.75 17.125  12.5 18.875  C 5.5 21.125  0.5 27.75  0.5 35.5  L 3 35.5  C 3 27.25  9.75 20.5  18 20.5  Z M 25.5 10.5  C 25.5 14.625  22.125 18  18 18  C 13.875 18  10.5 14.625  10.5 10.5  C 10.5 6.375  13.875 3  18 3  C 22.125 3  25.5 6.375  25.5 10.5  Z " fill-rule="nonzero" fill="#ffffff" stroke="none" transform="matrix(1 0 0 1 494 70 )" />
  </g>
</svg>