<?xml version="1.0" encoding="utf-8"?>
<svg version="1.1" xmlns:xlink="http://www.w3.org/1999/xlink" width="10px" height="13px" xmlns="http://www.w3.org/2000/svg">
  <g transform="matrix(1 0 0 1 -926 -82 )">
    <path d="M 9.5 11.25  C 9.5 10.5  9 10  8.25 10  L 2 10  C 1.25 10  0.75 10.5  0.75 11.25  C 0.75 12  1.25 12.5  2 12.5  L 8.25 12.5  C 9 12.5  9.5 12  9.5 11.25  Z M 9.5 1.25  C 9.5 0.5  9 0  8.25 0  L 2 0  C 1.25 0  0.75 0.5  0.75 1.25  C 0.75 2  1.25 2.5  2 2.5  L 8.25 2.5  C 9 2.5  9.5 2  9.5 1.25  Z " fill-rule="nonzero" fill="#ffffff" stroke="none" transform="matrix(1 0 0 1 926 82 )" />
  </g>
</svg>