<?xml version="1.0" encoding="utf-8"?>
<svg version="1.1" xmlns:xlink="http://www.w3.org/1999/xlink" width="40px" height="36px" xmlns="http://www.w3.org/2000/svg">
  <g transform="matrix(1 0 0 1 -918 -70 )">
    <path d="M 40 34.625  C 40 33.875  39.5 33.25  38.75 33.25  L 36 33.25  L 36 16  C 36.25 14.5  35.125 13.125  33.625 12.75  L 22.5 9.875  L 22.5 3.25  C 22.5 2.375  22.125 1.5  21.375 1  C 20.5 0.375  19.25 0.125  18 0.5  L 6.5 3.375  C 4.875 3.75  3.75 5.25  4 6.875  L 4 33.375  L 1.25 33.375  C 0.5 33.375  0 33.875  0 34.625  C 0 35.375  0.5 35.875  1.25 35.875  L 38.75 35.875  C 39.5 35.875  40 35.375  40 34.625  Z M 20 3.25  L 20 33  L 7 33  L 7 6.875  C 6.25 6.375  6.625 5.875  7.125 5.75  L 18.625 2.75  C 19.25 2.625  19.625 2.75  19.875 2.875  C 20 3  20 3.125  20 3.25  Z M 33 16  L 33 33  L 22 33  L 22 12.375  L 33 15.125  C 33.375 15.25  33.75 15.75  33 16  Z " fill-rule="nonzero" fill="#ffffff" stroke="none" transform="matrix(1 0 0 1 918 70 )" />
  </g>
</svg>