<?xml version="1.0" encoding="utf-8"?>
<svg version="1.1" xmlns:xlink="http://www.w3.org/1999/xlink" width="26px" height="35px" xmlns="http://www.w3.org/2000/svg">
  <g transform="matrix(1 0 0 1 -1344 -70 )">
    <path d="M 20.44140625 13.76171875  C 22.0625 13.76171875  23.625 14.07421875  25.08984375 14.69921875  C 25.24609375 14.7578125  25.40234375 14.8359375  25.55859375 14.89453125  L 25.55859375 4.69921875  L 20.890625 0.8125  L 5.36328125 6.359375  L 5.36328125 7.74609375  L 19 3.21484375  L 19 13.80078125  C 19.796875 13.78125  20.109375 13.76171875  20.44140625 13.76171875  Z M 0.3046875 21.06640625  L 0.3046875 24.2109375  L 7.70703125 22.8046875  L 7.70703125 19.23046875  L 0.3046875 21.06640625  Z M 0.3046875 31.73046875  L 0.3046875 34.97265625  L 7.70703125 34.97265625  L 7.70703125 31.203125  L 0.3046875 31.73046875  Z M 0.3046875 26.49609375  L 0.3046875 29.5625  L 7.70703125 28.87890625  L 7.70703125 25.3046875  L 0.3046875 26.49609375  Z M 0.3046875 15.4609375  L 0.3046875 18.7421875  L 7.70703125 16.7890625  L 7.70703125 13.078125  L 0.3046875 15.4609375  Z M 12.00390625 33.859375  C 11.125 32.98046875  10.40234375 32.00390625  9.8359375 30.9296875  L 9.8359375 34.93359375  L 13.25390625 34.93359375  C 12.8046875 34.6015625  12.39453125 34.25  12.00390625 33.859375  Z " fill-rule="nonzero" fill="#ffffff" stroke="none" transform="matrix(1 0 0 1 1344 70 )" />
  </g>
</svg>