<?xml version="1.0" encoding="utf-8"?>
<svg version="1.1" xmlns:xlink="http://www.w3.org/1999/xlink" width="20px" height="20px" xmlns="http://www.w3.org/2000/svg">
  <g transform="matrix(1 0 0 1 -1354 -86 )">
    <path d="M 19.89453125 9.59765625000001  C 19.875 4.32421875000001  15.59765625 0.0468750000000071  10.36328125 0.046875  C 9.171875 0.046875  8.01953125 0.26171875  6.984375 0.671875  C 3.41015624999999 2.0390625  0.851562499999993 5.515625  0.851562499999993 9.578125  C 0.851562499999993 14.83203125  5.12890625 19.109375  10.3828125 19.109375  C 13.41015625 19.109375  16.10546875 17.703125  17.84375 15.49609375  C 19.1328125 13.875  19.89453125 11.82421875  19.89453125 9.59765625000001  Z M 16.41796875 9.6953125  C 16.41796875 10.26171875  15.96875 10.7109375  15.40234375 10.7109375  L 11.4765625 10.7109375  L 11.4765625 14.63671875  C 11.4765625 15.18359375  11.02734375 15.65234375  10.4609375 15.65234375  C 9.9140625 15.65234375  9.44531250000001 15.203125  9.44531250000001 14.63671875  L 9.44531250000001 10.7109375  L 5.51953125000001 10.7109375  C 4.97265625 10.7109375  4.50390625000001 10.26171875  4.50390625000001 9.6953125  C 4.50390625000001 9.1484375  4.95312500000001 8.6796875  5.51953125000001 8.6796875  L 9.4453125 8.6796875  L 9.4453125 4.75390625  C 9.4453125 4.20703125  9.89453125 3.73828125000001  10.4609375 3.73828125000001  C 11.0078125 3.73828125000001  11.4765625 4.18750000000001  11.4765625 4.75390625  L 11.4765625 8.6796875  L 15.40234375 8.6796875  C 15.94921875 8.6796875  16.41796875 9.12890625000001  16.41796875 9.6953125  Z " fill-rule="nonzero" fill="#ffffff" stroke="none" transform="matrix(1 0 0 1 1354 86 )" />
  </g>
</svg>