<?xml version="1.0" encoding="utf-8"?>
<svg version="1.1" xmlns:xlink="http://www.w3.org/1999/xlink" width="1542px" height="187px" xmlns="http://www.w3.org/2000/svg">
  <defs>
    <filter x="113px" y="250px" width="1542px" height="187px" filterUnits="userSpaceOnUse" id="filter13">
      <feOffset dx="0" dy="8" in="SourceAlpha" result="shadowOffsetInner" />
      <feGaussianBlur stdDeviation="2.5" in="shadowOffsetInner" result="shadowGaussian" />
      <feComposite in2="shadowGaussian" operator="atop" in="SourceAlpha" result="shadowComposite" />
      <feColorMatrix type="matrix" values="0 0 0 0 0.184313725490196  0 0 0 0 0.588235294117647  0 0 0 0 0.533333333333333  0 0 0 1 0  " in="shadowComposite" />
    </filter>
    <g id="widget14">
      <path d="M 0.421052631578945 46.9924812030075  L 52.1234567901235 140.617283950617  L 103.234567901235 172.716049382716  L 153.851851851852 83.3333333333334  L 205.20987654321 128.518518518519  L 256.074074074074 7  L 306.691358024691 34.1975308641975  L 357.543209876543 118.888888888889  L 408.913580246914 59.6296296296296  L 459.777777777778 162.345679012346  L 510.888888888889 14.9382716049383  L 561.753086419753 77.1604938271605  L 613.111111111111 159.876543209877  L 663.975308641975 92.716049382716  L 714.839506172839 63.8271604938272  L 766.197530864198 72.962962962963  L 816.814814814815 75.679012345679  L 868.172839506173 88.2716049382716  L 919.283950617284 112.469135802469  L 969.901234567901 61.8518518518518  L 1020.76543209877 110.740740740741  L 1072.61728395062 112.469135802469  L 1123.23456790123 92.716049382716  L 1174.0987654321 102.345679012346  L 1224.96296296296 45.0617283950617  L 1276.07407407407 77.8888888888889  L 1327.18518518519 105.814814814815  L 1377.55555555556 20.8641975308642  L 1429.16049382716 0.12345679012347  L 1480.02469135802 103.345679012346  L 1530.88888888889 141.617283950617  " stroke-width="1" stroke="#15c377" fill="none" transform="matrix(1 0 0 1 118 250 )" />
    </g>
  </defs>
  <g transform="matrix(1 0 0 1 -113 -250 )">
    <use xlink:href="#widget14" filter="url(#filter13)" />
    <use xlink:href="#widget14" />
  </g>
</svg>