<?xml version="1.0" encoding="utf-8"?>
<svg version="1.1" xmlns:xlink="http://www.w3.org/1999/xlink" width="190px" height="190px" xmlns="http://www.w3.org/2000/svg">
  <g>
    <path d="M 48.1836739014694 12.9117445736278  C 62.4433647116493 4.77917425806216  78.5784820369064 0.5  95 0.5  C 147.19090885901 0.5  189.5 42.80909114099  189.5 95  C 189.5 147.19090885901  147.19090885901 189.5  95 189.5  C 42.80909114099 189.5  0.5 147.19090885901  0.5 95  C 0.5 78.5784820369064  4.77917425806214 62.4433647116494  12.9117445736277 48.1836739014695  L 94.75 95.4330127018922  A 0.5 0.5 0 0 0 95.4330127018922 94.75 L 48.1836739014673 12.9117445736289  Z " fill-rule="nonzero" fill="#d9e4e9" stroke="none" />
    <path d="M 48.1836739014694 12.9117445736278  C 62.4433647116493 4.77917425806216  78.5784820369064 0.5  95 0.5  C 147.19090885901 0.5  189.5 42.80909114099  189.5 95  C 189.5 147.19090885901  147.19090885901 189.5  95 189.5  C 42.80909114099 189.5  0.5 147.19090885901  0.5 95  C 0.5 78.5784820369064  4.77917425806214 62.4433647116494  12.9117445736277 48.1836739014695  L 94.75 95.4330127018922  A 0.5 0.5 0 0 0 95.4330127018922 94.75 L 48.1836739014673 12.9117445736289  Z " stroke-width="1" stroke="#ffffff" fill="none" />
  </g>
</svg>