<?xml version="1.0" encoding="utf-8"?>
<svg version="1.1" xmlns:xlink="http://www.w3.org/1999/xlink" width="190px" height="190px" xmlns="http://www.w3.org/2000/svg">
  <g>
    <path d="M 92.9985886586503 189.478830529112  C 41.6324066382209 188.396163418197  0.5 146.438707435228  0.5 95  C 0.5 42.80909114099  42.80909114099 0.5  95 0.5  C 110.215702400814 0.5  125.203887911029 4.17409001791711  138.691303784466 11.2066827001066  L 94.557878448247 94.7664865454079  A 0.5 0.5 0 0 0 94.5000631177358 94.9920555835999 L 92.998589009385 189.478830536504  Z " fill-rule="nonzero" fill="#fd6f6e" stroke="none" />
    <path d="M 92.9985886586503 189.478830529112  C 41.6324066382209 188.396163418197  0.5 146.438707435228  0.5 95  C 0.5 42.80909114099  42.80909114099 0.5  95 0.5  C 110.215702400814 0.5  125.203887911029 4.17409001791711  138.691303784466 11.2066827001066  L 94.557878448247 94.7664865454079  A 0.5 0.5 0 0 0 94.5000631177358 94.9920555835999 L 92.998589009385 189.478830536504  Z " stroke-width="1" stroke="#ffffff" fill="none" />
  </g>
</svg>