<?xml version="1.0" encoding="utf-8"?>
<svg version="1.1" xmlns:xlink="http://www.w3.org/1999/xlink" width="19px" height="21px" xmlns="http://www.w3.org/2000/svg">
  <g transform="matrix(1 0 0 1 -1623 -199 )">
    <path d="M 18.875 18.09375  C 18.875 19.38525390625  17.82275390625 20.4375  16.53125 20.4375  L 2.46875 20.4375  C 1.17724609375 20.4375  0.125 19.38525390625  0.125 18.09375  L 0.125 2.859375  C 0.125 1.56787109375  1.17724609375 0.515625  2.46875 0.515625  L 16.53125 0.515625  C 17.82275390625 0.515625  18.875 1.56787109375  18.875 2.859375  L 18.875 18.09375  Z M 16.53125 2  L 2.46875 2  C 2.0390625 2.078125  1.6875 2.4296875  2 2.859375  L 2 18.09375  C 1.6875 18.5234375  2.0390625 18.875  2.46875 18.875  L 16.53125 18.875  C 16.9609375 18.875  17.3125 18.5234375  17 18.09375  L 17 2.859375  C 17.3125 2.4296875  16.9609375 2.078125  16.53125 2  Z " fill-rule="nonzero" fill="#2da9fa" stroke="none" fill-opacity="0.996078431372549" transform="matrix(1 0 0 1 1623 199 )" />
  </g>
</svg>