<?xml version="1.0" encoding="utf-8"?>
<svg version="1.1" xmlns:xlink="http://www.w3.org/1999/xlink" width="19px" height="18px" xmlns="http://www.w3.org/2000/svg">
  <g transform="matrix(1 0 0 1 -1623 -197 )">
    <path d="M 6.375 5.25  C 6.375 5.68212890625  6.02587890625 6.03125  5.59375 6.03125  C 5.16162109375 6.03125  4.8125 5.68212890625  4.8125 5.25  L 4.8125 1.34375  C 4.8125 0.91162109375  5.16162109375 0.5625  5.59375 0.5625  C 6.02587890625 0.5625  6.375 0.91162109375  6.375 1.34375  L 6.375 5.25  Z M 14.2119140625 5.25  C 14.2119140625 5.68212890625  13.86279296875 6.03125  13.4306640625 6.03125  C 12.99853515625 6.03125  12.6494140625 5.68212890625  12.6494140625 5.25  L 12.6494140625 1.34375  C 12.6494140625 0.91162109375  12.99853515625 0.5625  13.4306640625 0.5625  C 13.86279296875 0.5625  14.2119140625 0.91162109375  14.2119140625 1.34375  L 14.2119140625 5.25  Z M 18.6796875 7.59375  C 18.6796875 8.02587890625  18.33056640625 8.375  17.8984375 8.375  L 0.90625 8.375  C 0.47412109375 8.375  0.125 8.02587890625  0.125 7.59375  C 0.125 7.16162109375  0.47412109375 6.8125  0.90625 7  L 17.8984375 7  C 18.33056640625 6.8125  18.6796875 7.16162109375  18.6796875 7.59375  Z M 6.375 12.28125  C 6.375 12.71337890625  6.02587890625 13.0625  5.59375 13.0625  L 4.421875 13.0625  C 3.98974609375 13.0625  3.640625 12.71337890625  3.640625 12.28125  C 3.640625 11.84912109375  3.98974609375 11.5  4.421875 11.5  L 5.59375 11.5  C 6.02587890625 11.5  6.375 11.84912109375  6.375 12.28125  Z M 6.375 16.96875  C 6.375 17.40087890625  6.02587890625 17.75  5.59375 17.75  L 4.421875 17.75  C 3.98974609375 17.75  3.640625 17.40087890625  3.640625 16.96875  C 3.640625 16.53662109375  3.98974609375 16.1875  4.421875 16.1875  L 5.59375 16.1875  C 6.02587890625 16.1875  6.375 16.53662109375  6.375 16.96875  Z M 10.8671875 12.28125  C 10.8671875 12.71337890625  10.51806640625 13.0625  10.0859375 13.0625  L 8.9140625 13.0625  C 8.48193359375 13.0625  8.1328125 12.71337890625  8.1328125 12.28125  C 8.1328125 11.84912109375  8.48193359375 11.5  8.9140625 11.5  L 10.0859375 11.5  C 10.51806640625 11.5  10.8671875 11.84912109375  10.8671875 12.28125  Z M 10.8671875 16.96875  C 10.8671875 17.40087890625  10.51806640625 17.75  10.0859375 17.75  L 8.9140625 17.75  C 8.48193359375 17.75  8.1328125 17.40087890625  8.1328125 16.96875  C 8.1328125 16.53662109375  8.48193359375 16.1875  8.9140625 16.1875  L 10.0859375 16.1875  C 10.51806640625 16.1875  10.8671875 16.53662109375  10.8671875 16.96875  Z " fill-rule="nonzero" fill="#2da9fa" stroke="none" fill-opacity="0.996078431372549" transform="matrix(1 0 0 1 1623 197 )" />
  </g>
</svg>