<?xml version="1.0" encoding="utf-8"?>
<svg version="1.1" xmlns:xlink="http://www.w3.org/1999/xlink" width="4px" height="7px" xmlns="http://www.w3.org/2000/svg">
  <g transform="matrix(1 0 0 1 -1635 -208 )">
    <path d="M 3.359375 1.28125  C 3.359375 1.71337890625  3.01025390625 2.0625  2.578125 2.0625  L 1.40625 2.0625  C 0.974121093749998 2.0625  0.625 1.71337890625  0.625 1.28125  C 0.625 0.849121093749998  0.974121093749998 0.5  1.40625 0.5  L 2.578125 0.5  C 3.01025390625 0.5  3.359375 0.849121093749998  3.359375 1.28125  Z M 3.359375 5.96875  C 3.359375 6.40087890625  3.01025390625 6.75  2.578125 6.75  L 1.40625 6.75  C 0.974121093749998 6.75  0.625 6.40087890625  0.625 5.96875  C 0.625 5.53662109375  0.974121093749998 5.1875  1.40625 5.1875  L 2.578125 5.1875  C 3.01025390625 5.1875  3.359375 5.53662109375  3.359375 5.96875  Z " fill-rule="nonzero" fill="#8a8a8a" stroke="none" transform="matrix(1 0 0 1 1635 208 )" />
  </g>
</svg>