<?xml version="1.0" encoding="utf-8"?>
<svg version="1.1" xmlns:xlink="http://www.w3.org/1999/xlink" width="20px" height="20px" xmlns="http://www.w3.org/2000/svg">
  <g transform="matrix(1 0 0 1 -25 -94 )">
    <path d="M 20 10.005  C 20 7.33  18.9625 4.8175  17.075 2.93  C 15.1875 1.0425  12.675 0.005  10 0.005  C 7.325 0.005  4.8125 1.0425  2.925 2.93  C -0.975 6.83  -0.975 13.1675  2.925 17.0675  C 4.8125 18.955  7.325 19.9925  10 19.9925  C 12.675 19.9925  15.1875 18.955  17.075 17.0675  C 18.9625 15.18  20 12.68  20 10.005  Z M 18 10.0175  C 18 12.155  17.1625 14.155  15.6625 15.6675  C 14.15 17.1675  12.1375 18.005  10 18.005  C 7.8625 18.005  5.85 17.1675  4.3375 15.6675  C 1.2125 12.5425  1.2125 7.4675  4.3375 4.355  C 5.85 2.8425  7.8625 2.0175  10 2.0175  C 12.1375 2.0175  14.15 2.855  15.6625 4.355  C 17.175 5.8675  18 7.88  18 10.0175  Z M 15 10.005  C 15 9.455  14.55 9.005  14 9.005  L 11 9.005  L 11 6.005  C 11 5.455  10.55 5.005  10 5.005  C 9.45 5.005  9 5.455  9 6.005  L 9 9.005  L 6 9.005  C 5.45 9.005  5 9.455  5 10.005  C 5 10.555  5.45 11.005  6 11.005  L 9 11.005  L 9 14.005  C 9 14.555  9.45 15.005  10 15.005  C 10.55 15.005  11 14.555  11 14.005  L 11 11.005  L 14 11.005  C 14.55 11.005  15 10.555  15 10.005  Z " fill-rule="nonzero" fill="#ffffff" stroke="none" transform="matrix(1 0 0 1 25 94 )" />
  </g>
</svg>