<?xml version="1.0" encoding="utf-8"?>
<svg version="1.1" xmlns:xlink="http://www.w3.org/1999/xlink" width="16px" height="7px" xmlns="http://www.w3.org/2000/svg">
  <g transform="matrix(1 0 0 1 -21 -26 )">
    <path d="M 12.7421875 6.076171875  L 12.7421875 6.587890625  L 11.943359375 6.587890625  L 12.259765625 6.587890625  C 12.529296875 6.572265625  12.7421875 6.349609375  12.7421875 6.076171875  Z M 4.8125 6.076171875  L 4.8125 6.587890625  L 4.013671875 6.587890625  L 4.330078125 6.587890625  C 4.599609375 6.572265625  4.8125 6.349609375  4.8125 6.076171875  Z M 9.576171875 3.91015625  L 9.576171875 3.3984375  L 8.77734375 3.3984375  L 9.09375 3.3984375  C 9.36328125 3.4140625  9.576171875 3.63671875  9.576171875 3.91015625  Z M 14.33984375 0.716796875000002  L 14.33984375 0.205078125  L 15.138671875 0.205078125  L 14.822265625 0.205078125  C 14.552734375 0.220703125  14.33984375 0.443359375000002  14.33984375 0.716796875000002  Z M 1.6171875 0.716796875000002  L 1.6171875 0.205078125  L 0.818359375 0.205078125  L 1.134765625 0.205078125  C 1.404296875 0.220703125  1.6171875 0.443359375000002  1.6171875 0.716796875000002  Z M 6.390625 3.91015625  L 6.390625 3.3984375  L 7.189453125 3.3984375  L 6.873046875 3.3984375  C 6.603515625 3.4140625  6.390625 3.63671875  6.390625 3.91015625  Z " fill-rule="nonzero" fill="#777777" stroke="none" transform="matrix(1 0 0 1 21 26 )" />
  </g>
</svg>