<?xml version="1.0" encoding="utf-8"?>
<svg version="1.1" xmlns:xlink="http://www.w3.org/1999/xlink" width="21px" height="21px" xmlns="http://www.w3.org/2000/svg">
  <g transform="matrix(1 0 0 1 -19 -15 )">
    <path d="M 16.341796875 11.203125  L 18.626953125 11.197265625  C 18.849609375 11.212890625  19.078125 11.13671875  19.25 10.96484375  C 19.5625 10.65234375  19.5625 10.146484375  19.25 9.833984375  L 10.556640625 1.142578125  C 10.396484375 0.982421875  10.1875 0.90625  9.978515625 0.908203125  C 9.76953125 0.904296875  9.560546875 0.982421875  9.400390625 1.142578125  L 0.707031249999999 9.833984375  C 0.675781249999999 9.865234375  0.646484374999999 9.900390625  0.621093749999999 9.935546875  C 0.517578124999999 10.0703125  0.455078124999999 10.23828125  0.455078124999999 10.421875  C 0.455078124999999 10.86328125  0.812499999999999 11.220703125  1.25390625 11.220703125  L 3.615234375 11.220703125  L 3.615234375 17.8515625  C 3.615234375 18.5859375  4.2109375 19.181640625  4.9453125 19.181640625  L 4.955078125 19.181640625  L 4.955078125 19.18359375  L 7.078125 19.18359375  C 7.755859375 19.18359375  8.314453125 18.67578125  8.396484375 18.021484375  L 8.396484375 14.404296875  L 11.56640625 14.404296875  L 11.57421875 16.787109375  L 11.57421875 17.8515625  C 11.57421875 18.5859375  12.169921875 19.181640625  12.904296875 19.181640625  L 12.9140625 19.181640625  L 12.9140625 19.18359375  L 15.02734375 19.18359375  C 15.69140625 19.18359375  16.2421875 18.6953125  16.341796875 18.05859375  L 16.341796875 11.203125  Z " fill-rule="nonzero" fill="#777777" stroke="none" transform="matrix(1 0 0 1 19 15 )" />
  </g>
</svg>