<?xml version="1.0" encoding="utf-8"?>
<svg version="1.1" xmlns:xlink="http://www.w3.org/1999/xlink" width="12px" height="6px" xmlns="http://www.w3.org/2000/svg">
  <g transform="matrix(1 0 0 1 -23 -70 )">
    <path d="M 3.40336134765625 4.6554621875  L 0.8235294140625 4.6554621875  C 0.531143373841543 4.6554621875  0.29411765625 4.89248790509154  0.29411765625 5.1848739453125  L 0.29411765625 5.39495798828125  C 0.29411765625 5.68734402850221  0.531143373841543 5.92436974609375  0.8235294140625 6  L 11.0420168164062 6  C 11.3344028566272 5.92436974609375  11.5714285742187 5.68734402850221  11.5714285742187 5.39495798828125  L 11.5714285742187 5.1848739453125  C 11.5714285742187 4.89248790509154  11.3344028566272 4.6554621875  11.0420168164062 4.6554621875  L 8.4789916015625 4.6554621875  L 8.4789916015625 1.5294117578125  C 8.4789916015625 -0.729411742187508  8.4789916015625 3.7882352578125  8.4789916015625 1.5294117578125  C 8.4789916015625 1.23702571759154  8.24196588397096 1  7.94957984375 1  L 3.93277310546875 1  C 3.64038706524779 1  3.40336134765625 1.23702571759154  3.40336134765625 1.5294117578125  L 3.40336134765625 4.6554621875  Z M 4.94957982421875 2.8739495703125  C 4.94957983500556 2.3263058753393  5.39353276987054 1.88235294921875  5.94117646484375 1.88235294921875  C 6.48882016744438 1.88235294921875  6.93277310546875 2.32630588724312  6.93277310546875 2.87394958984375  C 6.93277310546875 3.42159329244438  6.48882016744438 3.86554623046875  5.94117646484375 3.86554623046875  C 5.39353276224312 3.86554623046875  4.94957982421875 3.42159329244438  4.94957982421875 2.87394958984375  Z " fill-rule="nonzero" fill="#0085ff" stroke="none" transform="matrix(1 0 0 1 23 70 )" />
  </g>
</svg>