<?xml version="1.0" encoding="utf-8"?>
<svg version="1.1" xmlns:xlink="http://www.w3.org/1999/xlink" width="18px" height="20px" xmlns="http://www.w3.org/2000/svg">
  <g transform="matrix(1 0 0 1 -20 -71 )">
    <path d="M 17.5882352929688 3.1428571484375  C 17.5836206741422 1.59466247311836  16.3297072729754 0.340749071951539  14.7815125976563 0.336134453125  L 12.6134453710938 0.336134453125  L 12.6134453710938 1.8235294140625  L 14.7815125976563 1.8235294140625  C 15.5082494493176 1.82811464013657  16.0962551059572 2.41612029677611  16 3.1428571484375  L 16 17.1932773046875  C 16.0962551059572 17.9200141563489  15.5082494493176 18.5080198129884  14.7815125976563 18.5126050390625  L 10.2605041992188 18.5126050390625  L 10.2605041992188 20  L 14.7815125976563 20  C 16.3297072729754 19.9953853811735  17.5836206741422 18.7414719800066  17.5882352929688 17.1932773046875  L 17.5882352929688 3.1428571484375  Z M 3.21848740234375 18.5126050390625  C 2.48847098685982 18.5126196605842  1.89537666442081 17.9232790987961  2 17.1932773046875  L 2 3.1428571484375  C 1.89537666442081 2.41285535432886  2.48847098685982 1.82351479254078  3.21848740234375 1.8235294140625  L 5.42857142578125 1.8235294140625  L 5.42857142578125 0.336134453125  L 3.21848740234375 0.336134453125  C 1.66701202575673 0.336127540769952  0.40799261632928 1.59138868419013  0.40336134765625 3.1428571484375  L 0.40336134765625 17.1932773046875  C 0.407975966482793 18.7414719800066  1.66188936764961 19.9953853811735  3.21008404296875 20  L 7.77310923828125 20  L 7.77310923828125 18.5126050390625  L 3.21848740234375 18.5126050390625  Z " fill-rule="nonzero" fill="#0085ff" stroke="none" transform="matrix(1 0 0 1 20 71 )" />
  </g>
</svg>