<?xml version="1.0" encoding="utf-8"?>
<svg version="1.1" xmlns:xlink="http://www.w3.org/1999/xlink" width="7px" height="11px" xmlns="http://www.w3.org/2000/svg">
  <g transform="matrix(1 0 0 1 -25 -77 )">
    <path d="M 6.319327734375 8.78991595703125  C 6.75251607834461 8.36589924042803  6.9925322313462 7.78256884638807  6.98319328125 7.1764705859375  C 6.99369247024085 6.85794178423828  6.93937271983759 6.54060008906037  6.8235294140625 6.24369748046875  C 6.71997905037312 6.0030696998582  6.56510757945696 5.78797043691882  6.369747890625 5.61344537109375  C 6.15857306769894 5.43201510465865  5.92042370619272 5.28458930912674  5.663865546875 5.1764705859375  C 5.38655462890625 5.05042015625  5.07563025390625 4.93277310546875  4.74789916015625 4.8151260546875  L 3.94957982421875 4.5294117578125  L 3.55462185546875 4.38655462890625  C 3.43049021588548 4.33819316862832  3.31211681696228 4.27618805241118  3.2016806640625 4.2016806640625  C 3.10526901270393 4.13643407660227  3.02483698063765 4.0502568936657  2.9663865625 3.94957982421875  C 2.90665855417031 3.83877859721412  2.87764528909022 3.71402155939271  2.88235294921875 3.58823529296875  C 2.87254390822386 3.44270630435306  2.91093605620538 3.29799743043627  2.991596640625 3.1764705859375  C 3.06535866188196 3.07299079032003  3.16349159412652 2.98928916868129  3.27731091796875 2.93277310546875  C 3.40461678857412 2.87226190922113  3.54079713571539 2.83254264432719  3.680672265625 2.8151260546875  C 3.83179819696316 2.8061025064168  3.98332785772434 2.8061025064168  4.1344537890625 2.8151260546875  L 4.78991595703125 2.8151260546875  L 5.310924375 2.89075630859375  C 5.45602486245401 2.91772283869088  5.59919182699914 2.95421637688192  5.73949580078125 3  L 6.1428571484375 3.1344537890625  C 6.36634099607379 2.7340975229762  6.51177380020824 2.29494748098436  6.57142857421875 1.8403361328125  C 6.20168068359375 1.73109244140625  5.8571428515625 1.647058828125  5.5378151171875 1.58823529296875  C 5.21301833693902 1.52585001777917  4.88465176563068 1.48375174208242  4.55462185546875 1.4621848828125  L 4.55462185546875 0.260504199218751  C 4.17063531434792 0.169059587211962  3.77054117002708 0.169059587211962  3.38655462890625 0.260504199218751  L 3.38655462890625 1.44537814453125  C 2.69212769389402 1.48044794411878  2.02566475265191 1.73000455471823  1.4789916015625 2.1596638671875  C 1.01552272647553 2.57158803599405  0.762391836864622 3.17045866081916  0.789915957031251 3.78991595703125  C 0.778142857159706 4.07694255667886  0.826813437105463 4.36324008068305  0.932773105468753 4.630252109375  C 1.0246363068431 4.84991964067537  1.16212598202009 5.04756104749404  1.336134453125 5.21008404296875  C 1.52167821350254 5.37989350781542  1.73120682192935 5.52146689366622  1.95798318359375 5.630252109375  C 2.21800878848352 5.75622374354801  2.48448373881323 5.86842372126169  2.75630251953125 5.9663865625  L 3.45378150390625 6.22689076171875  L 3.91596638671875 6.39495798828125  C 4.06223803426078 6.4413602204625  4.20310209528347 6.50334040600288  4.336134453125 6.57983193359375  C 4.45520915042582 6.65016193626306  4.55825607200505 6.74462160994211  4.63865546875 6.8571428515625  C 4.72179735530662 6.9810127107666  4.76303142071678 7.12827723986788  4.75630251953125 7.27731091796875  C 4.77708863975353 7.5924652824323  4.60408161409884 7.88857346437694  4.319327734375 8.025210078125  C 3.92505502150172 8.18410691139782  3.49953026251849 8.25023576354771  3.07563025390625 8.21848740234375  C 2.72689450177169 8.21920655245523  2.37859035308437 8.1939264122626  2.0336134375 8.1428571484375  C 1.67905695358068 8.08798159608434  1.33026438636706 8.00078345428094  0.991596640625 7.88235294921875  C 0.890756308593749 8.1260504296875  0.8067226953125 8.36134455078125  0.73949580078125 8.57983193359375  C 0.671475118337654 8.79623327678573  0.623651658307336 9.01847170022991  0.59663865234375 9.24369748046875  C 0.8151260546875 9.319327734375  1.0336134375 9.38655462890625  1.23529412109375 9.43697478515625  C 1.4369748046875 9.48739494140625  1.6554621875 9.5378151171875  1.8571428515625 9.56302521484375  C 2.058823515625 9.58823531250001  2.28571427734375 9.62184875  2.5210083984375 9.63865546875  C 2.75630251953125 9.6554621875  3.025210078125 9.63865546875  3.302521015625 9.63865546875  L 3.369747890625 9.63865546875  L 3.369747890625 10.8235294140625  C 3.56270732339691 10.8677955756741  3.76001180610319 10.8903446607222  3.95798318359375 10.8907563085938  C 4.15321155048439 10.890874203139  4.34779284133237 10.8683140522406  4.5378151171875 10.8235294140625  L 4.5378151171875 9.630252109375  C 5.203153543098 9.53736253184902  5.82449474508909 9.24427705497031  6.319327734375 8.78991595703125  Z " fill-rule="nonzero" fill="#777777" stroke="none" transform="matrix(1 0 0 1 25 77 )" />
  </g>
</svg>