<?xml version="1.0" encoding="utf-8"?>
<svg version="1.1" xmlns:xlink="http://www.w3.org/1999/xlink" width="13px" height="13px" xmlns="http://www.w3.org/2000/svg">
  <g transform="matrix(1 0 0 1 -26 -190 )">
    <path d="M 7.91495028409091 2.69140625  L 2.87375710227273 7.44868607954546  L 1.70578835227273 8.48508522727272  C 1.64346590909091 8.48508522727272  1.58345170454545 8.607421875  1.58345170454545 8.72975852272727  L 1.58345170454545 8.78977272727273  L 0.537819602272727 11.8989701704545  C 0.475497159090909 12.0213068181818  0.537819602272727 12.0813210227273  0.600142045454545 12.1436434659091  C 0.662464488636364 12.2036576704545  0.784801136363636 12.2036576704545  0.847123579545455 12.2036576704545  L 4.04403409090909 11.2272727272727  L 4.10635653409091 11.2272727272727  C 4.22869318181818 11.2272727272727  4.291015625 11.1049360795455  4.35333806818182 11.1049360795455  L 10.5001775568182 5.18892045454546  L 7.91495028409091 2.69140625  Z M 11.7904829545455 3.78781960227273  C 12.0951704545455 3.54545454545455  12.0951704545455 3.11843039772727  11.9128196022727 2.87375710227273  L 10.1908735795455 1.22798295454545  C 9.94389204545455 0.983309659090909  9.51455965909091 1.04563210227273  9.20756392045455 1.28799715909091  L 8.28426846590909 2.20205965909091  L 10.8671875 4.70188210227273  L 11.7904829545455 3.78781960227273  Z " fill-rule="nonzero" fill="#0085ff" stroke="none" transform="matrix(1 0 0 1 26 190 )" />
  </g>
</svg>