<?xml version="1.0" encoding="utf-8"?>
<svg version="1.1" xmlns:xlink="http://www.w3.org/1999/xlink" width="18px" height="19px" xmlns="http://www.w3.org/2000/svg">
  <g transform="matrix(1 0 0 1 -21 -128 )">
    <path d="M 14.5572564102539 18  C 14.0715128206055 17.4448211830423  13.7826923075684 16.7014043906824  13.7826923075684 15.7884364000574  L 13.7826923075684 2.51127333676471  C 13.7695641024902 2.2112981399012  13.717051281958 1.71568694492188  13.4019743589844 1.4026693480239  C 13.1787948717773 1.18094855027574  12.8505897435059 1.07660935152803  12.4173589743897 1.07660935130974  C 11.5246410255615 1.07660935130974  11.0782820513672 1.74177174455423  11.0782820511475 3.05905413122702  L 11.0782820511475 5.49798290602022  C 11.0782820511475 5.79795810288373  10.8288461537842 6.05880610029871  10.5137692308105 6  L 0.142487179541017 6  L 0.142487179541017 15.1754436065142  C 0.142487179541017 16.7014043909007  1.12710256413574 17.9404323782399  2.66310256420899 17.9404323780216  L 2.92566666665039 18  L 14.5572564102539 18  Z M 11.2883333334961 12.8538964302849  C 11.2883333334961 13.2190836264476  10.9863846156006 13.5190588235294  10.618794871875 13.5190588235294  L 3.31951282053223 13.5190588235294  C 2.95192307702637 13.5190588235294  2.64997435891113 13.2190836266659  2.64997435891113 12.8538964302849  C 2.64997435891113 12.4887092339039  2.95192307680664 12.1887340370404  3.31951282053223 12.1887340372587  L 10.618794871875 12.1887340372587  C 10.9863846153809 12.1887340372587  11.2883333334961 12.4887092341222  11.2883333334961 12.8538964302849  Z M 11.2883333334961 9.30636366675092  C 11.2883333334961 9.6715508629136  10.9863846156006 9.97152605999541  10.618794871875 9.97152605999541  L 3.31951282053223 9.97152605999541  C 2.95192307702637 9.97152605999541  2.64997435891113 9.67155086313189  2.64997435891113 9.30636366675092  C 2.64997435891113 8.94117647036995  2.95192307680664 8.64120127350644  3.31951282053223 8.64120127372473  L 10.618794871875 8.64120127372473  C 10.9863846153809 8.64120127372473  11.2883333334961 8.94117647058824  11.2883333334961 9.30636366675092  Z M 14.9117179489014 12.2017764370749  L 14.9117179489014 15.7884364000574  C 14.9117179489014 16.2840475950368  15.0430000001221 17.4578635830767  16.2245384615479 17.4578635830767  C 16.710282051416 17.4578635830767  17.0122307693115 17.2622275851792  17.2091538461426 17.0144219875804  C 17.3404358973633 16.8057435898667  17.4454615384277 16.5709803923024  17.4979743587402 16.3231747947036  L 17.4979743587402 16.2970899950712  C 17.4979743587402 16.2710051952206  17.5111025638184 16.2318779957721  17.5111025640381 16.2057931959214  C 17.5242307691162 16.0753691973231  17.5373589744141 15.9579875985409  17.5373589741943 15.8797331992073  L 17.5373589741943 12.5800060332721  C 17.5373589741943 12.3713276355584  17.3798205125977 12.2017764370749  17.1566410256104 12.2017764370749  L 14.9117179489014 12.2017764370749  Z " fill-rule="nonzero" fill="#0085ff" stroke="none" transform="matrix(1 0 0 1 21 128 )" />
  </g>
</svg>