<?xml version="1.0" encoding="utf-8"?>
<svg version="1.1" xmlns:xlink="http://www.w3.org/1999/xlink" width="17px" height="20px" xmlns="http://www.w3.org/2000/svg">
  <g transform="matrix(1 0 0 1 -19 -183 )">
    <path d="M 4.681640625 15.2408854166667  C 4.33411458333333 15.2387152777778  4.05078125 14.9631076388889  4.05078125 14.6223958333333  C 4.05078125 14.2816840277778  4.33190104166667 14.0060763888889  4.67942708333333 14.0060763888889  L 9.08658854166667 14.0060763888889  C 9.20390625 14.0060763888889  9.31458333333333 14.0386284722222  9.409765625 14.0928819444444  L 9.509375 14.0928819444444  L 9.68645833333333 13.9214409722222  L 12.1921875 11.5364583333333  L 4.681640625 11.5364583333333  C 4.33411458333333 11.5364583333333  4.05299479166667 11.2608506944444  4.05299479166667 10.9201388888889  C 4.05299479166667 10.5794270833333  4.33411458333333 10.3038194444444  4.681640625 10.3038194444444  L 13.526953125 10.3038194444444  L 17 6.98350694444444  L 17 1.36501736111111  C 17 1.01996527777778  16.7055989583333 0.733506944444444  16.3514322916667 1  L 6.26875 1  L 1.67122395833333 0.789930555555556  C 1.19752604166667 0.733506944444444  0.903125 1.13498263888889  1 1.47786458333333  L 1 18.3919270833333  C 0.903125 18.7348090277778  1.25729166666667 19.1362847222222  1.61145833333333 19.0798611111111  L 7.03463541666667 19.0798611111111  L 8.1546875 15.8116319444444  L 8.1546875 15.7552083333333  C 8.1546875 15.6749131944444  8.214453125 15.4210069444444  8.24765625 15.2408854166667  L 4.681640625 15.2408854166667  Z M 4.05299479166667 6.90538194444444  C 4.05078125 6.56467013888889  4.33411458333333 6.2890625  4.681640625 6.2890625  L 13.4959635416667 6.2890625  C 13.8434895833333 6.2890625  14.124609375 6.56467013888889  14.124609375 6.90538194444444  C 14.124609375 7.24609375  13.8434895833333 7.52170138888889  13.4959635416667 7.52170138888889  L 4.681640625 7.52170138888889  C 4.33411458333333 7.52170138888889  4.05299479166667 7.24609375  4.05299479166667 6.90538194444444  Z " fill-rule="nonzero" fill="#0085ff" stroke="none" transform="matrix(1 0 0 1 19 183 )" />
  </g>
</svg>