<?xml version="1.0" encoding="utf-8"?>
<svg version="1.1" xmlns:xlink="http://www.w3.org/1999/xlink" width="18px" height="20px" xmlns="http://www.w3.org/2000/svg">
  <g transform="matrix(1 0 0 1 -20 -292 )">
    <path d="M 17.8404476000977 18.0950849826389  C 17.8404476000977 18.7377091145833  17.312378203125 19.2592591362847  16.6617212475586 19  L 1.33827875244141 19  C 0.687621796875 19.2592591362847  0.159552399902344 18.7377091145833  0.159552399902344 18.0950849826389  L 0.159552399902344 1.90491480034722  C 0.159552399902344 1.26229064670139  0.687621796875 0.740740625  1.33827875244141 1  L 16.6617212475586 1  C 17.312378203125 0.740740625  17.8404476000977 1.26229064670139  17.8404476000977 1.90491480034722  L 17.8404476000977 18.0950849826389  Z M 16.6617212475586 18  L 16.6617212475586 3  L 1.33827875244141 3  L 1.33827875244141 18  L 16.6617212475586 18  Z M 15.4829949169922 4.21347217881944  L 15.4829949169922 12  L 2.51700508300781 12  L 2.51700508300781 4.21347217881944  L 15.4829949169922 4.21347217881944  Z M 9.39958822265625 9.80267235243056  C 9.6211887890625 9.58613595920139  9.6211887890625 9.23455536024306  9.39958822265625 9.01685479600694  L 7.08339095947266 6.74322263454861  C 7.06571006835938 6.71761080729167  7.07160370605469 6.68268559027778  7.04920790039063 6.66056627604167  C 6.93133525634766 6.54531304253472  6.77810083007812 6.49991024305556  6.62368768066406 6.50689529079861  C 6.47045325439453 6.49991024305556  6.317218828125 6.54531304253472  6.19934620605469 6.66056627604167  C 6.17577167724609 6.68268559027778  6.18284403808594 6.71761080729167  6.16398440185547 6.74322263454861  L 3.84778713867188 9.01685479600694  C 3.62736531738281 9.23455536024306  3.62736531738281 9.58613595920139  3.84778713867188 9.80267235243056  C 4.06938768310547 10.0192087673611  4.4277205078125 10.0192087673611  4.64814232910156 9.80267235243056  L 6.62368768066406 7.863158203125  L 8.60041177734375 9.80267235243056  C 8.82083359863281 10.0192087673611  9.17916640136719 10.0192087673611  9.39958822265625 9.80267235243056  Z M 14.1640001147461 5.58836187065972  C 14.1569277758789 5.57904848090278  14.1533915844727 5.5685708984375  14.1451405004883 5.5604216796875  C 14.1321745239258 5.54295907118056  14.1380681396484 5.51851141493056  14.1215659716797 5.50221297743056  C 14.0885616357422 5.46961610243056  14.0402338549805 5.47660115017361  14.0013358813477 5.45331766493056  C 14.0013358813477 5.45331766493056  14.0001571582031 5.45331766493056  14.0001571582031 5.45331766493056  C 13.9600804614258 5.43119835069445  13.9200037646484 5.41489991319444  13.875212175293 5.40209401041667  C 13.875212175293 5.40209401041667  13.875212175293 5.40209401041667  13.8740334521484 5.40209401041667  C 13.8728547290039 5.40209401041667  13.8728547290039 5.40209401041667  13.8716759838867 5.40209401041667  C 13.8209907568359 5.38812391493056  13.7703055297852 5.37066130642361  13.7149053881836 5.37066130642361  C 13.7042968579102 5.37066130642361  13.6960457739258 5.37531799045139  13.6866159448242 5.37648216145833  C 13.6724712451172 5.37648216145833  13.6606839697266 5.36833294270833  13.6453605249023 5.37066130642361  L 11.3574526831055 5.37066130642361  C 11.0321242163086 5.37066130642361  10.7680895288086 5.62910796440972  10.7680895288086 5.949255859375  C 10.7680895288086 6.26940375434028  11.0851669116211 6.49176102430556  11.946815859375 6.52785041232639  L 12.2768592407227 6.52785041232639  L 9.74141887939453 9.01685479600694  C 9.52099703613281 9.23455536024306  9.52099703613281 9.58613595920139  9.74141887939453 9.80267235243056  C 9.96301942382812 10.0192087673611  10.3213522265625 10.0192087673611  10.5417740698242 9.80267235243056  L 13.1255422119141 7.26593684895833  L 13.1255422119141 8.26014157986111  C 13.1255422119141 8.58261783854167  13.3895769213867 8.84222866753472  13.7149053881836 8.84222866753472  C 14.0402338549805 8.84222866753472  14.3042685644531 8.58261783854167  14.3042685644531 8.26014157986111  L 14.3042685644531 5.95274837239583  C 14.3042685644531 5.95158420138889  14.3042685644531 5.95158420138889  14.3042685644531 5.95042003038194  C 14.3042685644531 5.95042003038194  14.3042685644531 5.949255859375  14.3042685644531 5.949255859375  C 14.3042685644531 5.87242035590278  14.2877663964844 5.80024155815972  14.259476953125 5.73504780815972  C 14.2370811694336 5.67916744791667  14.2017193652344 5.63376467013889  14.1640001147461 5.58836187065972  Z M 10.7680895288086 13.4721493489583  L 10.7680895288086 14.6293384765625  L 2.51700508300781 14.6293384765625  L 2.51700508300781 13.4721493489583  L 10.7680895288086 13.4721493489583  Z M 14.3042685644531 15.7865276041667  L 14.3042685644531 17  L 2.51700508300781 17  L 2.51700508300781 15.7865276041667  L 14.3042685644531 15.7865276041667  Z " fill-rule="nonzero" fill="#777777" stroke="none" transform="matrix(1 0 0 1 20 292 )" />
  </g>
</svg>