<?xml version="1.0" encoding="utf-8"?>
<svg version="1.1" xmlns:xlink="http://www.w3.org/1999/xlink" width="22px" height="20px" xmlns="http://www.w3.org/2000/svg">
  <g transform="matrix(1 0 0 1 -17 -348 )">
    <path d="M 10.5095833261719 1.21695832617188  C 10.5164583261719 1.24904165234375  10.5196666523437 1.281125  10.5196666738281 1.31320832617188  L 10.5196666738281 17.5904583261719  L 11.4803333261719 17.5904583261719  L 11.4803333261719 4.674625  C 11.4805522436284 4.40949919472269  11.6955405929396 4.19468829049885  11.9606664885983 4.19468829049885  C 11.9748959391733 4.19468829049885  11.9891183620113 4.19532059270445  12.0032916738281 4.19658332617188  L 12.05875 4.20529167382813  L 18.781125 5.61558332617188  C 18.9850833261719 5.65866665234375  19.135875 5.826875  19.15925 6.02945832617188  L 19 6.08583332617188  L 19 17.5909166738281  L 20.9870833261719 17.5909166738281  C 21.0402407333431 17.5909166738281  21.0833333261719 17.6340092666569  21.0833333261719 17.6871666738281  L 21.0833333261719 19.108  C 21.0833333261719 19.1611574071712  21.0402407333431 19.20425  20.9870833261719 19  L 1.01291667382813 19  C 0.959759266656911 19.20425  0.916666673828125 19.1611574071712  0.916666673828125 19.108  L 0.916666673828125 17.6871666738281  C 0.916666673828125 17.6340092666569  0.959759266656911 17.5909166738281  1.01291667382813 17.5909166738281  C -0.0137499928385417 17.5909166738281  2.03958334049482 17.5909166738281  1.01291667382813 17.5909166738281  L 3 17.5904583261719  L 3 2.69691667382813  C 2.83708332617188 2.469125  2.9975 2.2725  3.22070832617188 2.22666667382813  L 9.94308332617188 0.843416673828125  C 10.2027679200335 0.79014813007978  10.4565114273002 0.957327552285565  10.5100416738281 1.21695832617187  Z M 16.5105416738281 10.8974166738281  C 16.5105416738281 10.8442592666569  16.4674490809993 10.8011666738281  16.4142916738281 10.8011666738281  L 13.86275 10.8011666738281  C 13.8095925928288 10.8011666738281  13.7665 10.8442592666569  13.7665 10.8974166738281  L 13.7665 11.665125  C 13.7665 11.7178333261719  13.8095833261719 11.761375  13.86275 11.761375  L 16.4142916738281 11.761375  C 16.4674490809993 11.761375  16.5105416738281 11.7182824071712  16.5105416738281 11.665125  L 16.5105416738281 10.8974166738281  Z M 9.14375 10.1342916738281  L 4.763 10.1342916738281  C 4.71979486055792 10.1343730985048  4.68193799129447 10.1632342753662  4.67041667382813 10.204875  L 4.66675 10.2300833261719  L 4.66675 10.979  C 4.66683142467663 11.0222051394421  4.69569260153809 11.0600620087055  4.73733332617188 11.0715833261719  L 4.763 11.07525  L 9.14375 11.07525  C 9.18695513944208 11.0751685753234  9.22481200870553 11.0463073984619  9.23633332617188 11.0046666738281  L 9.24 10.979  L 9.24 10.2300833261719  C 9.24 10.1769259190007  9.19690740717121 10.1338333261719  9.14375 10.1338333261719  Z M 6.85758332617188 7.31095832617188  L 4.763 7.31095832617188  C 4.71966511579035 7.31109658412073  4.68176612034633 7.34017750164738  4.67041667382813 7.382  L 4.66675 7.40720832617188  L 4.66675 8.156125  C 4.66683142467663 8.19933013944208  4.69569260153809 8.23718700870553  4.73733332617188 8.24870832617188  L 4.763 8.252375  L 6.85758332617188 8.252375  C 6.90078847359385 8.25229358495742  6.93864535422048 8.22343240613032  6.95016667382813 8.18179167382813  L 6.953375 8.156125  L 6.953375 7.40720832617188  C 6.953375 7.35405091900066  6.91028240717121 7.31095832617188  6.857125 7.31095832617188  Z " fill-rule="nonzero" fill="#777777" stroke="none" transform="matrix(1 0 0 1 17 348 )" />
  </g>
</svg>