<?xml version="1.0" encoding="utf-8"?>
<svg version="1.1" xmlns:xlink="http://www.w3.org/1999/xlink" width="18px" height="20px" xmlns="http://www.w3.org/2000/svg">
  <g transform="matrix(1 0 0 1 -18 -398 )">
    <path d="M 17.9375 18.0251875  C 17.9368125 19.96875  14.798375 19.96875  11.1663125 19.96875  L 7.1774375 19.96875  C 3.394125 19.96875  0.40625 19.96875  0.40625 18.0251875  L 0.40625 17.63675  C 0.40625 13.9936875  3.4443125 11.03125  7.1774375 11.03125  L 11.16596875 11.03125  C 14.89909375 11.03125  17.9375 13.994375  17.9375 17.63640625  L 17.9375 18.0251875  Z M 14.15625 5.35903125  C 14.15625 8.2970625  11.76615625 10.6875  8.828125 10.6875  C 5.88940625 10.6875  3.5 8.2970625  3.5 5.35903125  C 3.5 2.421  5.88975 0.03125  8.828125 0.03125  C 11.7665 0.03125  14.15625 2.421  14.15625 5.35903125  Z " fill-rule="nonzero" fill="#0085ff" stroke="none" transform="matrix(1 0 0 1 18 398 )" />
  </g>
</svg>