<?xml version="1.0" encoding="utf-8"?>
<svg version="1.1" xmlns:xlink="http://www.w3.org/1999/xlink" width="19px" height="15px" xmlns="http://www.w3.org/2000/svg">
  <g transform="matrix(1 0 0 1 -18 -240 )">
    <path d="M 6.7812744140625 6.829345703125  L 7.10111083984375 6.829345703125  C 7.22542724609375 8.02490234375  7.389404296875 8.416015625  8.19815673828125 9.468994140625  C 5.8108642578125 10.435302734375  4.85089111328125 12.322509765625  5.0491943359375 14.97021484375  C 4.6743896484375 14.933349609375  4.3320556640625 14.90966796875  3.992041015625 14.864501953125  C 2.89638671875 14.719970703125  1.8243896484375 14.458984375  0.76793212890625 14.123046875  C 0.6197265625 14.07568359375  0.5663818359375 14.0107421875  0.5677734375 13.83935546875  C 0.57728271484375 12.83642578125  0.57032470703125 11.833251953125  0.5728759765625 10.830322265625  C 0.57867431640625 8.5810546875  2.23607177734375 6.83642578125  4.37310791015625 6.829833984375  C 5.175830078125 6.8271484375  5.97855224609375 6.829345703125  6.7812744140625 6.829345703125  Z M 8.6627197265625 8.89794921875  C 8.11389316834894 8.3157310573502  7.80785852556108 7.52746333535303  7.81221923828125 6.707275390625  C 7.816162109375 4.996826171875  9.12960205078125 3.616943359375  10.753369140625 3.617919921875  C 12.3794555664063 3.61865234375  13.70263671875 5.020751953125  13.694287109375 6.734130859375  C 13.6859375 8.439453125  12.3615966796875 9.816650390625  10.73759765625 9.80908203125  C 9.95830078125 9.807861328125  9.21170654296875 9.47998046875  8.6627197265625 8.89794921875  Z M 5.05638427734375 0.478759765625  C 5.2338134765625 0.439208984374999  5.41820068359375 0.434082031249999  5.5993408203125 0.412841796875  C 7.220556640625 0.43505859375  8.53677978515625 1.82177734375  8.5300537109375 3.50732421875  C 8.52958984375 3.63525390625  8.49317626953125 3.7197265625  8.39901123046875 3.803955078125  C 7.7618896484375 4.375  7.35252685546875 5.092529296875  7.18831787109375 5.958740234375  C 7.16326904296875 6.0908203125  7.10992431640625 6.1767578125  6.99326171875 6.238037109375  C 5.87998046875 6.8212890625  4.7968505859375 6.7666015625  3.80904541015625 5.97119140625  C 2.80732421875 5.16455078125  2.43878173828125 4.0546875  2.74307861328125 2.76953125  C 3.04088134765625 1.511962890625  3.84569091796875 0.748046874999999  5.05638427734375 0.478759765625  Z M 12.6842163085938 3.254150390625  C 12.8201293945313 1.646484375  14.0978515625 0.418945312499999  15.6320922851563 0.426025390624999  C 17.1586791992187 0.433105468749999  18.4347778320313 1.672607421875  18.5514404296875 3.261474609375  C 18.6697265625 4.87451171875  17.61025390625 6.308349609375  16.0982788085938 6.574951171875  C 15.5650634765625 6.6689453125  15.0462280273438 6.60302734375  14.5415405273438 6.398681640625  C 14.4292846679687 6.353271484375  14.3722290039063 6.296142578125  14.3508911132813 6.15625  C 14.1864501953125 5.071533203125  13.6750366210938 4.20703125  12.8189697265625 3.577880859375  C 12.6962768554688 3.487548828125  12.6723876953125 3.394287109375  12.6842163085938 3.254150390625  Z " fill-rule="nonzero" fill="#777777" stroke="none" transform="matrix(1 0 0 1 18 240 )" />
  </g>
</svg>