<?xml version="1.0" encoding="utf-8"?>
<svg version="1.1" xmlns:xlink="http://www.w3.org/1999/xlink" width="13px" height="7px" xmlns="http://www.w3.org/2000/svg">
  <g transform="matrix(1 0 0 1 -22 -250 )">
    <path d="M 1.081640625 4.3091796875  C 1.09458984375 4.3087890625  1.10728515625 4.3087890625  1.120234375 4.3087890625  C 1.120234375 3.7927734375  1.04939453125 3.26953125  1.1334375 2.7619140625  C 1.392421875 1.203515625  3.0402734375 0.0714843749999972  5.09234375 0.0251953124999975  C 6.17017578125 0.000976562499998224  7.25181640625 -0.00234375000000142  8.3276171875 0.0433593749999979  C 10.2217578125 0.124218749999997  11.898046875 1.3884765625  12.017890625 2.8466796875  C 12.095078125 3.7830078125  12.0534375 4.7251953125  12.05470703125 5.6650390625  C 12.05470703125 5.71484374999999  11.96888671875 5.78535156249999  11.90083984375 5.8115234375  C 11.16044921875 6.0966796875  10.36775390625 6.259375  9.55830078125 6.371875  C 7.102265625 6.7126953125  4.67923828125 6.5498046875  2.27982421875 6.0701171875  C 1.934765625 6.001171875  1.595546875 5.915625  1.25099609375 5.84511718749999  C 1.1171875 5.8177734375  1.07630859375 5.767578125  1.0780859375 5.661328125  C 1.08646484375 5.2107421875  1.081640625 4.759765625  1.081640625 4.3091796875  Z " fill-rule="nonzero" fill="#777777" stroke="none" transform="matrix(1 0 0 1 22 250 )" />
  </g>
</svg>