<?xml version="1.0" encoding="utf-8"?>
<svg version="1.1" xmlns:xlink="http://www.w3.org/1999/xlink" width="7px" height="7px" xmlns="http://www.w3.org/2000/svg">
  <g transform="matrix(1 0 0 1 -31 -247 )">
    <path d="M 6.375 3.303515625  L 6.375 6.2068359375  C 5.2751953125 6.7328125  4.10234375 6.9291015625  2.8697265625 6.9861328125  C 2.8697265625 6.8751953125  2.868359375 6.7732421875  2.869921875 6.6712890625  C 2.878515625 6.13125  2.868359375 5.59296875  2.6947265625 5.0734375  C 2.3005859375 3.8935546875  1.518359375 3.0865234375  0.355664062499997 2.646875  C 0.306054687499998 2.628125  0.255664062499998 2.61171875  0.182421874999998 2.5859375  C 0.770507812499998 1.991015625  1.0802734375 1.2890625  1.1201171875 0.463281249999998  C 1.587109375 0.463281249999998  2.0373046875 0.459374999999998  2.4876953125 0.464453124999999  C 2.9810546875 0.469921874999997  3.4759765625 0.430664062499996  3.9642578125 0.553906249999997  C 5.2279296875 0.872460937499998  6.1712890625 1.9208984375  6.3453125 3.2123046875  C 6.3494140625 3.2435546875  6.3650390625 3.2732421875  6.375 3.303515625  Z " fill-rule="nonzero" fill="#777777" stroke="none" transform="matrix(1 0 0 1 31 247 )" />
  </g>
</svg>