<?xml version="1.0" encoding="utf-8"?>
<svg version="1.1" xmlns:xlink="http://www.w3.org/1999/xlink" width="6px" height="12px" xmlns="http://www.w3.org/2000/svg">
  <g transform="matrix(1 0 0 1 -1458 -28 )">
    <path d="M 5.214 1.3872  C 4.69 0.851999999999999  3.996 0.599999999999999  3.144 0.6  C 2.174 0.6  1.414 0.912000000000001  0.852 1.5348  C 0.275 2.1588  0 3.018  0 4.1148  L 1.493 4.1148  C 1.493 3.4932  1.598 3.0036  1.821 2.6628  C 2.07 2.2464  2.476 2.0544  3.052 2.0544  C 3.498 2.0544  3.852 2.1864  4.1 2.4696  C 4.336 2.7516  4.467 3.1368  4.467 3.6264  C 4.467 3.9972  4.349 4.3536  4.114 4.68  L 3.956 4.8876  C 3.105 5.748  2.594 6.3708  2.424 6.7716  C 2.24 7.1724  2.162 7.662  2.162 8.2248  L 2.162 8.4324  L 3.668 8.4324  L 3.668 8.2248  C 3.668 7.8696  3.734 7.5576  3.865 7.2612  C 3.99422197430614 6.97249749963826  4.1727824935302 6.71978665792726  4.389 6.5196  L 5.144 5.7552  C 5.332 5.5584  5.456 5.4216  5.515 5.3472  C 5.83 4.872  6 4.2648  6 3.5232  C 6 2.6172  5.738 1.9056  5.214 1.3872  Z M 2.188 9.47160000000001  C 2.384 9.264  2.62 9.1596  2.908 9.1596  C 3.197 9.1596  3.445 9.264  3.642 9.4716  C 3.8287205268536 9.676911648808  3.93350486538291 9.96812478963737  3.93 10.272  C 3.93507201682751 10.5840090439899  3.82488112135577 10.882732534704  3.629 11.088  C 3.432 11.2956  3.197 11.4  2.909 11.4  C 2.62 11.4  2.384 11.2812  2.188 11.0736  C 1.99604453517113 10.8723044768888  1.89019180159675 10.5776810351068  1.9 10.272  C 1.9 9.94560000000001  1.991 9.67920000000001  2.188 9.47160000000001  Z " fill-rule="nonzero" fill="#6b57fe" stroke="none" transform="matrix(1 0 0 1 1458 28 )" />
  </g>
</svg>