<?xml version="1.0" encoding="utf-8"?>
<svg version="1.1" xmlns:xlink="http://www.w3.org/1999/xlink" width="19px" height="17px" xmlns="http://www.w3.org/2000/svg">
  <g transform="matrix(1 0 0 1 -279 -24 )">
    <path d="M 17.8765625 14.85953125  C 18.19921875 14.85953125  18.46078125 15.12095703125  18.46078125 15.4434375  C 18.46078125 15.76130859375  18.206640625 16.01986328125  17.89037109375 16.0271875  L 17.87658203125 16  L 1.5802734375 16  C 1.25763671875 16.02734375  0.99609375 15.76591796875  0.99609375 15.4434375  C 0.99609375 15.12556640625  1.250234375 14.86701171875  1.56650390625 14.8596875  L 1.58029296875 14.85953125  L 17.87658203125 14.85953125  Z M 1.17921875 8.03443359375  L 5.14587890625 4.2905078125  C 5.51845703125 3.9388671875  6.131171875 4.20287109375  6.131171875 4.71505859375  L 6.131171875 12.05859375  C 6.131171875 12.56533203125  5.52962890625 12.8315234375  5.15427734375 12.4908984375  L 1.1876171875 8.8912890625  C 0.9356640625 8.6626171875  0.93177734375 8.26796875  1.17921875 8.03443359375  Z M 17.9165234375 10  L 17.91654296875 10.210703125  C 18.22583984375 10.210703125  18.47658203125 10.47212890625  18.47658203125 10.79462890625  C 18.47658203125 11.1125  18.23294921875 11.3710546875  17.929765625 11.37837890625  L 17.91654296875 11.37853515625  L 7.57728515625 11.37853515625  C 7.26798828125 11.37853515625  7.01724609375 11.117109375  7.01724609375 10.79462890625  C 7.01724609375 10.47673828125  7.26087890625 10.21818359375  7.5640625 10.21087890625  L 7.57728515625 10  L 17.9165234375 10  Z M 17.91654296875 5.53943359375  C 18.22583984375 5.53943359375  18.47658203125 5.800859375  18.47658203125 6.12333984375  C 18.47658203125 6.44123046875  18.23294921875 6.69978515625  17.929765625 6.70708984375  L 17.91654296875 7  L 7.57728515625 7  C 7.26798828125 6.707265625  7.01724609375 6.44583984375  7.01724609375 6.12333984375  C 7.01724609375 5.80546875  7.26087890625 5.5469140625  7.5640625 5.53958984375  L 7.57728515625 5.53943359375  L 17.9165234375 5.53943359375  Z M 1.5802734375 1  L 17.8765625 1  C 18.19919921875 0.890625  18.4607421875 1.15205078125  18.4607421875 1.47453125  C 18.4607421875 1.79240234375  18.20662109375 2.05095703125  17.8903515625 2.05828125  L 17.8765625 2  L 1.5802734375 2  C 1.2576171875 2.0584375  0.99607421875 1.79701171875  0.99607421875 1.47453125  C 0.99607421875 1.15666015625  1.25021484375 0.89810546875  1.566484375 0.89078125  L 1.5802734375 1  Z " fill-rule="nonzero" fill="#777777" stroke="none" transform="matrix(1 0 0 1 279 24 )" />
  </g>
</svg>