<?xml version="1.0" encoding="utf-8"?>
<svg version="1.1" xmlns:xlink="http://www.w3.org/1999/xlink" width="20px" height="20px" xmlns="http://www.w3.org/2000/svg">
  <g transform="matrix(1 0 0 1 -1451 -24 )">
    <path d="M 10 19.4444444444444  C 15.2160226372908 19.4444444444444  19.4444444444444 15.2160226372908  19.4444444444444 10  C 19.4444444444444 4.78397736270918  15.2160226372908 0.555555555555558  10 0.555555555555558  C 4.78397736270917 0.555555555555558  0.555555555555556 4.78397736270918  0.555555555555556 10  C 0.555555555555556 15.2160226372908  4.78397736270917 19.4444444444444  10 19.4444444444444  Z M 9.99999987582366 18.3333333333333  C 5.39762696056705 18.3333333333333  1.66666654249032 14.6023729152566  1.66666654249032 10  C 1.66666654249032 5.39762708474339  5.39762696056704 1.66666666666667  9.99999987582366 1.66666666666667  C 14.6023727910803 1.66666666666667  18.333333209157 5.39762708474339  18.333333209157 10  C 18.333333209157 14.6023729152566  14.6023727910803 18.3333333333333  9.99999987582366 18.3333333333333  Z " fill-rule="nonzero" fill="#555555" stroke="none" transform="matrix(1 0 0 1 1451 24 )" />
  </g>
</svg>