<?xml version="1.0" encoding="utf-8"?>
<svg version="1.1" xmlns:xlink="http://www.w3.org/1999/xlink" width="5px" height="6px" xmlns="http://www.w3.org/2000/svg">
  <g transform="matrix(1 0 0 1 -1401 -83 )">
    <path d="M 1.3056640625 5.1923828125  C 1.3056640625 5.4150390625  1.12548828125 5.59521484375  0.90283203125 5.59521484375  C 0.68017578125 5.59521484375  0.5 5.4150390625  0.5 5.1923828125  L 0.5 0.7275390625  C 0.5 0.5048828125  0.68017578125 0.32470703125  0.90283203125 0.32470703125  C 1.12548828125 0.32470703125  1.3056640625 0.5048828125  1.3056640625 0.7275390625  L 1.3056640625 5.1923828125  Z M 4.02880859375 5.1923828125  C 4.02880859375 5.4150390625  3.8486328125 5.59521484375  3.6259765625 5.59521484375  C 3.4033203125 5.59521484375  3.22314453125 5.4150390625  3.22314453125 5.1923828125  L 3.22314453125 0.7275390625  C 3.22314453125 0.5048828125  3.4033203125 0.32470703125  3.6259765625 0.32470703125  C 3.8486328125 0.32470703125  4.02880859375 0.5048828125  4.02880859375 0.7275390625  L 4.02880859375 5.1923828125  Z " fill-rule="nonzero" fill="#333333" stroke="none" transform="matrix(1 0 0 1 1401 83 )" />
  </g>
</svg>