<?xml version="1.0" encoding="utf-8"?>
<svg version="1.1" xmlns:xlink="http://www.w3.org/1999/xlink" width="13px" height="15px" xmlns="http://www.w3.org/2000/svg">
  <g transform="matrix(1 0 0 1 -1399 -82 )">
    <path d="M 12.4760298295455 12.5368088942308  C 12.4777610085227 13.3751502403846  11.7783647017045 14.0579927884615  10.9196999289773 14.0579927884615  L 2.09241832386364 14.0579927884615  C 1.23375355113636 14.0579927884615  0.534357244318181 13.3751502403846  0.534357244318181 12.5368088942308  L 0.534357244318181 2.42938701923077  C 0.534357244318181 1.59104567307692  1.23375355113636 0.908203125  2.09241832386364 0.908203125  L 10.91796875 0.908203125  C 11.7766335227273 0.908203125  12.4760298295455 1.59104567307692  12.4760298295455 2.42938701923077  L 12.4760298295455 12.5368088942308  Z M 10.91796875 1.92232572115385  L 2.09241832386364 1.92232572115385  C 1.80677379261364 1.92232572115385  1.57306463068182 2.15050330528846  1.57306463068182 2.42938701923077  L 1.57306463068182 12.5368088942308  C 1.57306463068182 12.8156926081731  1.80677379261364 13.0438701923077  2.09241832386364 13.0438701923077  L 10.91796875 13.0438701923077  C 11.20361328125 13.0438701923077  11.4373224431818 12.8156926081731  11.4373224431818 12.5368088942308  L 11.4373224431818 2.42938701923077  C 11.4373224431818 2.15050330528846  11.20361328125 1.92232572115385  10.91796875 1.92232572115385  Z " fill-rule="nonzero" fill="#333333" stroke="none" transform="matrix(1 0 0 1 1399 82 )" />
  </g>
</svg>