<?xml version="1.0" encoding="utf-8"?>
<svg version="1.1" xmlns:xlink="http://www.w3.org/1999/xlink" width="4px" height="6px" xmlns="http://www.w3.org/2000/svg">
  <g transform="matrix(1 0 0 1 -1404 -122 )">
    <path d="M 3.7778366328125 2.7007583203125  C 3.7778246328125 1.62669367466518  2.97420149609375 0.752679115513393  1.98661108203125 0.752679115513393  C 0.999248515625001 0.752679115513393  0.19574528515625 1.62669367466518  0.19574528515625 2.7007583203125  C 0.19574528515625 3.29684845982143  0.4820511640625 3.83142029715402  0.75883551171875 4.34790155691964  C 0.917583875 4.64414784458705  1.07057615234375 4.92971709123884  1.15727737109375 5.21131616768973  L 2.816172640625 5.21131616768973  C 2.90292182421875 4.92971709123884  3.0558421484375 4.64421209263393  3.21462648828125 4.34790155691964  C 3.49131489453125 3.83143315429687  3.77777666796875 3.29684845982143  3.7778366328125 2.7007583203125  Z M 2.0078966328125 1.42564142159598  C 2.015967171875 1.51433413643973  1.95653547265625 1.59351901925223  1.8750267265625 1.60303970842634  C 1.3513178046875 1.66202686104911  0.9715113125 2.12370954659598  0.9715113125 2.7008996484375  C 0.9715113125 2.96974023297991  1.21084504296875 3.41454008370536  1.38517084765625 3.73868031947545  L 1.467003359375 3.89192356305804  C 1.507931609375 3.96979790876116  1.4832883203125 4.06852525948661  1.41222449609375 4.11287804547991  C 1.38874441015625 4.12721689871652  1.363285671875 4.13420643833705  1.33818669921875 4.13420643833705  C 1.28662165625 4.13420643833705  1.236495640625 4.10522037388393  1.2090822265625 4.0527987765067  L 1.12859280078125 3.9020224344308  C 0.915497281250001 3.50596952427455  0.674076957031251 3.05727659598214  0.674076957031251 2.7007583203125  C 0.674076957031251 1.96679165876116  1.17745966015625 1.3567095828683  1.8443874921875 1.28141777762277  C 1.9269755 1.27016255440848  1.99899866796875 1.33651185267857  2.0078966328125 1.42564142159598  Z " fill-rule="nonzero" fill="#000000" stroke="none" transform="matrix(1 0 0 1 1404 122 )" />
  </g>
</svg>