<?xml version="1.0" encoding="utf-8"?>
<svg version="1.1" xmlns:xlink="http://www.w3.org/1999/xlink" width="10px" height="11px" xmlns="http://www.w3.org/2000/svg">
  <g transform="matrix(1 0 0 1 -1402 -154 )">
    <path d="M 4.54931640625 1.9466796875  C 2.313232421875 2.22470703125  0.446142578124998 4.369091796875  0.446142578125 6.79033203125  C 0.446142578125 7.418310546875  0.572705078125 8.028857421875  0.822167968750001 8.6046875  L 1.456005859375 10.0677734375  L 1.751171875 8.5009765625  C 1.998291015625 7.188623046875  3.260546875 5.955078125  4.552685546875 5.664892578125  C 4.551220703125 6.07314453125  4.549609375 6.57470703125  4.549169921875 6.683984375  C 4.532470703125 6.90634765625  4.610400390625 7.1205078125  4.765966796875 7.276513671875  L 4.80126953125 7.309326171875  C 5.098193359375 7.5775390625  5.599169921875 7.55439453125  5.87177734375 7.247802734375  L 8.790771484375 4.309326171875  C 8.935205078125 4.164453125  9.01474609375 3.964501953125  9.01064453125 3.757373046875  C 9.014599609375 3.5498046875  8.93505859375 3.349853515625  8.79150390625 3.20615234375  L 5.844384765625 0.237939453125  C 5.556103515625 -0.0504882812499999  5.05380859375 -0.0503417968749999  4.766552734375 0.23779296875  C 4.61083984375 0.393505859375  4.532763671875 0.60751953125  4.54931640625 0.82958984375  L 4.54931640625 1.9466796875  Z M 1.42392578125 6.79033203125  C 1.42392578125 4.751708984375  3.14658203125 2.894580078125  5.038427734375 2.893994140625  L 5.527099609375 2.89384765625  L 5.527099609375 1.306103515625  L 7.961083984375 3.757373046875  L 5.528857421875 6.205859375  C 5.530322265625 5.759521484375  5.5322265625 5.169482421875  5.5322265625 5.112646484375  L 5.5322265625 4.61181640625  L 5.03154296875 4.623974609375  C 3.657666015625 4.657080078125  2.239404296875 5.572021484375  1.42392578125 6.804541015625  L 1.42392578125 6.79033203125  Z " fill-rule="nonzero" fill="#333333" stroke="none" transform="matrix(1 0 0 1 1402 154 )" />
  </g>
</svg>