<?xml version="1.0" encoding="utf-8"?>
<svg version="1.1" xmlns:xlink="http://www.w3.org/1999/xlink" width="15px" height="12px" xmlns="http://www.w3.org/2000/svg">
  <g transform="matrix(1 0 0 1 -1397 -155 )">
    <path d="M 14.020166015625 5.0318359375  C 14.02001953125 4.761865234375  13.801171875 4.543017578125  13.5310546875 4.543017578125  C 13.2609375 4.543017578125  13.04208984375 4.761865234375  13.04208984375 5.031982421875  L 13.04208984375 10.45849609375  C 13.04208984375 10.75439453125  12.705029296875 11.004296875  12.30615234375 11.004296875  L 2.696630859375 11.004296875  C 2.29775390625 11.004296875  1.960693359375 10.754248046875  1.960693359375 10.45849609375  L 1.960693359375 2.33974609375  C 1.960693359375 2.04384765625  2.29775390625 1.7939453125  2.696630859375 1.7939453125  L 6.74384765625 1.7939453125  C 7.01396484375 1.7939453125  7.2328125 1.57509765625  7.2328125 1.30498046875  C 7.2328125 1.03486328125  7.01396484375 0.816015625  6.74384765625 0.816015625  L 2.696630859375 0.816015625  C 1.75166015625 0.816015625  0.98291015625 1.49951171875  0.98291015625 2.339599609375  L 0.98291015625 10.458203125  C 0.98291015625 11.298291015625  1.751513671875 11.981787109375  2.696630859375 11.981787109375  L 12.3064453125 11.981787109375  C 13.251416015625 11.981787109375  14.020166015625 11.298291015625  14.020166015625 10.458203125  L 14.020166015625 5.0318359375  Z " fill-rule="nonzero" fill="#0085ff" stroke="none" transform="matrix(1 0 0 1 1397 155 )" />
  </g>
</svg>