<?xml version="1.0" encoding="utf-8"?>
<svg version="1.1" xmlns:xlink="http://www.w3.org/1999/xlink" width="18px" height="18px" xmlns="http://www.w3.org/2000/svg">
  <g transform="matrix(1 0 0 1 -1397 -117 )">
    <path d="M 16.8362879941406 8.98201219921875  C 16.8362879941406 4.64317393359375  13.3189527480469 1.1258386875  8.98011448242188 1.1258386875  C 4.64127621679688 1.1258386875  1.12394097070312 4.64317393359375  1.12394097070312 8.98201219921875  C 1.12394097070312 13.3208504648438  4.64127621679688 16.8381857109375  8.98011448242188 16.8381857109375  C 13.3189527480469 16.8381857109375  16.8362879941406 13.3208504648438  16.8362879941406 8.98201219921875  Z M 12.1127085878906 7.38106163085937  C 12.1126905878906 8.337743015625  11.6317146972656 9.17629846875  11.2076881875 9.91543533398437  C 10.8751116796875 10.4942289199219  10.5611345507813 11.0416157753906  10.5611345507813 11.5163319199219  L 10.5611345507813 12.6973392011719  C 10.5611345507813 12.8230379824219  10.4613022441406 12.9242913222656  10.3378339511719 12.9242913222656  L 10.1728498183594 12.9242913222656  L 10.1728498183594 13.0914879609375  C 10.1728498183594 13.4339397714844  9.89905744335938 13.7117794042969  9.56225380078125 13.7117794042969  L 8.39829897070313 13.7117794042969  C 8.06120752148438 13.7117794042969  7.7873971640625 13.4339397714844  7.7873971640625 13.0914879609375  L 7.7873971640625 12.9242913222656  L 7.62243101367188 12.9242913222656  C 7.49926850976563 12.9242913222656  7.39931029101563 12.8231279121094  7.39931029101563 12.6973392011719  L 7.39931029101563 11.5163319199219  C 7.39931029101563 11.0418316347656  7.08535116210938 10.4942289023437  6.75266670703125 9.91543533398437  C 6.328766109375 9.176100609375  5.84759234179688 8.337743015625  5.84759234179688 7.38106163085937  C 5.84759234179688 5.62699887890625  7.25292551953125 4.20063795703125  8.97993460546875 4.20063795703125  C 10.7073394277344 4.20063795703125  12.1124927285156 5.62698089648437  12.1127085878906 7.38106163085937  Z " fill-rule="nonzero" fill="#0085ff" stroke="none" transform="matrix(1 0 0 1 1397 117 )" />
  </g>
</svg>