<?xml version="1.0" encoding="utf-8"?>
<svg version="1.1" xmlns:xlink="http://www.w3.org/1999/xlink" width="18px" height="17px" xmlns="http://www.w3.org/2000/svg">
  <g transform="matrix(1 0 0 1 -1545 -23 )">
    <path d="M 17.25 16.875  L 0.75 16.875  C 0.370304234491329 16.875  0.0625 16.5671957655087  0.0625 16.1875  C 0.0625 15.8078042344913  0.370304234491329 15.5  0.75 15.5  L 17.25 15.5  C 17.6296957655087 15.5  17.9375 15.8078042344913  17.9375 16.1875  C 17.9375 16.5671957655087  17.6296957655087 16.875  17.25 16.875  Z M 8.3125 2.4375  L 8.3125 1.0625  C 8.3125 0.68280423449133  8.62030423449133 0.375  9 0.375  C 9.37969576550867 0.375  9.6875 0.68280423449133  9.6875 1.0625  L 9.6875 2.4375  C 9.6875 2.81719576550867  9.37969576550867 3.125  9 3.125  C 8.62030423449133 3.125  8.3125 2.81719576550867  8.3125 2.4375  Z " fill-rule="nonzero" fill="#777777" stroke="none" transform="matrix(1 0 0 1 1545 23 )" />
  </g>
</svg>