<?xml version="1.0" encoding="utf-8"?>
<svg version="1.1" xmlns:xlink="http://www.w3.org/1999/xlink" width="6px" height="5px" xmlns="http://www.w3.org/2000/svg">
  <g transform="matrix(1 0 0 1 -1551 -38 )">
    <path d="M 4.375 1.875  C 4.3756455212149 1.72504527496326  4.35005135752454 1.5761337771284  4.299375 1.435  C 4.2796704159209 1.37017787624733  4.26965577693102 1.30279911213309  4.26965577693102 1.2350482570718  C 4.26965577693102 0.855352491563128  4.57746001142235 0.547548257071799  4.95715577693102 0.547548257071799  C 5.22254268413459 0.547548257071799  5.46423126266169 0.700295124976172  5.578125 0.940000000000001  C 5.69446940656684 1.23786813819193  5.7528077794075 1.55522888644515  5.75 1.875  C 5.75 3.39378306203468  4.51878306203468 4.625  3 4.625  C 1.48121693796532 4.625  0.25 3.39378306203468  0.25 1.875  C 0.247192220592501 1.55522888644515  0.305530593433165 1.23786813819193  0.421875 0.940000000000001  C 0.535768737338312 0.700295124976172  0.777457315865409 0.547548257071799  1.04284422306898 0.547548257071799  C 1.42253998857765 0.547548257071799  1.73034422306898 0.855352491563128  1.73034422306898 1.2350482570718  C 1.73034422306898 1.30279911213309  1.7203295840791 1.37017787624734  1.700625 1.435  C 1.64994864247546 1.5761337771284  1.62435447878509 1.72504527496326  1.625 1.875  C 1.625 2.63439153101734  2.24060846898266 3.25  3 3.25  C 3.75939153101734 3.25  4.375 2.63439153101734  4.375 1.875  Z " fill-rule="nonzero" fill="#777777" stroke="none" transform="matrix(1 0 0 1 1551 38 )" />
  </g>
</svg>