<?xml version="1.0" encoding="utf-8"?>
<svg version="1.1" xmlns:xlink="http://www.w3.org/1999/xlink" width="14px" height="16px" xmlns="http://www.w3.org/2000/svg">
  <g transform="matrix(1 0 0 1 -1547 -24 )">
    <path d="M 1.5 6.504375  L 1.5 15.1875  L 0.125 15.1875  L 0.125 6.504375  C 0.125 3.300625  3.24625 0.75  7 0.75  C 8.74574268332502 0.725770800270366  10.4460961208115 1.30632004535502  11.8125 2.393125  C 13.0926870088852 3.38197462595478  13.8520325045673 4.90066561731895  13.875 6.518125  L 13.875 15.1875  L 12.5 15.1875  L 12.5 6.504375  C 12.4676635295834 5.30205855852285  11.8878371876207 4.1803857659924  10.925625 3.45875  C 9.809402302593 2.57594814106664  8.42298576288474 2.10490644456331  7 2.125  C 3.9475 2.125  1.5 4.1325  1.5 6.504375  Z " fill-rule="nonzero" fill="#777777" stroke="none" transform="matrix(1 0 0 1 1547 24 )" />
  </g>
</svg>