<?xml version="1.0" encoding="utf-8"?>
<svg version="1.1" xmlns:xlink="http://www.w3.org/1999/xlink" width="21px" height="21px" xmlns="http://www.w3.org/2000/svg">
  <g transform="matrix(1 0 0 1 -1644 -23 )">
    <path d="M 10.473263857561 20.5279059580488  C 4.93722617073171 20.5279059580488  0.433655903414634 16.0243356907317  0.433655903414634 10.4881633697561  C 0.433655903414634 4.95212568292683  4.93722617073171 0.448555415609756  10.473263857561 0.448555415609756  C 16.009458617561 0.448555415609756  20.5130064458537 4.95212568292683  20.5130064458537 10.4881633697561  C 20.5130064458537 16.0243581297561  16.0094361785366 20.5279059580488  10.473263857561 20.5279059580488  Z M 10.473263857561 1.88923477853659  C 5.73172704097561 1.88923477853659  1.87433524390244 5.74662657560976  1.87433524390244 10.4881633921951  C 1.87433524390244 15.2290719160976  5.73172704097561 19.08722664  10.473263857561 19.08722664  C 15.2141723814634 19.08722664  19.0723271053659 15.2290719160976  19.0723271053659 10.4881633921951  C 19.0723271053659 5.74664899219512  15.2141723814634 1.88923477853659  10.473263857561 1.88923477853659  Z " fill-rule="nonzero" fill="#777777" stroke="none" transform="matrix(1 0 0 1 1644 23 )" />
  </g>
</svg>