<?xml version="1.0" encoding="utf-8"?>
<svg version="1.1" xmlns:xlink="http://www.w3.org/1999/xlink" width="11px" height="13px" xmlns="http://www.w3.org/2000/svg">
  <g transform="matrix(1 0 0 1 -1649 -27 )">
    <path d="M 7.06742657365854 7.77645886926829  C 6.99622734731707 7.7532792897561  6.5466601697561 7.55056456  6.82759758536585 6.69655521756098  L 6.82371561170732 6.69655521756098  C 7.55585825365854 5.94255692097561  8.11548916 4.72857969463415  8.11548916 3.53387765756098  C 8.11548916 1.69654251609756  6.89359093560976 0.733748469268294  5.47380239414634 0.733748469268294  C 4.0531611697561 0.733748469268294  2.83821906536585 1.69656495512195  2.83821906536585 3.53387765756098  C 2.83821906536585 4.73342654634146  3.39477582536585 5.95225060195122  4.13131651609756 6.70440889853659  C 4.41835734634146 7.45753207317073  3.90499584292683 7.73707826926829  3.79757991902439 7.77645886926829  C 2.3105189804878 8.31416678146342  0.566148986341463 9.29441843414634  0.566148986341463 10.2620593326829  L 0.566148986341463 10.6246077043902  C 0.566148986341463 11.9430164419512  3.12218574926829 12.2427129268293  5.48775951219512 12.2427129268293  C 7.85683376292683 12.2427129268293  10.3805358019512 11.9430164419512  10.3805358019512 10.6246077043902  L 10.3805358019512 10.2620593326829  C 10.3805133629268 9.26515785658537  8.62743700487805 8.29282720195122  7.06742657365854 7.77645886926829  Z " fill-rule="nonzero" fill="#777777" stroke="none" transform="matrix(1 0 0 1 1649 27 )" />
  </g>
</svg>