<?xml version="1.0" encoding="utf-8"?>
<svg version="1.1" xmlns:xlink="http://www.w3.org/1999/xlink" width="15px" height="15px" xmlns="http://www.w3.org/2000/svg">
  <g transform="matrix(1 0 0 1 -1650 -80 )">
    <path d="M 14.44921875 11.390625  C 14.44921875 11.625  14.25 11.82421875  14.00390625 11.82421875  L 9.6328125 11.82421875  C 9.38671875 11.82421875  9.19921875 11.625  9.19921875 11.390625  C 9.19921875 11.14453125  9.3984375 10.95703125  9.6328125 10.95703125  L 14.015625 10.95703125  C 14.26171875 10.95703125  14.44921875 11.15625  14.44921875 11.390625  Z M 14.44921875 8.75390625  C 14.44921875 9  14.25 9.1875  14.00390625 9.1875  L 9.6328125 9.1875  C 9.38671875 9.1875  9.19921875 8.98828125  9.19921875 8.75390625  C 9.19921875 8.5078125  9.3984375 8.3203125  9.6328125 8.3203125  L 14.015625 8.3203125  C 14.26171875 8.3203125  14.44921875 8.51953125  14.44921875 8.75390625  Z M 10.93359375 4.39453125  C 10.9453125 6.3984375  9.41015625 8.05078125  7.44140625 8.2734375  L 7.44140625 8.3203125  C 4.53515625 8.3203125  2.19140625 10.86328125  2.19140625 14.015625  C 2.19140625 14.16796875  2.203125 14.30859375  2.21484375 14.44921875  L 2.19140625 14.44921875  L 0.45703125 14.44921875  C 0.4453125 14.30859375  0.43359375 14.15625  0.43359375 14.015625  C 0.43359375 11.0625  2.05078125 8.51953125  4.39453125 7.32421875  C 3.5859375 6.59765625  3.05859375 5.56640625  3.05859375 4.39453125  C 3.05859375 2.21484375  4.828125 0.457031249999999  6.99609375 0.457031249999999  C 9.17578125 0.457031249999999  10.93359375 2.2265625  10.93359375 4.39453125  Z M 9.19921875 4.37109375  C 9.19921875 3.1640625  8.21484375 2.19140625  7.0078125 2.19140625  C 5.80078125 2.19140625  4.81640625 3.17578125  4.81640625 4.3828125  C 4.81640625 5.58984375  5.80078125 6.5625  7.0078125 6.5625  C 8.21484375 6.5625  9.19921875 5.578125  9.19921875 4.37109375  Z M 9.19921875 14.00390625  C 9.1875 13.76953125  9.38671875 13.5703125  9.6328125 13.5703125  L 14.015625 13.5703125  C 14.26171875 13.5703125  14.44921875 13.76953125  14.44921875 14.00390625  C 14.44921875 14.25  14.25 14.4375  14.015625 14.4375  L 9.6328125 14.4375  C 9.38671875 14.4375  9.19921875 14.23828125  9.19921875 14.00390625  Z " fill-rule="nonzero" fill="#000000" stroke="none" transform="matrix(1 0 0 1 1650 80 )" />
  </g>
</svg>