<?xml version="1.0" encoding="utf-8"?>
<svg version="1.1" xmlns:xlink="http://www.w3.org/1999/xlink" width="15px" height="14px" xmlns="http://www.w3.org/2000/svg">
  <g transform="matrix(1 0 0 1 -1650 -191 )">
    <path d="M 14.9334973185788 6.53363441872815  C 14.9334973185788 4.40677054512546  14.0210358533434 2.3821098182434  12.4276250097087 0.973354402912621  C 12.2294310163039 0.779076049124036  11.9629615185102 0.670254848697974  11.6854278488906 0.670254848697974  C 11.0998648811874 0.670254848697974  10.6251723052012 1.14494742468413  10.6251723052012 1.73051039238729  C 10.6251723052012 1.73258640123614  10.6251784025229 1.73466240560793  10.6251905970874 1.73673837864078  C 10.6246784622905 2.0520925575681  10.7645716880962 2.35130862550572  11.006882592233 2.55313515048544  C 12.4250813833967 3.83765913336566  13.0410108123573 5.78675159454996  12.6184710145631 7.6529642815534  C 12.1930960448335 9.59051091349412  10.7055850224111 11.1191133986286  8.78034597087379 11.5971148737864  C 8.34412343639976 11.7107089651239  7.8951939357661 11.7682018174221  7.44442379792451 11.7682018174221  C 4.51660897549463 11.7682018174221  2.14314610860412 9.39473895053162  2.14314610860412 6.46692412810174  C 2.14314610860412 6.46644211289907  2.1431461743445 6.46596009770901  2.14314630582524 6.46547808252427  C 2.15289210609144 4.98229670921742  2.783540953009 3.57102763919146  3.88196538349515 2.57434025728155  C 4.11543842602802 2.36582011000442  4.25336601366689 2.07080832898691  4.26365737864078 1.7579435  C 4.263751485575 1.75217705070855  4.2637985413915 1.74640992955395  4.2637985413915 1.74064271241343  C 4.2637985413915 1.15507974471026  3.78910596540535 0.680387168724109  3.20354299770218 0.680387168724109  C 2.93105224461509 0.680387168724109  2.66902229007833 0.785299506249698  2.47182551941748 0.973354402912621  C 0.101815869173738 3.11140466063854  -0.651697258111834 6.51711370774181  0.595173218446602 9.45539869417476  C 1.32051382202878 11.2595960283537  2.77114333796164 12.6755951325889  4.59233659223301 13.3571390728155  C 5.51500255566455 13.7518929833825  6.5081433468113 13.9554231808641  7.51170855644292 13.9554231808641  C 11.6106493062361 13.9554231808641  14.9334973185788 10.6325751685214  14.9334973185788 6.53363441872815  Z " fill-rule="nonzero" fill="#383b48" stroke="none" transform="matrix(1 0 0 1 1650 191 )" />
  </g>
</svg>