<?xml version="1.0" encoding="utf-8"?>
<svg version="1.1" xmlns:xlink="http://www.w3.org/1999/xlink" width="15px" height="13px" xmlns="http://www.w3.org/2000/svg">
  <g transform="matrix(1 0 0 1 -1650 -155 )">
    <path d="M 6.5615625 11.1884375  L 6.5625 11.1875  L 6.5625 12.125  L 4.6828125 10.25  L 6.5625 8.375  L 6.5625 9.3125  L 9.375 9.3125  C 10.9289612245603 9.31250007752583  12.1881603656612 8.05330093642494  12.1881603656612 6.50000007752583  C 12.1881603656612 5.6185833299978  11.7749517832409 4.7881436506163  11.071875 4.2565625  L 11.0821875 4.2434375  L 12.4040625 2.9215625  C 13.4566885522648 3.81220762699116  14.0637844286795 5.12113457406084  14.0637844286795 6.50000017597409  C 14.0637844286795 9.08883494080593  11.9651191935114 11.1875001759741  9.37628442867952 11.1875001759741  C 9.37585628577688 11.1875001759741  9.37542814288656 11.1875001173161  9.375 11.1875  L 6.5615625 11.1884375  Z M 8.4375 1.8125  L 8.4375 0.875  L 10.3565625 2.75  L 8.4375 4.625  L 8.4375 3.6875  L 5.625 3.6875  C 4.07167321430632 3.6874999998805  2.81247407320542 4.94669914098139  2.81247407320542 6.4999999998805  C 2.81247407320542 7.38196370355337  3.22619296443157 8.21285300489467  3.93 8.744375  L 2.5959375 10.0775  C 1.54397447455739 9.18685681242435  0.937323429876808 7.87835825724145  0.937323429876808 6.49999999667445  C 0.937323429876808 3.91116523184261  3.03598866504496 1.81249999667445  5.62482342987681 1.81249999667445  L 8.4384375 1.8125  Z " fill-rule="nonzero" fill="#333333" stroke="none" transform="matrix(1 0 0 1 1650 155 )" />
  </g>
</svg>