<?xml version="1.0" encoding="utf-8"?>
<svg version="1.1" xmlns:xlink="http://www.w3.org/1999/xlink" width="13px" height="15px" xmlns="http://www.w3.org/2000/svg">
  <g transform="matrix(1 0 0 1 -1651 -116 )">
    <path d="M 12.5406578955078 6.07460526855469  L 3.52210526855469 6.07460526855469  L 3.52210526855469 4.8975  C 3.52210526855469 3.10105262695313  4.85868420898437 1.64013158203125  6.50157894042969 1.64013158203125  C 7.78317204824977 1.67851748757325  8.90067348160593 2.52234186567146  9.28842105957031 3.74447368652344  C 9.41015751587118 4.07379843753894  9.77126103500099 4.24710017339479  10.1043421044922 4.13605262695313  C 10.3646569801952 4.05781049824347  10.5428788950955 3.81814460844842  10.5428788950955 3.54632543102107  C 10.5428788950955 3.47976077203539  10.5320862498901 3.41363644376169  10.5109210595703 3.35052631347656  C 9.93781619178519 1.6144679778808  8.32952126777643 0.43069198187557  6.50157894042969 0.399473686523438  C 4.14855262695313 0.399473686523438  2.23328946289063 2.4177631640625  2.23328947753906 4.89947368652344  L 2.23328947753906 6.07697368652344  L 0.461710522460938 6.07697368652344  L 0.461710522460938 14.6052631640625  L 12.5406578955078 14.6052631640625  L 12.5406578955078 6.07460526855469  Z M 11.2526315820313 7.31644737304688  L 11.2526315820313 13.3661842089844  L 1.75013158203125 13.3661842089844  L 1.75013158203125 7.31644737304688  L 11.2526315820313 7.31644737304688  Z M 7.01355262695312 10.7285526269531  C 7.47460154876276 10.5421651411501  7.77805337216289 10.0964897505277  7.7825 9.59921052246094  C 7.75549945115608 8.91165049975054  7.19026102780699 8.36817337352494  6.50217105224609 8.36817337352494  C 5.81408107668519 8.36817337352494  5.24884265333611 8.91165049975054  5.22184210449219 9.59921052246094  C 5.22618562785101 10.0963375012521  5.52880485562913 10.5421715907924  5.98921052246094 10.7297368359375  L 5.98921052246094 12.2530263134766  L 7.01355262695312 12.2530263134766  L 7.01355262695312 10.7285526269531  Z " fill-rule="nonzero" fill="#333333" stroke="none" transform="matrix(1 0 0 1 1651 116 )" />
  </g>
</svg>