<?xml version="1.0" encoding="utf-8"?>
<svg version="1.1" xmlns:xlink="http://www.w3.org/1999/xlink" width="12px" height="8px" xmlns="http://www.w3.org/2000/svg">
  <g transform="matrix(1 0 0 1 -1884 -30 )">
    <path d="M 5.40416666015625 6.915  L 0.24416666015625 2.10416666015625  C 0.159485735942042 2.02534489752549  0.111387534927577 1.9148646088046  0.111387534927577 1.79917654031873  C 0.111387534927577 1.69369603690182  0.151393135842659 1.59214106331498  0.22333333984375 1.515  L 0.791666660156251 0.905000000000001  C 0.870467584059039 0.820589197776852  0.980765231960116 0.772666367964884  1.09624150285543 0.772666367964884  C 1.20191825572337 0.772666367964884  1.30364711575218 0.812820619930648  1.38083333984375 0.885000000000002  L 5.9925 5.185  L 10.605 0.885000000000002  C 10.7730728379082 0.728289224179562  11.036290766974 0.737237142349071  11.1933333398437 0.905000000000001  L 11.7616666601562 1.515  C 11.8338460342127 1.59218622296305  11.8740002824399 1.69391507862369  11.8740002824399 1.79959182656044  C 11.8740002824399 1.91506809281689  11.8260774564655 2.02536573671648  11.7416666601562 2.10416666015625  L 6.58083333984375 6.91666666015625  L 6.31833333984375 7.19833333984375  C 6.23432482184683 7.28844553183556  6.11468362076066 7.33666825653821  5.99166666015625 7.33  C 5.86922057818716 7.33616743743452  5.75029309259941 7.28798656104031  5.66666666015625 7.19833333984375  L 5.40416666015625 6.915  Z " fill-rule="nonzero" fill="#7d7d7d" stroke="none" transform="matrix(1 0 0 1 1884 30 )" />
  </g>
</svg>