<?xml version="1.0" encoding="utf-8"?>
<svg version="1.1" xmlns:xlink="http://www.w3.org/1999/xlink" width="18px" height="22px" xmlns="http://www.w3.org/2000/svg">
  <g transform="matrix(1 0 0 1 -193 -133 )">
    <path d="M 10.4052734375 21.60888671875  C 10.2490234375 21.08154296875  10.2392578125 20.51513671875  10.400390625 19.96337890625  L 3.525390625 19.96337890625  C 2.97119140625 19.96337890625  2.51953125 19.51171875  2.51953125 18.9599609375  L 2.51953125 2.64892578125  C 2.51953125 2.0947265625  2.97119140625 1.64306640625  3.525390625 1.64306640625  L 11.04736328125 1.64306640625  L 11.04736328125 3.6328125  C 11.04736328125 4.81201171875  12.01416015625 5.77880859375  13.193359375 5.77880859375  L 15.458984375 5.77880859375  C 15.4638671875 5.810546875  15.47607421875 5.83984375  15.47607421875 5.8740234375  L 15.47607421875 12.53662109375  C 15.66162109375 12.69287109375  15.84716796875 12.84423828125  16.03271484375 13.0322265625  C 16.05712890625 13.05908203125  16.083984375 13.0859375  16.1083984375 13.11279296875  C 16.22314453125 13.05419921875  16.34033203125 13.00048828125  16.4599609375 12.958984375  C 16.68212890625 12.880859375  16.90185546875 12.83935546875  17.119140625 12.8173828125  L 17.119140625 5.8740234375  C 17.119140625 5.8251953125  17.109375 5.77880859375  17.10693359375 5.732421875  C 17.0751953125 5.16357421875  16.85791015625 4.62158203125  16.47216796875 4.19677734375  L 13.41064453125 0.81787109375  C 12.939453125 0.2978515625  12.26318359375 0  11.5625 0  L 3.52783203125 0  C 2.0654296875 0  0.87890625 1.18896484375  1 2.64892578125  L 1 18.9599609375  C 0.87890625 20.419921875  2.06787109375 21.60888671875  3.52783203125 21.60888671875  L 10.4052734375 21.60888671875  Z " fill-rule="nonzero" fill="#ffffff" stroke="none" transform="matrix(1 0 0 1 193 133 )" />
  </g>
</svg>