<?xml version="1.0" encoding="utf-8"?>
<svg version="1.1" xmlns:xlink="http://www.w3.org/1999/xlink" width="26px" height="25px" xmlns="http://www.w3.org/2000/svg">
  <g transform="matrix(1 0 0 1 -59 -134 )">
    <path d="M 25.9942950500928 14  L 0.00668405009276438 14  L 0.00668405009276438 12  L 25.9942950500928 12  L 25.9942950500928 14  Z M 23.0176619684601 8.39933144526902  L 23.0176619684601 3.40411335435993  C 23.0176619684601 2.87607289053803  22.5906250408163 2.4482932987013  22.0640699294991 2.4482932987013  L 17.5181689573284 2.4482932987013  L 17.5181689573284 0.151205936920222  L 23.2152129591837 0.151205936920222  C 24.4005189517625 0.151205936920222  25.361537729128 1.11073936178108  25.361537729128 2.29456000185529  L 25.361537729128 8.39933144526902  L 23.0176619684601 8.39933144526902  Z M 3.93468115398887 2.4482932987013  C 3.40812604267161 2.4482932987013  2.98034645083488 2.87607289053803  2.98034645083488 3.40411335435993  L 2.98034645083488 8.39933144526902  L 0.678803055658627 8.39933144526902  L 0.678803055658627 2.29456000185529  C 0.678803055658627 1.11073936178108  1.63982180890538 0.151205936920222  2.82512780148423 0.151205936920222  L 8.66476501669759 0.151205936920222  L 8.66476501669759 2.4482932987013  L 3.93468115398887 2.4482932987013  Z M 2.98034645083488 17.307693187384  L 2.98034645083488 21.5535543042672  C 2.98034645083488 22.0808520797774  3.40812604267161 22.5086316716141  3.93468115398887 22.5086316716141  L 8.66476501669759 22.5086316716141  L 8.66476501669759 24.8131457717996  L 2.82512780148423 24.801263  C 1.63982180890538 24.801263  0.678803055658627 23.8417295751391  0.678803055658627 22.6579089350649  L 0.678803055658627 17.307693187384  L 2.98034645083488 17.307693187384  Z M 22.0640699294991 22.5086316716141  C 22.5906250408163 22.5086316716141  23.0176619684601 22.0808520797774  23.0176619684601 21.5535543042672  L 23.0176619684601 17.307693187384  L 25.361537729128 17.307693187384  L 25.361537729128 22.6579089350649  C 25.361537729128 23.8417295751391  24.4614181391466 24.8413673246753  23.2761121465677 24.8413673246753  L 17.5181689573284 24.8302272411874  L 17.5181689573284 22.5086316716141  L 22.0640699294991 22.5086316716141  Z " fill-rule="nonzero" fill="#ffffff" stroke="none" transform="matrix(1 0 0 1 59 134 )" />
  </g>
</svg>