<?xml version="1.0" encoding="utf-8"?>
<svg version="1.1" xmlns:xlink="http://www.w3.org/1999/xlink" width="23px" height="23px" xmlns="http://www.w3.org/2000/svg">
  <g transform="matrix(1 0 0 1 -344 -134 )">
    <path d="M 22.4130859375 11.548828125  C 22.4130859375 5.508203125  17.5162109375 0.611328125  11.4755859375 0.611328125  C 5.4349609375 0.611328125  0.5380859375 5.508203125  0.5380859375 11.548828125  C 0.5380859375 17.589453125  5.4349609375 22.486328125  11.4755859375 22.486328125  C 17.5162109375 22.486328125  22.4130859375 17.589453125  22.4130859375 11.548828125  Z M 2.2958984375 11.548828125  C 2.2958984375 6.47900390625  6.40576171875 2.369140625  11.4755859375 2.369140625  C 16.54541015625 2.369140625  20.6552734375 6.47900390625  20.6552734375 11.548828125  C 20.6552734375 16.61865234375  16.54541015625 20.728515625  11.4755859375 20.728515625  C 6.40576171875 20.728515625  2.2958984375 16.61865234375  2.2958984375 11.548828125  Z " fill-rule="nonzero" fill="#ffffff" stroke="none" transform="matrix(1 0 0 1 344 134 )" />
  </g>
</svg>