<?xml version="1.0" encoding="utf-8"?>
<svg version="1.1" xmlns:xlink="http://www.w3.org/1999/xlink" width="25px" height="18px" xmlns="http://www.w3.org/2000/svg">
  <g transform="matrix(1 0 0 1 -516 -134 )">
    <path d="M 21.3178880291464 4.28228407356003  C 24.8185092394273 7.80882556915732  25.9091017411177 13.0685185316281  24.0992474843858 17.6961822345593  L 21.8812013358779 16.8160051873699  C 22.3442931800365 15.6322888093127  22.5830713938998 14.3727337376553  22.5853429736294 13.1016580673144  C 22.5861329433568 13.0501256555029  22.5865279456219 12.998587945956  22.5865279456219 12.947049479552  C 22.5865279456219 7.37624768281155  18.0705008041249 2.86022054131463  12.4996990073845 2.86022054131463  C 9.78199160710671 2.86022054131463  7.17927031816497 3.95688317932612  5.28106226578765 5.9018098369188  C 2.40866524279276 8.76122600408733  1.54655523876697 13.0717760242163  3.09822319569743 16.8160051873699  L 0.880177047189452 17.6961822345593  C 0.300254639945208 16.2326609883522  0.00243868939401218 14.6726398984726  0.00243868939401218 13.0984085188706  C 0.00243868939401218 6.20539198782555  5.59033265453215 0.617498022687414  12.4833491855772 0.617498022687414  C 15.7980047371654 0.617498022687414  18.9765191165917 1.93602470149631  21.3178880291464 4.28228407356003  Z " fill-rule="nonzero" fill="#ffffff" stroke="none" transform="matrix(1 0 0 1 516 134 )" />
  </g>
</svg>