<?xml version="1.0" encoding="utf-8"?>
<svg version="1.1" xmlns:xlink="http://www.w3.org/1999/xlink" width="25px" height="25px" xmlns="http://www.w3.org/2000/svg">
  <g transform="matrix(1 0 0 1 -199 -301 )">
    <path d="M 24.3567425271739 1.17134425951087  C 24.3673573369565 1.13684612771739  24.3753184442935 1.10500169836957  24.3806258491848 1.07050356657609  C 24.3859332540761 1.04131283967391  24.3885869565217 1.01212211277174  24.3885869565217 0.982931385869565  C 24.3885869565217 0.951086956521739  24.3832795516304 0.921896229619565  24.3753184442935 0.890051800271739  C 24.3673573369565 0.858207370923913  24.3593962296196 0.826362941576087  24.3461277173913 0.797172214673913  C 24.3408203125 0.783903702445652  24.3408203125 0.770635190217391  24.3355129076087 0.760020380434782  C 24.3275518002717 0.74409816576087  24.3116295855978 0.733483355978261  24.3010147758152 0.72021484375  C 24.2824388586957 0.693677819293478  24.2612092391304 0.667140794836956  24.2373259171196 0.645911175271739  C 24.210788892663 0.622027853260869  24.1842518682065 0.603451936141304  24.1550611413043 0.584876019021739  C 24.1417926290761 0.576914911684783  24.1311778192935 0.56099269701087  24.1152556046196 0.555685292119565  C 24.104640794837 0.550377887228261  24.0913722826087 0.550377887228261  24.0781037703804 0.545070482336957  C 24.0462593410326 0.531801970108696  24.0144149116848 0.523840862771739  23.9799167798913 0.518533457880435  C 23.9480723505435 0.51322605298913  23.9188816236413 0.507918648097826  23.8896908967391 0.510572350543478  C 23.860500169837 0.510572350543478  23.8313094429348 0.515879755434783  23.8021187160326 0.523840862771739  C 23.7676205842391 0.531801970108696  23.7357761548913 0.539763077445652  23.7039317255435 0.555685292119565  C 23.6906632133152 0.56099269701087  23.6800484035326 0.56099269701087  23.6667798913043 0.566300101902174  L 0.969662873641304 12.9405146059783  C 0.924549932065217 12.9643979279891  0.890051800271739 13.0015497622283  0.855553668478261 13.0360478940217  C 0.783903702445652 13.0785071331522  0.717561141304348 13.1342348845109  0.672448199728261 13.2164996603261  C 0.542416779891304 13.4553328804348  0.629988960597826 13.7552012567935  0.868822180706522 13.8852326766304  L 6.95641559103261 17.19970703125  C 7.01745074728261 17.2342051630435  7.08379330842391 17.2421662703804  7.15013586956522 17.2474736752717  L 12.3275093410326 24.2930536684783  C 12.4230426290761 24.4230850883152  12.5743036684783 24.4947350543478  12.7255647078804 24.4947350543478  C 12.8264054008152 24.4947350543478  12.9298997961957 24.462890625  13.0174719769022 24.3992017663043  C 13.0944293478261 24.3434740149457  13.1395422894022 24.2665166440217  13.1740404211957 24.1869055706522  C 13.2138459578804 24.1471000339674  13.2616126019022 24.1152556046196  13.2881496263587 24.0621815557065  L 24.3461277173913 1.20849609375  C 24.3514351222826 1.19522758152174  24.3514351222826 1.18461277173913  24.3567425271739 1.17134425951087  Z M 7.42612092391304 16.3346000339674  L 2.11075492527174 13.4394106657609  L 20.7848590353261 3.25184697690217  L 7.82682999320652 16.5336277173913  C 7.7339504076087 16.4434018342391  7.6171875 16.3929814877717  7.4951171875 16.3903277853261  C 7.47123386548913 16.3717518682065  7.45531165081522 16.3478685461957  7.42612092391304 16.3346000339674  Z M 22.3558508831522 3.05547299592391  L 12.6618758491848 23.0856190557065  L 8.42922044836956 17.3270847486413  L 22.3558508831522 3.05547299592391  Z " fill-rule="nonzero" fill="#ffffff" stroke="none" transform="matrix(1 0 0 1 199 301 )" />
  </g>
</svg>