<?xml version="1.0" encoding="utf-8"?>
<svg version="1.1" xmlns:xlink="http://www.w3.org/1999/xlink" width="23px" height="23px" xmlns="http://www.w3.org/2000/svg">
  <g transform="matrix(1 0 0 1 -60 -301 )">
    <path d="M 18.7916666748047 2.125  L 18.7916666748047 11.5864583251953  C 18.453125 11.5291666503906  18.1046875 11.5  17.75 11.5  C 14.2984375 11.5  11.5 14.2984375  11.5 17.75  C 11.5 19.3958333251953  12.1359375 20.8932291748047  13.1760416748047 22.009375  L 12.425 22.6697916748047  C 12.2351537481966 22.836959659409  11.9526432569076 22.8435501062485  11.7552083251953 22.6854166748047  L 9.84635417480469 21.1557291748047  C 9.6447813234742 20.9942581160503  9.35532161185502 21.0048967575704  9.16614582519531 21.1807291748047  L 7.58177082519531 22.6526041748047  C 7.39259504228447 22.8284365781091  7.10313534699462 22.8390752194109  6.9015625 22.6776041748047  L 4.984375 21.1416666748047  C 4.79051705059592 20.9865160606823  4.51409178276886 20.98978607564  4.32395832519531 21.1494791748047  L 2.16875 22.9583333251953  L 2.125 22.9583333251953  C 0.974406775680351 22.9583333251953  0.0416666748046877 22.0255932243196  0 20.875  L 0 2.125  C 0.0416666748046877 0.974406775680352  0.974406775680352 0.0416666748046877  2.125 0  L 16.7083333251953 0  C 16.7083333251953 0.0416666748046877  16.7083333496094 0.0416666748046874  16.7083333496094 0.0416666748046874  C 17.858926573929 0.0416666748046874  18.7916666748047 0.974406775680352  18.7916666748047 2.125  Z M 9.67708332519531 12.5416666748047  L 4.98958332519531 12.5416666748047  C 4.55811086439001 12.5416666748047  4.20833332519531 12.8914442139994  4.20833332519531 13.3229166748047  C 4.20833332519531 13.75438913561  4.55811086439001 14.1041666748047  4.98958332519531 14.1041666748047  L 9.67708332519531 14.1041666748047  C 10.1085557860006 14.1041666748047  10.4583333251953 13.75438913561  10.4583333251953 13.3229166748047  C 10.4583333251953 12.8914442139994  10.1085557860006 12.5416666748047  9.67708332519531 12.5416666748047  Z M 13.84375 7.85416667480469  L 4.98958332519531 7.85416667480469  C 4.55811086439001 7.85416667480469  4.20833332519531 8.20394421399938  4.20833332519531 8.63541667480469  C 4.20833332519531 9.06688913560999  4.55811086439001 9.41666667480469  4.98958332519531 9.41666667480469  L 13.84375 9.41666667480469  C 14.2752224608053 9.41666667480469  14.625 9.06688913560999  14.625 8.63541667480469  C 14.625 8.20394421399938  14.2752224608053 7.85416667480469  13.84375 7.85416667480469  Z M 13.84375 3.16666667480469  L 4.98958332519531 3.16666667480469  C 4.55811086439001 3.16666667480469  4.20833332519531 3.51644421399938  4.20833332519531 3.94791667480469  C 4.20833332519531 4.37938913560999  4.55811086439001 4.72916667480469  4.98958332519531 4.72916667480469  L 13.84375 4.72916667480469  C 14.2752224608053 4.72916667480469  14.625 4.37938913560999  14.625 3.94791667480469  C 14.625 3.51644421399938  14.2752224608053 3.16666667480469  13.84375 3.16666667480469  Z M 22.9583333251953 17.75  C 22.9583333251953 20.6265625  20.6265625 22.9583333251953  17.75 22.9583333251953  C 14.8734375 22.9583333251953  12.5416666748047 20.6265625  12.5416666748047 17.75  C 12.5416666748047 14.8734375  14.8734375 12.5416666748047  17.75 12.5416666748047  C 20.6265625 12.5416666748047  22.9583333251953 14.8734375  22.9583333251953 17.75  Z M 20.31875 18.428125  L 20.3192708251953 18.4286458251953  L 18.2494791748047 18.4286458251953  L 18.2494791748047 17.509375  L 20.3192708251953 17.509375  C 20.5119791503906 17.5234375  20.6958333251953 17.4401041748047  20.7984375 17.2927083251953  C 20.9007352152449 17.148983075133  20.9007352152449 16.9562252500623  20.7984375 16.8125  C 20.6989583251953 16.6651041748047  20.5119791748047 16.5817708251953  20.3192708251953 16.5958333251953  L 18.98125 16.5958333251953  L 20.3161458251953 15.4098958251953  C 20.4123712158789 15.3294273437471  20.4685205987197 15.2108474791726  20.4697916748047 15.0854166748047  C 20.4673720241436 14.9601048247087  20.4114504742387 14.8418165418471  20.3161458251953 14.7604166748047  C 20.1056006586223 14.5826322079866  19.7975243413777 14.5826322079866  19.5869791748047 14.7604166748047  L 17.6859375 16.4427083251953  L 15.7880208251953 14.7604166748047  C 15.5773449989765 14.5797726223525  15.2664050010235 14.5797726223525  15.0557291748047 14.7604166748047  C 14.9593660195269 14.8410028513546  14.9032023725864 14.9598032309423  14.9020833251953 15.0854166748047  C 14.9020833251953 15.2072916748047  14.959375 15.3239583496094  15.0557291748047 15.4098958251953  L 16.3963541748047 16.5958333251953  L 15.1432291748047 16.5958333251953  C 14.8692708496094 16.6098958251953  14.6552083496094 16.809375  14.6552083251953 17.0541666748047  C 14.6552083251953 17.2984375  14.86875 17.4984375  15.1432291748047 17.5125  L 17.2130208251953 17.5125  L 17.2130208251953 18.4286458251953  L 15.1401041748047 18.4286458251953  C 14.8567708496094 18.4286458251953  14.625 18.6338541503906  14.625 18.8869791748047  C 14.625 19.1395833496094  14.8541666748047 19.3453125  15.140625 19.3453125  L 17.2130208251953 19.3453125  L 17.2130208251953 20.4140625  C 17.2130208251953 20.6692708251953  17.4447916503906 20.875  17.73125 20.875  C 18.0177083496094 20.875  18.2494791748047 20.6692708251953  18.2494791748047 20.4140625  L 18.2494791748047 19.3447916748047  L 20.3192708251953 19.3447916748047  C 20.6026041503906 19.3447916748047  20.834375 19.1395833496094  20.834375 18.8864583251953  C 20.834375 18.6338541503906  20.6052083251953 18.428125  20.31875 18.428125  Z " fill-rule="nonzero" fill="#ffffff" stroke="none" transform="matrix(1 0 0 1 60 301 )" />
  </g>
</svg>