<?xml version="1.0" encoding="utf-8"?>
<svg version="1.1" xmlns:xlink="http://www.w3.org/1999/xlink" width="20px" height="18px" xmlns="http://www.w3.org/2000/svg">
  <g transform="matrix(1 0 0 1 -1357 -23 )">
    <path d="M 16.318671875 12.86400390625  L 19.33333984375 8.45201171875  L 17.20134765625 8.45201171875  C 16.91734375 4.1346875  13.33201171875 0.714687499999999  8.94267578125 0.714687499999999  C 4.3666796875 0.714687499999999  0.666679687499999 4.4240234375  0.666679687499999 9.00134765625  C 0.666679687499999 13.5746875  4.376015625 17.2853515625  8.95201171875 17.2853515625  C 11.00400390625 17.2853515625  12.87734375 16.5346875  14.3253515625 15.29734375  L 13.21734375 13.87068359375  C 12.07734375 14.8680078125  10.5866796875 15.48001953125  8.95201171875 15.48001953125  C 5.37201171875 15.48001953125  2.47068359375 12.57734375  2.47068359375 9.00134765625  C 2.47068359375 5.42001953125  5.373359375 2.518671875  8.95201171875 2.518671875  C 12.3453515625 2.518671875  15.11734375 5.1306640625  15.396015625 8.45201171875  L 13.3040234375 8.45201171875  L 16.31869140625 12.86400390625  Z " fill-rule="nonzero" fill="#777777" stroke="none" transform="matrix(1 0 0 1 1357 23 )" />
  </g>
</svg>