<?xml version="1.0" encoding="utf-8"?>
<svg version="1.1" xmlns:xlink="http://www.w3.org/1999/xlink" width="25px" height="21px" xmlns="http://www.w3.org/2000/svg">
  <g transform="matrix(1 0 0 1 -341 -302 )">
    <path d="M 3.3125 0.5  L 21.6875 0.5  C 23.5 0.5  25 2  25 3.8125  L 25 17.125  C 25 18.9375  23.5 20.4375  21.6875 20.4375  L 3.3125 20.4375  C 1.5 20.5  0 19  0 17.1875  L 0 3.8125  C 0 2  1.5 0.5  3.3125 0.5  Z M 21.375 18.5625  C 22.25 18.5  23 17.8125  23 16.875  L 23 4.0625  C 23 3.1875  22.25 2.4375  21.375 2.4375  L 3.6875 2.4375  C 2.8125 2.4375  2.0625 3.1875  2 4.0625  L 2 16.9375  C 2.0625 17.8125  2.8125 18.5625  3.6875 18.5625  L 21.375 18.5625  Z M 15.8125 9.6875  L 20.8125 9.6875  C 21.25 9.6875  21.625 10.0625  21.625 10.5  C 21.625 10.9375  21.25 11.3125  20.8125 11.3125  L 15.8125 11.3125  C 15.375 11.3125  15 10.9375  15 10.5  C 15 10.0625  15.375 9.6875  15.8125 9.6875  Z M 15.8125 13  L 20.8125 13  C 21.25 13  21.625 13.375  21.625 13.8125  C 21.625 14.25  21.25 14.625  20.8125 14.625  L 15.8125 14.625  C 15.375 14.625  15 14.25  15 13.8125  C 15 13.375  15.375 13  15.8125 13  Z M 20.8125 6.37500000000001  L 20.8125 6.3125  C 21.25 6.3125  21.625 6.6875  21.625 7.125  C 21.625 7.5625  21.3125 8  20.8125 8  L 15.8125 8  C 15.375 8  15 7.625  15 7.1875  C 15 6.75000000000001  15.375 6.37500000000001  15.8125 6.37500000000001  L 20.8125 6.37500000000001  Z M 7.75 4.875  C 8.0625 4.5625  8.625 4.5625  8.9375 4.9375  L 13.125 9.125  C 13.4375 9.4375  13.4375 10  13.125 10.3125  C 12.8125 10.625  12.3125 10.625  11.9375 10.3125  L 9.1875 7.5625  L 9.1875 15.5  C 9.1875 15.9375  8.8125 16.3125  8.375 16.3125  C 7.9375 16.3125  7.5 15.9375  7.5 15.5  L 7.5 7.5  L 4.75 10.25  C 4.4375 10.5625  3.875 10.5625  3.5625 10.25  C 3.25 9.9375  3.25 9.375  3.5625 9.0625  L 7.75 4.875  Z " fill-rule="nonzero" fill="#ffffff" stroke="none" transform="matrix(1 0 0 1 341 302 )" />
  </g>
</svg>