<?xml version="1.0" encoding="utf-8"?>
<svg version="1.1" xmlns:xlink="http://www.w3.org/1999/xlink" width="50px" height="50px" xmlns="http://www.w3.org/2000/svg">
  <g transform="matrix(1 0 0 1 -138 -197 )">
    <path d="M 50 25  C 50 11.1818181640625  38.8181818359375 0  25 0  C 11.1818181640625 0  0 11.1818181640625  0 25  C 0 38.8181818359375  11.1818181640625 50  25 50  C 38.8181818359375 50  50 38.8181818359375  50 25  Z M 21.7272727050781 30.7272727050781  C 21.363636328125 30.7272727050781  21.0454545410156 30.7727272460938  20.7272727050781 30.7727272949219  C 19.4090908691406 30.7727272949219  18.363636328125 30.5  17.0454545410156 30.2272727050781  L 13.3636363769531 32.0454545410156  L 14.4090909179688 28.9090909179688  C 11.7727272949219 27.0909090820313  10.2272727539063 24.7272727539063  10.2272727050781 21.8181818359375  C 10.2272727050781 16.8181818359375  14.9545454101563 12.9090909179688  20.7272727050781 12.9090909179688  C 25.863636328125 12.9090909179688  30.4090908691406 16.0454545410156  31.3181818359375 20.2727272949219  C 31 20.2272727539063  30.636363671875 20.2272727539063  30.3181818359375 20.2272727050781  C 25.3181818359375 20.2272727050781  21.4090909179688 23.9545454101563  21.4090909179688 28.5454545410156  C 21.4090909179688 29.3181818359375  21.5454545410156 30.0454545410156  21.7272727050781 30.7272727050781  Z M 39.7727272949219 28.4545454589844  C 39.7727272949219 30.7727272949219  38.2272727539063 32.8636363769531  36.0909090820313 34.4545454589844  L 36.8636363769531 37.0909090820313  L 34 35.5  C 32.9545454589844 35.7727272949219  31.9090909179688 36.0454545410156  30.8636363769531 36.0454545410156  C 25.8636363769531 36.0454545410156  21.9545454589844 32.6363636230469  21.9545454589844 28.4545454589844  C 21.9545454589844 24.2727272949219  25.8636363769531 20.8636363769531  30.8636363769531 20.8636363769531  C 35.5909090820313 20.8636363769531  39.7727272949219 24.2727272949219  39.7727272949219 28.4545454589844  Z " fill-rule="nonzero" fill="#50b674" stroke="none" transform="matrix(1 0 0 1 138 197 )" />
  </g>
</svg>