<?xml version="1.0" encoding="utf-8"?>
<svg version="1.1" xmlns:xlink="http://www.w3.org/1999/xlink" width="17px" height="33px" xmlns="http://www.w3.org/2000/svg">
  <g transform="matrix(1 0 0 1 -249 -205 )">
    <path d="M 10.6308871796875 1.45924048681641  C 3.88209214257812 1.45892738964844  4.04134143554687 6.53558551464844  4.04134143554687 7.29390632373047  L 4.04134143554687 11.4415014624023  L 0.910656680664062 11.4415014624023  L 0.910656680664062 16.5134631782227  L 4 16.5134631782227  L 4 31.5840712880859  L 10.4723905351562 31.5840712880859  L 10.4723905351562 16.5134631782227  L 14.7879290048828 16.5134631782227  C 14.7879290048828 16.5134631782227  15.1922351904297 14.0810130688477  15.3878290556641 11.4224025834961  L 10.4969069921875 11.4224025834961  L 10.4969069921875 7.95422776757812  C 10.4969069921875 7.43636543847656  11.1977760859375 6.73930726025391  11.8910106191406 6.73930726025391  L 15.395033453125 6.73930726025391  L 15.395033453125 1.45924048681641  L 10.6308871796875 1.45924048681641  Z " fill-rule="nonzero" fill="#ffffff" stroke="none" transform="matrix(1 0 0 1 249 205 )" />
  </g>
</svg>