<?xml version="1.0" encoding="utf-8"?>
<svg version="1.1" xmlns:xlink="http://www.w3.org/1999/xlink" width="28px" height="20px" xmlns="http://www.w3.org/2000/svg">
  <g transform="matrix(1 0 0 1 -431 -211 )">
    <path d="M 25.2566731302083 5.28507807617188  C 26.3054916614583 4.60950375976563  27.2152217786458 3.7657482421875  27.9345731692708 2.80425590820313  C 26.9723769583333 3.18536323242188  25.9377807864583 3.44333432617187  24.8517824661458 3.55907138671875  C 25.9602343255208 2.96593784179687  26.8115629505208 2.02649301757813  27.2118621614583 0.907118408203124  C 26.1746903177083 1.4567568359375  25.0263709427083 1.85546220703125  23.8036358802083 2.07028813476562  C 22.8250894739583 1.13854248046875  21.4298937161458 0.556807666015624  19.8860346380208 0.556807617187497  C 16.9220065911458 0.556807617187497  14.5192037083333 2.70246728515625  14.5192037083333 5.34962084960937  C 14.5192037083333 5.72532875976563  14.5662944583333 6.09133779296875  14.6582921223958 6.44204848632813  C 10.1974397473958 6.24222084960937  6.24321860677083 4.33393461914063  3.59589112239583 1.434309375  C 3.13416685677083 2.142230078125  2.86937249739583 2.965387890625  2.86937249739583 3.84388950195313  C 2.86937249739583 5.50645327148438  3.81689834895833 6.97358896484375  5.25683307552083 7.83299272460937  C 4.37711562239583 7.8080955078125  3.54941631770833 7.59256962890625  2.82614536458333 7.23355986328125  C 2.82558541927083 7.2535576171875  2.82558541927083 7.27360537109375  2.82558541927083 7.29410307617188  C 2.82558541927083 9.61624301757813  4.67522626302083 11.5533760253906  7.13055123958333 11.9937267089844  C 6.68024966145833 12.103214453125  6.20603876302083 12.1621078613281  5.71682155989583 12.1621078613281  C 5.37055633333333 12.1621078613281  5.03459395833333 12.1320112304687  4.70697470833333 12.0757675292969  C 5.38965025520833 13.9801542480469  7.37166027864583 15.3657990234375  9.72031717708333 15.4043947265625  C 7.88377885677083 16.6902507324219  5.56967007552083 17.4563648925781  3.05476771614583 17.4563648925781  C 2.62143222395833 17.4563648925781  2.19420007552083 17.4338674316406  1.77463910677083 17.3894223632813  C 4.14994905208333 18.7490200683594  6.97074512239583 19.5429811523438  10.0020216223958 19.5429812011719  C 19.8733800052083 19.5429812011719  25.2719033802083 12.23944921875  25.2719034348958 5.90555859375  C 25.2719034348958 5.69743188476563  25.2669759817708 5.49080502929688  25.2566731302083 5.28507807617188  Z " fill-rule="nonzero" fill="#ffffff" stroke="none" transform="matrix(1 0 0 1 431 211 )" />
  </g>
</svg>