<?xml version="1.0" encoding="utf-8"?>
<svg version="1.1" xmlns:xlink="http://www.w3.org/1999/xlink" width="50px" height="50px" xmlns="http://www.w3.org/2000/svg">
  <g transform="matrix(1 0 0 1 -327 -197 )">
    <path d="M 50 25  C 50 38.8075  38.8075 50  25 50  C 11.1925 50  0 38.8075  0 25  C 0 11.1925  11.1925 0  25 0  C 38.8075 0  50 11.1925  50 25  Z M 14 36.0166666503906  L 19 36.0166666503906  L 19 19.4033333496094  L 14 19.4033333496094  L 14 36.0166666503906  Z M 18.4383333496094 14.7825  C 18.405 13.2875  17.385 12.1666666503906  15.7733333496094 12.1666666503906  C 14.1608333496094 12.1666666503906  13.1083333496094 13.2875  13.1408333496094 14.7833333496094  C 13.1075 16.21  14.1608333496094 17.365  15.7408333496094 17.365  C 17.385 17.365  18.4383333496094 16.21  18.4383333496094 14.7825  Z M 23 24.7033333496094  L 23 36.0166666503906  L 27.2875 36.0166666503906  L 27.2875 26.4358333496094  C 27.2875 25.9608333496094  27.3541666503906 25.4508333496094  27.4858333496094 25.1441666503906  C 27.8141666992188 24.1941666503906  28.6366666992188 23.2083333007812  30.0191666503906 23.2083333496094  C 31.8275 23.2083333496094  32.5525 24.6691666992187  32.5525 26.81  L 32.5525 36.0166666503906  L 37.5525 36.0166666503906  L 37.5525 26.1641666503906  C 37.5525 21.2725  35.0858333496094 19.0291666503906  31.795 19.0291666503906  C 29.1308333496094 19.0291666503906  27.4858333496094 20.6266666503906  26.8275 21.6791666503906  L 26.7283333496094 21.6791666503906  L 26.4983333496094 19.4033333496094  L 22.1558333496094 19.4033333496094  C 22.2216666992187 20.8641666992188  22.2875 22.6308333496094  23 24.7033333496094  Z " fill-rule="nonzero" fill="#0073b1" stroke="none" transform="matrix(1 0 0 1 327 197 )" />
  </g>
</svg>