<?xml version="1.0" encoding="utf-8"?>
<svg version="1.1" xmlns:xlink="http://www.w3.org/1999/xlink" width="20px" height="20px" xmlns="http://www.w3.org/2000/svg">
  <g transform="matrix(1 0 0 1 -125 -260 )">
    <path d="M 135 260  C 140.6 260  145 264.4  145 270  C 145 275.6  140.6 280  135 280  C 129.4 280  125 275.6  125 270  C 125 264.4  129.4 260  135 260  Z " fill-rule="nonzero" fill="#ffffff" stroke="none" />
    <path d="M 135 260.5  C 140.32 260.5  144.5 264.68  144.5 270  C 144.5 275.32  140.32 279.5  135 279.5  C 129.68 279.5  125.5 275.32  125.5 270  C 125.5 264.68  129.68 260.5  135 260.5  Z " stroke-width="1" stroke="#d7d7d7" fill="none" />
  </g>
</svg>