<?xml version="1.0" encoding="utf-8"?>
<svg version="1.1" xmlns:xlink="http://www.w3.org/1999/xlink" width="14px" height="14px" xmlns="http://www.w3.org/2000/svg">
  <g transform="matrix(1 0 0 1 -519 -84 )">
    <path d="M 13.88760625 13.30397578125  C 14.01937578125 13.1721939453125  14.01937578125 12.9587076171875  13.8875939453125 12.827387890625  L 9.8918818359375 8.8053560546875  C 11.516512109375 6.6595333984375  11.3509197265625 3.58992265625  9.3943212890625 1.633337890625  C 7.255891015625 -0.5050923828125  3.788791015625 -0.5050923828125  1.6503607421875 1.633337890625  C -0.48806953125 3.77127734375  -0.48806953125 7.2383923828125  1.6503607421875 9.3768212890625  C 3.6062591796875 11.3327197265625  6.6734623046875 11.49927734375  8.819116796875 9.8772939453125  L 12.8157107421875 13.8997455078125  C 12.94703046875 14.0310515625  13.160544140625 14.0310515625  13.2918365234375 13.8997455078125  L 13.88760625 13.30397578125  Z M 8.35112578125 8.39197734375  C 6.7807181640625 9.96237265625  4.2352515625 9.96237265625  2.6648576171875 8.39197734375  C 1.09447734375 6.8216107421875  1.09447734375 4.275613671875  2.6648576171875 2.7057228515625  C 4.2352515625 1.135342578125  6.7807181640625 1.135342578125  8.35112578125 2.7057228515625  C 9.9215197265625 4.2756123046875  9.9215197265625 6.8216107421875  8.35112578125 8.39197734375  Z " fill-rule="nonzero" fill="#666666" stroke="none" transform="matrix(1 0 0 1 519 84 )" />
  </g>
</svg>