<?xml version="1.0" encoding="utf-8"?>
<svg version="1.1" xmlns:xlink="http://www.w3.org/1999/xlink" width="11px" height="13px" xmlns="http://www.w3.org/2000/svg">
  <g transform="matrix(1 0 0 1 -438 -12 )">
    <path d="M 10.7577039930556 1.10795454545455  C 10.7577039930556 0.611106178977273  10.3405490451389 0.207741477272727  9.82671440972222 0.207741477272727  L 1.49972873263889 0.207741477272727  C 0.985894097222223 0.207741477272727  0.568739149305556 0.611106178977273  0.568739149305556 1.10795454545455  L 0.568739149305556 11.6231356534091  C 0.568739149305556 12.1199840198864  0.985894097222223 12.5233487215909  1.49972873263889 12.5233487215909  L 9.82671440972222 12.5233487215909  C 10.3405490451389 12.5233487215909  10.7577039930556 12.1199840198864  10.7577039930556 11.6231356534091  L 10.7577039930556 1.10795454545455  Z M 9.06043836805556 10.3247514204545  L 9.05864800347222 10.3247514204545  C 9.05864800347222 10.4372780539773  8.96375868055556 10.53076171875  8.84559461805556 10.53076171875  L 2.47905815972222 10.53076171875  C 2.36268446180556 10.53076171875  2.26600477430556 10.4390092329545  2.26600477430556 10.3247514204545  L 2.26600477430556 9.09215198863636  C 2.26600477430556 8.97962535511364  2.36089409722222 8.88614169034091  2.47905815972222 8.88614169034091  L 8.84738498263889 8.88614169034091  C 8.96375868055556 8.88614169034091  9.06043836805556 8.97789417613636  9.06043836805556 9.09215198863636  L 9.06043836805556 10.3247514204545  Z M 9.06043836805556 6.98184481534091  L 9.05864800347222 6.98184481534091  C 9.05864800347222 7.09437144886364  8.96375868055556 7.18785511363636  8.84559461805556 7.18785511363636  L 2.47905815972222 7.18785511363636  C 2.36268446180556 7.18785511363636  2.26600477430556 7.09610262784091  2.26600477430556 6.98184481534091  L 2.26600477430556 5.7509765625  C 2.26600477430556 5.63844992897727  2.36089409722222 5.54496626420455  2.47905815972222 5.54496626420455  L 8.84738498263889 5.54496626420455  C 8.96375868055556 5.54496626420455  9.06043836805556 5.63671875  9.06043836805556 5.7509765625  L 9.06043836805556 6.98184481534091  Z M 9.06043836805556 3.63893821022727  L 9.05864800347222 3.63893821022727  C 9.05864800347222 3.75146484375  8.96375868055556 3.84494850852273  8.84559461805556 3.84494850852273  L 2.47905815972222 3.84494850852273  C 2.36268446180556 3.84494850852273  2.26600477430556 3.75319602272727  2.26600477430556 3.63893821022727  L 2.26600477430556 2.40806995738636  C 2.26600477430556 2.29554332386364  2.36089409722222 2.20205965909091  2.47905815972222 2.20205965909091  L 8.84738498263889 2.20205965909091  C 8.96375868055556 2.20205965909091  9.06043836805556 2.29381214488636  9.06043836805556 2.40806995738636  L 9.06043836805556 3.63893821022727  Z " fill-rule="nonzero" fill="#ffffff" stroke="none" transform="matrix(1 0 0 1 438 12 )" />
  </g>
</svg>