<?xml version="1.0" encoding="utf-8"?>
<svg version="1.1" xmlns:xlink="http://www.w3.org/1999/xlink" width="16px" height="11px" xmlns="http://www.w3.org/2000/svg">
  <g transform="matrix(1 0 0 1 -229 -14 )">
    <path d="M 15.753125 1.25373263888889  C 15.7515625 0.675564236111111  15.3203125 0.207682291666667  14.7875 0.207682291666667  C 14.2546875 0.207682291666667  13.8234375 0.675564236111111  13.8234375 1.25373263888889  L 13.8234375 7.53337673611111  C 13.8234375 8.10987413194445  13.3921875 8.57942708333334  12.859375 8.57942708333334  L 3.221875 8.57942708333334  C 2.690625 8.57942708333334  2.2578125 8.10987413194445  2.2578125 7.53337673611111  L 2.2578125 1.25373263888889  C 2.2578125 0.675564236111111  1.8265625 0.207682291666667  1.29375 0.207682291666667  C 0.7609375 0.207682291666667  0.3296875 0.675564236111111  0.3296875 1.25373263888889  L 0.3296875 7.53337673611111  C 0.3296875 9.26453993055556  1.6265625 10.6731987847222  3.221875 10.6731987847222  L 12.8609375 10.6731987847222  C 14.4546875 10.6731987847222  15.753125 9.26453993055556  15.753125 7.53337673611111  L 15.753125 1.25373263888889  Z " fill-rule="nonzero" fill="#ffffff" stroke="none" transform="matrix(1 0 0 1 229 14 )" />
  </g>
</svg>