<?xml version="1.0" encoding="utf-8"?>
<svg version="1.1" xmlns:xlink="http://www.w3.org/1999/xlink" width="15px" height="15px" xmlns="http://www.w3.org/2000/svg">
  <g transform="matrix(1 0 0 1 -325 -11 )">
    <path d="M 6.0059375 8.265625  L 4.65625 11.109375  L 10.34375 11.109375  L 8.9940625 8.265625  L 6.0059375 8.265625  Z M 6.40625 4.77284375  L 6.40625 0.94603125  L 8.59375 0.94603125  L 8.59375 4.77284375  L 6.40625 4.77284375  Z M 14.0625 9.912265625  C 14.05615625 9.912265625  14.051671875 9.915328125  14.044125 9.91696875  L 14.044125 3.303171875  C 14.044125 2.0010625  12.9884375 0.946031249999999  11.687859375 0.946031249999999  L 9.974609375 0.946031249999999  L 9.974609375 2.589828125  L 10.63403125 2.589828125  C 11.61009375 2.589828125  12.39934375 3.381265625  12.39934375 4.355140625  L 12.39934375 9.691765625  L 12.39934375 10.644203125  C 12.39934375 10.663453125  12.393984375 10.684234375  12.393984375 10.7038125  C 12.36215625 11.6505625  11.587890625 12.40940625  10.63403125 12.40940625  L 4.3460625 12.40940625  C 3.37153125 12.40940625  2.58228125 11.618734375  2.58228125 10.644203125  L 2.58228125 4.355140625  C 2.58228125 3.411125  3.3258125 2.64528125  4.259109375 2.59825  C 4.28809375 2.596828125  4.3171875 2.589828125  4.3460625 2.589828125  L 5.025390625 2.589828125  L 5.025390625 0.94603125  L 3.91359375 0.94603125  L 3.293765625 0.94603125  C 1.991765625 0.94603125  0.9375 2.0010625  0.9375 3.303171875  L 0.9375 11.69803125  C 0.9375 12.9985  1.991765625 14.05396875  3.293765625 14.05396875  L 11.687859375 14.05396875  C 12.989859375 14.05396875  14.044125 12.9985  14.044125 11.69803125  L 14.044125 11.04615625  L 14.0625 11.04615625  L 14.0625 9.912265625  Z M 9.6875 4.728875  L 5.3125 4.728875  L 7.5 7.062171875  L 9.6875 4.728875  Z " fill-rule="nonzero" fill="#ffffff" stroke="none" transform="matrix(1 0 0 1 325 11 )" />
  </g>
</svg>