<?xml version="1.0" encoding="utf-8"?>
<svg version="1.1" xmlns:xlink="http://www.w3.org/1999/xlink" width="16px" height="16px" xmlns="http://www.w3.org/2000/svg">
  <g transform="matrix(1 0 0 1 -122 -10 )">
    <path d="M 10.327 15.926  C 10.3929107872809 15.9637946476048  10.4741850502811 15.9626445401095  10.539 15.923  L 15.896 12.215  C 15.9519710124465 12.1770135409523  15.9853435402615 12.1136432353259  15.985 12.046  C 15.9850108523474 11.9787104292203  15.9516770690221 11.9157882314827  15.896 11.878  L 10.539 8.168  C 10.4782595262564 8.12607427620026  10.3983449292995 8.12449960433904  10.336 8.164  C 10.2724114302541 8.20476217534956  10.2372109666344 8.27787083055975  10.245 8.353  L 10.245 10.988  L 5.713 10.988  C 5.713 10.988  3.27 11.05  2.653 9.18  C 2.7845399982981 10.5478457156095  3.49038295989214 11.7956103330927  4.595 12.613  C 5.065 12.94  5.619 13.111  6.184 13.103  L 10.215 13.103  L 10.215 15.739  C 10.219 15.817  10.261 15.889  10.327 15.926  Z M 5.509 0.046  L 5.508 0.047  L 0.153 3.755  C 0.0970289875535104 3.79298645904775  0.0636564597384671 3.85635676467406  0.064 3.924  C 0.064 3.992  0.098 4.056  0.153 4.093  L 5.508 7.8  C 5.57 7.842  5.648 7.844  5.711 7.805  C 5.77497025366605 7.76449376778662  5.81058158815714 7.69133570019081  5.803 7.616  L 5.803 4.981  L 10.335 4.981  C 10.335 4.981  12.777 4.921  13.395 6.79  C 13.2634600017019 5.42215428439051  12.5576170401079 4.17438966690732  11.453 3.357  C 10.9874001746936 3.03117134205091  10.431238788786 2.85977569482153  9.863 2.867  L 5.806 2.867  L 5.806 0.23  C 5.81397697156626 0.154321693865719  5.7783157070429 0.0806734301761609  5.714 0.04  C 5.65078403196554 0.000201460024700174  5.56978007830198 0.00257230744899958  5.509 0.046  Z " fill-rule="nonzero" fill="#ffffff" stroke="none" transform="matrix(1 0 0 1 122 10 )" />
  </g>
</svg>