<?xml version="1.0" encoding="utf-8"?>
<svg version="1.1" xmlns:xlink="http://www.w3.org/1999/xlink" width="14px" height="14px" xmlns="http://www.w3.org/2000/svg">
  <g transform="matrix(1 0 0 1 -19 -10 )">
    <path d="M 10.9115234375 2.909375  L 10.9115234375 11.930078125  C 10.9115234375 12.3990234375  10.530078125 12.78046875  10.0625 12.78046875  L 3.9388671875 12.78046875  C 3.469921875 12.7791015625  3.08984375 12.3990234375  3.0884765625 11.930078125  L 3.0884765625 2.909375  L 10.9115234375 2.909375  Z M 4.787890625 1.8962890625  L 4.787890625 1.38359375  C 4.787890625 1.28515625  4.864453125 1.20859375  4.962890625 1.20859375  L 9.048046875 1.20859375  C 9.146484375 1.20859375  9.2216796875 1.28515625  9.2216796875 1.38359375  L 9.2216796875 1.8962890625  L 4.787890625 1.8962890625  Z M 13.9740234375 2.3966796875  C 13.9740234375 2.1123046875  13.7443359375 1.8962890625  13.4599609375 1.8962890625  L 10.2361328125 1.8962890625  L 10.2361328125 1.38359375  C 10.2361328125 0.730078125  9.7029296875 0.1955078125  9.048046875 0.1955078125  L 4.962890625 0.1955078125  C 4.3080078125 0.196875  3.776171875 0.72734375  3.7748046875 1.38359375  L 3.7748046875 1.8962890625  L 0.5400390625 1.8962890625  C 0.2556640625 1.8962890625  0.02734375 2.124609375  0.02734375 2.4076171875  C 0.02734375 2.690625  0.2556640625 2.9203125  0.5400390625 2.9203125  L 2.064453125 2.9203125  L 2.064453125 11.930078125  C 2.064453125 12.9650390625  2.90390625 13.8044921875  3.9388671875 13.8044921875  L 10.0611328125 13.8044921875  C 11.09609375 13.8044921875  11.935546875 12.9650390625  11.935546875 11.930078125  L 11.935546875 2.909375  L 13.461328125 2.909375  C 13.7443359375 2.909375  13.9740234375 2.6810546875  13.9740234375 2.3966796875  Z M 6.4873046875 10.7310546875  C 6.4873046875 11.0140625  6.7169921875 11.24375  7 11.24375  C 7.2830078125 11.24375  7.5126953125 11.0154296875  7.5126953125 10.7310546875  L 7.5126953125 5.2841796875  C 7.5126953125 5.001171875  7.284375 4.771484375  7 4.771484375  C 6.7169921875 4.771484375  6.4873046875 4.9998046875  6.4873046875 5.2841796875  L 6.4873046875 10.7310546875  Z M 4.1015625 10.7310546875  C 4.1125 11.0140625  4.3421875 11.24375  4.6142578125 11.24375  C 4.897265625 11.24375  5.126953125 11.0154296875  5.126953125 10.7310546875  L 5.126953125 5.2841796875  C 5.126953125 5.001171875  4.8986328125 4.771484375  4.6142578125 4.771484375  C 4.33125 4.771484375  4.1015625 4.9998046875  4.1015625 5.2841796875  L 4.1015625 10.7310546875  Z M 8.873046875 10.7310546875  C 8.8744140625 11.0140625  9.102734375 11.24375  9.3857421875 11.24375  C 9.66875 11.24375  9.8984375 11.0154296875  9.8984375 10.7310546875  L 9.8984375 5.2841796875  C 9.8984375 5.001171875  9.6701171875 4.771484375  9.3857421875 4.771484375  C 9.102734375 4.771484375  8.873046875 4.9998046875  8.873046875 5.2841796875  L 8.873046875 10.7310546875  Z " fill-rule="nonzero" fill="#ffffff" stroke="none" transform="matrix(1 0 0 1 19 10 )" />
  </g>
</svg>