<?xml version="1.0" encoding="utf-8"?>
<svg version="1.1" xmlns:xlink="http://www.w3.org/1999/xlink" width="10px" height="11px" xmlns="http://www.w3.org/2000/svg">
  <g transform="matrix(1 0 0 1 -232 -10 )">
    <path d="M 1.200927734375 4.72727864583333  C 0.995849609375 4.92947048611111  1.06591796875 5.09657118055556  1.354736328125 5.09657118055556  L 2.4091796875 5.09657118055556  C 2.69970703125 5.09657118055556  2.935546875 5.33218315972222  2.935546875 5.61959635416667  L 2.935546875 7.71336805555556  C 2.935546875 8.00245225694445  3.173095703125 8.23639322916667  3.4619140625 8.23639322916667  L 6.62353515625 8.23639322916667  C 6.9140625 8.23639322916667  7.151611328125 8.00078125  7.151611328125 7.71336805555556  L 7.151611328125 5.61959635416667  C 7.151611328125 5.33218315972222  7.38916015625 5.09657118055556  7.677978515625 5.09657118055556  L 8.732421875 5.09657118055556  C 9.02294921875 5.09657118055556  9.09130859375 4.92947048611111  8.88623046875 4.72727864583333  L 5.4169921875 1.27999131944444  C 5.2119140625 1.07612847222222  4.876953125 1.07612847222222  4.671875 1.27999131944444  L 1.200927734375 4.72727864583333  Z M 6.626953125 9.28411458333333  L 3.463623046875 9.28411458333333  C 3.17138671875 9.28411458333333  2.937255859375 9.51638454861111  2.937255859375 9.80713975694445  C 2.937255859375 10.0945529513889  3.173095703125 10.3301649305556  3.463623046875 10.3301649305556  L 6.626953125 10.3301649305556  C 6.919189453125 10.3301649305556  7.1533203125 10.0945529513889  7.1533203125 9.80713975694445  C 7.1533203125 9.51638454861111  6.91748046875 9.28411458333333  6.626953125 9.28411458333333  Z " fill-rule="nonzero" fill="#ffffff" stroke="none" transform="matrix(1 0 0 1 232 10 )" />
  </g>
</svg>