<?xml version="1.0" encoding="utf-8"?>
<svg version="1.1" xmlns:xlink="http://www.w3.org/1999/xlink" width="6px" height="9px" xmlns="http://www.w3.org/2000/svg">
  <g transform="matrix(1 0 0 1 -1473 -26 )">
    <path d="M 5.45244444433594 8.00491111113281  L 1.31093333339844 8.00491111113281  C 1.1744 8.00491111113281  1.03786666679688 7.94802222226562  0.935466666601563 7.84562222226563  C 0.833066666601562 7.74322222226562  0.776177777734375 7.60668888886719  0.776177777734375 7.47015555566406  C 0.776177777734375 7.17433333339844  1.01511111113281 6.9354  1.31093333339844 6.9354  L 5.45244444433594 6.9354  C 5.74826666660156 6.9354  5.9872 7.17433333339844  5.9872 7.47015555566406  C 5.9872 7.76597777792968  5.74826666660156 8.00491111132812  5.45244444433594 8.00491111113281  Z M 5.45244444433594 4.65984444433593  L 1.31093333339844 4.65984444433594  C 1.01511111113281 4.65984444433594  0.776177777734377 4.4209111109375  0.776177777734377 4.12508888886719  C 0.776177777734377 3.82926666679687  1.01511111113281 3.59033333320312  1.31093333339844 3.59033333339844  L 5.45244444433594 3.59033333339844  C 5.74826666660156 3.59033333339844  5.9872 3.82926666679687  5.9872 4.12508888886719  C 5.9872 4.4209111109375  5.74826666660156 4.65984444453125  5.45244444433594 4.65984444433593  Z M 5.44106666660156 1.34891111113281  L 1.31093333339844 1.34891111113281  C 1.01511111113281 1.34891111113281  0.776177777734377 1.0986  0.787555555664063 0.802777777734375  C 0.787555555664063 0.50695555546875  1.0264888890625 0.279399999999999  1.31093333339844 0.279399999999999  L 5.44106666660156 0.279399999999999  C 5.73688888886719 0.279399999999999  5.97582222226562 0.518333333398438  5.97582222226562 0.814155555664062  C 5.97582222226562 1.10997777792969  5.73688888886719 1.34891111132812  5.44106666660156 1.34891111113281  Z " fill-rule="nonzero" fill="#666666" stroke="none" transform="matrix(1 0 0 1 1473 26 )" />
  </g>
</svg>