<?xml version="1.0" encoding="utf-8"?>
<svg version="1.1" xmlns:xlink="http://www.w3.org/1999/xlink" width="14px" height="14px" xmlns="http://www.w3.org/2000/svg">
  <g transform="matrix(1 0 0 1 -418 -137 )">
    <path d="M 13.8051302083333 6.99959166666667  C 13.8051302083333 7.45066276475694  13.2889981662326 7.81625629774306  12.9884655772569 7.81625629774306  L 7.81625629774306 7.81625629774306  L 7.81625629774306 12.9884655772569  C 7.81625629774306 13.2892703884549  7.45066276475694 13.8051302083333  6.99959166666667 13.8051302083333  C 6.54879279079861 13.8051302083333  6.18292703559028 13.2892703884549  6.18292703559028 12.9884655772569  L 6.18292703559028 7.81625629774306  L 1.01071775607639 7.81625629774306  C 0.710185167100694 7.81625629774306  0.194053125 7.45066276475694  0.194053125 6.99959166666667  C 0.194053125 6.54852056857639  0.710185167100694 6.18292703559028  1.01071775607639 6.18292703559028  L 6.18292703559028 6.18292703559028  L 6.18292703559028 1.01071775607639  C 6.18292703559028 0.710185167100694  6.54879279079861 0.194053125  6.99959166666667 0.194053125  C 7.45066276475694 0.194053125  7.81625629774306 0.710185167100694  7.81625629774306 1.01071775607639  L 7.81625629774306 6.18292703559028  L 12.9884655772569 6.18292703559028  C 13.2889981662326 6.18292703559028  13.8051302083333 6.54852056857639  13.8051302083333 6.99959166666667  Z " fill-rule="nonzero" fill="#666666" stroke="none" transform="matrix(1 0 0 1 418 137 )" />
  </g>
</svg>