<?xml version="1.0" encoding="utf-8"?>
<svg version="1.1" xmlns:xlink="http://www.w3.org/1999/xlink" width="20px" height="20px" xmlns="http://www.w3.org/2000/svg">
  <g transform="matrix(1 0 0 1 -494 -190 )">
    <path d="M 15.587890625 4.15625  L 15.587890625 17.04296875  C 15.587890625 17.712890625  15.04296875 18.2578125  14.375 18.2578125  L 5.626953125 18.2578125  C 4.95703125 18.255859375  4.4140625 17.712890625  4.412109375 17.04296875  L 4.412109375 4.15625  L 15.587890625 4.15625  Z M 6.83984375 2.708984375  L 6.83984375 1.9765625  C 6.83984375 1.8359375  6.94921875 1.7265625  7.08984375 1.7265625  L 12.92578125 1.7265625  C 13.06640625 1.7265625  13.173828125 1.8359375  13.173828125 1.9765625  L 13.173828125 2.708984375  L 6.83984375 2.708984375  Z M 19.962890625 3.423828125  C 19.962890625 3.017578125  19.634765625 2.708984375  19.228515625 2.708984375  L 14.623046875 2.708984375  L 14.623046875 1.9765625  C 14.623046875 1.04296875  13.861328125 0.279296875  12.92578125 0.279296875  L 7.08984375 0.279296875  C 6.154296875 0.28125  5.39453125 1.0390625  5.392578125 1.9765625  L 5.392578125 2.708984375  L 0.771484375 2.708984375  C 0.365234375 2.708984375  0.0390625 3.03515625  0.0390625 3.439453125  C 0.0390625 3.84375  0.365234375 4.171875  0.771484375 4.171875  L 3 4.171875  L 3 17.04296875  C 2.94921875 18.521484375  4.1484375 19.720703125  5.626953125 19.720703125  L 14.373046875 19.720703125  C 15.8515625 19.720703125  17.05078125 18.521484375  17 17.04296875  L 17 4.15625  L 19.23046875 4.15625  C 19.634765625 4.15625  19.962890625 3.830078125  19.962890625 3.423828125  Z M 9.267578125 15.330078125  C 9.267578125 15.734375  9.595703125 16.0625  10 16.0625  C 10.404296875 16.0625  10.732421875 15.736328125  10.732421875 15.330078125  L 10.732421875 7.548828125  C 10.732421875 7.14453125  10.40625 6.81640625  10 6.81640625  C 9.595703125 6.81640625  9.267578125 7.142578125  9.267578125 7.548828125  L 9.267578125 15.330078125  Z M 5.859375 15.330078125  C 5.875 15.734375  6.203125 16.0625  6.591796875 16.0625  C 6.99609375 16.0625  7.32421875 15.736328125  7.32421875 15.330078125  L 7.32421875 7.548828125  C 7.32421875 7.14453125  6.998046875 6.81640625  6.591796875 6.81640625  C 6.1875 6.81640625  5.859375 7.142578125  5.859375 7.548828125  L 5.859375 15.330078125  Z M 12.67578125 15.330078125  C 12.677734375 15.734375  13.00390625 16.0625  13.408203125 16.0625  C 13.8125 16.0625  14.140625 15.736328125  14.140625 15.330078125  L 14.140625 7.548828125  C 14.140625 7.14453125  13.814453125 6.81640625  13.408203125 6.81640625  C 13.00390625 6.81640625  12.67578125 7.142578125  12.67578125 7.548828125  L 12.67578125 15.330078125  Z " fill-rule="nonzero" fill="#ff0006" stroke="none" transform="matrix(1 0 0 1 494 190 )" />
  </g>
</svg>