<?xml version="1.0" encoding="utf-8"?>
<svg version="1.1" xmlns:xlink="http://www.w3.org/1999/xlink" width="12px" height="12px" xmlns="http://www.w3.org/2000/svg">
  <g transform="matrix(1 0 0 1 -202 -15 )">
    <path d="M 0.84375 0.525625004882812  C 1.04613288198261 0.324203275331713  1.3732421229002 0.324203275331713  1.57562500488281 0.525625004882812  L 6.71312500488281 5.63562499511719  C 6.91468750488281 5.83624999511719  6.91562500488281 6.16187499023438  6.7153125 6.36375  L 6.71218750488281 6.3665625  C 6.69900239196946 6.37968638978248  6.68512862851625 6.39209975579595  6.67062499511719 6.40375000488281  L 1.5721875 11.4743749951172  C 1.36980461801739 11.6757967246683  1.0426953770998 11.6757967246683  0.840312495117188 11.4743749951172  L 0.839374995117187 11.4734374951172  C 0.742355905060855 11.3767477677039  0.68782337495544 11.2454105164033  0.68782337495544 11.1084375  C 0.68782337495544 10.9714644835967  0.742355905060854 10.8401272322961  0.839374995117187 10.7434375048828  L 5.61031249511719 5.998125  L 0.8428125 1.25656249511719  C 0.74563916670207 1.15995491014125  0.690999945705408 1.02858688534477  0.690999945705408 0.8915625  C 0.690999945705408 0.754538114655225  0.74563916670207 0.623170089858748  0.8428125 0.526562504882813  L 0.84375 0.525625004882812  Z M 5.29125 0.525625004882813  C 5.49363288198261 0.324203275331715  5.8207421229002 0.324203275331715  6.02312500488281 0.525625004882812  L 11.1606250048828 5.63562499511719  C 11.3621875048828 5.83624999511719  11.3631250048828 6.16187499023438  11.1625000048828 6.36375  L 11.1606250048828 6.365625  L 11.1596875048828 6.3665625  C 11.1459375 6.38031250488281  11.1315625048828 6.3928125  11.116875 6.40468750488281  L 6.0196875 11.4743749951172  C 5.81730461801739 11.6757967246683  5.4901953770998 11.6757967246683  5.28781249511719 11.4743749951172  L 5.2846875 11.47125  C 5.0843360300175 11.2696560729244  5.08531534441396 10.9438234578993  5.28687499511719 10.7434375048828  L 10.0578124951172 5.998125  L 5.2903125 1.25656249511719  C 5.19313956160301 1.15995496077308  5.13850059170587 1.02858721183694  5.13850059170587 0.891563142240553  C 5.13850059170587 0.755457645756024  5.19241147419048 0.624893238463195  5.2884375 0.528437504882812  L 5.2903125 0.526562504882813  L 5.29125 0.525625004882813  Z " fill-rule="nonzero" fill="#0085ff" stroke="none" transform="matrix(1 0 0 1 202 15 )" />
  </g>
</svg>