<?xml version="1.0" encoding="utf-8"?>
<svg version="1.1" xmlns:xlink="http://www.w3.org/1999/xlink" width="18px" height="20px" xmlns="http://www.w3.org/2000/svg">
  <g transform="matrix(1 0 0 1 -26 -10 )">
    <path d="M 15.95625 10.0267857142857  C 19.0546875 5.76785714285714  17.8921875 3.85267857142857  12.47109375 4.27678571428571  C 10.1484375 -0.408482142857143  7.8234375 -0.408482142857143  5.50078125 4.27678571428571  C 0.0796875000000001 3.85044642857143  -1.0828125 5.76785714285714  2.015625 10.0267857142857  C -1.08515625 14.2857142857143  0.0773437500000003 16.203125  5.4984375 15.7767857142857  C 7.82109375 20.4620535714286  10.14609375 20.4620535714286  12.46875 15.7767857142857  C 17.8921875 16.203125  19.0546875 14.2857142857143  15.95625 10.0267857142857  Z M 12.78984375 7.890625  C 13.10859375 8.19196428571429  13.10859375 8.68080357142857  12.78984375 8.98214285714286  L 8.58984375 12.984375  C 8.2734375 13.2857142857143  7.76015625 13.2857142857143  7.44375 12.984375  L 4.76953125 10.4375  C 4.453125 10.1361607142857  4.453125 9.64732142857143  4.76953125 9.34598214285714  C 5.0859375 9.04464285714286  5.59921875 9.04464285714286  5.915625 9.34598214285714  L 8.015625 11.3459821428571  L 11.64375 7.890625  C 11.96015625 7.58928571428572  12.4734375 7.58928571428572  12.78984375 7.890625  Z " fill-rule="nonzero" fill="#999999" stroke="none" transform="matrix(1 0 0 1 26 10 )" />
  </g>
</svg>