<?xml version="1.0" standalone="no"?><!DOCTYPE svg PUBLIC "-//W3C//DTD SVG 1.1//EN" "http://www.w3.org/Graphics/SVG/1.1/DTD/svg11.dtd"><svg t="1614741860501" class="icon" viewBox="0 0 1024 1024" version="1.1" xmlns="http://www.w3.org/2000/svg" p-id="2987" xmlns:xlink="http://www.w3.org/1999/xlink" width="200" height="200"><defs><style type="text/css"></style></defs><path d="M237.696 1024a54.912 54.912 0 0 1-54.848-54.912 54.848 54.848 0 0 1 54.848-54.848h128v-36.544H118.144A118.336 118.336 0 0 1 0 759.552V118.144A118.336 118.336 0 0 1 118.144 0h787.712A118.336 118.336 0 0 1 1024 118.144v641.408a118.336 118.336 0 0 1-118.144 118.144h-247.552v36.544h128a54.848 54.848 0 0 1 54.848 54.848 54.912 54.912 0 0 1-54.848 54.912z m-128-905.856v641.408a8.512 8.512 0 0 0 8.448 8.448h787.712a8.512 8.512 0 0 0 8.448-8.448V118.144a8.512 8.512 0 0 0-8.448-8.448H118.144a8.512 8.512 0 0 0-8.448 8.448z m43.52 519.616a54.848 54.848 0 0 1-16.512-75.776L272.896 350.08a69.312 69.312 0 0 1 112.512 0l87.616 136.256 162.944-281.6a66.368 66.368 0 0 1 60.48-33.344 67.008 67.008 0 0 1 57.6 37.76l136.448 283.072a54.912 54.912 0 0 1-25.6 73.28 54.848 54.848 0 0 1-73.28-25.6l-101.312-210.048-157.568 272.512a66.56 66.56 0 0 1-56.576 33.536h-1.408a66.304 66.304 0 0 1-56.384-31.296l-89.6-138.816-100.096 155.776a54.72 54.72 0 0 1-46.208 25.216 54.016 54.016 0 0 1-29.248-9.024z" p-id="2988" fill="#ffffff"></path></svg>