<?xml version="1.0" encoding="utf-8"?>
<svg version="1.1" xmlns:xlink="http://www.w3.org/1999/xlink" width="24px" height="24px" xmlns="http://www.w3.org/2000/svg">
  <g transform="matrix(1 0 0 1 -1795 -23 )">
    <path d="M 1.51310862008427 12  C 1.51310862008427 14.1228464536517  2.1438202247191 16.0988764044944  3.22846443117978 17.7498127457865  C 5.59288153268162 15.4973958740108  8.73444771663658 14.2429156364636  12 14.2471910024579  C 15.3146067503511 14.2471910024579  18.4277153616573 15.5205992538624  20.7715355688202 17.7498127457865  C 21.8937345216226 16.0423976099483  22.4901659155732 14.0431804162081  22.4868913799157 12  C 22.4868913799157 6.20823971207865  17.7917602879213 1.51310862008427  12 1.51310862008427  C 6.20823971207865 1.51310862008427  1.51310862008427 6.20823971207865  1.51310862008427 12  Z M 23.9850187236657 12  C 23.9850187236657 18.6194756408006  18.6194756408006 23.9850187236657  12 23.9850187236657  C 5.38052433286517 23.9850187236657  0.0149812763342696 18.6194756671348  0.0149812763342696 12  C 0.0149812763342696 5.38052433286517  5.38052433286517 0.0149812763342696  12 0.0149812763342696  C 18.6194756671348 0.0149812763342696  23.9850187236657 5.38052435919944  23.9850187236657 12  Z M 16.4940380017915 8.254681640625  C 16.4940380017915 10.7367259456021  14.4820442977055 12.7488736667685  12 12.7490636587079  C 9.51747731476858 12.749063671875  7.50527393929151 10.7368602963979  7.50527393929151 8.254681640625  C 7.50527393929151 5.77250298485208  9.51747731476858 3.760299609375  11.9996559705415 3.760299609375  C 14.4820442977055 3.76048961448146  16.4940380017915 5.77263733564789  16.4940380017915 8.254681640625  Z " fill-rule="nonzero" fill="#ffffff" stroke="none" transform="matrix(1 0 0 1 1795 23 )" />
  </g>
</svg>