<?xml version="1.0" encoding="utf-8"?>
<svg version="1.1" xmlns:xlink="http://www.w3.org/1999/xlink" width="14px" height="14px" xmlns="http://www.w3.org/2000/svg">
  <g transform="matrix(1 0 0 1 -201 -18 )">
    <path d="M 201 18  L 215 18  L 215 32  L 201 32  L 201 18  " fill-rule="nonzero" fill="#cccccc" stroke="none" />
    <path d="M 202 19  L 214 19  L 214 31  L 202 31  L 202 19  " fill-rule="nonzero" fill="#ffffff" stroke="none" />
    <path d="M 209.33 22.2  C 208.742 22.2  208.28 21.738  208.28 21.15  C 208.28 20.562  208.742 20.1  209.33 20.1  C 209.918 20.1  210.38 20.562  210.38 21.15  C 210.38 21.738  209.918 22.2  209.33 22.2  " fill-rule="nonzero" fill="#cccccc" stroke="none" />
    <path d="M 203 31  L 203 24.95  L 205.75 22.2  L 209.6 24.4  L 211.8 23.85  L 214 24.4  L 214 31  L 203 31  " fill-rule="nonzero" fill="#169bd5" stroke="none" />
  </g>
</svg>