<?xml version="1.0" encoding="utf-8"?>
<svg version="1.1" xmlns:xlink="http://www.w3.org/1999/xlink" width="18px" height="18px" xmlns="http://www.w3.org/2000/svg">
  <g transform="matrix(1 0 0 1 -15 -17 )">
    <path d="M 15 17  L 33 17  L 33 35  L 15 35  L 15 17  " fill-rule="nonzero" fill="#cccccc" stroke="none" />
    <path d="M 16 18  L 32 18  L 32 34  L 16 34  L 16 18  " fill-rule="nonzero" fill="#ffffff" stroke="none" />
    <path d="M 25.71 22.4  C 24.954 22.4  24.36 21.806  24.36 21.05  C 24.36 20.294  24.954 19.7  25.71 19.7  C 26.466 19.7  27.06 20.294  27.06 21.05  C 27.06 21.806  26.466 22.4  25.71 22.4  " fill-rule="nonzero" fill="#cccccc" stroke="none" />
    <path d="M 17 34  L 17 25.75  L 20.75 22  L 26 25  L 29 24.25  L 32 25  L 32 34  L 17 34  " fill-rule="nonzero" fill="#169bd5" stroke="none" />
  </g>
</svg>