<?xml version="1.0" encoding="utf-8"?>
<svg version="1.1" xmlns:xlink="http://www.w3.org/1999/xlink" width="107px" height="112px" xmlns="http://www.w3.org/2000/svg">
  <g transform="matrix(1 0 0 1 -1584 -84 )">
    <path d="M 1584.5 195.5  C 1584.5 195.5  1584.5 91.3287378640777  1584.5 91.3287378640777  C 1584.5 91.3287378640777  1645.98390301608 91.3287378640777  1645.98390301608 91.3287378640777  C 1645.98390301608 91.3287378640777  1654.89522593056 84.6060501725601  1654.89522593056 84.6060501725601  C 1654.89522593056 84.6060501725601  1665.67330338648 91.3287378640777  1665.67330338648 91.3287378640777  C 1665.67330338648 91.3287378640777  1690.5 91.3287378640777  1690.5 91.3287378640777  C 1690.5 91.3287378640777  1690.5 195.5  1690.5 195.5  C 1690.5 195.5  1584.5 195.5  1584.5 195.5  Z " fill-rule="nonzero" fill="#f2f2f2" stroke="none" />
    <path d="M 1584 196  C 1584 196  1584 90.8287378640777  1584 90.8287378640777  C 1584 90.8287378640777  1645.8164556962 90.8287378640777  1645.8164556962 90.8287378640777  C 1645.8164556962 90.8287378640777  1654.86835443038 84  1654.86835443038 84  C 1654.86835443038 84  1665.8164556962 90.8287378640777  1665.8164556962 90.8287378640777  C 1665.8164556962 90.8287378640777  1691 90.8287378640777  1691 90.8287378640777  C 1691 90.8287378640777  1691 196  1691 196  C 1691 196  1584 196  1584 196  Z M 1585 195  C 1585 195  1690 195  1690 195  C 1690 195  1690 91.8287378640777  1690 91.8287378640777  C 1690 91.8287378640777  1665.53015107676 91.8287378640777  1665.53015107676 91.8287378640777  C 1665.53015107676 91.8287378640777  1654.92209743074 85.2121003451201  1654.92209743074 85.2121003451201  C 1654.92209743074 85.2121003451201  1646.15135033596 91.8287378640777  1646.15135033596 91.8287378640777  C 1646.15135033596 91.8287378640777  1585 91.8287378640777  1585 91.8287378640777  C 1585 91.8287378640777  1585 195  1585 195  Z " fill-rule="nonzero" fill="#e4e4e4" stroke="none" />
  </g>
</svg>