<?xml version="1.0" encoding="utf-8"?>
<svg version="1.1" xmlns:xlink="http://www.w3.org/1999/xlink" width="97px" height="80px" xmlns="http://www.w3.org/2000/svg">
  <g transform="matrix(1 0 0 1 -1513 -42 )">
    <path d="M 1513.5 121.5  C 1513.5 121.5  1513.5 49.2557281553398  1513.5 49.2557281553398  C 1513.5 49.2557281553398  1570.25710802445 49.2557281553398  1570.25710802445 49.2557281553398  C 1570.25710802445 49.2557281553398  1580.15036889345 42.6034081466699  1580.15036889345 42.6034081466699  C 1580.15036889345 42.6034081466699  1589.95097330649 49.2557281553398  1589.95097330649 49.2557281553398  C 1589.95097330649 49.2557281553398  1609.5 49.2557281553398  1609.5 49.2557281553398  C 1609.5 49.2557281553398  1609.5 121.5  1609.5 121.5  C 1609.5 121.5  1513.5 121.5  1513.5 121.5  Z " fill-rule="nonzero" fill="#f2f2f2" stroke="none" />
    <path d="M 1513 122  C 1513 122  1513 48.7557281553398  1513 48.7557281553398  C 1513 48.7557281553398  1570.10463740684 48.7557281553398  1570.10463740684 48.7557281553398  C 1570.10463740684 48.7557281553398  1580.15168579203 42  1580.15168579203 42  C 1580.15168579203 42  1590.10463740684 48.7557281553398  1590.10463740684 48.7557281553398  C 1590.10463740684 48.7557281553398  1610 48.7557281553398  1610 48.7557281553398  C 1610 48.7557281553398  1610 122  1610 122  C 1610 122  1513 122  1513 122  Z M 1514 121  C 1514 121  1609 121  1609 121  C 1609 121  1609 49.7557281553398  1609 49.7557281553398  C 1609 49.7557281553398  1589.79730920615 49.7557281553398  1589.79730920615 49.7557281553398  C 1589.79730920615 49.7557281553398  1580.14905199488 43.2068162933398  1580.14905199488 43.2068162933398  C 1580.14905199488 43.2068162933398  1570.40957864205 49.7557281553398  1570.40957864205 49.7557281553398  C 1570.40957864205 49.7557281553398  1514 49.7557281553398  1514 49.7557281553398  C 1514 49.7557281553398  1514 121  1514 121  Z " fill-rule="nonzero" fill="#e4e4e4" stroke="none" />
  </g>
</svg>