<?xml version="1.0" encoding="utf-8"?>
<svg version="1.1" xmlns:xlink="http://www.w3.org/1999/xlink" width="30px" height="30px" xmlns="http://www.w3.org/2000/svg">
  <g transform="matrix(1 0 0 1 -18 -70 )">
    <path d="M 29.0625 15.01875  C 29.0625 11.25  27.6 7.70625  24.9375 5.0625  C 19.4625 -0.4125  10.5375 -0.4125  5.04375 5.0625  C -0.43125 10.5375  -0.43125 19.4625  5.04375 24.95625  C 7.69246691784423 27.582403253151  11.2700722289301 29.0579127882317  15 29.0625  C 18.6 29.0625  22.2 27.69375  24.9375 24.95625  C 27.6 22.29375  29.0625 18.76875  29.0625 15.01875  Z M 25.3125 15  C 25.3125 17.75625  24.24375 20.34375  22.29375 22.29375  C 18.2630803483621 26.3160752324548  11.7369196516379 26.3160752324548  7.70625 22.29375  C 3.69375 18.28125  3.69375 11.7375  7.70625 7.70625  C 11.7369196516379 3.68392476754522  18.2630803483621 3.68392476754522  22.29375 7.70625  C 24.234553963929 9.63620716852183  25.3217203995779 12.262963339127  25.3125 15  Z " fill-rule="nonzero" fill="#ffffff" stroke="none" transform="matrix(1 0 0 1 18 70 )" />
  </g>
</svg>