<?xml version="1.0" encoding="utf-8"?>
<svg version="1.1" xmlns:xlink="http://www.w3.org/1999/xlink" width="30px" height="30px" xmlns="http://www.w3.org/2000/svg">
  <g transform="matrix(1 0 0 1 -331 -70 )">
    <path d="M 15.000029296875 0.45931640625  C 6.95548828125 0.45931640625  0.4341796875 6.980654296875  0.4341796875 15.0251953125  C 0.4341796875 23.069736328125  6.95548828125 29.591015625  15 29.591015625  C 23.04451171875 29.591015625  29.5658203125 23.069736328125  29.5658203125 15.0251953125  C 29.5658203125 6.98065429687499  23.044599609375 0.45931640625  15.00005859375 0.45931640625  Z M 16.888359375 15.0251953125  L 21.2464453125 19.383251953125  C 21.76787109375 19.90482421875  21.76787109375 20.75015625  21.2464453125 21.271611328125  C 20.72501953125 21.7930078125  19.87951171875 21.7930078125  19.3580859375 21.271611328125  L 15.000029296875 16.913525390625  L 10.641826171875 21.27158203125  C 10.12037109375 21.792978515625  9.275068359375 21.792978515625  8.753642578125 21.27158203125  C 8.232041015625 20.750126953125  8.232041015625 19.904794921875  8.753642578125 19.38322265625  L 13.111669921875 15.0251953125  L 8.75361328125 10.667109375  C 8.232041015625 10.14568359375  8.232041015625 9.300205078125  8.75361328125 8.778779296875  C 9.275068359375 8.257353515625  10.12037109375 8.257353515625  10.641796875 8.778779296875  L 15.000029296875 13.1368359375  L 19.3580859375 8.778779296875  C 19.87951171875 8.257353515625  20.72501953125 8.257353515625  21.2464453125 8.778779296875  C 21.76787109375 9.300205078125  21.76787109375 10.14568359375  21.2464453125 10.667109375  L 16.888359375 15.0251953125  Z " fill-rule="nonzero" fill="#ffffff" stroke="none" transform="matrix(1 0 0 1 331 70 )" />
  </g>
</svg>