<?xml version="1.0" encoding="utf-8"?>
<svg version="1.1" xmlns:xlink="http://www.w3.org/1999/xlink" width="40px" height="38px" xmlns="http://www.w3.org/2000/svg">
  <g transform="matrix(1 0 0 1 -169 -732 )">
    <path d="M 12.5264285546875 1  L 27.474285703125 1  C 29.5021428515625 0.4285714453125  31.28357140625 1.8492857421875  31.709285703125 3.8028571484375  C 32.0671428515625 5.4485714453125  33.5664285546875 6.644285703125  35.2771428515625 6.644285703125  C 37.8821428515625 6.644285703125  40 8.73  40 11.2978571484375  L 40 32.9178571484375  C 40 35.485  37.8821428515625 37.5714285546875  35.2771428515625 37  L 4.7228571484375 37  C 2.1178571484375 37.5714285546875  0 35.485  0 32.9178571484375  L 0 11.2978571484375  C 0 8.730714296875  2.1178571484375 6.644285703125  4.7228571484375 6.644285703125  C 6.4328571484375 6.644285703125  7.9328571484375 5.44857140625  8.290714296875 3.8028571484375  C 8.7164285546875 1.85  10.4978571484375 0.4285714453125  12.5264285546875 1  Z M 30 21.1428571484375  C 30 15.63142859375  25.5114285546875 11.1428571484375  20 11.1428571484375  C 14.4885714453125 11.1428571484375  10 15.63142859375  10 21.1428571484375  C 10 26.654285703125  14.4828571484375 31.1428571484375  20 31.1428571484375  C 25.5114285546875 31.1428571484375  30 26.654285703125  30 21.1428571484375  Z M 14.285714296875 21.1428571484375  C 14.285714296875 17.989285703125  16.85142859375 15.4285714453125  20 15.4285714453125  C 23.1485714453125 15.4285714453125  25.709285703125 17.9942857421875  25.714285703125 21.1428571484375  C 25.714285703125 24.29642859375  23.14857140625 26.8571428515625  20 26.8571428515625  C 16.8464285546875 26.8571428515625  14.285714296875 24.2914285546875  14.285714296875 21.1428571484375  Z " fill-rule="nonzero" fill="#ffffff" stroke="none" transform="matrix(1 0 0 1 169 732 )" />
  </g>
</svg>