<?xml version="1.0" encoding="utf-8"?>
<svg version="1.1" xmlns:xlink="http://www.w3.org/1999/xlink" width="40px" height="39px" xmlns="http://www.w3.org/2000/svg">
  <g transform="matrix(1 0 0 1 -18 -731 )">
    <path d="M 40 6.41956251269531  C 40 2.87949998730469  37.0466666796875 0  33.4166666796875 0  L 6.5833333203125 0  C 2.9533333203125 0  0 2.87949998730469  0 6.41956251269531  L 0 30.7125  L 0 32.5812500126953  C 0 36.118875  2.9533333203125 39  6.5833333203125 39  L 33.4183333203125 39  C 37.045 39  40 36.118875  40 32.5812500126953  L 40 6.41956251269531  Z M 38 6.41956251269531  L 38 24.077625  L 27.2983333203125 13.3201250126953  C 26.9858333203125 13.0154375126953  26.4325 13.0154375126953  26.12 13.3201250126953  L 15.2083333203125 23.9573750126953  L 11.485 20.3279375126953  C 11.1725 20.021625  10.6183333203125 20.021625  10.3058333203125 20.3279375126953  L 2 28.7511249873047  L 2 6.41956251269531  C 1.6675 3.77650002539062  3.8725 1.6258125  6.5833333203125 2  L 33.416666640625 2  C 36.126666640625 1.6258125  38.3308333203125 3.77649998730469  38 6.41956251269531  Z " fill-rule="nonzero" fill="#ffffff" stroke="none" transform="matrix(1 0 0 1 18 731 )" />
  </g>
</svg>