<?xml version="1.0" encoding="utf-8"?>
<svg version="1.1" xmlns:xlink="http://www.w3.org/1999/xlink" width="10px" height="16px" xmlns="http://www.w3.org/2000/svg">
  <g transform="matrix(1 0 0 1 -28 -77 )">
    <path d="M 9.6125 0.499999999999999  L 4.56875 0.5  C 4.49375 0.5  4.4375 0.5375  4.4 0.612499999999999  L 0.21875 9.275  C 0.18125 9.33125  0.200000000000001 9.40625  0.237500000000001 9.4625  C 0.25625 9.5  0.331249999999999 9.5375  0.387499999999999 9.5375  L 3.36875 9.5375  L 2.65625 15.29375  C 2.6375 15.3875  2.69375 15.4625  2.76875 15.5  L 2.84375 15.5  C 2.9 15.5  2.95625 15.48125  2.99375 15.425  L 9.14375 6.63125  C 9.18125 6.575  9.18125 6.5  9.1625 6.44375  C 9.12648211293665 6.38517442278356  9.06251229834931 6.3496356369017  8.99375 6.35  L 6.36875 6.35  L 9.7625 0.799999999999999  C 9.8004171306613 0.743250835190343  9.8004171306613 0.669249164809655  9.7625 0.612499999999999  C 9.74375 0.5375  9.66875 0.499999999999999  9.6125 0.499999999999999  Z " fill-rule="nonzero" fill="#ffffff" stroke="none" transform="matrix(1 0 0 1 28 77 )" />
  </g>
</svg>