<?xml version="1.0" encoding="utf-8"?>
<svg version="1.1" xmlns:xlink="http://www.w3.org/1999/xlink" width="35px" height="39px" xmlns="http://www.w3.org/2000/svg">
  <defs>
    <filter x="53px" y="322px" width="35px" height="39px" filterUnits="userSpaceOnUse" id="filter137">
      <feOffset dx="0" dy="0" in="SourceAlpha" result="shadowOffsetInner" />
      <feGaussianBlur stdDeviation="2.5" in="shadowOffsetInner" result="shadowGaussian" />
      <feComposite in2="shadowGaussian" operator="atop" in="SourceAlpha" result="shadowComposite" />
      <feColorMatrix type="matrix" values="0 0 0 0 0  0 0 0 0 0  0 0 0 0 0  0 0 0 0.2 0  " in="shadowComposite" />
    </filter>
    <g id="widget138">
      <path d="M 6.884765625 22.0992838541667  C 6.37369791666667 22.0961371527778  5.95703125 21.6965060763889  5.95703125 21.2024739583333  C 5.95703125 20.7084418402778  6.37044270833333 20.3088107638889  6.88151041666667 20.3088107638889  L 13.3626302083333 20.3088107638889  C 13.53515625 20.3088107638889  13.6979166666667 20.3560112847222  13.837890625 20.4346788194444  L 13.984375 20.4346788194444  L 14.2447916666667 20.1860894097222  L 17.9296875 16.7278645833333  L 6.884765625 16.7278645833333  C 6.37369791666667 16.7278645833333  5.96028645833333 16.3282335069444  5.96028645833333 15.8342013888889  C 5.96028645833333 15.3401692708333  6.37369791666667 14.9405381944444  6.884765625 15  L 19.892578125 15  L 25 10.1260850694444  L 25 1.97927517361111  C 25 1.47894965277778  24.5670572916667 1.06358506944444  24.0462239583333 1  L 9.21875 1  L 2.45768229166667 1.14539930555556  C 1.76106770833333 1.06358506944444  1.328125 1.64572482638889  1.328125 2.14290364583333  L 1.328125 26.6682942708333  C 1.328125 27.1654730902778  1.84895833333333 27.7476128472222  2.36979166666667 27.6657986111111  L 10.3450520833333 27.6657986111111  L 11.9921875 22.9268663194444  L 11.9921875 22.8450520833333  C 11.9921875 22.7286241319444  12.080078125 22.3604600694444  12.12890625 22.0992838541667  L 6.884765625 22.0992838541667  Z M 5.96028645833333 10.0128038194444  C 5.95703125 9.51877170138889  6.37369791666667 9.119140625  6.884765625 9.119140625  L 19.8470052083333 9.119140625  C 20.3580729166667 9.119140625  20.771484375 9.51877170138889  20.771484375 10.0128038194444  C 20.771484375 10.5068359375  20.3580729166667 10.9064670138889  19.8470052083333 11  L 6.884765625 11  C 6.37369791666667 10.9064670138889  5.96028645833333 10.5068359375  5.96028645833333 10.0128038194444  Z " fill-rule="nonzero" fill="#ffffff" stroke="none" transform="matrix(1 0 0 1 58 327 )" />
    </g>
  </defs>
  <g transform="matrix(1 0 0 1 -53 -322 )">
    <use xlink:href="#widget138" filter="url(#filter137)" />
    <use xlink:href="#widget138" />
  </g>
</svg>