<?xml version="1.0" encoding="utf-8"?>
<svg version="1.1" xmlns:xlink="http://www.w3.org/1999/xlink" width="24px" height="23px" xmlns="http://www.w3.org/2000/svg">
  <g transform="matrix(1 0 0 1 -177 -331 )">
    <path d="M 5.82352942382813 0.134705878906251  L 5.82352942382813 0.132941181640625  C 8.58462829579273 0.132941181640625  10.8229411816406 2.37125406748852  10.8229411816406 5.13235293945312  L 10.8229411816406 10.1352941210938  L 5.82352942382813 10.1352941210938  C 3.06194323607948 10.1352941210938  0.823235302734375 7.89658618774865  0.823235302734375 5.135  C 0.823235302734375 2.37341381225135  3.06194323607948 0.13470587890625  5.82352942382813 0.13470587890625  Z M 5.82176500850854 12.4858820520383  C 5.82235314696053 12.4858820520383  5.82294128541274 12.485882155786  5.82352942382813 12.4858823632812  L 10.8229411816406 12.4858823632812  L 10.8229411816406 17.4852941210938  C 10.8229413891359 17.4858822595133  10.8229414928835 17.4864703979572  10.8229414928835 17.4870585364133  C 10.8229414928835 20.249132039946  8.58383851204123 22.4882350207883  5.82176500850854 22.4882350207883  C 3.05969150497585 22.4882350207883  0.820588524133541 20.249132039946  0.820588524133541 17.4870585364133  C 0.820588524133541 14.7249850328806  3.05969150497585 12.4858820520383  5.82176500850854 12.4858820520383  Z M 13.1770588183594 5.13235293945312  C 13.1770588183594 2.37125406748852  15.4153717042073 0.132941181640625  18.1764705761719 0.132941181640625  C 20.901445745452 0.184135603583328  23.0837059597403 2.40777927813386  23.0837059597403 5.13323530273438  C 23.0837059597403 7.85869132733489  20.901445745452 10.0823350018854  18.1764705761719 10.1335294238281  L 13.1770588183594 10.1335294238281  L 13.1770588183594 5.13235293945312  Z M 13.1770588183594 17.4852941210938  L 13.1770588183594 12.4858823632812  L 18.1764705761719 12.4858823632812  C 20.9375694481365 12.4858823632812  23.1758823339844 14.7241952491291  23.1758823339844 17.4852941210938  C 23.1758823339844 20.2463929930584  20.9375694481365 22.4847058789063  18.1764705761719 22.4847058789063  C 15.4153717042073 22.4847058789063  13.1770588183594 20.2463929930584  13.1770588183594 17.4852941210938  Z " fill-rule="nonzero" fill="#ffffff" stroke="none" transform="matrix(1 0 0 1 177 331 )" />
  </g>
</svg>