<?xml version="1.0" encoding="utf-8"?>
<svg version="1.1" xmlns:xlink="http://www.w3.org/1999/xlink" width="21px" height="25px" xmlns="http://www.w3.org/2000/svg">
  <defs>
    <filter x="56px" y="190px" width="21px" height="25px" filterUnits="userSpaceOnUse" id="filter131">
      <feOffset dx="0" dy="0" in="SourceAlpha" result="shadowOffsetInner" />
      <feGaussianBlur stdDeviation="2.5" in="shadowOffsetInner" result="shadowGaussian" />
      <feComposite in2="shadowGaussian" operator="atop" in="SourceAlpha" result="shadowComposite" />
      <feColorMatrix type="matrix" values="0 0 0 0 0  0 0 0 0 0  0 0 0 0 0  0 0 0 0.2 0  " in="shadowComposite" />
    </filter>
    <g id="widget132">
      <path d="M 9.93037215401786 11.9862490323153  C 10.6110966945415 11.4080444187655  10.9882649349726 10.6125938814383  10.9735894419643 9.78609625355114  C 10.9900881675213 9.35173879668856  10.9047285597448 8.91900012144596  10.7226890792411 8.51413292791193  C 10.5599670791578 8.18600413617027  10.3165976248609 7.89268695943475  10.009603828125 7.65469823330966  C 9.67775767781261 7.40729332453453  9.30352296687427 7.20625814880919  8.90036014508929 7.05882352627841  C 8.46458584542411 6.88693657670455  7.97599039899554 6.72650878018466  7.46098439453125 6.56608098366477  L 6.20648258091518 6.17647057883523  L 5.58583434430804 5.98166540305398  C 5.39077033924861 5.91571795722044  5.20475499808359 5.83116552601524  5.03121247209821 5.72956454190341  C 4.87970844853474 5.64059192263946  4.75331525528774 5.52307758227141  4.66146459821429 5.3857906693892  C 4.56760629941049 5.23469808711016  4.5220140257132 5.06457485371733  4.52941177734375 4.89304812677557  C 4.51399757006606 4.694599505936  4.57432808832273 4.49726922332219  4.70108043526786 4.33155079900568  C 4.81699218295736 4.19044198680004  4.97120107648454 4.07630341183812  5.1500600139509 3.99923605291193  C 5.35011209633076 3.91672078530154  5.56410978469561 3.86255815135525  5.78391356026786 3.83880825639205  C 6.0213971666564 3.82650341784109  6.25951520499539 3.82650341784109  6.49699881138393 3.83880825639205  L 7.52701078962054 3.83880825639205  L 8.34573830357144 3.94194042080966  C 8.57375335528488 3.97871296185119  8.7987300138558 4.02847687756626  9.01920768694197 4.09090909090909  L 9.65306123325893 4.27425516690341  C 10.0042501366874 3.72831480405846  10.2327874003272 3.12947383770595  10.3265306166295 2.50954927201705  C 9.7454982170759 2.36058060191761  9.20408162388393 2.24598931107955  8.7022808984375 2.16577539950284  C 8.19188595804703 2.08070456969887  7.67588134599107 2.0232978301124  7.15726291573661 1.9938884765625  L 7.15726291573661 0.35523299893466  C 6.55385549397531 0.230535800743585  5.92513612432827 0.230535800743585  5.32172870256696 0.35523299893466  L 5.32172870256697 1.97097019708807  C 4.23048637611917 2.01879265107106  3.183187468453 2.35909712007031  2.32412965959821 2.94499618252841  C 1.5958214273187 3.5067109581737  1.19804431507298 4.32335271929886  1.24129650390625 5.16806721413352  C 1.22279591839382 5.5594671227439  1.29927825830858 5.94987283729506  1.46578630859375 6.31398014914773  C 1.61014276789629 6.61352678273915  1.82619797174586 6.88303779203733  2.09963985491072 7.10466005859375  C 2.39120862121828 7.33621841974829  2.72046786303184 7.52927303681758  3.07683071707589 7.67761651278409  C 3.48544238190268 7.8493960139291  3.9041887324208 8.00239598353867  4.33133253069197 8.13598167613637  L 5.42737093470982 8.49121467507102  L 6.15366146484375 8.72039725674716  C 6.38351691098123 8.7836730279034  6.60487472115974 8.8681914627312  6.81392556919643 8.97249809126421  C 7.00104295066915 9.06840264035872  7.16297382743651 9.19721128628469  7.28931573660714 9.35064934303977  C 7.4199672726247 9.519562787409  7.48476366112637 9.7203780543653  7.47418967354911 9.92360579723012  C 7.50685357675554 10.3533617487713  7.23498539358389 10.7571456332413  6.78751501116072 10.9434682883523  C 6.16794360521698 11.1601457882698  5.49926184110048 11.2503214957469  4.83313325613839 11.2070282759233  C 4.28511993135551 11.2080089351662  3.73778484056115 11.1735360167217  3.19567825892857 11.1038961115057  C 2.6385180699125 11.0290658128423  2.09041546429109 10.9101592558376  1.55822329241071 10.748663112571  C 1.39975991350446 11.0809778586648  1.26770709263393 11.4018334783381  1.16206482979911 11.6997708185369  C 1.05517518595917 11.9948635592533  0.980024034482957 12.297915954859  0.937575025111607 12.605042018821  C 1.28091237165179 12.7081741832386  1.6242496875 12.7998472212358  1.94117647600447 12.8686019797585  C 2.25810326450893 12.9373567382813  2.60144058035714 13.0061115234375  2.91836733816964 13.0404889293324  C 3.23529409598214 13.0748663352273  3.59183672154018 13.1207028409091  3.96158462611607 13.14362109375  C 4.33133253069196 13.1665393465909  4.75390155133929 13.14362109375  5.18967588169643 13.14362109375  L 5.29531811383929 13.14362109375  L 5.29531811383929 14.7593582919034  C 5.59854007962371 14.8197212395556  5.9085899810193 14.8504699918939  6.21968785993304 14.8510313299006  C 6.52647529361832 14.8511920951896  6.8322458935223 14.8204282530554  7.13085232700893 14.7593582919034  L 7.13085232700893 13.1321619673295  C 8.176384139154 13.0054943616123  9.15277745656857 12.6058323476868  9.93037215401786 11.9862490323153  Z " fill-rule="nonzero" fill="#0085ff" stroke="none" transform="matrix(1 0 0 1 61 195 )" />
    </g>
  </defs>
  <g transform="matrix(1 0 0 1 -56 -190 )">
    <use xlink:href="#widget132" filter="url(#filter131)" />
    <use xlink:href="#widget132" />
  </g>
</svg>