<?xml version="1.0" encoding="utf-8"?>
<svg version="1.1" xmlns:xlink="http://www.w3.org/1999/xlink" width="28px" height="19px" xmlns="http://www.w3.org/2000/svg">
  <defs>
    <filter x="53px" y="179px" width="28px" height="19px" filterUnits="userSpaceOnUse" id="filter121">
      <feOffset dx="0" dy="0" in="SourceAlpha" result="shadowOffsetInner" />
      <feGaussianBlur stdDeviation="2.5" in="shadowOffsetInner" result="shadowGaussian" />
      <feComposite in2="shadowGaussian" operator="atop" in="SourceAlpha" result="shadowComposite" />
      <feColorMatrix type="matrix" values="0 0 0 0 0  0 0 0 0 0  0 0 0 0 0  0 0 0 0.2 0  " in="shadowComposite" />
    </filter>
    <g id="widget122">
      <path d="M 5.10504202148437 6.98319328125  L 1.23529412109375 6.98319328125  C 0.796715060762314 6.98319328125  0.441176484375 7.33873185763732  0.441176484375 7.77731091796875  L 0.441176484375 8.09243698242187  C 0.441176484375 8.53101604275331  0.796715060762314 8.88655461914063  1.23529412109375 8.88655461914063  L 16.5630252246094 8.88655461914063  C 17.0016042849408 8.88655461914063  17.3571428613281 8.53101604275331  17.3571428613281 8.09243698242187  L 17.3571428613281 7.77731091796875  C 17.3571428613281 7.33873185763732  17.0016042849408 6.98319328125  16.5630252246094 6.98319328125  L 12.7184874023437 6.98319328125  L 12.7184874023438 2.29411763671875  C 12.7184874023438 -1.09411761328126  12.7184874023437 5.68235288671875  12.7184874023437 2.29411763671875  C 12.7184874023437 1.85553857638731  12.3629488259564 1.5  11.924369765625 1.5  L 5.89915965820313 1.5  C 5.46058059787169 1.5  5.10504202148437 1.85553857638731  5.10504202148437 2.29411763671875  L 5.10504202148437 6.98319328125  Z M 7.42436973632813 4.31092435546875  C 7.42436975250834 3.48945881300894  8.09029915480582 2.82352942382812  8.91176469726562 2.82352942382812  C 9.73323025116657 2.82352942382812  10.3991596582031 3.48945883086468  10.3991596582031 4.31092438476562  C 10.3991596582031 5.13238993866657  9.73323025116657 5.79831934570313  8.91176469726562 5.79831934570313  C 8.09029914336468 5.79831934570313  7.42436973632813 5.13238993866657  7.42436973632813 4.31092438476562  Z " fill-rule="nonzero" fill="#ffffff" stroke="none" transform="matrix(1 0 0 1 58 184 )" />
    </g>
  </defs>
  <g transform="matrix(1 0 0 1 -53 -179 )">
    <use xlink:href="#widget122" filter="url(#filter121)" />
    <use xlink:href="#widget122" />
  </g>
</svg>