<?xml version="1.0" encoding="utf-8"?>
<svg version="1.1" xmlns:xlink="http://www.w3.org/1999/xlink" width="39px" height="40px" xmlns="http://www.w3.org/2000/svg">
  <defs>
    <filter x="293px" y="180px" width="39px" height="40px" filterUnits="userSpaceOnUse" id="filter135">
      <feOffset dx="0" dy="0" in="SourceAlpha" result="shadowOffsetInner" />
      <feGaussianBlur stdDeviation="2.5" in="shadowOffsetInner" result="shadowGaussian" />
      <feComposite in2="shadowGaussian" operator="atop" in="SourceAlpha" result="shadowComposite" />
      <feColorMatrix type="matrix" values="0 0 0 0 0  0 0 0 0 0  0 0 0 0 0  0 0 0 0.2 0  " in="shadowComposite" />
    </filter>
    <g id="widget136">
      <path d="M 28.3293440265214 19.1222154526969  L 28.2700204543586 18.6289147022301  L 28.2394643277138 18.5372447806313  C 28.2259003885691 18.5205748588065  27.9054039134457 17.9656042159474  27.3084713774671 17.7706335427067  L 27.2643811523437 17.7423034646671  L 27.1406064812911 17.6973034648027  C 26.6488167007374 17.5234958511878  26.1124977586717 17.5135406052957  25.6143802436266 17.6689733867631  C 25.3745000393988 17.2430155055013  24.9654946196416 16.9340016055943  24.4849663003701 16.8156726959747  C 24.0270715933388 16.620702022734  23.3250260115132 16.5923719446944  22.6992962191612 16.8006726960199  C 22.6059882421875 16.8306726959295  22.5466646402138 16.8590027739691  22.472048099301 16.8923718851967  C 22.4567849414062 16.8923718851967  22.4415217835115 16.9073425882766  22.412694686472 16.9073425882766  C 22.2015925497853 16.74808798966  21.9769106952914 16.6070186510748  21.7411456095806 16.4857020231408  C 21.2239273303865 16.30570205298  20.735536118421 16.3657020235023  20.4150098324424 16.394032101542  L 20.4150098324424 14.1325186415591  C 20.4150098324424 13.2792179507707  19.8977915532484 12.6026066832781  19.1041670240543 12.3492766059164  C 18.8134443515632 12.2338963432529  18.5019009939753 12.1777611663957  18.1884372317023 12.1842766064136  C 17.8221214720395 12.1842766064136  17.5762415676398 12.2426066843628  17.2845721895559 12.3509465277864  C 16.4468275945724 12.6642472787955  15.9584364124178 13.3242179213383  15.9584364124178 14.1508291883789  L 15.9584364124178 19.5671763302625  C 15.7905416755757 19.5372056272278  15.6379399372944 19.5372056272278  15.5158346741365 19.5372056272278  C 15.2241652960526 19.5372056272278  14.9189021679687 19.5971763301721  14.6475936040296 19.7038462517257  C 13.808149790296 19.9738462216153  13.287533073602 20.647117645368  13.287533073602 21.5037581798963  L 13.287533073602 24.8952227204589  L 13.3468864864309 25.7818339873188  C 13.4554278104441 26.4401347079916  13.6826759303043 26.7267753028311  14.4016838887747 27.5983865404392  L 16.185684532278 29.623269171057  C 16.2941960454358 29.7282691707406  16.4909476603618 29.8799097659868  16.7520907524671 29.8799097659868  C 16.9216548972039 29.8799097659868  17.1472037983141 29.8799097659868  17.3930837027138 29.7432691706954  C 17.7729634015214 29.4732692008058  17.8509784097451 28.9932692315489  17.5626776284951 28.6633278555899  L 17.5626776284951 28.6483278556351  L 15.7837746114309 26.6234452250174  C 15.0986615953947 25.8435038797111  15.0681352796053 25.8001738017167  15.0681353094161 24.5985625943997  L 15.0681353094161 21.4487386781089  C 15.0642775493759 21.2854792462783  15.17075181137 21.1393914747481  15.3292783717105 21.0904379272353  C 15.45462637335 21.0583934068944  15.5868301082862 21.0636136279915  15.7091580705181 21.1054379271901  C 15.817669583676 21.1337680052298  15.9364061903783 21.2120785518688  15.9364061903783 21.4637386780637  L 15.9364061903783 24.163591951179  C 15.9364061903783 24.5835626237417  16.3315192362253 24.9285332965305  16.8046472604852 24.9285332672336  C 17.2794745333059 24.9285332672336  17.6728883305921 24.5835625944449  17.672888360403 24.161922029309  L 17.672888360403 14.1291787978192  C 17.672888360403 13.9491788276584  17.7661963373766 13.8291788280199  17.9340314226974 13.7708780469456  C 17.9934146463816 13.7541788282459  18.0866630016447 13.740878047036  18.254557708676 13.7541788282459  L 18.3139111215049 13.7708780469456  C 18.4665427004523 13.8291788280199  18.5411592413651 13.9491787983615  18.5411592413651 14.1291787978192  L 18.5411592413651 20.1904965822906  C 18.5411592413651 20.6104672548534  18.9210091293174 20.9554379276421  19.4094003412829 20.9554379276421  C 19.8825283953536 20.9554379276421  20.2776712222451 20.6104672548534  20.2776712222451 20.1888266604207  L 20.2776712222451 18.3289440293058  C 20.2776712222451 18.150613981015  20.3522877929687 18.0289440595066  20.5235511266447 17.9706432784322  C 20.6287852999732 17.9481214564227  20.737109513496 17.9430417231532  20.8440476315789 17.9556139816025  L 20.903401014597 17.9706139815573  C 21.0560325935444 18.0289440595066  21.1306491344572 18.1506139517181  21.1306491642681 18.3289147324309  L 21.1306491642681 20.1904965822906  C 21.1306491642681 20.6104672548534  21.5104990522204 20.9554379276421  21.998890234375 20.9554379276421  C 22.4737175071957 20.9554379276421  22.8671611153372 20.6104672548534  22.867161145148 20.1888266604207  L 22.867161145148 18.555584624326  C 22.867161145148 18.4222838434777  22.9264847471217 18.3005846543912  23.0791162962582 18.2122838734073  C 23.1414096473962 18.2119869689966  23.203250036588 18.2018579381143  23.2622741611842 18.1822838734977  C 23.3402891694079 18.1689244985379  23.4149057401316 18.1689244985379  23.4895223108553 18.1689244985379  L 23.5641388815789 18.1972838734525  C 23.7913870014391 18.2739244982216  23.8252819438734 18.4205846247328  23.8252819438734 18.5422545462412  L 23.8252819438734 20.1754965823358  C 23.8252819438734 20.5954672548986  24.2051616426809 20.9404379276873  24.6935528248355 20.9404379276873  C 25.166651068051 20.9404379276873  25.5617938949424 20.5954672548986  25.5617939247533 20.1738266604659  L 25.5617939247533 19.4988267503903  C 25.5617939247533 19.3354966727574  25.6974333162007 19.1988267805911  25.807673829153 19.1405259995167  C 25.8670272419819 19.1121959214771  26.0196587911184 19.1255259995619  26.1417640542763 19.1405259995167  L 26.22147828125 19.1555259994715  C 26.3571176726974 19.2138267805459  26.4334334323602 19.3354966727574  26.4334334323602 19.4988267503903  L 26.4334334323602 25.8134746122235  L 25.5312676089638 28.9182692317749  L 25.5312676089638 29.0532692313681  C 25.5312676089638 29.4115699822417  25.8365307370477 29.7415699519505  26.2469069407895 29.8199097954645  C 26.3062305427632 29.8199097954645  26.3554184539474 29.8332398735493  26.4148016478207 29.8332398735493  C 26.8285762890625 29.8332398735493  27.1931630191201 29.6099098253941  27.3169674712171 29.2615992795686  L 28.2174341056743 26.0684452852834  L 28.3293440265214 19.122186155822  Z M 7.08408152296011 5.20287316192087  C 7.08980293607936 5.20287316192087  7.09552421423233 5.20292777995977  7.10124454769737 5.20303700830758  L 20.7474008388158 5.20303700830758  C 21.249355989926 5.20303700830758  21.6478674434622 5.59133775909075  21.6478674434622 6.08964827516745  C 21.6478943424527 6.09243012742145  21.6479077921757 6.09521208957582  21.6479077921757 6.09799406743045  C 21.6479077921757 6.58306075127137  21.2477848788239 6.97628499251852  20.7542082516741 6.97628499251852  C 20.7519390893684 6.97628499251852  20.7496699352916 6.97627649919423  20.7474008388158 7  L 7.10124454769737 7  C 7.09954672261772 6.97626900453824  7.09784887350084 6.97627375047093  7.09615102094999 6.97627375047093  C 6.60163594119789 6.97627375047093  6.20075226169834 6.58230185973601  6.20075226169834 6.09631290351289  C 6.20075226169834 6.09409133683679  6.20076082221061 6.09186977812575  6.20077794305099 6.08964827516745  C 6.20064418145353 6.08348124425351  6.20057729495846 6.07731298758382  6.20057729495846 6.07114455578912  C 6.20057729495846 5.59161150624136  6.59613561142377 5.20287316192087  7.08408152296011 5.20287316192087  Z M 6.20077794305099 9.98941353685487  C 6.20077794305099 9.49611278638807  6.59419177014803 9.10280229929187  7.10124454769737 9.10280229929187  L 20.7474008388158 9.10280229929187  C 21.249355989926 9.10280229929187  21.6478674434622 9.49110305007504  21.6478674434622 9.98941353685487  C 21.6478945478016 9.99220598656836  21.6479081002025 9.99499854744287  21.6479081002025 9.99779112419802  C 21.6479081002025 10.4828578080389  21.2477851868507 10.8760820492861  20.7542085597008 10.8760820492861  C 20.7508064237085 10.8760820492861  20.747404315449 10.8760629573521  20.7440024013158 11  L 7.10124454769737 11  C 7.09954672261763 10.8760342662257  7.09784887350093 10.8760390121583  7.09615102094999 10.8760390121583  C 6.60163594119789 10.8760390121583  6.20075226169834 10.4820671214234  6.20075226169834 9.99607816520031  C 6.20075226169834 9.99385659852421  6.20076082221061 9.99163503981317  6.20077794305099 9.98941353685487  Z M 7.10124454769737 13.0042374828493  L 7.10124454769737 13.0025675609793  L 13.0246609817023 13.0025675609793  C 13.5266161328125 13.0025675609793  13.9268268050987 13.3908976086374  13.9268268050987 13.8891787985423  C 13.9268439830899 13.8914040060193  13.9268525721781 13.8936292695288  13.9268525721781 13.8958545410429  C 13.9268525721781 14.381843497266  13.5259688926786 14.7758153880009  13.0314538129265 14.7758153880009  C 13.0291895114167 14.7758153880009  13.0269252180524 14.7758069470739  13.0246609817023 14.7757900654022  L 7.10124454769737 14.7757900654022  C 6.61867054112674 14.7551934743617  6.23822241316171 14.3647145766296  6.23822241316171 13.8900137741257  C 6.23822241316171 13.4153129716218  6.61867054112674 13.0248340738897  7.10124454769737 13.0042374828493  Z M 11.0846899136513 29.9999097656253  L 11.0863593215461 29.9982691406302  L 4.83904800472862 29.9982691406302  C 2.77623292212838 29.9575440570309  1.12366441892981 28.3060628758  1.11674570106908 26.2784159584788  L 1.11674570106908 3.73315434672075  C 1.1260707134074 1.66806123458386  2.83265224637561 -0.000923471032931301  4.93399554893092 0  L 23.4013418009868 0  C 25.5041397306743 0  27.2168924599095 1.66658226310363  27.2168924599095 3.719794971761  L 27.2168924599095 13.4692081552764  C 27.2170409769755 13.4764337916296  27.2171152411884 13.4836607177144  27.2171152411884 13.4908878280627  C 27.2171152411884 14.0837547749244  26.7280698008173 14.5643683959099  26.1248016776316 14.5643683959099  C 25.530131204388 14.5643683959099  25.0447206714611 14.0968658390807  25.0327108953536 13.5125675008489  L 25.0327108953536 3.719794971761  C 25.0233893305324 2.84234898964646  24.2924908160226 2.13822641373077  23.3996425822368 2.14655293548559  L 4.93229633018092 2.14655293548559  C 4.92718495742881 2.1465052698742  4.92207338332913 2.14648143666617  4.91696178046501 2.14648143666617  C 4.03033766931877 2.14648143666617  3.30926095872789 2.84849597736362  3.30092723581415 3.719794971761  L 3.30092723581415 26.2651444741438  C 3.30092723581415 27.1367264148771  4.03522816303454 27.8400271354143  4.93399554893092 27.8400271354143  L 11.0846899136513 27.8400271354143  C 11.6816224198191 27.8400271354143  12.1700136317845 28.3183571828012  12.1700136317845 28.9199684505198  C 12.1702440680461 28.9288829413672  12.1703593001138 28.9377999487284  12.1703593001138 28.9467173156414  C 12.1703593001138 29.5284284370057  11.6905161025427 29.9999984745772  11.0985995211253 29.9999984745772  C 11.0939628388594 29.9999984745772  11.0893262054088 29.9999689043039  11.0846899136513 29.9999097656253  Z " fill-rule="nonzero" fill="#0085ff" stroke="none" transform="matrix(1 0 0 1 298 185 )" />
    </g>
  </defs>
  <g transform="matrix(1 0 0 1 -293 -180 )">
    <use xlink:href="#widget136" filter="url(#filter135)" />
    <use xlink:href="#widget136" />
  </g>
</svg>