<?xml version="1.0" encoding="utf-8"?>
<svg version="1.1" xmlns:xlink="http://www.w3.org/1999/xlink" width="29px" height="29px" xmlns="http://www.w3.org/2000/svg">
  <defs>
    <filter x="64px" y="333px" width="29px" height="29px" filterUnits="userSpaceOnUse" id="filter141">
      <feOffset dx="0" dy="0" in="SourceAlpha" result="shadowOffsetInner" />
      <feGaussianBlur stdDeviation="2.5" in="shadowOffsetInner" result="shadowGaussian" />
      <feComposite in2="shadowGaussian" operator="atop" in="SourceAlpha" result="shadowComposite" />
      <feColorMatrix type="matrix" values="0 0 0 0 0  0 0 0 0 0  0 0 0 0 0  0 0 0 0.2 0  " in="shadowComposite" />
    </filter>
    <g id="widget142">
      <path d="M 11.5680042613636 3.93359375  L 4.20010653409091 10.8865411931818  L 2.49307528409091 12.4012784090909  C 2.40198863636364 12.4012784090909  2.31427556818182 12.580078125  2.31427556818182 12.7588778409091  L 2.31427556818182 12.8465909090909  L 0.786044034090909 17.3908025568182  C 0.694957386363636 17.5696022727273  0.786044034090909 17.6573153409091  0.877130681818182 17.7484019886364  C 0.968217329545454 17.8361150568182  1.14701704545455 17.8361150568182  1.23810369318182 17.8361150568182  L 5.91051136363636 16.4090909090909  L 6.00159801136364 16.4090909090909  C 6.18039772727273 16.4090909090909  6.271484375 16.2302911931818  6.36257102272727 16.2302911931818  L 15.3464133522727 7.58380681818182  L 11.5680042613636 3.93359375  Z M 17.2322443181818 5.53604403409091  C 17.6775568181818 5.18181818181818  17.6775568181818 4.55770596590909  17.4110440340909 4.20010653409091  L 14.8943536931818 1.79474431818182  C 14.5333806818182 1.43714488636364  13.9058948863636 1.52823153409091  13.4572088068182 1.88245738636364  L 12.1077769886364 3.21839488636364  L 15.8828125 6.87198153409091  L 17.2322443181818 5.53604403409091  Z " fill-rule="nonzero" fill="#ffffff" stroke="none" transform="matrix(1 0 0 1 69 338 )" />
    </g>
  </defs>
  <g transform="matrix(1 0 0 1 -64 -333 )">
    <use xlink:href="#widget142" filter="url(#filter141)" />
    <use xlink:href="#widget142" />
  </g>
</svg>