<?xml version="1.0" encoding="utf-8"?>
<svg version="1.1" xmlns:xlink="http://www.w3.org/1999/xlink" width="30px" height="30px" xmlns="http://www.w3.org/2000/svg">
  <g transform="matrix(1 0 0 1 -175 -185 )">
    <path d="M 29.484375 21.45703125  C 29.484375 20.3115234375  29.26171875 19.201171875  28.8193359375 18.1552734375  C 28.3916015625 17.14453125  27.779296875 16.236328125  27 15.4599609375  C 26.220703125 14.6806640625  25.3125 14.068359375  24.3017578125 13.640625  C 23.255859375 13.1982421875  22.142578125 12.97265625  21 12.97265625  C 19.857421875 12.97265625  18.744140625 13.1982421875  17.6982421875 13.640625  C 16.6875 14.068359375  15.779296875 14.6806640625  15 15.4599609375  C 14.220703125 16.2392578125  13.6083984375 17.1474609375  13.1806640625 18.1552734375  C 12.73828125 19.201171875  12.5126953125 20.3115234375  12.5126953125 21.45703125  C 12.5126953125 22.6025390625  12.73828125 23.712890625  13.1806640625 24.7587890625  C 13.6083984375 25.76953125  14.220703125 26.677734375  15 27.4541015625  C 15.779296875 28.2333984375  16.6875 28.845703125  17.6982421875 29.2734375  C 18.744140625 29.7158203125  19.8544921875 29.94140625  21 29.94140625  C 22.1455078125 29.94140625  23.255859375 29.7158203125  24.3017578125 29.2734375  C 24.333984375 29.2587890625  24.369140625 29.244140625  24.4013671875 29.2294921875  C 24.8232421875 29.0478515625  25.2333984375 28.83984375  25.6171875 28.5849609375  C 25.7548828125 28.494140625  25.892578125 28.39453125  26.0185546875 28.2890625  C 26.2236328125 28.1220703125  26.2529296875 27.8203125  26.0859375 27.6123046875  C 25.9189453125 27.4072265625  25.6142578125 27.375  25.4091796875 27.5419921875  C 25.318359375 27.615234375  25.224609375 27.6826171875  25.130859375 27.7470703125  C 24.2021484375 28.3798828125  23.0712890625 28.751953125  21.9638671875 28.904296875  C 21.64453125 28.9482421875  21.3193359375 28.9716796875  20.9970703125 28.9716796875  C 18.9873046875 28.9716796875  17.09765625 28.189453125  15.6796875 26.7685546875  C 14.26171875 25.3564453125  13.4765625 23.466796875  13.4765625 21.45703125  C 13.4765625 19.447265625  14.2587890625 17.560546875  15.6796875 16.1396484375  C 17.1005859375 14.71875  18.990234375 13.9365234375  20.9970703125 13.9365234375  C 23.0068359375 13.9365234375  24.896484375 14.71875  26.3173828125 16.1396484375  C 27.73828125 17.560546875  28.5205078125 19.4501953125  28.5205078125 21.45703125  C 28.5205078125 21.9990234375  28.4619140625 22.5322265625  28.3505859375 23.05078125  C 28.3447265625 23.068359375  28.341796875 23.0830078125  28.3388671875 23.1005859375  C 28.3388671875 23.1005859375  28.3359375 23.109375  28.3359375 23.1240234375  C 28.236328125 23.5634765625  28.0986328125 23.994140625  27.9228515625 24.4072265625  C 27.9111328125 24.43359375  27.90234375 24.4541015625  27.8935546875 24.4775390625  C 27.8466796875 24.5830078125  27.796875 24.6884765625  27.7412109375 24.796875  C 27.62109375 25.0341796875  27.7119140625 25.32421875  27.94921875 25.4443359375  C 28.01953125 25.4794921875  28.095703125 25.4970703125  28.1689453125 25.4970703125  C 28.3447265625 25.4970703125  28.51171875 25.400390625  28.5966796875 25.236328125  C 29.0537109375 24.3427734375  29.2353515625 23.54296875  29.279296875 23.3232421875  C 29.4169921875 22.716796875  29.484375 22.0927734375  29.484375 21.45703125  Z M 17.7626953125 19.171875  C 17.37890625 19.171875  17.068359375 19.4853515625  17.068359375 19.869140625  C 17.068359375 20.2529296875  17.37890625 20.5634765625  17.7626953125 20.5634765625  L 24.1845703125 20.5634765625  C 24.439453125 20.5634765625  24.673828125 20.4228515625  24.796875 20.2001953125  C 24.919921875 19.974609375  24.908203125 19.7021484375  24.7705078125 19.48828125  L 23.1708984375 17.021484375  C 22.962890625 16.69921875  22.5322265625 16.6083984375  22.20703125 16.81640625  C 21.884765625 17.0244140625  21.7939453125 17.455078125  22.001953125 17.7802734375  L 22.904296875 19.171875  L 17.7626953125 19.171875  Z M 24.234375 23.7421875  C 24.62109375 23.7421875  24.931640625 23.4287109375  24.931640625 23.044921875  C 24.931640625 22.6611328125  24.62109375 22.34765625  24.234375 22.34765625  L 17.8154296875 22.34765625  C 17.560546875 22.34765625  17.326171875 22.48828125  17.203125 22.7109375  C 17.080078125 22.93359375  17.091796875 23.208984375  17.2294921875 23.4228515625  L 18.8291015625 25.8896484375  C 18.9609375 26.0947265625  19.1865234375 26.2060546875  19.412109375 26.2060546875  C 19.541015625 26.2060546875  19.6728515625 26.1708984375  19.7900390625 26.0947265625  C 20.1123046875 25.88671875  20.203125 25.4560546875  19.9951171875 25.1337890625  L 19.0927734375 23.7421875  L 24.234375 23.7421875  Z M 9.7822265625 19.9482421875  L 6.3017578125 19.9482421875  C 5.91796875 19.9482421875  5.6044921875 20.2587890625  5.6044921875 20.6455078125  C 5.6044921875 21.0322265625  5.9150390625 21.3427734375  6.3017578125 21.3427734375  L 9.7822265625 21.3427734375  C 10.166015625 21.3427734375  10.4765625 21.0322265625  10.4765625 20.6455078125  C 10.4765625 20.2587890625  10.166015625 19.9482421875  9.7822265625 19.9482421875  Z M 20.4375 9  C 20.8212890625 8.578125  21.1318359375 8.267578125  21.1318359375 7.8837890625  C 21.1318359375 7.5  20.8212890625 7.189453125  20.4375 7.189453125  L 6.01171875 7.189453125  C 5.6279296875 7.189453125  5.3173828125 7.5  5.3173828125 7.8837890625  C 5.3173828125 8.267578125  5.6279296875 8.578125  6.01171875 9  L 20.4375 9  Z M 12.7294921875 26.8505859375  C 12.732421875 26.3525390625  12.3310546875 25.9541015625  11.8359375 25.9541015625  L 8.5810546875 25.9541015625  C 8.490234375 25.9541015625  8.3994140625 25.96875  8.3173828125 25.9951171875  L 3.6650390625 25.9951171875  C 2.9150390625 25.9951171875  2.3056640625 25.3857421875  2.3056640625 24.6357421875  L 2.3056640625 3.2080078125  C 2.3056640625 2.4580078125  2.9150390625 1.8486328125  3.6650390625 2  L 22.9951171875 2  C 23.7451171875 1.8486328125  24.3544921875 2.4580078125  24.3544921875 3.2080078125  L 24.3544921875 11.384765625  C 24.3544921875 11.8798828125  24.755859375 12.2783203125  25.248046875 12.2783203125  C 25.7109375 12.2783203125  26.091796875 11.9267578125  26.138671875 11.4755859375  L 26.14453125 11.4755859375  L 26.14453125 3.2080078125  C 26.1416015625 1.470703125  24.7294921875 0.05859375  22.9921875 0  L 3.6650390625 0  C 1.927734375 0.05859375  0.515625 1.470703125  1 3.2080078125  L 1 24.6357421875  C 0.515625 26.373046875  1.927734375 27.78515625  3.6650390625 27.78515625  L 9.0205078125 27.744140625  L 11.8359375 27.744140625  C 12.3310546875 27.744140625  12.7294921875 27.3427734375  12.7294921875 26.8505859375  Z M 13.869140625 14.7802734375  C 14.2529296875 14.7802734375  14.5634765625 14.4697265625  14.5634765625 14.0859375  C 14.5634765625 13.7021484375  14.2529296875 13.3916015625  13.869140625 13.3916015625  L 6.01171875 13.3916015625  C 5.6279296875 13.3916015625  5.3173828125 13.7021484375  5.3173828125 14.0859375  C 5.3173828125 14.4697265625  5.6279296875 14.7802734375  6.01171875 14.7802734375  L 13.869140625 14.7802734375  Z " fill-rule="nonzero" fill="#ffffff" stroke="none" transform="matrix(1 0 0 1 175 185 )" />
  </g>
</svg>