<?xml version="1.0" encoding="utf-8"?>
<svg version="1.1" xmlns:xlink="http://www.w3.org/1999/xlink" width="29px" height="28px" xmlns="http://www.w3.org/2000/svg">
  <g transform="matrix(1 0 0 1 -295 -327 )">
    <path d="M 27.004415922619 5.754  L 27.6258444940476 0  L 21.9639397321429 0.63  L 23.8282254464286 2.52  L 17.6829873511905 10.136  L 11.3029873511905 4.158  C 10.8748921130952 3.752  10.1982254464286 3.752  9.75632068452381 4.144  L 0.379654017857143 12.726  C -0.0898697916666667 13.16  -0.131298363095238 13.902  0.296796875 14.378  C 0.517749255952381 14.63  0.835368303571429 14.756  1.15298735119048 14.756  C 1.42917782738095 14.756  1.70536830357143 14.658  1.92632068452381 14.462  L 10.5158444940476 6.594  L 17.0201302083333 12.684  C 17.2548921130952 12.908  17.5725111607143 13.006  17.8763206845238 12.992  C 18.1939397321429 12.964  18.4839397321429 12.81  18.6910825892857 12.572  L 25.4577492559524 4.186  L 27.004415922619 5.754  Z M 4.42584449404762 27.16  C 4.42584449404762 27.622  4.05298735119047 28  3.59727306547619 28  L 0.835368303571427 28  C 0.379654017857142 28  0.00679687499999872 27.622  0.00679687499999872 27.16  L 0.00679687499999872 17.64  C 0.00679687499999872 17.178  0.379654017857142 16.8  0.835368303571427 16.8  L 3.59727306547619 16.8  C 4.05298735119048 16.8  4.42584449404762 17.178  4.42584449404762 17.64  L 4.42584449404762 27.16  Z " fill-rule="nonzero" fill="#ffffff" stroke="none" transform="matrix(1 0 0 1 295 327 )" />
  </g>
</svg>