<?xml version="1.0" encoding="utf-8"?>
<svg version="1.1" xmlns:xlink="http://www.w3.org/1999/xlink" width="37px" height="39px" xmlns="http://www.w3.org/2000/svg">
  <defs>
    <filter x="48px" y="181px" width="37px" height="39px" filterUnits="userSpaceOnUse" id="filter127">
      <feOffset dx="0" dy="0" in="SourceAlpha" result="shadowOffsetInner" />
      <feGaussianBlur stdDeviation="2.5" in="shadowOffsetInner" result="shadowGaussian" />
      <feComposite in2="shadowGaussian" operator="atop" in="SourceAlpha" result="shadowComposite" />
      <feColorMatrix type="matrix" values="0 0 0 0 0  0 0 0 0 0  0 0 0 0 0  0 0 0 0.2 0  " in="shadowComposite" />
    </filter>
    <g id="widget128">
      <path d="M 26 4.55714286523438  C 26.3754310112133 2.31226058602162  24.4945609094631 0.494086154329732  22.1722688964844 0.48739495703125  L 18.9201680566406 0.48739495703125  L 18.9201680566406 2.64411765039063  L 22.1722688964844 2.64411765039063  C 23.2623741739765 2.65076622819802  24.1443826589358 3.50337443032536  24 4.55714286523438  L 24 24.9302520917969  C 24.1443826589358 25.9840205267059  23.2623741739765 26.8366287288332  22.1722688964844 26.8432773066406  L 15.3907562988281 26.8432773066406  L 15.3907562988281 29  L 22.1722688964844 29  C 24.4945609094631 28.9933088027015  26.3754310112133 27.1751343710096  26 24.9302520917969  L 26 4.55714286523438  Z M 4.82773110351562 26.8432773066406  C 3.73270648028973 26.8432985078471  2.84306499663121 25.9887546932544  3 24.9302520917969  L 3 4.55714286523438  C 2.84306499663121 3.49864026377685  3.73270648028973 2.64409644918413  4.82773110351562 2.64411765039063  L 8.14285713867188 2.64411765039063  L 8.14285713867188 0.48739495703125  L 4.82773110351562 0.48739495703125  C 2.5005180386351 0.487384934116431  0.61198892449392 2.30751359207569  1 4.55714286523438  L 1 24.9302520917969  C 0.61196394972419 27.1751343710096  2.49283405147441 28.9933088027015  4.81512606445313 29  L 11.6596638574219 29  L 11.6596638574219 26.8432773066406  L 4.82773110351562 26.8432773066406  Z " fill-rule="nonzero" fill="#0085ff" stroke="none" transform="matrix(1 0 0 1 53 186 )" />
    </g>
  </defs>
  <g transform="matrix(1 0 0 1 -48 -181 )">
    <use xlink:href="#widget128" filter="url(#filter127)" />
    <use xlink:href="#widget128" />
  </g>
</svg>