<?xml version="1.0" encoding="utf-8"?>
<svg version="1.1" xmlns:xlink="http://www.w3.org/1999/xlink" width="21px" height="19px" xmlns="http://www.w3.org/2000/svg">
  <g transform="matrix(1 0 0 1 -303 -336 )">
    <path d="M 5 18.1857142857143  C 4.9939599609375 18.6335714285714  4.6395849609375 19  4.2064599609375 19  L 1.5814599609375 19  C 1.1483349609375 19  0.793959960937499 18.6335714285714  1 18.1857142857143  L 1 3.52857142857143  C 0.793959960937499 3.08071428571429  1.1483349609375 2.71428571428571  1.5814599609375 2.71428571428571  L 4.2064599609375 2.71428571428571  C 4.6395849609375 2.71428571428571  4.9939599609375 3.08071428571429  5 3.52857142857143  L 5 18.1857142857143  Z M 12 18.1857142857143  C 12.3439599609375 18.6335714285714  11.9895849609375 19  11.5564599609375 19  L 8.9314599609375 19  C 8.4983349609375 19  8.1439599609375 18.6335714285714  8.1439599609375 18.1857142857143  L 8.1439599609375 7.6  C 8.1439599609375 7.15214285714286  8.4983349609375 6.78571428571428  8.9314599609375 6.78571428571428  L 11.5564599609375 6.78571428571428  C 11.9895849609375 6.78571428571428  12.3439599609375 7.15214285714285  12 7.6  L 12 18.1857142857143  Z M 19.6939599609375 18.1857142857143  C 19.6939599609375 18.6335714285714  19.3395849609375 19  18.9064599609375 19  L 16.2814599609375 19  C 15.8483349609375 19  15.4939599609375 18.6335714285714  15.4939599609375 18.1857142857143  L 15.4939599609375 0.814285714285715  C 15.4939599609375 0.366428571428571  15.8483349609375 0  16.2814599609375 0  L 18.9064599609375 0  C 19.3395849609375 0  19.6939599609375 0.366428571428573  19.6939599609375 0.814285714285716  L 19.6939599609375 18.1857142857143  Z " fill-rule="nonzero" fill="#ffffff" stroke="none" transform="matrix(1 0 0 1 303 336 )" />
  </g>
</svg>