<?xml version="1.0" encoding="utf-8"?>
<svg version="1.1" xmlns:xlink="http://www.w3.org/1999/xlink" width="15px" height="18px" xmlns="http://www.w3.org/2000/svg">
  <g transform="matrix(1 0 0 1 -131 -522 )">
    <path d="M 8.67106119791667 17.6799982244318  C 8.54085286458333 17.24853515625  8.53271484375 16.7851118607955  8.6669921875 16.3336736505682  L 2.93782552083333 16.3336736505682  C 2.47599283854167 16.3336736505682  2.099609375 15.9641335227273  2 15.5126953125  L 2 2.16730291193182  C 2.099609375 1.7138671875  2.47599283854167 1.34432705965909  2.93782552083333 1.34432705965909  L 9.20613606770833 1.34432705965909  L 9.20613606770833 2.97230113636364  C 9.20613606770833 3.93710049715909  10.0118001302083 4.72811612215909  10.9944661458333 4.72811612215909  L 12.8824869791667 4.72811612215909  C 12.8865559895833 4.75408380681818  12.896728515625 4.77805397727273  12.896728515625 4.80601917613636  L 12.896728515625 10.2572354403409  C 13.0513509114583 10.3850763494318  13.2059733072917 10.5089222301136  13.360595703125 10.6627308238636  C 13.3809407552083 10.6847034801136  13.4033203125 10.7066761363636  13.4236653645833 10.7286487926136  C 13.519287109375 10.6807084517045  13.616943359375 10.6367631392045  13.7166341145833 10.6028053977273  C 13.9017740885417 10.5388849431818  14.0848795572917 10.5049272017045  14.2659505208333 10.4869495738636  L 14.2659505208333 4.80601917613636  C 14.2659505208333 4.76606889204545  14.2578125 4.72811612215909  14.2557779947917 4.69016335227273  C 14.2293294270833 4.22474254261364  14.0482584635417 3.78129438920455  13.726806640625 3.43372691761364  L 11.175537109375 0.669167258522727  C 10.7828776041667 0.243696732954545  10.2193196614583 0  9.63541666666667 0  L 2.93986002604167 0  C 1.72119140625 0  0.732421875 0.972789417613636  1 2.16730291193182  L 1 15.5126953125  C 0.732421875 16.7072088068182  1.72322591145833 17.6799982244318  2.93986002604167 17.6799982244318  L 8.67106119791667 17.6799982244318  Z " fill-rule="nonzero" fill="#ffffff" stroke="none" transform="matrix(1 0 0 1 131 522 )" />
  </g>
</svg>