<?xml version="1.0" encoding="utf-8"?>
<svg version="1.1" xmlns:xlink="http://www.w3.org/1999/xlink" width="20px" height="19px" xmlns="http://www.w3.org/2000/svg">
  <g transform="matrix(1 0 0 1 -108 -749 )">
    <path d="M 18.6237351190476 3.9045  L 19.0523065476191 0  L 15.1475446428571 0.4275  L 16.4332589285714 1.71  L 12.1951636904762 6.878  L 7.79516369047619 2.8215  C 7.49992559523809 2.546  7.03325892857143 2.546  6.72849702380952 2.812  L 0.261830357142857 8.6355  C -0.0619791666666667 8.93  -0.0905505952380952 9.4335  0.2046875 9.7565  C 0.357068452380952 9.9275  0.576116071428571 10.013  0.795163690476191 10.013  C 0.985639880952381 10.013  1.17611607142857 9.9465  1.32849702380952 9.8135  L 7.25230654761905 4.4745  L 11.7380208333333 8.607  C 11.8999255952381 8.759  12.1189732142857 8.8255  12.3284970238095 8.816  C 12.5475446428571 8.797  12.7475446428571 8.6925  12.8904017857143 8.531  L 17.557068452381 2.8405  L 18.6237351190476 3.9045  Z M 3.05230654761905 18.43  C 3.05230654761905 18.7435  2.79516369047619 19  2.48087797619048 19  L 0.576116071428571 19  C 0.261830357142856 19  0.00468749999999912 18.7435  0.00468749999999912 18.43  L 0.00468749999999912 11.97  C 0.00468749999999912 11.6565  0.261830357142856 11.4  0.576116071428571 11.4  L 2.48087797619048 11.4  C 2.79516369047619 11.4  3.05230654761905 11.6565  3.05230654761905 11.97  L 3.05230654761905 18.43  Z " fill-rule="nonzero" fill="#0085ff" stroke="none" transform="matrix(1 0 0 1 108 749 )" />
  </g>
</svg>