<?xml version="1.0" encoding="utf-8"?>
<svg version="1.1" xmlns:xlink="http://www.w3.org/1999/xlink" width="21px" height="11px" xmlns="http://www.w3.org/2000/svg">
  <g transform="matrix(1 0 0 1 -38 -749 )">
    <path d="M 19.9499999921875 10.2000000078125  C 19.849999984375 10.5000000078125  19.549999984375 10.750000015625  19.1999999921875 10.7499999921875  L 0.8000000078125 10.7499999921875  C 0.450000015625 10.7499999921875  0.150000015625 10.55  0.0500000078124998 10.2000000078125  C -0.0499999999999998 9.9000000078125  0 9.550000015625  0.25 9.3000000078125  L 9.4499999921875 1.2000000078125  C 9.7499999921875 0.9000000078125  10.1999999921875 0.9000000078125  10.5500000078125 1.2000000078125  L 19.75 9.3000000078125  C 20.0000000078125 9.5  20.0999999921875 9.9000000078125  19.9499999921875 10.2000000078125  Z M 10 2.9  L 2.95 9  L 17.0000000078125 9  L 10 2.9  Z " fill-rule="nonzero" fill="#0085ff" stroke="none" transform="matrix(1 0 0 1 38 749 )" />
  </g>
</svg>