<?xml version="1.0" encoding="utf-8"?>
<svg version="1.1" xmlns:xlink="http://www.w3.org/1999/xlink" width="20px" height="20px" xmlns="http://www.w3.org/2000/svg">
  <g transform="matrix(1 0 0 1 -176 -759 )">
    <path d="M 10.00001953125 0.3062109375  C 4.6369921875 0.3062109375  0.289453125 4.65376953125  0.289453125 10.016796875  C 0.289453125 15.37982421875  4.6369921875 19.72734375  10 19.72734375  C 15.3630078125 19.72734375  19.710546875 15.37982421875  19.710546875 10.016796875  C 19.710546875 4.65376953125  15.36306640625 0.3062109375  10.0000390625 0.3062109375  Z M 11.25890625 10.016796875  L 14.164296875 12.92216796875  C 14.5119140625 13.2698828125  14.5119140625 13.8334375  14.164296875 14.18107421875  C 13.8166796875 14.528671875  13.2530078125 14.528671875  12.905390625 14.18107421875  L 10.00001953125 11.27568359375  L 7.09455078125 14.1810546875  C 6.7469140625 14.52865234375  6.18337890625 14.52865234375  5.83576171875 14.1810546875  C 5.48802734375 13.83341796875  5.48802734375 13.26986328125  5.83576171875 12.9221484375  L 8.74111328125 10.016796875  L 5.8357421875 7.11140625  C 5.48802734375 6.7637890625  5.48802734375 6.20013671875  5.8357421875 5.85251953125  C 6.18337890625 5.50490234375  6.7469140625 5.50490234375  7.09453125 5.85251953125  L 10.00001953125 8.757890625  L 12.905390625 5.85251953125  C 13.2530078125 5.50490234375  13.8166796875 5.50490234375  14.164296875 5.85251953125  C 14.5119140625 6.20013671875  14.5119140625 6.7637890625  14.164296875 7.11140625  L 11.25890625 10.016796875  Z " fill-rule="nonzero" fill="#d2d2d2" stroke="none" transform="matrix(1 0 0 1 176 759 )" />
  </g>
</svg>