<?xml version="1.0" encoding="utf-8"?>
<svg version="1.1" xmlns:xlink="http://www.w3.org/1999/xlink" width="21px" height="20px" xmlns="http://www.w3.org/2000/svg">
  <g transform="matrix(1 0 0 1 -36 -556 )">
    <path d="M 20.9953921558442 11.4684129113173  L 0.00539865584415584 11.4684129113173  L 0.00539865584415584 10  L 20.9953921558442 10  L 20.9953921558442 11.4684129113173  Z M 18.591188512987 6.71946515621521  L 18.591188512987 2.72329068348794  C 18.591188512987 2.30085831243043  18.2462740714286 1.95863463896104  17.8209795584416 1.95863463896104  L 14.1492903116883 1.95863463896104  L 14.1492903116883 0.120964749536178  L 18.7507489285714 0.120964749536178  C 19.708111461039 0.120964749536178  20.4843189350649 0.888591489424861  20.4843189350649 1.83564800148423  L 20.4843189350649 6.71946515621521  L 18.591188512987 6.71946515621521  Z M 3.1780117012987 1.95863463896104  C 2.75271718831169 1.95863463896104  2.4072029025974 2.30085831243043  2.4072029025974 2.72329068348794  L 2.4072029025974 6.71946515621521  L 0.548264006493506 6.71946515621521  L 0.548264006493506 1.83564800148423  C 0.548264006493506 0.888591489424861  1.32447146103896 0.120964749536178  2.28183399350649 0.120964749536178  L 6.99846405194805 0.120964749536178  L 6.99846405194805 1.95863463896104  L 3.1780117012987 1.95863463896104  Z M 2.4072029025974 13.8461545499072  L 2.4072029025974 17.2428434434137  C 2.4072029025974 17.6646816638219  2.75271718831169 18.0069053372913  3.1780117012987 18.0069053372913  L 6.99846405194805 18.0069053372913  L 6.99846405194805 19.8505166174397  L 2.28183399350649 19.8410104  C 1.32447146103896 19.8410104  0.548264006493506 19.0733836601113  0.548264006493506 18.1263271480519  L 0.548264006493506 13.8461545499072  L 2.4072029025974 13.8461545499072  Z M 17.8209795584416 18.0069053372913  C 18.2462740714286 18.0069053372913  18.591188512987 17.6646816638219  18.591188512987 17.2428434434137  L 18.591188512987 13.8461545499072  L 20.4843189350649 13.8461545499072  L 20.4843189350649 18.1263271480519  C 20.4843189350649 19.0733836601113  19.7572992662338 19.8730938597403  18.7999367337662 19.8730938597403  L 14.1492903116883 19.8641817929499  L 14.1492903116883 18.0069053372913  L 17.8209795584416 18.0069053372913  Z " fill-rule="nonzero" fill="#ffffff" stroke="none" transform="matrix(1 0 0 1 36 556 )" />
  </g>
</svg>