<?xml version="1.0" encoding="utf-8"?>
<svg version="1.1" xmlns:xlink="http://www.w3.org/1999/xlink" width="11px" height="11px" xmlns="http://www.w3.org/2000/svg">
  <g transform="matrix(1 0 0 1 -140 -532 )">
    <path d="M 10.3017578125 7.50878906250001  C 10.422607421875 6.36226712740385  9.17958286830356 2.69959435096154  9.16615513392857 2.66240985576923  C 9.02804129464286 2.25338040865385  8.650146484375 1.97862830528846  8.22429547991072 1.97862830528846  C 8.10344587053572 1.97862830528846  7.98643275669643 2.00135216346154  7.87709263392857 2.04473407451923  C 7.80419921875 2.07365534855769  7.72555106026786 2.11703725961538  7.65265764508928 2.17074819711538  C 7.45315987723214 1.80716646634615  7.08677455357143 1.57992788461538  6.68586077008929 1.57992788461538  C 6.55925641741071 1.57992788461538  6.42881556919643 1.60471754807692  6.29837472098214 1.654296875  C 6.09504045758929 1.73279747596154  5.91856166294643 1.87327223557692  5.78620256696429 2.05919471153846  C 5.57903180803571 1.84641676682692  5.30472237723214 1.72866586538462  5.01506696428571 1.72866586538462  C 4.88846261160714 1.72866586538462  4.75802176339285 1.75345552884616  4.62758091517857 1.80303485576923  C 4.34176199776785 1.91458834134616  4.09047154017857 2.13356370192308  3.94276646205357 2.38972355769231  C 3.92166573660714 2.41864483173077  3.90248325892857 2.44756610576923  3.88521902901785 2.47648737980769  C 3.64735630580357 2.09844501201923  3.44210379464285 1.81749549278846  3.25795200892857 1.61917818509616  C 2.80716378348214 1.13164813701923  2.14153180803571 0.553222656250002  1.52961077008928 0.553222656250002  C 1.42027064732142 0.553222656250002  1.31476702008928 0.573880709134617  1.21118164062499 0.613131009615386  C 0.982910156249994 0.701960637019231  0.79108537946428 0.87342247596154  0.674072265624994 1.08620042067308  C 0.595424107142852 1.19155649038462  0.53595842633928 1.30930739182692  0.497593470982137 1.43738731971154  C 0.390171595982137 1.78650841346154  0.44196428571428 2.16661658653846  0.639543805803566 2.48268479567308  C 0.783412388392852 2.71198918269231  0.973318917410707 2.85039813701923  1.18048967633928 3.00120192307692  C 1.45671735491071 3.19745342548077  1.76747349330357 3.42056039663462  2.09741210937499 4.04236778846154  C 2.35445731026785 4.52370042067308  2.69206891741071 5.35415414663462  3.07763671874999 6.45109675480769  L 2.32568359374999 6.05033052884616  C 2.15112304687499 5.96356670673077  1.96505301339285 5.91811899038462  1.77514648437499 5.91811899038462  C 1.32819475446428 5.91811899038462  0.906180245535706 6.17427884615385  0.675990513392849 6.57917668269231  C 0.618443080357134 6.65974308894231  0.570486886160706 6.7465069110577  0.528285435267849 6.83946814903846  C 0.227120535714277 7.54184194711539  0.503348214285706 8.37849308894231  1.18048967633928 8.71935096153847  C 1.37806919642856 8.83090444711539  2.31801060267856 9.36181640625  3.57062639508928 9.99188701923077  L 3.80081612723213 10.1075721153846  C 4.70431082589285 10.5661808894231  5.55984933035714 10.9979341947115  6.57076590401785 10.9979341947115  C 7.05224609374999 10.9979341947115  7.53180803571428 10.9008413461538  8.03630719866071 10.7025240384615  C 8.82278878348213 10.3947190504808  9.37524414062499 9.96709735576924  9.71861049107142 9.39900090144231  C 10.1348702566964 8.79165414663462  10.2365373883928 8.10374098557693  10.3017578125 7.50878906250001  Z M 1.31093052455357 7.54803936298077  C 1.24954659598214 7.37864332932693  1.25721958705357 7.18858924278847  1.33203125 7.01919320913462  C 1.37998744419643 6.9014423076923  1.45479910714286 6.80434945913462  1.52385602678571 6.74857271634615  C 1.58523995535714 6.72998046875  1.64662388392857 6.71965144230769  1.7080078125 6.71965144230769  C 1.80775669642857 6.71965144230769  1.90366908482143 6.74444110576923  1.98615373883929 6.78988882211539  L 3.57829938616071 7.63480318509615  C 3.62241908482143 7.65752704326923  3.67037527901786 7.669921875  3.72024972098214 7.669921875  C 3.79889787946429 7.669921875  3.87370954241071 7.63893479567308  3.92742047991071 7.58728966346154  C 3.96578543526786 7.55423677884615  3.99455915178571 7.51085486778846  3.96962193080357 7.51085486778846  C 3.96962193080357 7.51085486778846  3.96578543526786 7.51292067307692  3.9638671875 7.51292067307692  L 4.05018833705357 7.455078125  C 4.14610072544643 7.36624849759615  4.18254743303571 7.22164212740385  4.11540876116071 7.01712740384615  C 3.62050083705357 5.50908954326923  3.16203962053571 4.32744891826923  2.82442801339286 3.68911508413461  C 2.43694196428571 2.95575420673077  2.03794642857143 2.66654146634615  1.74445452008929 2.45376352163461  C 1.59099469866072 2.34221003605769  1.47206333705357 2.25544621394231  1.39725167410714 2.13562950721154  C 1.31284877232143 1.99722055288461  1.28982979910714 1.84021935096154  1.33203125 1.70387620192308  C 1.372314453125 1.57579627403846  1.46055385044643 1.47870342548077  1.57948521205357 1.43118990384615  L 1.70225306919643 1.41053185096154  C 1.99382672991072 1.52621694711538  2.36404854910714 1.8154296875  2.74577985491072 2.22445913461538  C 3.24452427455357 2.76156850961538  3.87179129464286 3.99278846153846  3.99647739955357 4.24068509615385  C 4.05018833705357 4.35637019230769  4.15761021205357 4.42867337740385  4.27845982142857 4.42867337740385  L 4.38204520089286 4.39975210336539  L 4.40122767857143 4.38942307692308  L 4.49714006696429 4.36876502403846  L 4.51632254464286 4.35843599759615  C 4.66594587053571 4.28406700721154  4.73692103794643 4.10227614182692  4.68129185267857 3.93494591346154  L 4.487548828125 3.35858623798077  C 4.35135323660715 2.95575420673077  4.64676339285714 2.6748046875  4.876953125 2.58390925480769  C 4.92299107142857 2.56531700721154  4.96902901785714 2.55498798076923  5.05535016741071 2.55498798076923  C 5.07069614955357 2.55498798076923  5.08412388392857 2.55705378605769  5.10138811383929 2.55705378605769  C 5.24525669642857 2.60869891826923  5.36226981026786 2.728515625  5.4140625 2.87931941105769  L 5.69029017857143 3.6953125  C 5.73440987723214 3.82958984375  5.85525948660714 3.92048527644231  5.98953683035714 3.92048527644231  C 6.02790178571429 3.92048527644231  6.06434849330357 3.91222205528846  6.14299665178571 3.88330078125  C 6.30029296875 3.8192608173077  6.38469587053571 3.62714092548077  6.3271484375 3.45154747596154  L 6.206298828125 3.09003155048077  C 6.16409737723214 2.9598858173077  6.16793387276786 2.82147686298077  6.22164481026786 2.70166015625  C 6.27535574776786 2.57977764423077  6.36934988839286 2.48681640625  6.48636300223214 2.44136868990385  C 6.53815569196429 2.42071063701923  6.59186662946429 2.40831580528846  6.64365931919643 2.40831580528846  C 6.84123883928571 2.40831580528846  7.01771763392857 2.54259314903846  7.08485630580357 2.74297626201923  L 7.39944893973214 3.67672025240385  C 7.414794921875 3.72629957932693  7.441650390625 3.77174729567308  7.48001534598214 3.81099759615385  C 7.53948102678571 3.87710336538462  7.62388392857143 3.91428786057693  7.70828683035714 3.91428786057693  L 7.81570870535714 3.89362980769231  C 7.89435686383929 3.86264272836539  7.95765904017857 3.80066856971154  7.99410574776786 3.72010216346154  C 8.03055245535714 3.63746995192308  8.03630719866072 3.54037710336539  8.00753348214286 3.45361328125001  L 7.83489118303571 2.943359375  C 7.871337890625 2.91030649038462  7.92313058035714 2.87105618990385  8.00369698660714 2.81734525240385  C 8.04014369419643 2.80288461538462  8.08234514508928 2.79462139423077  8.12646484375 2.79462139423077  C 8.274169921875 2.79462139423077  8.41228376116071 2.8896484375  8.45448521205357 3.01772836538462  C 8.83429827008928 4.13946063701923  9.59584263392857 6.6927959735577  9.51719447544643 7.41995943509616  C 9.40785435267857 8.46112530048077  9.21219308035714 9.29984224759616  7.80419921875 9.85760967548077  C 7.38218470982143 10.0228740985577  6.98894391741071 10.1034405048077  6.59953962053571 10.1034405048077  C 5.77085658482143 10.1034405048077  5.04000418526786 9.73159555288462  4.19022042410714 9.29984224759616  L 3.96770368303571 9.18828876201923  C 2.61533900669643 8.50657301682693  1.654296875 7.94673978365385  1.640869140625 7.9384765625  C 1.48549107142857 7.85997596153847  1.36847795758929 7.7236328125  1.31093052455357 7.54803936298077  Z " fill-rule="nonzero" fill="#ffffff" stroke="none" transform="matrix(1 0 0 1 140 532 )" />
  </g>
</svg>