<?xml version="1.0" encoding="utf-8"?>
<svg version="1.1" xmlns:xlink="http://www.w3.org/1999/xlink" width="20px" height="20px" xmlns="http://www.w3.org/2000/svg">
  <g transform="matrix(1 0 0 1 -171 -651 )">
    <path d="M 19.4853940217391 0.937075407608696  C 19.4938858695652 0.909476902173913  19.5002547554348 0.884001358695652  19.5045006793478 0.85640285326087  C 19.5087466032609 0.83305027173913  19.5108695652174 0.809697690217391  19.5108695652174 0.786345108695652  C 19.5108695652174 0.760869565217391  19.5066236413043 0.737516983695652  19.5002547554348 0.712041440217391  C 19.4938858695652 0.68656589673913  19.4875169836957 0.661090353260869  19.476902173913 0.63773777173913  C 19.47265625 0.627122961956522  19.47265625 0.616508152173913  19.468410326087 0.608016304347826  C 19.4620414402174 0.595278532608696  19.4493036684783 0.586786684782609  19.4408118206522 0.576171875  C 19.4259510869565 0.554942255434782  19.4089673913043 0.533712635869565  19.3898607336957 0.516728940217391  C 19.3686311141304 0.497622282608695  19.3474014945652 0.482761548913043  19.3240489130435 0.467900815217391  C 19.3134341032609 0.461531929347826  19.3049422554348 0.448794157608696  19.2922044836957 0.444548233695652  C 19.2837126358696 0.440302309782609  19.273097826087 0.440302309782609  19.2624830163043 0.436056385869565  C 19.2370074728261 0.425441576086957  19.2115319293478 0.419072690217391  19.183933423913 0.414826766304348  C 19.1584578804348 0.410580842391304  19.135105298913 0.406334918478261  19.1117527173913 0.408457880434783  C 19.0884001358696 0.408457880434783  19.0650475543478 0.412703804347826  19.0416949728261 0.419072690217391  C 19.0140964673913 0.425441576086957  18.988620923913 0.431810461956522  18.9631453804348 0.444548233695652  C 18.9525305706522 0.448794157608696  18.9440387228261 0.448794157608696  18.9334239130435 0.453040081521739  L 0.775730298913043 10.3524116847826  C 0.739639945652174 10.3715183423913  0.712041440217391 10.4012398097826  0.684442934782609 10.4288383152174  C 0.627122961956522 10.4628057065217  0.574048913043478 10.5073879076087  0.537958559782609 10.5731997282609  C 0.433933423913043 10.7642663043478  0.503991168478261 11.0041610054348  0.695057744565217 11.1081861413044  L 5.56513247282609 13.759765625  C 5.61396059782609 13.7873641304348  5.66703464673913 13.7937330163043  5.72010869565218 13.7979789402174  L 9.86200747282609 19.4344429347826  C 9.93843410326087 19.5384680706522  10.0594429347826 19.5957880434783  10.1804517663043 19.5957880434783  C 10.2611243206522 19.5957880434783  10.3439198369565 19.5703125  10.4139775815217 19.5193614130435  C 10.4755434782609 19.4747792119565  10.5116338315217 19.4132133152174  10.5392323369565 19.3495244565217  C 10.5710767663043 19.3176800271739  10.6092900815217 19.2922044836957  10.630519701087 19.2497452445652  L 19.476902173913 0.966796875  C 19.4811480978261 0.956182065217391  19.4811480978261 0.947690217391304  19.4853940217391 0.937075407608696  Z M 5.94089673913043 13.0676800271739  L 1.68860394021739 10.7515285326087  L 16.6278872282609 2.60147758152174  L 6.26146399456522 13.226902173913  C 6.18716032608696 13.1547214673913  6.09375 13.1143851902174  5.99609375 13.1122622282609  C 5.9769870923913 13.0974014945652  5.96424932065217 13.0782948369565  5.94089673913043 13.0676800271739  Z M 17.8846807065217 2.44437839673913  L 10.1295006793478 18.4684952445652  L 6.74337635869565 13.861667798913  L 17.8846807065217 2.44437839673913  Z " fill-rule="nonzero" fill="#ffffff" stroke="none" transform="matrix(1 0 0 1 171 651 )" />
  </g>
</svg>