<?xml version="1.0" encoding="utf-8"?>
<svg version="1.1" xmlns:xlink="http://www.w3.org/1999/xlink" width="45px" height="45px" xmlns="http://www.w3.org/2000/svg">
  <defs>
    <filter x="164px" y="746px" width="45px" height="45px" filterUnits="userSpaceOnUse" id="filter163">
      <feOffset dx="0" dy="0" in="SourceAlpha" result="shadowOffsetInner" />
      <feGaussianBlur stdDeviation="2.5" in="shadowOffsetInner" result="shadowGaussian" />
      <feComposite in2="shadowGaussian" operator="atop" in="SourceAlpha" result="shadowComposite" />
      <feColorMatrix type="matrix" values="0 0 0 0 0  0 0 0 0 0  0 0 0 0 0  0 0 0 0.2 0  " in="shadowComposite" />
    </filter>
    <g id="widget164">
      <path d="M 35 17.5  C 35 27.1647115332031  27.1647115332031 35  17.5 35  C 7.83528846679688 35  0 27.1647115332031  0 17.5  C 0 7.83528846679688  7.83528846679688 0  17.5 0  C 27.1647115332031 0  35 7.83528846679688  35 17.5  Z M 25.5769230664062 16.1538461669922  L 18.8461538330078 16.1538461669922  L 18.8461538330078 9.42307693359375  C 18.8461538330078 8.67961670069727  18.2434602328965 8.07692310058594  17.5 8.07692310058594  C 16.7565397671035 8.07692310058594  16.1538461669922 8.67961670069727  16.1538461669922 9.42307693359375  L 16.1538461669922 16.1538461669922  L 9.42307693359375 16.1538461669922  C 8.67961670069727 16.1538461669922  8.07692310058594 16.7565397671035  8.07692310058594 17.5  C 8.07692310058594 18.2434602328965  8.67961670069727 18.8461538330078  9.42307693359375 18.8461538330078  L 16.1538461669922 18.8461538330078  L 16.1538461669922 25.5769230664063  C 16.1538461669922 26.3203832993027  16.7565397671035 26.9230768994141  17.5 26.9230768994141  C 18.2434602328965 26.9230768994141  18.8461538330078 26.3203832993027  18.8461538330078 25.5769230664063  L 18.8461538330078 18.8461538330078  L 25.5769230664063 18.8461538330078  C 26.3203832993027 18.8461538330078  26.9230768994141 18.2434602328965  26.9230768994141 17.5  C 26.9230768994141 16.7565397671035  26.3203832993027 16.1538461669922  25.5769230664063 16.1538461669922  Z " fill-rule="nonzero" fill="#0085ff" stroke="none" transform="matrix(1 0 0 1 169 751 )" />
    </g>
  </defs>
  <g transform="matrix(1 0 0 1 -164 -746 )">
    <use xlink:href="#widget164" filter="url(#filter163)" />
    <use xlink:href="#widget164" />
  </g>
</svg>