<?xml version="1.0" encoding="utf-8"?>
<svg version="1.1" xmlns:xlink="http://www.w3.org/1999/xlink" width="20px" height="17px" xmlns="http://www.w3.org/2000/svg">
  <g transform="matrix(1 0 0 1 -309 -681 )">
    <path d="M 2.65 0.404761904761905  L 17.35 0.404761904761905  C 18.8 0.404761904761905  20 1.61904761904762  20 3.08630952380952  L 20 13.8630952380952  C 20 15.3303571428571  18.8 16.5446428571429  17.35 16.5446428571429  L 2.65 16.5446428571429  C 1.2 16.5952380952381  0 15.3809523809524  0 13.9136904761905  L 0 3.08630952380952  C 0 1.61904761904762  1.2 0.404761904761905  2.65 0.404761904761905  Z M 17.1 15  C 17.8 14.9761904761905  18.4 14.4196428571429  18.4 13.6607142857143  L 18.4 3.28869047619048  C 18.4 2.58035714285714  17.8 1.97321428571429  17.1 2  L 2.95 2  C 2.25 1.97321428571429  1.65 2.58035714285714  2 3.28869047619048  L 2 13.7113095238095  C 1.65 14.4196428571429  2.25 15.0267857142857  2.95 15  L 17.1 15  Z M 12.65 7.84226190476191  L 16.65 7.84226190476191  C 17 7.84226190476191  17.3 8.14583333333333  17.3 8.5  C 17.3 8.85416666666667  17 9.15773809523809  16.65 9.15773809523809  L 12.65 9.15773809523809  C 12.3 9.15773809523809  12 8.85416666666667  12 8.5  C 12 8.14583333333333  12.3 7.84226190476191  12.65 7.84226190476191  Z M 12.65 10.5238095238095  L 16.65 10.5238095238095  C 17 10.5238095238095  17.3 10.827380952381  17.3 11.1815476190476  C 17.3 11.5357142857143  17 11.8392857142857  16.65 11.8392857142857  L 12.65 11.8392857142857  C 12.3 11.8392857142857  12 11.5357142857143  12 11.1815476190476  C 12 10.827380952381  12.3 10.5238095238095  12.65 10.5238095238095  Z M 16.65 5.16071428571429  L 16.65 5.11011904761905  C 17 5.11011904761905  17.3 5.41369047619048  17.3 5.76785714285714  C 17.3 6.12202380952381  17.05 6.47619047619048  16.65 6.47619047619048  L 12.65 6.47619047619048  C 12.3 6.47619047619048  12 6.17261904761905  12 5.81845238095238  C 12 5.46428571428572  12.3 5.16071428571429  12.65 5.16071428571429  L 16.65 5.16071428571429  Z M 6.2 3.94642857142857  C 6.45 3.69345238095238  6.9 3.69345238095238  7.15 3.99702380952381  L 10.5 7.38690476190476  C 10.75 7.63988095238095  10.75 8.0952380952381  10.5 8.34821428571429  C 10.25 8.60119047619048  9.85 8.60119047619048  9.55 8.34821428571429  L 7.35 6.12202380952381  L 7.35 12.547619047619  C 7.35 12.9017857142857  7.05 13.2053571428571  6.7 13.2053571428571  C 6.35 13.2053571428571  6 12.9017857142857  6 12.547619047619  L 6 6.07142857142857  L 3.8 8.29761904761905  C 3.55 8.55059523809524  3.1 8.55059523809524  2.85 8.29761904761905  C 2.6 8.04464285714286  2.6 7.58928571428571  2.85 7.33630952380952  L 6.2 3.94642857142857  Z " fill-rule="nonzero" fill="#ffffff" stroke="none" transform="matrix(1 0 0 1 309 681 )" />
  </g>
</svg>