<?xml version="1.0" encoding="utf-8"?>
<svg version="1.1" xmlns:xlink="http://www.w3.org/1999/xlink" width="7px" height="9px" xmlns="http://www.w3.org/2000/svg">
  <g transform="matrix(1 0 0 1 -45 -761 )">
    <path d="M 6.15 7.6500000078125  C 6.0499999921875 8.1000000078125  5.7 8.45  5.25 8.45  C 4.8 8.45  4.4500000078125 8.1000000078125  4.4500000078125 7.6500000078125  L 4.4500000078125 3.3999999921875  C 4.4500000078125 2.6  3.800000015625 2  3.0499999921875 2  C 2.25 2  1.65 2.6499999921875  1.65 3.3999999921875  L 1.65 7.6500000078125  C 1.65 8.1000000078125  1.3000000078125 8.45  0.850000007812501 8.45  C 0.400000007812499 8.45  0.0500000156249989 8.1000000078125  0.0499999921874998 7.6500000078125  L 0.0499999921874998 3.3999999921875  C 0.0499999921874998 1.7  1.3999999921875 0.350000000000001  3.1000000078125 0.350000000000001  C 4.8 0.350000000000001  6.15 1.7  6.15 3.3999999921875  L 6.15 7.6500000078125  Z " fill-rule="nonzero" fill="#0085ff" stroke="none" transform="matrix(1 0 0 1 45 761 )" />
  </g>
</svg>