<?xml version="1.0" encoding="utf-8"?>
<svg version="1.1" xmlns:xlink="http://www.w3.org/1999/xlink" width="15px" height="13px" xmlns="http://www.w3.org/2000/svg">
  <g transform="matrix(1 0 0 1 -113 -755 )">
    <path d="M 3.5671142578125 12.4428571428571  C 3.5671142578125 12.7492857142857  3.3139892578125 13  3.0046142578125 13  L 1.1296142578125 13  C 0.8202392578125 13  0.5671142578125 12.7492857142857  0.5671142578125 12.4428571428571  L 0.5671142578125 2.41428571428571  C 0.5671142578125 2.10785714285714  0.8202392578125 1.85714285714286  1.1296142578125 1.85714285714286  L 3.0046142578125 1.85714285714286  C 3.3139892578125 1.85714285714286  3.5671142578125 2.10785714285714  3.5671142578125 2.41428571428572  L 3.5671142578125 12.4428571428571  Z M 8.8171142578125 12.4428571428571  C 8.8171142578125 12.7492857142857  8.5639892578125 13  8.2546142578125 13  L 6.3796142578125 13  C 6.0702392578125 13  5.8171142578125 12.7492857142857  5.8171142578125 12.4428571428571  L 5.8171142578125 5.2  C 5.8171142578125 4.89357142857143  6.0702392578125 4.64285714285714  6.3796142578125 4.64285714285714  L 8.2546142578125 4.64285714285714  C 8.5639892578125 4.64285714285714  8.8171142578125 4.89357142857143  8.8171142578125 5.2  L 8.8171142578125 12.4428571428571  Z M 14 12.4428571428571  C 14.0671142578125 12.7492857142857  13.8139892578125 13  13.5046142578125 13  L 11.6296142578125 13  C 11.3202392578125 13  11.0671142578125 12.7492857142857  11 12.4428571428571  L 11 0.557142857142858  C 11.0671142578125 0.250714285714285  11.3202392578125 0  11.6296142578125 0  L 13.5046142578125 0  C 13.8139892578125 0  14.0671142578125 0.250714285714287  14 0.557142857142858  L 14 12.4428571428571  Z " fill-rule="nonzero" fill="#0085ff" stroke="none" transform="matrix(1 0 0 1 113 755 )" />
  </g>
</svg>