<?xml version="1.0" encoding="utf-8"?>
<svg version="1.1" xmlns:xlink="http://www.w3.org/1999/xlink" width="19px" height="19px" xmlns="http://www.w3.org/2000/svg">
  <g transform="matrix(1 0 0 1 -228 -523 )">
    <path d="M 18.5151579483696 9.54033627717391  C 18.5151579483696 4.55025475543478  14.4699133831522 0.505010190217391  9.47983186141304 0.505010190217391  C 4.48975033967391 0.505010190217391  0.444505774456522 4.55025475543478  0.444505774456522 9.54033627717391  C 0.444505774456522 14.530417798913  4.48975033967391 18.5756623641304  9.47983186141304 18.5756623641304  C 14.4699133831522 18.5756623641304  18.5151579483696 14.530417798913  18.5151579483696 9.54033627717391  Z M 1.89661175271739 9.54033627717391  C 1.89661175271739 5.35222061820652  5.29171620244565 1.95711616847826  9.47983186141304 1.95711616847826  C 13.6679475203804 1.95711616847826  17.0630519701087 5.35222061820652  17.0630519701087 9.54033627717391  C 17.0630519701087 13.7284519361413  13.6679475203804 17.1235563858696  9.47983186141304 17.1235563858696  C 5.29171620244565 17.1235563858696  1.89661175271739 13.7284519361413  1.89661175271739 9.54033627717391  Z " fill-rule="nonzero" fill="#ffffff" stroke="none" transform="matrix(1 0 0 1 228 523 )" />
  </g>
</svg>