<?xml version="1.0" encoding="utf-8"?>
<svg version="1.1" xmlns:xlink="http://www.w3.org/1999/xlink" width="16px" height="12px" xmlns="http://www.w3.org/2000/svg">
  <g transform="matrix(1 0 0 1 -40 -758 )">
    <path d="M 15 11.1499999927409  C 15.299999984375 11.6499999846029  14.9499999921875 12  14.4999999921875 12  L 1.5000000078125 12  C 1.0500000078125 12  0.700000015625 11.6500000080404  1 11.1999999848958  L 1 0.900000007226562  C 0.6999999921875 0.450000007519531  1.049999984375 0.100000015559895  1.5000000078125 0.0999999921223964  C 1.95000003125 0.0999999686848956  2.3 0.449999984082032  2.3 0.900000007226562  L 2.3 10.3500000010742  L 13.6500000078125 10.3500000010742  L 13.6500000078125 0.900000007226562  C 13.6500000078125 0.450000007519531  14 0.100000015559895  14.45 0.0999999921223964  C 14.9 0.0999999686848956  15.2499999921875 0.449999984082032  15 0.900000007226562  L 15 11.1499999927409  Z " fill-rule="nonzero" fill="#666666" stroke="none" transform="matrix(1 0 0 1 40 758 )" />
  </g>
</svg>