<?xml version="1.0" encoding="utf-8"?>
<svg version="1.1" xmlns:xlink="http://www.w3.org/1999/xlink" width="20px" height="15px" xmlns="http://www.w3.org/2000/svg">
  <g transform="matrix(1 0 0 1 -319 -556 )">
    <path d="M 17.0543104233171 3.56857006130002  C 19.8548073915418 6.50735464096443  20.7272813928941 10.8904321096901  19.2793979875087 14.7468185287994  L 17.5049610687023 14.0133376561416  C 17.8754345440292 13.0269073410939  18.0664571151199 11.9772781147127  18.0682743789035 10.9180483894286  C 18.0689063546854 10.8751047129191  18.0692223564975 10.83215662163  18.0692223564975 10.7892078996266  C 18.0692223564975 6.14687306900962  14.4564006432999 2.38351711776219  9.99975920590762 2.38351711776219  C 7.82559328568537 2.38351711776219  5.74341625453197 3.29740264943844  4.22484981263012 4.918174864099  C 1.92693219423421 7.30102167007277  1.23724419101357 10.8931466868469  2.47857855655795 14.0133376561416  L 0.704141637751561 14.7468185287994  C 0.240203711956167 13.5272174902935  0.00195095151520974 12.2271999153939  0.00195095151520974 10.9153404323922  C 0.00195095151520974 5.17115998985463  4.47226612362572 0.514581685572845  9.98667934846177 0.514581685572845  C 12.6384037897323 0.514581685572845  15.1812152932734 1.61335391791359  17.0543104233171 3.56857006130002  Z " fill-rule="nonzero" fill="#ffffff" stroke="none" transform="matrix(1 0 0 1 319 556 )" />
  </g>
</svg>