<?xml version="1.0" encoding="utf-8"?>
<svg version="1.1" xmlns:xlink="http://www.w3.org/1999/xlink" width="20px" height="20px" xmlns="http://www.w3.org/2000/svg">
  <g transform="matrix(1 0 0 1 -247 -749 )">
    <path d="M 19.7005208333333 9.18619791666667  C 19.7330729166667 4.47699652777778  15.3645833333333 0.68359375  10.0108506944444 0.68359375  C 4.62456597222222 0.68359375  0.288628472222222 4.47699652777778  0.288628472222222 9.15364583333333  C 0.288628472222222 12.0334201388889  1.94878472222222 14.5746527777778  4.45529513888889 16.1328125  L 4.45529513888889 18.7413194444444  C 4.45529513888889 19.0798611111111  4.69184027777778 19.31640625  4.99782986111111 19.31640625  C 5.09982638888889 19.31640625  5.20182291666667 19.2816840277778  5.26909722222222 19.2491319444444  L 7.91015625 17.4869791666667  C 8.58723958333333 17.6215277777778  9.26432291666667 17.65625  9.97612847222222 17.65625  C 15.3645833333333 17.65625  19.7005208333333 13.8628472222222  19.7005208333333 9.18619791666667  Z M 6.79253472222222 9.39019097222222  C 6.82508680555556 10  6.28472222222222 10.5425347222222  5.64019097222222 10.5425347222222  C 4.99565972222222 10.5425347222222  4.48784722222222 10  4.48784722222222 9.39019097222222  C 4.48784722222222 8.74565972222222  5.03038194444444 8.23784722222222  5.64019097222222 8.23784722222222  C 6.28472222222222 8.23784722222222  6.79253472222222 8.78038194444444  6.79253472222222 9.39019097222222  Z M 11.23046875 9.39019097222222  C 11.23046875 10  10.6879340277778 10.5425347222222  10.078125 10.5425347222222  C 9.43359375 10.5425347222222  8.92578125 10  8.92578125 9.39019097222222  C 8.92578125 8.74565972222222  9.46831597222222 8.23784722222222  10.078125 8.23784722222222  C 10.72265625 8.23784722222222  11.23046875 8.78038194444444  11.23046875 9.39019097222222  Z M 15.4991319444444 9.39019097222222  C 15.4991319444444 10  14.9913194444444 10.5425347222222  14.3467881944444 10.5425347222222  C 13.7022569444444 10.5425347222222  13.1944444444444 10  13.1944444444444 9.39019097222222  C 13.1944444444444 8.74565972222222  13.7369791666667 8.23784722222222  14.3467881944444 8.23784722222222  C 14.9913194444444 8.23784722222222  15.4991319444444 8.78038194444444  15.4991319444444 9.39019097222222  Z " fill-rule="nonzero" fill="#0085ff" stroke="none" transform="matrix(1 0 0 1 247 749 )" />
  </g>
</svg>