<?xml version="1.0" encoding="utf-8"?>
<svg version="1.1" xmlns:xlink="http://www.w3.org/1999/xlink" width="20px" height="20px" xmlns="http://www.w3.org/2000/svg">
  <g transform="matrix(1 0 0 1 -46 -680 )">
    <path d="M 16.3405797172215 1.84782608695652  L 16.3405797172215 10.0751811523438  C 16.0461956521739 10.0253623046875  15.7432065217391 10  15.4347826086957 10  C 12.4334239130435 10  10 12.4334239130435  10 15.4347826086957  C 10 16.865942021909  10.5529891304348 18.1680253693954  11.4574275433084 19.1385869565217  L 10.804347826087 19.7128623259171  C 10.6392641288666 19.8582257907904  10.3936028320936 19.8639566141292  10.2219202827785 19.7264492824389  L 8.56204710852582 18.3962862389606  C 8.38676636823843 18.2558766226524  8.13506227117827 18.2651276152786  7.97056158712636 18.4180253693954  L 6.59284419582201 19.6979166737432  C 6.42834351502997 19.850814415747  6.17663943216924 19.8600654081834  6.00135869565217 19.719655804178  L 4.33423913043478 18.384057978091  C 4.16566700051819 18.2491444005933  3.92529720240771 18.2519878918609  3.7599637610394 18.3908514563519  L 1.88586956521739 19.9637681088655  L 1.84782608695652 19.9637681088655  C 0.847310239722044 19.9637681088655  0.036231891134511 19.152689760278  0 18.1521739130435  L 0 1.84782608695652  C 0.036231891134511 0.847310239722045  0.847310239722045 0.036231891134511  1.84782608695652 0  L 14.5289855001698 0  C 14.5289855001698 0.036231891134511  14.5289855213995 0.0362318911345108  14.5289855213995 0.0362318911345108  C 15.5295013686339 0.0362318911345108  16.3405797172215 0.847310239722045  16.3405797172215 1.84782608695652  Z M 8.41485506538723 10.9057971085258  L 4.33876810886549 10.9057971085258  C 3.96357466468696 10.9057971085258  3.65942028277853 11.2099514904342  3.65942028277853 11.5851449346128  C 3.65942028277853 11.9603383787913  3.96357466468696 12.2644927606997  4.33876810886549 12.2644927606997  L 8.41485506538723 12.2644927606997  C 8.79004850956576 12.2644927606997  9.09420289147419 11.9603383787913  9.09420289147419 11.5851449346128  C 9.09420289147419 11.2099514904342  8.79004850956576 10.9057971085258  8.41485506538723 10.9057971085258  Z M 12.0380434782609 6.82971015200407  L 4.33876810886549 6.82971015200407  C 3.96357466468696 6.82971015200407  3.65942028277853 7.1338645339125  3.65942028277853 7.50905797809103  C 3.65942028277853 7.88425142226956  3.96357466468696 8.18840580417799  4.33876810886549 8.18840580417799  L 12.0380434782609 8.18840580417799  C 12.4132369224394 8.18840580417799  12.7173913043478 7.88425142226956  12.7173913043478 7.50905797809103  C 12.7173913043478 7.1338645339125  12.4132369224394 6.82971015200407  12.0380434782609 6.82971015200407  Z M 12.0380434782609 2.75362319548234  L 4.33876810886549 2.75362319548234  C 3.96357466468696 2.75362319548234  3.65942028277853 3.05777757739076  3.65942028277853 3.43297102156929  C 3.65942028277853 3.80816446574782  3.96357466468696 4.11231884765625  4.33876810886549 4.11231884765625  L 12.0380434782609 4.11231884765625  C 12.4132369224394 4.11231884765625  12.7173913043478 3.80816446574782  12.7173913043478 3.43297102156929  C 12.7173913043478 3.05777757739076  12.4132369224394 2.75362319548234  12.0380434782609 2.75362319548234  Z M 19.9637681088655 15.4347826086957  C 19.9637681088655 17.9361413043478  17.9361413043478 19.9637681088655  15.4347826086957 19.9637681088655  C 12.9334239130435 19.9637681088655  10.9057971085258 17.9361413043478  10.9057971085258 15.4347826086957  C 10.9057971085258 12.9334239130435  12.9334239130435 10.9057971085258  15.4347826086957 10.9057971085258  C 17.9361413043478 10.9057971085258  19.9637681088655 12.9334239130435  19.9637681088655 15.4347826086957  Z M 17.6689311523438 16.0249094132133  L 15.8691123259171 16.0249094132133  L 15.8691123259171 15.2255434782609  L 17.6689311523438 15.2255434782609  C 17.8365036090353 15.2377717391304  17.9963768045177 15.165307978091  18.085597826087 15.0371376740829  C 18.1745523610826 14.9121591957678  18.1745523610826 14.7445436957064  18.085597826087 14.6195652173913  C 17.999094195822 14.4913949346128  17.8365036302649 14.4189311523437  17.6689311523438 14.4311594132133  L 16.5054347826087 14.4311594132133  L 17.6662137610394 13.3999094132133  C 17.7498880138078 13.3299368206497  17.7987135641041 13.2268238949327  17.7998188476563 13.1177536302649  C 17.7977148036031 13.0087868040945  17.7490873689032 12.9059274276931  17.6662137610394 12.8351449346128  C 17.4831310074977 12.6805497460753  17.2152385577197 12.6805497460753  17.032155804178 12.8351449346128  L 15.3790760869565 14.2980072393003  L 13.7287137610394 12.8351449346128  C 13.5455173904143 12.6780631498717  13.2751347834987 12.6780631498717  13.0919384128736 12.8351449346128  C 13.008144364806 12.9052198707431  12.9593064109447 13.0085245486455  12.9583333262568 13.1177536302649  C 12.9583333262568 13.2237318911345  13.008152173913 13.3251811735734  13.0919384128736 13.3999094132133  L 14.2576992824389 14.4311594132133  L 13.1680253693954 14.4311594132133  C 12.9298007387908 14.4433876740829  12.7436594344429 14.616847826087  12.7436594132133 14.8297101520041  C 12.7436594132133 15.0421195652174  12.929347826087 15.2160326086956  13.1680253693954 15.2282608695652  L 14.967844195822 15.2282608695652  L 14.967844195822 16.0249094132133  L 13.165307978091 16.0249094132133  C 12.9189311735734 16.0249094132133  12.7173913043478 16.2033514351223  12.7173913043478 16.4234601520041  C 12.7173913043478 16.6431159561821  12.9166666737432 16.8220108695652  13.1657608695652 16.8220108695652  L 14.967844195822 16.8220108695652  L 14.967844195822 17.7513586956522  C 14.967844195822 17.9732789784307  15.1693840438179 18.1521739130435  15.4184782608696 18.1521739130435  C 15.6675724779212 18.1521739130435  15.8691123259171 17.9732789784307  15.8691123259171 17.7513586956522  L 15.8691123259171 16.821557978091  L 17.6689311523438 16.821557978091  C 17.9153079568614 16.821557978091  18.116847826087 16.6431159561821  18.116847826087 16.4230072393003  C 18.116847826087 16.2033514351223  17.9175724566916 16.0244565217391  17.6684782608696 16.0244565217391  Z " fill-rule="nonzero" fill="#ffffff" stroke="none" transform="matrix(1 0 0 1 46 680 )" />
  </g>
</svg>