<?xml version="1.0" encoding="utf-8"?>
<svg version="1.1" xmlns:xlink="http://www.w3.org/1999/xlink" width="8px" height="9px" xmlns="http://www.w3.org/2000/svg">
  <g transform="matrix(1 0 0 1 -134 -528 )">
    <path d="M 0.562890625 1.34392755681818  C 0.562890625 1.75741299715909  0.892968750000001 2.09499289772727  1.297265625 2.09499289772727  L 6.0453125 2.09499289772727  C 6.449609375 2.09499289772727  6.7796875 1.75741299715909  6.7796875 1.34392755681818  C 6.7796875 0.930442116477273  6.449609375 0.59286221590909  6.0453125 0.59286221590909  L 1.297265625 0.59286221590909  C 0.892968750000001 0.59286221590909  0.562890625 0.930442116477271  0.562890625 1.34392755681818  Z M 5.957421875 5.1591796875  C 6.027734375 4.94344815340909  6.13125 4.74169921875  6.2640625 4.55792791193182  C 6.500390625 4.18239524147727  6.855859375 3.89475319602273  7.271875 3.73495205965909  L 1.297265625 3.73495205965909  C 0.892968750000001 3.73495205965909  0.562890625 4.07253196022727  0.562890625 4.48601740056818  C 0.562890625 4.89950284090909  0.892968750000001 5.23708274147727  1.297265625 5.23708274147727  L 5.941796875 5.23708274147727  C 5.949609375 5.21111505681818  5.949609375 5.18514737215909  5.957421875 5.1591796875  Z M 7.584375 8.37917258522727  C 7.4046875 8.09752308238636  7.250390625 7.98366477272728  7.051171875 7.84783380681818  C 6.785546875 7.6640625  6.476953125 7.44833096590909  6.225 7.06480823863636  C 6.1859375 7.0048828125  6.1625 6.93896484375  6.129296875 6.87704190340909  L 1.297265625 6.87704190340909  C 0.892968750000001 6.87704190340909  0.562890625 7.21462180397727  0.562890625 7.62810724431818  C 0.562890625 8.04159268465909  0.892968750000001 8.37917258522727  1.297265625 8.37917258522727  L 7.584375 8.37917258522727  Z " fill-rule="nonzero" fill="#ffffff" stroke="none" transform="matrix(1 0 0 1 134 528 )" />
  </g>
</svg>