<?xml version="1.0" encoding="utf-8"?>
<svg version="1.1" xmlns:xlink="http://www.w3.org/1999/xlink" width="28px" height="32px" xmlns="http://www.w3.org/2000/svg">
  <g transform="matrix(1 0 0 1 -33 -109 )">
    <path d="M 0.0808984375000019 25.115859375  L 0.0808593749999993 25.1146875  C 1.446171875 21.42  5.921171875 16.9220703125  9.9470703125 16.9220703125  L 18.053515625 16.9220703125  C 22.0805859375 16.9220703125  26.183515625 21.88765625  27.548828125 25.5837890625  C 24.16265625 29.0729296875  18.8508984375 31.871171875  14.0003125 31.8646875  C 9.1496875 31.871171875  3.4670703125 28.605  0.0808984375000019 25.115859375  Z M 14.0003125 15.1129296875  C 13.9887240418683 15.1129853297453  13.9771354668508 15.1130131509882  13.9655468751361 15.1130131509882  C 9.96666010839255 15.1130131509882  6.72492187513614 11.8712749177318  6.72492187513614 7.87238815098819  C 6.72492187513614 3.8735013842446  9.96666010839255 0.631763150988186  13.9655468751361 0.631763150988186  C 17.9644336418797 0.631763150988186  21.2061718751361 3.8735013842446  21.2061718751361 7.87238815098819  C 21.21545967942 11.8616234965922  17.9892786689354 15.1032290652964  14 15.11296875  Z " fill-rule="nonzero" fill="#b4b9ce" stroke="none" transform="matrix(1 0 0 1 33 109 )" />
  </g>
</svg>