<?xml version="1.0" encoding="utf-8"?>
<svg version="1.1" xmlns:xlink="http://www.w3.org/1999/xlink" width="40px" height="40px" xmlns="http://www.w3.org/2000/svg">
  <g transform="matrix(1 0 0 1 -27 -102 )">
    <path d="M 40 20  C 40 31.0456949966159  31.0456949966159 40  20 40  C 8.95430500338414 40  0 31.0456949966159  0 20  C 0 8.95430500338414  8.95430500338414 0  20 0  C 31.0456949966159 0  40 8.95430500338414  40 20  Z M 20 38.045  C 29.9659783106967 38.045  38.045 29.9659783106967  38.045 20  C 38.045 10.0340216893033  29.9659783106967 1.955  20 1.955  C 10.0340216893033 1.955  1.955 10.0340216893033  1.955 20  C 1.954999997294 29.9661182244184  10.0338817755817 38.045000002706  19.999687497294 38.045000002706  Z " fill-rule="nonzero" fill="#b4b9ce" stroke="none" transform="matrix(1 0 0 1 27 102 )" />
  </g>
</svg>