<?xml version="1.0" encoding="utf-8"?>
<svg version="1.1" xmlns:xlink="http://www.w3.org/1999/xlink" width="20px" height="20px" xmlns="http://www.w3.org/2000/svg">
  <g transform="matrix(1 0 0 1 -736 -449 )">
    <path d="M 746 449  C 751.6 449  756 453.4  756 459  C 756 464.6  751.6 469  746 469  C 740.4 469  736 464.6  736 459  C 736 453.4  740.4 449  746 449  Z " fill-rule="nonzero" fill="#ffffff" stroke="none" />
    <path d="M 746 449.5  C 751.32 449.5  755.5 453.68  755.5 459  C 755.5 464.32  751.32 468.5  746 468.5  C 740.68 468.5  736.5 464.32  736.5 459  C 736.5 453.68  740.68 449.5  746 449.5  Z " stroke-width="1" stroke="#797979" fill="none" />
  </g>
</svg>