<svg t="1608621546984" class="icon" viewBox="0 0 1024 1024" version="1.1" xmlns="http://www.w3.org/2000/svg" p-id="3736" width="22" height="22"><path d="M816.667 48.878H208.719c-88.888 0-161.17 70.935-161.17 158.128v619.469c0 87.134 72.282 158.069 161.17 158.069h607.949c88.827 0 161.168-70.934 161.168-158.069V207.006c-0.001-87.193-72.34-158.128-161.169-158.128z m92.573 777.537c0 49.299-41.518 89.474-92.572 89.474H208.72c-51.11 0-92.631-40.115-92.631-89.474V206.946c0-49.355 41.519-89.531 92.631-89.531v0.058h607.949c51.053 0 92.572 40.176 92.572 89.532v619.41z" p-id="3737" fill="#dbdbdb"></path></svg>