<?xml version="1.0" standalone="no"?><!DOCTYPE svg PUBLIC "-//W3C//DTD SVG 1.1//EN" "http://www.w3.org/Graphics/SVG/1.1/DTD/svg11.dtd"><svg t="1612839563749" class="icon" viewBox="0 0 1024 1024" version="1.1" xmlns="http://www.w3.org/2000/svg" p-id="4292" width="200" height="200" xmlns:xlink="http://www.w3.org/1999/xlink"><defs><style type="text/css"></style></defs><path d="M0 0m128 0l768 0q128 0 128 128l0 768q0 128-128 128l-768 0q-128 0-128-128l0-768q0-128 128-128Z" fill="#1890FF" p-id="4293"></path><path d="M826.368 256h-49.344a22.592 22.592 0 0 0-17.728 8.512L468.288 627.84l-139.52-174.272a22.72 22.72 0 0 0-17.792-8.512h-49.28a5.568 5.568 0 0 0-4.48 8.96l193.28 241.472a22.848 22.848 0 0 0 35.584 0l344.704-430.656c2.88-3.52 0.256-8.896-4.48-8.896z" fill="#FFFFFF" p-id="4294"></path></svg>