<?xml version="1.0" encoding="utf-8"?>
<svg version="1.1" xmlns:xlink="http://www.w3.org/1999/xlink" width="16px" height="20px" xmlns="http://www.w3.org/2000/svg">
  <g transform="matrix(1 0 0 1 -360 -313 )">
    <path d="M 11.36734375 19.0615234375  C 12.540390625 18.37345703125  13.96662109375 17.340390625  14.68859375 16.07455078125  C 14.8039453125 15.90966796875  14.90333984375 15.72669921875  14.9835546875 15.521640625  C 17.29033203125 9.6034375  9.319921875 0.95396484375  8.4885546875 0.07435546875  C 8.4905078125 0.077578125  8.49259765625 0.0814453125  8.494375 0.0846875  C 8.44306640625 0.03015625  8.41419921875 0.000136718750000011  8.41419921875 0.000136718750000011  C 8.53552734375 0.5596484375  8.61232421875 1.08078125  8.65330078125 1.57158203125  C 8.6510546875 1.5546484375  8.649609375 1.53833984375  8.6473046875 1.52140625  C 8.70556640625 2.1690234375  8.69716796875 2.75982421875  8.63458984375 3.30564453125  C 8.62490234375 3.3882421875  8.61505859375 3.471015625  8.60294921875 3.5516796875  C 8.60103515625 3.5647265625  8.59845703125 3.57765625  8.59650390625 3.590546875  C 8.1960546875 6.141953125  6.55091796875 7.66240234375  4.8025 9.2476953125  C 4.34525390625 8.80740234375  4.07501953125 8.17251953125  4.0751953125 7.23966796875  C 4.07681640625 6.81501953125  4.13376953125 6.32908203125  4.254609375 5.77181640625  L 4.25056640625 5.7745703125  C 4.25201171875 5.76765625  4.25314453125 5.76119140625  4.254609375 5.7541015625  C 4.254609375 5.7541015625  3.0074609375 6.56044921875  1.970078125 8.08203125  C 1.96619140625 8.08669921875  1.9628125 8.0925390625  1.9591015625 8.0976953125  C 1.89263671875 8.19578125  1.826953125 8.2961328125  1.76275390625 8.4000390625  C 1.7596875 8.40470703125  1.75693359375 8.40970703125  1.7540234375 8.41439453125  C 1.69443959569687 8.51135984785627  1.63683007430927 8.6095245969145  1.58123046875 8.708828125  C 1.56814226419788 8.73199330716013  1.55517983385056 8.75522932620061  1.54234375 8.77853515625  C 1.48603515625 8.8811328125  1.430703125 8.9856640625  1.3776171875 9.09330078125  C 1.37501953125 9.09861328125  1.37212890625 9.1037890625  1.36953125 9.1091015625  C 1.31410354939706 9.22258914020151  1.26138677746974 9.33738080650947  1.21142578125 9.45337890625  C 1.1991796875 9.48162109375  1.1875390625 9.5103515625  1.175625 9.53875  C 1.13523242194209 9.63516360036731  1.0968775410908 9.73241829400297  1.0605859375 9.83044921875  C 1.0502734375 9.858203125  1.039609375 9.88529296875  1.029609375 9.913046875  C 1.0083203125 9.9727734375  0.988300781249999 10.03341796875  0.968300781249998 10.09439453125  C 0.967812499999998 10.09568359375  0.967324218749998 10.09697265625  0.967011718749998 10.09826171875  C 0.946523437499998 10.16021484375  0.926035156249998 10.2221875  0.907167968749999 10.28541015625  C 0.899433593749999 10.31091796875  0.892636718749999 10.33736328125  0.885234374999998 10.36318359375  C 0.854833608950628 10.4688505322088  0.826857519857619 10.5752000459373  0.801328125 10.6821484375  C 0.792275000714513 10.7191114085038  0.783563691173049 10.7561572614866  0.775195312499999 10.79328125  C 0.745175781249999 10.92751953125  0.717421874999999 11.063046875  0.694687499999999 11.20212890625  C 0.694687499999999 11.20310546875  0.69435546875 11.20408203125  0.69435546875 11.20501953125  C 0.68174688390582 11.2809575384521  0.670501585149312 11.3571156242982  0.660624999999999 11.43345703125  C 0.659999999999999 11.43865234375  0.659355468749999 11.4437890625  0.65869140625 11.44896484375  C 0.6492290316028 11.5222839071944  0.640946710121703 11.595750442785  0.63384765625 11.6693359375  C 0.63287109375 11.677734375  0.6322265625 11.6861328125  0.63142578125 11.6946875  C 0.624652722799826 11.7665034420454  0.618896937468217 11.8384116922743  0.61416015625 11.910390625  C 0.613515625 11.92103515625  0.61287109375 11.9319921875  0.6123828125 11.94263671875  C 0.608016617670108 12.0136892755895  0.604734985588923 12.0848043263646  0.6025390625 12.15595703125  L 0.6015625 12.1940234375  C 0.599704886258248 12.2647757870886  0.598897505670328 12.3355518112071  0.599140625 12.406328125  L 0.599140625 12.44859375  C 0.599785156249999 12.5192578125  0.60138671875 12.59025390625  0.604140625 12.66171875  C 0.60462890625 12.67673828125  0.6049609375 12.69189453125  0.60576171875 12.70689453125  C 0.608828125 12.778359375  0.6128515625 12.85033203125  0.61787109375 12.92259765625  C 0.61931640625 12.9380859375  0.6201171875 12.95326171875  0.62125 12.96873046875  C 0.62673828125 13.041640625  0.633671875 13.11505859375  0.64125 13.18880859375  C 0.64287109375 13.20412109375  0.64431640625 13.219140625  0.64609375 13.23431640625  C 0.65416015625 13.3094921875  0.66400390625 13.38515625  0.6744921875 13.46115234375  C 0.67658203125 13.47548828125  0.67853515625 13.48970703125  0.68046875 13.5040625  C 0.6917578125 13.58197265625  0.7044921875 13.660859375  0.71822265625 13.739921875  C 0.72064453125 13.75251953125  0.72240234375 13.76509765625  0.72482421875 13.77767578125  C 0.739688739524357 13.8610837878009  0.755934459535174 13.9442397358002  0.7735546875 14.027109375  C 0.77548828125 14.03646484375  0.777265625 14.0458203125  0.77904296875 14.0551953125  C 0.798347600741939 14.1449987944953  0.8190532494283 14.2344953797764  0.84115234375 14.32365234375  C 0.842128906250001 14.3281640625  0.84310546875 14.33251953125  0.84421875 14.336875  C 0.9394140625 14.72021484375  1.0636328125 15.115  1.2220703125 15.52158203125  C 1.30208984375 15.726640625  1.401484375 15.90958984375  1.51701171875 16.0744921875  C 2.8690234375 18.4455078125  6.693203125 19.99984375  6.693203125 19.99984375  C 6.68 19.99427734375  5.583515625 19.54685546875  4.36076171875 18.769609375  C 5.583515625 19.546875  6.68001953125 19.9942578125  6.693203125 19.99955078125  C 6.6946484375 19.9995703125  6.69546875 19.99986328125  6.69546875 19.99986328125  C 6.76791015625 19.33482421875  7.05669921875 18.881171875  7.48603515625 18.56009765625  C 7.485703125 18.55974609375  7.48521484375 18.55974609375  7.48490234375 18.559453125  C 7.48732421875 18.55783203125  7.48990234375 18.5562109375  7.49232421875 18.554453125  C 7.57896484375 18.490078125  7.67125 18.431015625  7.76869140625 18.376640625  C 7.77384765625 18.37373046875  7.77900390625 18.3709765625  7.7841796875 18.3680859375  C 7.881796875 18.314375  7.98439453125 18.26533203125  8.09169921875 18.22046875  C 8.094921875 18.2191796875  8.09783203125 18.21771484375  8.1010546875 18.21642578125  C 8.86451171875 18.53298828125  9.40548828125 19.05248046875  9.50857421875 19.99986328125  C 9.50921875 19.99986328125  10.34396484375 19.66041015625  11.3712109375 19.05732421875  C 11.369921875 19.05861328125  11.3686328125 19.060078125  11.36734375 19.0615234375  Z M 5.72220703125 11.7217578125  L 5.72220703125 15.4590234375  L 4.96759765625 15.4590234375  L 4.96759765625 13.82490234375  L 3.48900390625 13.82490234375  L 3.48900390625 15.4590234375  L 2.73439453125 15.4590234375  L 2.73439453125 11.7217578125  L 3.48900390625 11.7217578125  L 3.48900390625 13.19271484375  L 4.96759765625 13.19271484375  L 4.96759765625 11.7217578125  L 5.72220703125 11.7217578125  Z M 9.9744140625 13.59552734375  C 9.97443359375 14.19884765625  9.810390625 14.67087890625  9.482421875 15.0116015625  C 9.154375 15.3523828125  8.71591796875 15.52275390625  8.166953125 15.52275390625  C 7.6112109375 15.52275390625  7.169296875 15.3532421875  6.841328125 15.01419921875  C 6.51330078125 14.6751171875  6.349296875 14.20818359375  6.349296875 13.61330078125  C 6.349296875 13.23265625  6.40623046875 12.9131640625  6.5201171875 12.6548046875  C 6.605078125 12.464453125  6.72107421875 12.29365234375  6.8680859375 12.1423828125  C 7.015078125 11.99115234375  7.17611328125 11.878984375  7.351171875 11.80587890625  C 7.583984375 11.70734375  7.85251953125 11.65802734375  8.1567578125 11.65802734375  C 8.7073828125 11.65802734375  9.14798828125 11.8288671875  9.47859375 12.1704296875  C 9.8091015625 12.51203125  9.9744140625 12.98708984375  9.9744140625 13.59552734375  Z M 11.40458984375 12.35396484375  L 10.29564453125 12.35396484375  L 10.29564453125 11.7217578125  L 13.2655859375 11.7217578125  L 13.2655859375 12.35396484375  L 12.1591796875 12.35396484375  L 12.1591796875 15.4590234375  L 11.40458984375 15.4590234375  L 11.40458984375 12.35396484375  Z " fill-rule="nonzero" fill="#d81e06" stroke="none" transform="matrix(1 0 0 1 360 313 )" />
  </g>
</svg>