<?xml version="1.0" encoding="utf-8"?>
<svg version="1.1" xmlns:xlink="http://www.w3.org/1999/xlink" width="16px" height="14px" xmlns="http://www.w3.org/2000/svg">
  <g transform="matrix(1 0 0 1 -328 -185 )">
    <path d="M 15.3335 12.333  C 15.3335 13.0665  14.7335 13.6665  14 13.6665  L 2 13.6665  C 1.26444004212732 13.66430346436  0.668696535640038 13.0685599578727  0.6665 12.333  L 0.6665 2.9995  C 0.6665 1.866  1.533 0.9995  2.6665 0.9995  L 8.6665 0.9995  L 8.6665 2.333  L 2.6665 2.333  C 2.2665 2.333  2 2.5995  2 2.9995  C 2 3.3995  2.2665 3.666  2.6665 3.666  L 14 3.666  C 14.7335 3.666  15.3335 4.266  15.3335 4.9995  L 15.3335 12.333  Z M 2 4.8665  L 2 12.333  L 14 12.333  L 14 5  L 2.6665 5  C 2.4 4.9995  2.2 4.933  2 4.866  Z " fill-rule="nonzero" fill="#ffffff" stroke="none" transform="matrix(1 0 0 1 328 185 )" />
  </g>
</svg>