<?xml version="1.0" encoding="utf-8"?>
<svg version="1.1" xmlns:xlink="http://www.w3.org/1999/xlink" width="10px" height="7px" xmlns="http://www.w3.org/2000/svg">
  <g transform="matrix(1 0 0 1 -360 -321 )">
    <path d="M 0.78419921875 0.606230468750001  C 0.78431640625 0.60654296875  0.7845703125 0.60634765625  0.784921875 0.605898437500001  C 0.78462890625 0.606093749999999  0.7843359375 0.606308593750001  0.78419921875 0.606230468750001  Z M 8.91263671875 4.6191015625  C 8.7248046875 4.40837890625  8.4754296875 4.30298828125  8.16443359375 4.30298828125  C 7.8533984375 4.30298828125  7.6026953125 4.4096484375  7.4123828125 4.6229296875  C 7.22203125 4.8362109375  7.12685546875 5.1578515625  7.12685546875 5.5878515625  C 7.12685546875 6.01103515625  7.2245703125 6.3318359375  7.4200390625 6.5501953125  C 7.61544921875 6.76859375  7.86359375 6.8777734375  8.16443359375 6.8777734375  C 8.465234375 6.8777734375  8.71208984375 6.7694140625  8.905 6.55271484375  C 9.097890625 6.336015625  9.1943359375 6.011015625  9.1943359375 5.57759765625  C 9.1943359375 5.1493359375  9.100390625 4.82982421875  8.91263671875 4.6191015625  Z " fill-rule="nonzero" fill="#d81e06" stroke="none" transform="matrix(1 0 0 1 360 321 )" />
  </g>
</svg>