<?xml version="1.0" encoding="utf-8"?>
<svg version="1.1" xmlns:xlink="http://www.w3.org/1999/xlink" width="12px" height="13px" xmlns="http://www.w3.org/2000/svg">
  <g transform="matrix(1 0 0 1 -330 -184 )">
    <path d="M 9.6005 7.9995  L 5.3335 12.2665  L 2.4 9.333  L 3.3335 8.3995  L 5.3335 10.3995  L 8.667 7.066  L 9.6005 7.9995  Z M 11.667 5.8665  C 11.5335 6  11.467 6  11.3335 6  C 11.067 6  10.867 5.8665  10.7335 5.6  L 9 2.2  L 1.6 5.9335  C 1.3335 6.067  0.9335 5.9335  0.7335 5.6  C 0.6 5.3335  0.7335 4.9335  1.067 4.7335  L 9.067 0.7335  C 9.4005 0.6  9.8005 0.7335  9.9335 1  L 11.9335 5  C 12.067 5.3335  11.9335 5.7335  11.667 5.8665  Z " fill-rule="nonzero" fill="#ffffff" stroke="none" transform="matrix(1 0 0 1 330 184 )" />
  </g>
</svg>