<?xml version="1.0" encoding="utf-8"?>
<svg version="1.1" xmlns:xlink="http://www.w3.org/1999/xlink" width="24px" height="24px" xmlns="http://www.w3.org/2000/svg">
  <g transform="matrix(1 0 0 1 -28 -152 )">
    <path d="M 12.5342943396226 7.54032  C 12.0842264150943 7.58123773584906  11.7159939622641 7.58123773584906  11.2659260377358 7.58123773584906  C 11.0204467924528 7.58123773584906  10.8158852830189 7.41756679245283  10.7749675471698 7.17206037735849  C 10.6931320754717 6.3947320754717  10.7749675471698 5.57640452830189  10.7749675471698 4.75813132075472  L 10.7749675471698 1.36220377358491  C 10.7749675471698 1.23945056603774  10.7340498113208 0.543903396226415  10.8158852830189 0.543903396226415  L 13.3116498113207 0.543903396226415  C 13.3934852830189 0.543903396226415  13.3525675471698 2.01683320754717  13.3525675471698 2.18047698113208  L 13.3525675471698 6.43562264150943  C 13.3525675471698 6.59929358490566  13.4344030188679 6.92658113207547  13.3525675471698 7.04933433962264  C 13.3525675471698 7.13116981132075  13.3116498113207 7.25392301886792  13.270759245283 7.33573132075472  C 13.1480060377358 7.58123773584906  12.7388558490566 7.54032  12.5342943396226 7.54032  Z M 14.9073328301887 4.34900830188679  L 14.9073328301887 0.789409811320755  C 19.6534098113208 2.01686037735849  23.2538988679245 6.27195169811321  23.4584875471698 11.3044528301887  C 23.8266928301887 17.2370626415094  19.4079305660377 22.555960754717  13.5571562264151 23.3742339622642  C 7.09264301886792 24.2334520754717  0.996389433962261 19.3237041509434  0.587239245283016 12.7364377358491  C 0.219006792452827 7.25392301886792  3.90133132075471 2.13958641509434  9.22020226415094 0.830354716981134  L 9.22020226415094 7.13116981132075  C 9.22020226415094 7.82671698113208  9.17928452830188 8.19494943396226  9.95666716981132 8.19494943396226  C 10.3658173584906 8.19494943396226  10.7749675471698 8.15403169811321  11.1841177358491 8.19494943396226  C 11.8796649056604 8.23586716981132  11.7569116981132 8.84957886792453  11.7569116981132 9.42237283018868  L 11.7569116981132 12.0409177358491  C 11.5114324528302 11.549959245283  10.6112966037736 11.754520754717  10.2021464150943 11.754520754717  L 8.7292437735849 11.754520754717  C 8.40192905660377 11.7136030188679  8.2791758490566 11.5499320754717  8.23828528301886 11.2635622641509  L 8.23828528301886 3.81707773584906  C 5.0468920754717 5.24908981132075  2.96025056603773 8.5222641509434  2.96025056603773 12.0409177358491  C 2.96025056603773 16.5005977358491  6.35615094339623 20.469319245283  10.8158581132075 21.0830309433962  L 10.8158581132075 16.2960362264151  C 10.8158581132075 16.0914475471698  10.8976664150943 15.8459683018868  10.6521871698113 15.8459683018868  L 9.4247637735849 15.8459683018868  C 9.05653132075471 15.8459683018868  8.32003924528302 15.968721509434  8.23825811320754 15.4368181132075  C 8.19731320754717 15.1504211320755  8.23825811320754 14.8231064150943  8.23825811320754 14.5366822641509  L 8.23825811320754 11.8363290566038  C 8.23825811320754 12.0409177358491  8.32003924528302 12.2455064150943  8.56554566037736 12.2863969811321  C 9.13833962264151 12.4091501886792  9.87480452830189 12.2863969811321  10.447598490566 12.2863969811321  C 10.8567758490566 12.2863969811321  11.7159667924528 12.0818083018868  11.8386928301887 12.6546294339623  C 11.9205283018868 13.0228618867925  11.8386928301887 13.3910943396226  11.8386928301887 13.7593267924528  L 11.8386928301887 15.5595713207547  C 11.8386928301887 15.7232150943396  11.8386928301887 15.7232150943396  11.9614460377359 15.8050505660377  C 12.043281509434 15.8459683018868  12.2478701886792 15.8050505660377  12.3706233962264 15.8050505660377  L 12.3706233962264 13.4729298113208  C 12.3706233962264 13.0637524528302  12.2069524528302 12.245479245283  12.8615818867925 12.245479245283  C 13.4752935849057 12.1636709433962  14.170840754717 12.245479245283  14.7845524528302 12.245479245283  C 15.1937298113208 12.245479245283  15.9710581132075 12.4091501886792  15.9301675471698 11.754520754717  L 15.9301675471698 14.1684769811321  C 15.9301675471698 14.4548467924528  15.8074143396226 15.0686128301887  15.9301675471698 15.3140649056604  C 16.2984 16.1323652830189  13.7616905660377 15.7232422641509  13.5162113207547 15.8050505660377  C 13.3525403773585 15.8459683018868  13.4343758490566 15.7641328301887  13.3934581132075 15.968721509434  C 13.3525403773585 16.0505298113208  13.3934581132075 16.214200754717  13.3934581132075 16.2960362264151  L 13.3934581132075 21.0421132075472  C 17.730439245283 20.428401509434  21.1672573584906 16.5005977358491  21.1672573584906 12  C 21.1672573584906 8.48134641509434  19.0806158490566 5.20819924528302  15.9301947169811 3.73526943396227  L 15.9301947169811 10.2815637735849  C 15.9301947169811 10.4043441509434  15.848359245283 11.0998913207547  15.9301947169811 11.1816996226415  C 15.9301947169811 11.4272060377359  15.807441509434 11.6726581132075  15.5210445283019 11.6726581132075  C 14.9073328301887 11.795438490566  14.1299501886792 11.6726581132075  13.516238490566 11.6726581132075  C 13.1070883018868 11.6726581132075  12.5342943396226 11.5090143396226  12.3297328301887 11.9590822641509  L 12.3297328301887 9.62698867924528  C 12.3297328301887 9.21783849056604  12.1251441509434 8.2768120754717  12.6570203773585 8.15405886792453  C 13.1479788679245 7.99041509433962  14.8254973584906 8.48137358490566  14.9073328301887 7.74490867924528  C 15.0300860377359 6.68112905660377  14.9073328301887 5.45367849056604  14.9073328301887 4.34900830188679  Z " fill-rule="nonzero" fill="#009c96" stroke="none" transform="matrix(1 0 0 1 28 152 )" />
  </g>
</svg>