<?xml version="1.0" encoding="utf-8"?>
<svg version="1.1" xmlns:xlink="http://www.w3.org/1999/xlink" width="22px" height="10px" xmlns="http://www.w3.org/2000/svg">
  <g transform="matrix(1 0 0 1 -31 -35 )">
    <path d="M 11.312342578125 0.327455921875002  L 7.8664987265625 9.12342567578125  L 4.1486146171875 0.327455921875  L 0.612090667968749 9.21410580859375  L 14.9395465898438 9.39546600390625  L 11.312342578125 0.327455921875002  Z M 16.3904282226562 2.322418140625  L 16.662468515625 2.95717882421875  L 21.8312342578125 2.95717882421875  C 21.8312342578125 2.68513853125  21.8312342578125 2.59445843359375  21.7405541601562 2.322418140625  L 16.3904282226562 2.322418140625  Z M 17.3879093320312 4.77078084765625  L 17.659949625 5.40554156640625  L 21.8312342578125 5.40554156640625  L 21.8312342578125 4.77078084765625  L 17.3879093320312 4.77078084765625  Z M 21.8312342578125 4.1360201640625  L 21.8312342578125 3.59193954296875  L 16.8438287109375 3.59193954296875  L 17.1158690039063 4.22670026171875  L 21.8312342578125 4.22670026171875  L 21.8312342578125 4.1360201640625  Z M 18.3853904414063 7.1284634921875  L 18.657430734375 7.76322417578125  L 21.3778337695313 7.76322417578125  C 21.3778337695313 7.4911838828125  21.4685138671875 7.40050378515625  21.4685138671875 7.1284634921875  L 18.3853904414063 7.1284634921875  Z M 17.8413098203125 5.8589420546875  L 18.1133501132813 6.4937027734375  L 21.5591939648438 6.4937027734375  C 21.5591939648438 6.22166248046875  21.6498740625 6.1309823828125  21.6498740625 5.8589420546875  L 17.8413098203125 5.8589420546875  Z " fill-rule="nonzero" fill="#e50012" stroke="none" transform="matrix(1 0 0 1 31 35 )" />
  </g>
</svg>