<?xml version="1.0" encoding="utf-8"?>
<svg version="1.1" xmlns:xlink="http://www.w3.org/1999/xlink" width="18px" height="18px" xmlns="http://www.w3.org/2000/svg">
  <g transform="matrix(1 0 0 1 -135 -273 )">
    <path d="M 15.013671875 15.0078125  C 18.373046875 11.650390625  18.37109375 6.203125  15.01171875 2.845703125  C 11.654296875 -0.51171875  6.208984375 -0.51171875  2.8515625 2.845703125  C -0.505859375000001 6.203125  -0.505859375 11.6484375  2.8515625 15.0078125  C 6.208984375 18.365234375  11.654296875 18.365234375  15.013671875 15.0078125  Z M 10.125 13.83203125  C 10.125 14.490234375  9.587890625 15.02734375  8.931640625 15.02734375  C 8.275390625 15.02734375  7.73828125 14.490234375  7.73828125 13.833984375  L 7.73828125 10.119140625  L 4.025390625 10.119140625  C 3.369140625 10.119140625  2.83203125 9.58203125  2.83203125 8.92578125  C 2.83203125 8.26953125  3.369140625 7.732421875  4.025390625 7.732421875  L 7.73828125 7.732421875  L 7.73828125 4.01953125  C 7.73828125 3.36328125  8.275390625 2.826171875  8.931640625 2.826171875  C 9.587890625 2.826171875  10.125 3.36328125  10.125 4.01953125  L 10.125 7.732421875  L 13.837890625 7.732421875  C 14.494140625 7.732421875  15.03125 8.26953125  15.03125 8.92578125  C 15.03125 9.58203125  14.494140625 10.119140625  13.837890625 10.119140625  L 10.125 10.119140625  L 10.125 13.83203125  Z " fill-rule="nonzero" fill="#ffffff" stroke="none" transform="matrix(1 0 0 1 135 273 )" />
  </g>
</svg>