<?xml version="1.0" encoding="utf-8"?>
<svg version="1.1" xmlns:xlink="http://www.w3.org/1999/xlink" width="26px" height="26px" xmlns="http://www.w3.org/2000/svg">
  <g transform="matrix(1 0 0 1 -27 -26 )">
    <path d="M 23.020151125 17.3979848945313  L 23.292191453125 18.3954660039063  L 20.5717884179688 22  L 5.337531484375 22  L 2.61712844921875 18.2141058085938  L 9.41813601953125 1.5289672421875  L 13.0453400664063 10.4156171289063  L 16.8539042734375 1.5289672421875  L 19.9370276992187 9.327455921875  L 25.6498740625 9.327455921875  C 24.017632234375 3.977329984375  19.1209068203125 0.078085644531253  13.317380359375 0.078085644531253  C 6.06297230078125 0.168765742187502  0.259445839843748 5.88161210546875  0.259445839843748 13.0453400664063  C 0.259445839843748 20.2090680273437  6.06297230078125 25.921914390625  13.1360201640625 25.9219143554688  C 18.667506296875 25.9219143554688  23.4735516484375 22.2947103085938  25.2871536367187 17.3979848945313  L 23.020151125 17.3979848945313  Z " fill-rule="nonzero" fill="#e50012" stroke="none" transform="matrix(1 0 0 1 27 26 )" />
  </g>
</svg>