<?xml version="1.0" encoding="utf-8"?>
<svg version="1.1" xmlns:xlink="http://www.w3.org/1999/xlink" width="54px" height="53px" xmlns="http://www.w3.org/2000/svg">
  <g transform="matrix(1 0 0 1 -157 -388 )">
    <path d="M 53 1  L 53 52  L 1 52  L 1 1  L 53 1  Z M 6 48.1299  L 5.586 48  L 48 48  L 48 6  L 6 6  L 6 48.1299  Z M 10.2312 24.6165  L 10.2315 25  L 43.569 25  L 43.569 29  L 10.2312 29  L 10.2312 24.6165  Z M 25 10.3212  L 24.5169 10.3215  L 29 10.3215  L 29 43.6587  L 25 43.6587  L 25 10.3212  Z " fill-rule="nonzero" fill="#8a8a8a" stroke="none" transform="matrix(1 0 0 1 157 388 )" />
  </g>
</svg>