<?xml version="1.0" encoding="utf-8"?>
<svg version="1.1" xmlns:xlink="http://www.w3.org/1999/xlink" width="32px" height="36px" xmlns="http://www.w3.org/2000/svg">
  <g transform="matrix(1 0 0 1 -216 -494 )">
    <path d="M 31.46875 30.1875  C 31.46875 30.1875  29.125 11.125  19.90625 11.125  L 11.78125 11.125  C 2.5625 11.125  0.375 30.1875  0.375 30.1875  C 0.375 32.84375  2.25 35.1875  4.59375 35  L 27.25 35  C 29.75 35.1875  31.46875 32.6875  31.46875 30.1875  Z M 19.4375 15.96875  C 19.75 15.5  20.375 15.1875  21 15.5  C 21.46875 15.65625  21.625 16.28125  21.46875 17.0625  L 18.34375 22.375  L 21 22.375  C 21.625 22.375  22.09375 22.84375  22.09375 23.46875  C 22.09375 24.09375  21.625 24.5625  21 24.5625  L 16.9375 24.5625  L 16.9375 25.8125  L 21 25.8125  C 21.625 25.8125  22.09375 26.28125  22.09375 26.90625  C 22.09375 27.53125  21.625 28  21 28  L 16.9375 28  L 16.9375 30.8125  C 16.9375 31.4375  16.46875 31.90625  15.84375 31.90625  C 15.21875 31.90625  14.75 31.4375  14.75 30.8125  L 14.75 28  L 10.6875 28  C 10.0625 28  9.59375 27.53125  9.59375 26.90625  C 9.59375 26.28125  10.0625 25.8125  10.6875 25.8125  L 14.75 25.8125  L 14.75 24.5625  L 10.6875 24.5625  C 10.0625 24.5625  9.59375 24.09375  9.59375 23.46875  C 9.59375 22.84375  10.0625 22.375  10.6875 22.375  L 13.5 22.375  L 10.6875 17.0625  C 10.21875 16.59375  10.53125 15.96875  11.15625 15.8125  C 11.625 15.34375  12.25 15.65625  12.40625 15.96875  L 15.84375 22.375  L 16 22.375  L 19.4375 15.96875  Z M 10.375 0.812499999999997  C 7.875 0.656249999999998  7.56249999999999 2.375  7.5625 3.78125  L 7.71875 4.25  C 8.1875 5.5  9.75 9.40625  11.78125 9.40625  L 19.75 9.40625  C 22.25 9.40625  23.96875 3.78125  23.96875 3.78125  L 23.96875 3.46875  C 23.96875 1.90625  23.5 0.812499999999997  21.15625 0.812499999999997  C 18.34375 0.812499999999997  17.71875 2.6875  15.6875 2.6875  C 13.8125 2.6875  12.875 1.125  10.375 0.812499999999997  Z " fill-rule="nonzero" fill="#ffffff" stroke="none" transform="matrix(1 0 0 1 216 494 )" />
  </g>
</svg>