<?xml version="1.0" encoding="utf-8"?>
<svg version="1.1" xmlns:xlink="http://www.w3.org/1999/xlink" width="1007px" height="162px" xmlns="http://www.w3.org/2000/svg">
  <defs>
    <filter x="122px" y="336px" width="1007px" height="162px" filterUnits="userSpaceOnUse" id="filter44">
      <feOffset dx="0" dy="8" in="SourceAlpha" result="shadowOffsetInner" />
      <feGaussianBlur stdDeviation="2.5" in="shadowOffsetInner" result="shadowGaussian" />
      <feComposite in2="shadowGaussian" operator="atop" in="SourceAlpha" result="shadowComposite" />
      <feColorMatrix type="matrix" values="0 0 0 0 0.184313725490196  0 0 0 0 0.588235294117647  0 0 0 0 0.533333333333333  0 0 0 1 0  " in="shadowComposite" />
    </filter>
    <g id="widget45">
      <path d="M 5.1917808219178 135.004566210046  C -14.4228422587852 101.533604962608  31.1523187628332 16.4814728868078  94.9178082191781 2.12785388127855  C 136.480529637056 -7.2279194869098  154.887366818874 37.5920852359209  184.872146118722 55.324200913242  C 214.937472919375 72.9768800897688  222.689940303789 82.4080990173922  275.068126520681 108.282238442822  C 323.8294732781 132.369706446178  313.166126988067 139.561197128151  365.248062015504 145.007751937984  C 414.331564589862 150.140740696736  410.792759876099 150.043485097617  455.558139534884 128.728682170543  C 512.674335900202 101.533102042543  486.698717681031 72.6944665646848  544.317829457364 52.3720930232558  C 589.356771186298 36.4867700894509  587.193687835456 43.1668429868346  635.790697674419 55.324200913242  C 688.56696027308 68.527069084682  695.222222222222 84.6222788573856  724.937984496124 99.2713178294574  C 754.912144702842 114.847545219638  773.301478218897 156.085157671267  814.860465116279 146  C 879.01493863687 130.431574754941  838.928646337357 38.4950839755975  905.170542635659 18.2635658914729  C 945.894628593142 5.82566589842293  996.750122948736 40.5816082306638  995.093023255814 52.3720930232558  " stroke-width="1" stroke="#15c377" fill="none" transform="matrix(1 0 0 1 127 336 )" />
    </g>
  </defs>
  <g transform="matrix(1 0 0 1 -122 -336 )">
    <use xlink:href="#widget45" filter="url(#filter44)" />
    <use xlink:href="#widget45" />
  </g>
</svg>