<?xml version="1.0" encoding="utf-8"?>
<svg version="1.1" xmlns:xlink="http://www.w3.org/1999/xlink" width="11px" height="16px" xmlns="http://www.w3.org/2000/svg">
  <g transform="matrix(1 0 0 1 -122 -720 )">
    <path d="M 10.175 10.6666666666667  C 10.0833333261719 12.6222222291667  8.43333332617187 14.2222222291667  6.41666667382812 14.2222222291667  L 6.41666667382812 15.1111111041667  L 4.58333332617187 15.1111111041667  L 4.58333332617187 14.2222222291667  C 2.56666665234375 14.2222222291667  0.916666652343749 12.6222222291667  0.916666673828124 10.6666666666667  L 2.75 10.6666666666667  C 2.75 11.6444444375  3.575 12.4444444375  4.58333332617187 12.4444444375  L 4.58333332617187 8.88888889583333  C 2.56666665234375 8.88888889583333  0.916666652343749 7.28888889583333  0.916666673828124 5.33333333333334  C 0.916666695312499 3.37777777083334  2.56666667382812 1.77777777083334  4.58333332617187 1.77777777083334  L 4.58333332617187 0.888888895833333  L 6.41666667382812 0.888888895833333  L 6.41666667382812 1.77777777083333  C 8.43333334765625 1.77777777083333  10.0833333476562 3.37777777083333  10.0833333261719 5.33333333333333  L 8.25 5.33333333333333  C 8.25 4.3555555625  7.425 3.5555555625  6.41666667382812 3.5555555625  L 6.41666667382812 7.11111110416667  L 6.78333332617187 7.11111110416667  C 7.425 7.11111110416667  8.25 7.46666666666667  8.89166667382812 8  C 9.625 8.62222222916667  10.175 9.6  10.175 10.6666666666667  Z M 6.41666667382812 8.88888889583333  L 6.41666667382812 12.4444444375  C 7.425 12.4444444375  8.25 11.6444444375  8.25 10.6666666666667  C 8.25 9.68888889583333  7.425 8.88888889583333  6.41666667382812 8.88888889583333  Z M 4.58333332617187 7.11111110416667  L 4.58333332617187 3.5555555625  C 3.575 3.5555555625  2.75 4.3555555625  2.75 5.33333333333333  C 2.75 6.31111110416667  3.575 7.11111110416667  4.58333332617187 7.11111110416667  Z " fill-rule="nonzero" fill="#ffffff" stroke="none" transform="matrix(1 0 0 1 122 720 )" />
  </g>
</svg>