<?xml version="1.0" encoding="utf-8"?>
<svg version="1.1" xmlns:xlink="http://www.w3.org/1999/xlink" width="25px" height="25px" xmlns="http://www.w3.org/2000/svg">
  <g transform="matrix(1 0 0 1 -114 -715 )">
    <path d="M 24.7651599702381 12.4331519717262  C 24.7651599702381 19.1324869791667  19.3155924479167 24.5820545014881  12.6162574404762 24.5820545014881  C 5.91692243303571 24.5820545014881  0.467354910714286 19.1324869791667  0.467354910714286 12.4331519717262  C 0.467354910714286 5.73381696428572  5.91692243303571 0.284249441964287  12.6162574404762 0.284249441964287  C 13.2876441592262 0.284249441964287  13.8311476934524 0.827752976190478  13.8311476934524 1.49913969494048  C 13.8311476934524 2.17052641369048  13.2876441592262 2.71402994791667  12.6162574404762 2.71402994791667  C 7.25678943452381 2.71402994791667  2.89713541666667 7.07368396577381  2.89713541666667 12.4331519717262  C 2.89713541666667 17.7926199776786  7.25678943452381 22.1522739955357  12.6162574404762 22.1522739955357  C 17.9757254464286 22.1522739955357  22.3353794642857 17.7926199776786  22.3353794642857 12.4331519717262  C 22.3353794642857 11.7762974330357  22.2685314360119 11.1165364583333  22.1377418154762 10.4771205357143  C 22.0040457589286 9.82026599702381  22.4283854166667 9.17794363839286  23.0852399553571 9.04424758184524  C 23.7450009300595 8.91055152529762  24.3844168526786 9.33489118303571  24.5181129092262 9.99174572172619  C 24.6808733258929 10.791015625  24.7651599702381 11.613537016369  24.7651599702381 12.4331519717262  Z " fill-rule="nonzero" fill="#ffffff" stroke="none" transform="matrix(1 0 0 1 114 715 )" />
  </g>
</svg>