<?xml version="1.0" encoding="utf-8"?>
<svg version="1.1" xmlns:xlink="http://www.w3.org/1999/xlink" width="6px" height="9px" xmlns="http://www.w3.org/2000/svg">
  <g transform="matrix(1 0 0 1 -129 -715 )">
    <path d="M 5.06640625 7.86083984375  C 4.8662109375 8.05859375  4.60498046875 8.15869140625  4.34375 8.15869140625  C 4.08251953125 8.15869140625  3.8212890625 8.05859375  3.62109375 7.86083984375  L 0.68408203125 4.9189453125  C 0.286132812500002 4.52099609375  0.286132812500002 3.8740234375  0.68408203125 3.47607421875  L 3.62353515625 0.53662109375  C 4.021484375 0.138671875  4.66845703125 0.138671875  5.06640625 0.53662109375  C 5.46435546875 0.9345703125  5.46435546875 1.58154296875  5.06640625 1.9794921875  L 2.849609375 4.19873046875  L 5.06640625 6.41796875  C 5.46435546875 6.81591796875  5.46435546875 7.462890625  5.06640625 7.86083984375  Z " fill-rule="nonzero" fill="#ffffff" stroke="none" transform="matrix(1 0 0 1 129 715 )" />
  </g>
</svg>