<?xml version="1.0" encoding="utf-8"?>
<svg version="1.1" xmlns:xlink="http://www.w3.org/1999/xlink" width="25px" height="25px" xmlns="http://www.w3.org/2000/svg">
  <g transform="matrix(1 0 0 1 -1239 -717 )">
    <path d="M 24.5 12.25  C 24.5 5.5  19 0  12.25 0  C 5.5 0  0 5.5  0 12.25  C 0 19  5.5 24.5  12.25 24.5  C 19 24.5  24.5 19  24.5 12.25  Z M 9.25 5.9  C 8.95 5.3  9.1 4.95  9.8 4.9  C 10.6 4.85  11.5 4.9  12.35 4.9  C 13.15 4.9  13.9 4.85  14.7 4.9  C 15.55 4.95  15.75 5.3  15.3 6  C 15.15 6.25  14.9 6.5  14.8 6.8  C 14.5 7.4  14.05 7.6  13.4 7.55  C 12.95 7.5  12.45 7.45  12 7.55  C 10.55 7.85  9.8 7.05  9.25 5.9  Z M 20 18.05  C 20.05 19.25  19.6 19.75  18.4 19.8  C 16.3 19.85  14.25 19.8  12.2 19.8  L 6.3 19.8  C 4.8 19.8  4.25 19.25  4.45 17.8  C 4.95 14.1  6.95 11.25  9.75 8.9  C 10 8.7  10.4 8.65  10.75 8.65  C 11.6 8.6  12.45 8.7  13.25 8.6  C 14.1 8.55  14.8 8.8  15.35 9.35  C 17.55 11.5  19.25 13.9  19.9 17  C 19.95 17.35  20 17.7  20 18.05  Z " fill-rule="nonzero" fill="#ffffff" stroke="none" transform="matrix(1 0 0 1 1239 717 )" />
  </g>
</svg>