<?xml version="1.0" encoding="utf-8"?>
<svg version="1.1" xmlns:xlink="http://www.w3.org/1999/xlink" width="5px" height="8px" xmlns="http://www.w3.org/2000/svg">
  <g transform="matrix(1 0 0 1 -1249 -727 )">
    <path d="M 4.35 5.15  C 4.25 4.3  3.65 3.85  2.9 3.65  C 2.6 3.55  2.25 3.55  2 3.4  C 1.75 3.25  1.5 2.9  1.45 2.65  C 1.4 2.45  1.7 2.1  1.9 2  C 2.2 1.9  2.55 2  2.85 2.1  C 3 2.15  3.1 2.45  3.25 2.55  C 3.45 2.65  3.7 2.7  3.85 2.65  C 4 2.55  4.1 2.35  4.2 2.2  C 4.15 2.05  4.15 1.95  4.1 1.9  C 3.55 1.35  3.05 0.800000000000001  2.5 0.299999999999999  C 2.4 0.25  2.15 0.25  2 0.35  C 1.55 0.75  1.1 1.1  0.699999999999999 1.55  C -0.0499999999999989 2.45  0.199999999999999 3.75  1.3 4.25  C 1.75 4.45  2.25 4.5  2.7 4.75  C 2.95 4.9  3.25 5.2  3.3 5.5  C 3.35 5.75  3.15 6.1  2.9 6.3  C 2.45 6.7  1.8 6.45  1.35 5.9  C 1.15 5.65  0.800000000000001 5.6  0.500000000000002 5.45  C 0.450000000000001 5.8  0.300000000000001 6.25  0.450000000000001 6.4  C 0.950000000000001 6.95  1.55 7.45  2.1 7.9  C 2.2 8  2.55 7.85  2.7 7.75  C 2.95 7.6  3.1 7.35  3.35 7.2  C 4.15 6.75  4.45 6.05  4.35 5.15  Z " fill-rule="nonzero" fill="#ffffff" stroke="none" transform="matrix(1 0 0 1 1249 727 )" />
  </g>
</svg>