<?xml version="1.0" encoding="utf-8"?>
<svg version="1.1" xmlns:xlink="http://www.w3.org/1999/xlink" width="1579px" height="73px" xmlns="http://www.w3.org/2000/svg">
  <g transform="matrix(1 0 0 1 0 -1 )">
    <path d="M 1 6  A 4 4 0 0 1 5 2 L 1574 2  A 4 4 0 0 1 1578 6 L 1578 69  A 4 4 0 0 1 1574 73 L 5 73  A 4 4 0 0 1 1 69 L 1 6  Z " fill-rule="nonzero" fill="#3785cd" stroke="none" />
    <path d="M 0.5 6  A 4.5 4.5 0 0 1 5 1.5 L 1574 1.5  A 4.5 4.5 0 0 1 1578.5 6 L 1578.5 69  A 4.5 4.5 0 0 1 1574 73.5 L 5 73.5  A 4.5 4.5 0 0 1 0.5 69 L 0.5 6  Z " stroke-width="1" stroke-dasharray="3,1" stroke="#cacaca" fill="none" stroke-dashoffset="0.5" />
  </g>
</svg>