<?xml version="1.0" encoding="utf-8"?>
<svg version="1.1" xmlns:xlink="http://www.w3.org/1999/xlink" width="50px" height="50px" xmlns="http://www.w3.org/2000/svg">
  <g transform="matrix(1 0 0 1 0 -429 )">
    <path d="M 0 43.75  L 0 6.25  C 0 2.8125  2.8125 0  6.25 0  L 43.75 0  C 47.1875 0  50 2.8125  50 6.25  L 50 43.75  C 50 47.1875  47.1875 50  43.75 50  L 6.25 50  C 2.8125 50  0 47.1875  0 43.75  Z M 6.25 4  C 4.375 3.125  3.125 4.375  4 6.25  L 4 43.75  C 3.125 45.3125  4.375 46.875  6.25 46  L 43.75 46  C 45.3125 46.875  46.875 45.625  46 43.75  L 46 6.25  C 46.875 4.6875  45.625 3.125  43.75 4  L 6.25 4  Z " fill-rule="nonzero" fill="#bdbdbd" stroke="none" transform="matrix(1 0 0 1 0 429 )" />
  </g>
</svg>