<?xml version="1.0" standalone="no"?><!DOCTYPE svg PUBLIC "-//W3C//DTD SVG 1.1//EN" "http://www.w3.org/Graphics/SVG/1.1/DTD/svg11.dtd"><svg t="1618974970931" class="icon" viewBox="0 0 1024 1024" version="1.1" xmlns="http://www.w3.org/2000/svg" p-id="6065" xmlns:xlink="http://www.w3.org/1999/xlink" width="40" height="40"><defs><style type="text/css"></style></defs><path d="M512 73.28A438.72 438.72 0 1 0 950.72 512 438.72 438.72 0 0 0 512 73.28z m-125.28 649.28H288V392.48h99.36zM336 352a49.28 49.28 0 0 1-51.68-51.2 49.44 49.44 0 0 1 52.32-52A51.68 51.68 0 1 1 336 352z m433.6 370.56h-99.36V539.68c0-42.56-14.24-71.52-50.24-71.52a53.28 53.28 0 0 0-50.4 38.4 74.72 74.72 0 0 0-3.84 25.76v190.24h-99.36v-224c0-41.12-1.28-76.16-2.56-105.28h86.24l4.48 45.28h2.08A115.84 115.84 0 0 1 656 385.12c65.44 0 114.4 44.48 114.4 141.76z" fill="#38A6D7" p-id="6066"></path></svg>