<?xml version="1.0" encoding="utf-8"?>
<svg version="1.1" xmlns:xlink="http://www.w3.org/1999/xlink" width="81px" height="52px" xmlns="http://www.w3.org/2000/svg">
  <g transform="matrix(1 0 0 1 -218 -104 )">
    <path d="M 79.9789733501896 37.9165778508217  C 80.939304323641 26.6694071807838  67.6829705689001 23.0559264222503  67.6829705689001 23.0559264222503  C 67.6829705689001 23.0559264222503  67.1218360050569 4.37843008849558  52.1058369152971 0.666091731984832  C 37.0888963337547 -3.04624662452592  29.8525198482933 12.9846905183312  29.7037626801517 13.4422599747156  C 29.5559470037927 13.8998294310999  28.8187517572693 13.6908162326169  28.8187517572693 13.6908162326169  C 27.6173965107459 12.5384190139064  22.3242780278129 9.89185977243995  16.7628317572693 13.2859708217446  C 11.2060929962073 16.6791403286979  13.2180805562579 23.1246560303413  13.2180805562579 23.1246560303413  C 13.2180805562579 23.1246560303413  4.98088854614412 22.4486583059418  0.757315145385588 35.3340407079646  C -3.46155074589128 48.2326040960809  11.3379031099874 51.885627863464  11.3379031099874 51  L 37 51  L 37 38.1660756005057  L 30.4353089254109 38.1660756005057  L 30.4353089254109 38.1425381036662  C 30.349283561375 38.2008020900497  30.2477692298085 38.2319440748834  30.1438699739556 38.2319440748834  C 29.8568428835277 38.2319440748834  29.6241614530959 37.9992626444517  29.6241614530959 37.7122355540238  C 29.6241614530959 37.4252084635959  29.8568428835277 37.1925270331641  30.1438699739556 37.1925270331641  C 30.1459247481746 37.1925270331641  30.1479795043251 37.192539219121  30.1500341340076 37.1925635903919  L 40.3304841972187 26.3455308723135  C 40.4739119249407 26.1747999472712  40.6846584463933 26.0750993087925  40.907624323641 26.0724955752212  C 41.1477070543616 26.0724955752212  41.3595447787611 26.1948907206068  41.5026528950695 26.3737758786347  L 51.6087243994943 37.1351320353982  C 51.625671403287 37.1464300379267  51.6426184576485 37.1633770417193  51.6595654614412 37.1812655878635  L 51.7574815676359 37.2848306953224  L 51.7235875094817 37.2848306953224  C 51.7744285714286 37.3780392920354  51.8083225790139 37.4590083944374  51.8083226295828 37.5691639949431  C 51.808335279694 37.5707353730122  51.8083416048264 37.5723067956334  51.8083416048264 37.5738782246205  C 51.8083416048264 37.8962086094767  51.5478601878576 38.1579409187249  51.2255335018963 38.1594851074589  C 51.2142354993679 38.1594851074589  51.2142354993679 38.1481871049305  51.2029374968394 38.1481871049305  L 51.2029374968394 38.1717246523388  L 45 38.1717246523388  L 45 51  L 68.2779991908976 51  C 68.2779991908976 51.8912768647282  79.0299403286978 49.1628070290771  79.9789733501896 37.9165778508217  Z " fill-rule="nonzero" fill="#707070" stroke="none" transform="matrix(1 0 0 1 218 104 )" />
  </g>
</svg>