<?xml version="1.0" encoding="utf-8"?>
<svg version="1.1" xmlns:xlink="http://www.w3.org/1999/xlink" width="18px" height="18px" xmlns="http://www.w3.org/2000/svg">
  <g transform="matrix(1 0 0 1 -347 -51 )">
    <path d="M 16.56650390625 5.113671875  C 17.16396484375 4.51265625  17.1630078125 3.54201171875  16.56458984375 2.94197265625  L 15.05556640625 1.4319921875  C 14.4571484375 0.83390625  13.4874609375 0.83390625  12.88931640625 1.43234375  C 12.8887109375 1.43330078125  12.887734375 1.43390625  12.88677734375 1.43486328125  L 10.52818359375 3.79568359375  L 8.638671875 1.90517578125  C 8.0430859375 1.3073828125  7.07501953125 1.30544921875  6.47720703125 1.90134765625  C 6.4759375 1.90263671875  6.47462890625 1.90388671875  6.47337890625 1.90517578125  L 4.05951171875 4.31708984375  L 4.05537109375 4.32029296875  C 4.0531640625 4.32125  4.05439453125 4.3241796875  4.05216796875 4.325390625  L 1.43482421875 6.9415234375  C 0.83638671875 7.540625  0.83638671875 8.51125  1.43482421875 9.11029296875  L 2.8498828125 10.52412109375  L 2.8569140625 10.5353125  L 2.86712890625 10.54263671875  L 5.153515625 12.82873046875  L 5.160546875 12.8398828125  L 5.17171875 12.84724609375  L 7.4578125 15.13232421875  C 7.4609765625 15.1361328125  7.461953125 15.14125  7.4651171875 15.144453125  C 7.4680078125 15.14765625  7.473125 15.1486328125  7.476328125 15.1527734375  L 8.889140625 16.565625  C 9.48662109375 17.1653515625  10.456953125 17.16693359375  11.0566796875 16.5698046875  C 11.05728515625 16.56912109375  11.05794921875 16.5681640625  11.05892578125 16.5675390625  L 16.09619140625 11.53025390625  C 16.69462890625 10.9327734375  16.69525390625 9.9627734375  16.09779296875 9.3643359375  C 16.09779296875 9.3640234375  16.0974609375 9.3640234375  16.09712890625 9.36369140625  L 14.2056640625 7.4722265625  L 16.56650390625 5.113671875  Z M 12.335 13.25048828125  L 10.23837890625 15.34501953125  C 10.05263671875 15.52923828125  9.75267578125 15.528046875  9.5683984375 15.3420703125  L 8.58451171875 14.3584765625  L 9.42326171875 13.5223828125  C 9.6087109375 13.33697265625  9.6087109375 13.036640625  9.42326171875 12.8515234375  C 9.23814453125 12.66615234375  8.937578125 12.66615234375  8.7524609375 12.8515234375  L 7.9145703125 13.68822265625  L 6.448515625 12.2212890625  L 7.95724609375 10.715234375  C 8.1402734375 10.5292578125  8.1402734375 10.230390625  7.95724609375 10.044140625  C 7.77123046875 9.86169921875  7.4732421875 9.86169921875  7.28728515625 10.044140625  L 5.7782421875 11.551015625  L 4.3121875 10.085859375  L 5.150078125 9.25095703125  C 5.3351953125 9.06556640625  5.3351953125 8.76521484375  5.150078125 8.5798046875  C 4.9646484375 8.3944140625  4.6643359375 8.3944140625  4.47892578125 8.5798046875  L 3.64197265625 9.41498046875  L 2.6609765625 8.43408203125  C 2.475859375 8.251328125  2.473828125 7.953125  2.65625 7.76767578125  C 2.6574609375 7.76646484375  2.65890625 7.7653515625  2.6601171875 7.763828125  L 4.75380859375 5.67017578125  L 12.335 13.25048828125  Z M 15.51408203125 4.46650390625  L 15.51138671875 4.46923828125  L 13.32416015625 6.65765625  L 13.0937109375 6.8886328125  L 12.65302734375 7.329375  L 12.6594921875 7.329375  L 15.079296875 9.74912109375  C 15.26404296875 9.93455078125  15.26470703125 10.23427734375  15.08017578125 10.420234375  L 13.17431640625 12.3252734375  L 5.59515625 4.7449609375  L 7.5001953125 2.83990234375  C 7.68201171875 2.65392578125  7.980546875 2.6509765625  8.16595703125 2.833125  C 8.16712074696866 2.83401278415416  8.16820551651478 2.83499953235575  8.16919921875 2.83607421875  L 10.5851171875 5.2519921875  L 10.58306640625 5.25759765625  L 11.10255859375 4.73931640625  L 11.25419921875 4.58763671875  L 13.44265625 2.40099609375  C 13.6275 2.2162109375  13.92748046875 2.2162109375  14.11259765625 2.40099609375  L 15.513515625 3.80193359375  C 15.69712890625 3.98556640625  15.6974609375 4.28291015625  15.51408203125 4.46650390625  Z " fill-rule="nonzero" fill="#ffffff" stroke="none" transform="matrix(1 0 0 1 347 51 )" />
  </g>
</svg>