<?xml version="1.0" encoding="utf-8"?>
<svg version="1.1" xmlns:xlink="http://www.w3.org/1999/xlink" width="10px" height="16px" xmlns="http://www.w3.org/2000/svg">
  <g transform="matrix(1 0 0 1 -12 -52 )">
    <path d="M 1.0506 8.7392  C 0.8468 8.5352  0.7448 8.2676  0.7448 8  C 0.7448 7.7324  0.847 7.4648  1.0508 7.2608  L 7.4708 0.841  C 7.8792 0.4326  8.5412 0.4326  8.9494 0.841  C 9.3576 1.2492  9.3576 1.9112  8.9494 2.3196  L 3.2688 8  L 8.9492 13.6804  C 9.3574 14.0886  9.3574 14.7508  8.9492 15.159  C 8.541 15.5674  7.879 15.5674  7.4706 15.159  L 1.0506 8.7392  Z " fill-rule="nonzero" fill="#333333" stroke="none" transform="matrix(1 0 0 1 12 52 )" />
  </g>
</svg>