<?xml version="1.0" encoding="utf-8"?>
<svg version="1.1" xmlns:xlink="http://www.w3.org/1999/xlink" width="279px" height="55px" xmlns="http://www.w3.org/2000/svg">
  <g transform="matrix(1 0 0 1 -14 -228 )">
    <path d="M 14 262.644444444444  C 14 262.644444444444  14 231  14 231  C 14 229.343145750508  15.3431457505076 228  17 228  C 17 228  290 228  290 228  C 291.656854249492 228  293 229.343145750508  293 231  C 293 231  293 262.644444444444  293 262.644444444444  C 293 264.301298693937  291.656854249492 265.644444444444  290 265.644444444444  C 290 265.644444444444  47.3846153846154 265.644444444444  47.3846153846154 265.644444444444  C 47.3846153846154 265.644444444444  38 283  38 283  C 38 283  27.3846153846154 265.644444444444  27.3846153846154 265.644444444444  C 27.3846153846154 265.644444444444  17 265.644444444444  17 265.644444444444  C 15.3431457505076 265.644444444444  14 264.301298693937  14 262.644444444444  Z " fill-rule="nonzero" fill="#282828" stroke="none" />
  </g>
</svg>