<?xml version="1.0" encoding="utf-8"?>
<svg version="1.1" xmlns:xlink="http://www.w3.org/1999/xlink" width="60px" height="60px" xmlns="http://www.w3.org/2000/svg">
  <defs>
    <filter x="303px" y="695px" width="60px" height="60px" filterUnits="userSpaceOnUse" id="filter165">
      <feOffset dx="0" dy="0" in="SourceAlpha" result="shadowOffsetInner" />
      <feGaussianBlur stdDeviation="2.5" in="shadowOffsetInner" result="shadowGaussian" />
      <feComposite in2="shadowGaussian" operator="atop" in="SourceAlpha" result="shadowComposite" />
      <feColorMatrix type="matrix" values="0 0 0 0 0  0 0 0 0 0  0 0 0 0 0  0 0 0 0.2 0  " in="shadowComposite" />
    </filter>
    <g id="widget166">
      <path d="M 50 25  C 50 38.8067307617187  38.8067307617187 50  25 50  C 11.1932692382812 50  0 38.8067307617187  0 25  C 0 11.1932692382812  11.1932692382812 0  25 0  C 38.8067307617187 0  50 11.1932692382812  50 25  Z M 36.5384615234375 23.0769230957031  L 26.9230769042969 23.0769230957031  L 26.9230769042969 13.4615384765625  C 26.9230769042969 12.3994524295675  26.062086046995 11.5384615722656  25 11.5384615722656  C 23.937913953005 11.5384615722656  23.0769230957031 12.3994524295675  23.0769230957031 13.4615384765625  L 23.0769230957031 23.0769230957031  L 13.4615384765625 23.0769230957031  C 12.3994524295675 23.0769230957031  11.5384615722656 23.937913953005  11.5384615722656 25  C 11.5384615722656 26.062086046995  12.3994524295675 26.9230769042969  13.4615384765625 26.9230769042969  L 23.0769230957031 26.9230769042969  L 23.0769230957031 36.5384615234375  C 23.0769230957031 37.6005475704325  23.937913953005 38.4615384277344  25 38.4615384277344  C 26.062086046995 38.4615384277344  26.9230769042969 37.6005475704325  26.9230769042969 36.5384615234375  L 26.9230769042969 26.9230769042969  L 36.5384615234375 26.9230769042969  C 37.6005475704325 26.9230769042969  38.4615384277344 26.062086046995  38.4615384277344 25  C 38.4615384277344 23.937913953005  37.6005475704325 23.0769230957031  36.5384615234375 23.0769230957031  Z " fill-rule="nonzero" fill="#0085ff" stroke="none" transform="matrix(1 0 0 1 308 700 )" />
    </g>
  </defs>
  <g transform="matrix(1 0 0 1 -303 -695 )">
    <use xlink:href="#widget166" filter="url(#filter165)" />
    <use xlink:href="#widget166" />
  </g>
</svg>