<?xml version="1.0" encoding="utf-8"?>
<svg version="1.1" xmlns:xlink="http://www.w3.org/1999/xlink" width="24px" height="24px" xmlns="http://www.w3.org/2000/svg">
  <g transform="matrix(1 0 0 1 -294 -126 )">
    <path d="M 22.3450020833348 23.4725000000014  C 22.3450013901298 23.4725000000014  22.345000693205 23.472500000001  22.345 23  L 1.975 23  C 1.1475 23.4725  0.475000000000001 22.8  0.475000000000001 21.9725  L 0.475000000000001 1.6  C 0.475000000000001 0.7725  1.1475 0.1  1.975 0.1  C 14.035 0.1  23.845 9.91  23.845 21.97  C 23.8450013888896 21.9708333326097  23.8450020833348 21.9716666662343  23.8450020833348 21.9725000000014  C 23.8450020833348 22.8009271247476  23.173429208081 23.4725000000014  22.3450020833348 23.4725000000014  Z M 3.47500000000001 3.16  L 3.47500000000001 20  L 20.7875 20  C 20.06 11.26  12.6875 3.89  3.47500000000001 3.16  Z " fill-rule="nonzero" fill="#ff623e" stroke="none" transform="matrix(1 0 0 1 294 126 )" />
  </g>
</svg>