<?xml version="1.0" encoding="utf-8"?>
<svg version="1.1" xmlns:xlink="http://www.w3.org/1999/xlink" width="39px" height="42px" xmlns="http://www.w3.org/2000/svg">
  <g transform="matrix(1 0 0 1 -94 -128 )">
    <path d="M 6.5 1  L 35.6666666503906 1  C 37.3925564936119 0.166666650390625  38.7916666503906 1.56577680716939  38.7916666503906 3.29166665039062  L 38.7916666503906 38.7083333496094  C 38.7916666503906 40.4342231928306  37.3925564936119 41.8333333496094  35.6666666503906 41  L 6.5 41  C 4.77411015677877 41.8333333496094  3.375 40.4342231928306  3.375 38.7083333496094  L 3.375 32.4583333496094  L 1.8125 32.4583333496094  C 0.949555078389386 32.4583333496094  0.25 31.75877827122  0.25 30.8958333496094  C 0.25 30.0328884279988  0.949555078389386 29.3333333496094  1.8125 29.3333333496094  L 3.375 29.3333333496094  L 3.375 23.0833333496094  L 1.8125 23.0833333496094  C 0.949555078389386 23.0833333496094  0.25 22.38377827122  0.25 21.5208333496094  C 0.25 20.6578884279988  0.949555078389386 19.9583333496094  1.8125 19.9583333496094  L 3.375 19.9583333496094  L 3.375 13.7083333496094  L 1.8125 13.7083333496094  C 0.949555078389386 13.7083333496094  0.25 13.00877827122  0.25 12.1458333496094  C 0.25 11.2828884279988  0.949555078389386 10.5833333496094  1.8125 10.5833333496094  L 3.375 10.5833333496094  L 3.375 3.29166665039062  C 3.375 1.5657768071694  4.77411015677877 0.166666650390625  6.5 1  Z M 34.625 3.29166665039062  C 34.5381944458008 3.29166665039062  34.7118055541992 3.29166665039062  34.625 4  L 7.54166665039062 4  C 7.01356785572314 3.29173630953649  6.56907918152083 3.68698657460286  6.50729165039062 4.21145834960937  L 7 4.33333334960937  L 7 37.6666666503906  C 6.50006965622731 38.1947654284949  6.89531989475028 38.6392540964433  7.41979165039062 38.7010416503906  L 7.54166665039062 38  L 34.625 38  C 35.1530987946675 38.7082636904635  35.5975874688698 38.3130134253971  35.659375 37.7885416503906  L 35 37.6666666503906  L 35 4.33333334960937  C 35.6666666503906 4.33333332329298  35.6666666503906 4.33333332709764  35.6666666503906 4.33333330078125  C 35.6666666503906 3.75803669536318  35.2002966054181 3.29166665039062  34.625 3.29166665039062  Z M 25.7083333496094 11.0416666503906  C 26.318489367556 10.4316948717455  27.3075523316628 10.4316948717455  27.9177083496094 11.0416666503906  C 28.5276801282545 11.6518226683372  28.5276801282545 12.640885632444  27.9177083496094 13.2510416503906  L 24.3614583496094 16.80625  L 27.8541666503906 16.80625  C 28.7171115720012 16.80625  29.4166666503906 17.5058050783894  29.4166666503906 18.36875  C 29.4166666503906 19.2316949216106  28.7171115720012 19.93125  27.8541666503906 19.93125  L 22.5770833496094 19.93125  L 22.5770833496094 23.05625  L 27.8541666503906 23.05625  C 28.7171115720012 23.05625  29.4166666503906 23.7558050783894  29.4166666503906 24.61875  C 29.4166666503906 25.4816949216106  28.7171115720012 26.18125  27.8541666503906 26.18125  L 22.5770833496094 26.18125  L 22.5770833496094 31.9375  C 22.5770833496094 32.8004449216106  21.87752827122 33.5  21.0145833496094 33.5  C 20.1516384279988 33.5  19.4520833496094 32.8004449216106  19.4520833496094 31.9375  L 19.4520833496094 26.18125  L 14.3125 26.18125  C 13.4495550783894 26.18125  12.75 25.4816949216106  12.75 24.61875  C 12.75 23.7558050783894  13.4495550783894 23.05625  14.3125 23.05625  L 19.4520833496094 23.05625  L 19.4520833496094 19.93125  L 14.3125 19.93125  C 13.4495550783894 19.93125  12.75 19.2316949216106  12.75 18.36875  C 12.75 17.5058050783894  13.4495550783894 16.80625  14.3125 16.80625  L 17.8375 16.80625  L 14.2822916503906 13.2510416503906  C 13.9890819168118 12.9579700907771  13.8243467832814 12.5603968148078  13.8243467832814 12.1458333251953  C 13.8243467832814 11.2828152992489  14.5239611244442 10.5832009580861  15.3869791503906 10.5832009580861  C 15.8012874063982 10.5832009580861  16.1986374367543 10.7477338752596  16.4916666503906 11.040625  L 21.0989583496094 15.6489583496094  L 25.7083333496094 11.0416666503906  Z " fill-rule="nonzero" fill="#515151" stroke="none" transform="matrix(1 0 0 1 94 128 )" />
  </g>
</svg>