<?xml version="1.0" encoding="utf-8"?>
<svg version="1.1" xmlns:xlink="http://www.w3.org/1999/xlink" width="43px" height="44px" xmlns="http://www.w3.org/2000/svg">
  <g transform="matrix(1 0 0 1 -274 -126 )">
    <path d="M 35.1325 39.445  C 31.3175 42.32  26.7675 43.8425  21.975 43.8425  C 9.915 43.8425  0.105 34.0325  0.105 21.9725  C 0.105 12.26  6.62 3.6125  15.9475 0.942499999999999  C 16.745 0.714999999999999  17.575 1.175  17.8025 1.9725  C 18.03 2.77  17.57 3.6  16.7725 3.8275  C 8.725 6.13  3.105 13.59  3.105 21.9725  C 3.105 32.3775  11.57 40.8425  21.975 40.8425  C 30.23 40.8425  37.66 35.33  40.0425 27.435  C 40.2336124618822 26.8016962867237  40.8170261330128 26.3683540074668  41.4785377098853 26.3683540074668  C 41.6255536742367 26.3683540074668  41.7717710256163 26.3899670769511  41.9125 26.4325  C 42.705 26.6725  43.155 27.51  42.915 28.3025  C 41.585 32.705  38.8225 36.6625  35.1325 39.445  Z " fill-rule="nonzero" fill="#515151" stroke="none" transform="matrix(1 0 0 1 274 126 )" />
  </g>
</svg>