<?xml version="1.0" encoding="utf-8"?>
<svg version="1.1" xmlns:xlink="http://www.w3.org/1999/xlink" width="13px" height="13px" xmlns="http://www.w3.org/2000/svg">
  <g transform="matrix(1 0 0 1 -25 -292 )">
    <path d="M 6.82599238820171 0.819309876308278  C 6.20955509039011 0.219074100856328  5.22328654614653 0.23231573739296  4.62308970504282 0.848792007611799  L 0.550545233111323 5.0319431018078  C -0.0496516079923888 5.64845830637488  -0.0364489058039963 6.63468791627022  0.580027364414843 7.2348457849667  L 6.42387493815414 11.8364717031399  C 7.04035120837298 12.4366296098953  8.02661975261656 12.4234658420552  8.62681659372027 11.8069506374881  L 11.612066565176 8.74069297811608  C 12.2122244719315 8.12421670789724  12.1989827973359 7.13794816365366  11.5825454995243 6.53779029495718  L 6.82599238820171 0.819309876308278  Z M 5.94402123691722 2.8323897621313  L 9.70262199809705 7.36169294005709  C 9.85673134157945 7.51171292102759  9.86004175071361 7.75831901046622  9.70998279733587 7.91242835394862  L 7.74788323501427 9.92780605137964  C 7.59782428163654 10.0819543292103  7.35125716460514 10.0852258039962  7.19714782112274 9.93516685061846  L 2.56868810656518 6.29928494766889  C 2.41457876308278 6.14922599429115  2.41126835394862 5.90265887725975  2.56132730732635 5.74854953377735  L 5.39328582302569 2.83975056137012  C 5.54330580399619 2.68560228353949  5.78991189343482 2.68233080875357  5.94402123691722 2.8323897621313  Z " fill-rule="nonzero" fill="#515151" stroke="none" transform="matrix(1 0 0 1 25 292 )" />
  </g>
</svg>