<?xml version="1.0" encoding="utf-8"?>
<svg version="1.1" xmlns:xlink="http://www.w3.org/1999/xlink" width="36px" height="36px" xmlns="http://www.w3.org/2000/svg">
  <g transform="matrix(1 0 0 1 -24 -289 )">
    <path d="M 27.7602697621313 0.681625233111323  C 27.1347580209324 0.0726655375832541  26.1340405328259 0.0860240152235967  25.5251197716461 0.711535756422455  L 25.184186489058 1.06169925784967  L 33.16176867745 8.82838884871551  L 32.072449019981 9.94726854424358  L 32.0848338344434 9.95938074215034  L 30.316724300666 11.7754717411989  L 28.8879902188392 13.2430349762131  L 27.4592172026641 14.7105592768792  L 26.0305220551855 16.1781225118934  L 24.6017490390105 17.645568943863  L 24.2150541960038 18.0427792197907  L 23.1730149571836 19.1130543101808  L 15.1831258230257 11.3343303901047  L 13.7543138344434 12.8018936251189  L 21.7319349571836 20.5685832159848  L 20.7033710371075 21.6251103710752  L 20.7157169172217 21.6371836346337  L 18.8868905803996 23.5156661465271  L 17.4581175642245 24.9832293815414  L 16.0293834823977 26.4507536822074  L 14.6006494005709 27.9182779828735  L 13.1719153187441 29.3858022835395  L 12.8458983444339 29.7206989533777  L 11.7432202093244 30.8533655185538  L 11.7307964224548 30.8412143482398  L 10.302062340628 32.308777583254  L 9.93530785918173 32.6854633301618  L 8.8732893244529 33.7763018839201  L 0.895824015223597 26.0095343862988  L 0.578530922930542 26.3354345195052  C -0.0304287725975265 26.9609851950523  -0.0170313225499528 27.9617416555661  0.608480380589914 28.5707013510942  L 7.7696764605138 35.5425419600381  C 8.39518820171265 36.1515405899144  9.39590572787821 36.1381042055186  10.0048653853473 35.5125925023787  L 34.9514152997146 9.88865476688868  C 35.5604528639391 9.26310409134158  35.5469775451951 8.26246447193149  34.921426869648 7.65346584205519  L 27.7602697621313 0.681625233111323  Z " fill-rule="nonzero" fill="#515151" stroke="none" transform="matrix(1 0 0 1 24 289 )" />
  </g>
</svg>