<?xml version="1.0" encoding="utf-8"?>
<svg version="1.1" xmlns:xlink="http://www.w3.org/1999/xlink" width="15px" height="24px" xmlns="http://www.w3.org/2000/svg">
  <g transform="matrix(1 0 0 1 -27 -14 )">
    <path d="M 14.03234375 3.76453125  C 14.144776416504 3.67503901354708  14.2104777569816 3.53932522101199  14.2109375 3.395625  L 14.2109375 1.130625  C 14.2108378347689 1.00151269051967  14.1061436676364 0.896899308411542  13.9770313196889 0.896899308411542  C 13.9248851432601 0.896899308411542  13.8742342857492 0.914324318304188  13.833125 0.946406249999999  L 0.626093749999999 11.26171875  C 0.398616528236428 11.4385260924502  0.265550770047114 11.7104848768885  0.265550770047114 11.99859375  C 0.265550770047114 12.2867026231115  0.398616528236428 12.5586614075498  0.626093749999999 12.73546875  L 13.833125 23.05078125  C 13.8742792230274 23.0831732081519  13.9251305776811 23.1007849645472  13.9775033666645 23.1007849645472  C 14.1064273379532 23.1007849645472  14.2109408666645 22.9962714358359  14.2109408666645 22.8673474645472  C 14.2109408666645 22.8669295574382  14.210939744439 22.8665116510819  14.2109375 22.86609375  L 14.2109375 20.6015625  C 14.2109375 20.458125  14.1434375 20.3203125  14.03234375 20.2321875  L 3.48546875 12  L 14.03234375 3.76453125  Z " fill-rule="nonzero" fill="#000000" stroke="none" transform="matrix(1 0 0 1 27 14 )" />
  </g>
</svg>