<?xml version="1.0" encoding="utf-8"?>
<svg version="1.1" xmlns:xlink="http://www.w3.org/1999/xlink" width="12px" height="14px" xmlns="http://www.w3.org/2000/svg">
  <g transform="matrix(1 0 0 1 -46 -173 )">
    <path d="M 10.6375 7.01875  C 12.703125 4.0375  11.928125 2.696875  8.3140625 2.99375  C 6.765625 -0.2859375  5.215625 -0.2859375  3.6671875 2.99375  C 0.0531250000000001 2.6953125  -0.721875 4.0375  1.34375 7.01875  C -0.7234375 10  0.0515625000000002 11.3421875  3.665625 11.04375  C 5.2140625 14.3234375  6.7640625 14.3234375  8.3125 11.04375  C 11.928125 11.3421875  12.703125 10  10.6375 7.01875  Z M 8.5265625 5.5234375  C 8.7390625 5.734375  8.7390625 6.0765625  8.5265625 6.2875  L 5.7265625 9.0890625  C 5.515625 9.3  5.1734375 9.3  4.9625 9.0890625  L 3.1796875 7.30625  C 2.96875 7.0953125  2.96875 6.753125  3.1796875 6.5421875  C 3.390625 6.33125  3.7328125 6.33125  3.94375 6.5421875  L 5.34375 7.9421875  L 7.7625 5.5234375  C 7.9734375 5.3125  8.315625 5.3125  8.5265625 5.5234375  Z " fill-rule="nonzero" fill="#999999" stroke="none" transform="matrix(1 0 0 1 46 173 )" />
  </g>
</svg>