<?xml version="1.0" encoding="utf-8"?>
<svg version="1.1" xmlns:xlink="http://www.w3.org/1999/xlink" width="10px" height="12px" xmlns="http://www.w3.org/2000/svg">
  <g transform="matrix(1 0 0 1 -285 -167 )">
    <path d="M 9.3546875 6.3296875  C 9.5390625 6.1484375  9.5390625 5.8515625  9.35625 5.66875  L 4.640625 0.953125  C 4.4578125 0.7703125  4.1609375 0.7703125  3.978125 0.953125  C 3.7953125 1.1359375  3.7953125 1.4328125  3.978125 1.615625  L 8.3609375 6  L 3.978125 10.3828125  C 3.7953125 10.565625  3.7953125 10.8625  3.978125 11.0453125  C 4.0703125 11.1375  4.1890625 11.1828125  4.309375 11.1828125  C 4.4296875 11.1828125  4.55 11.1375  4.640625 11.0453125  L 9.3546875 6.3296875  Z M 6.021875 6.3296875  C 6.20625 6.1484375  6.20625 5.8515625  6.021875 5.66875  L 1.3078125 0.953125  C 1.125 0.7703125  0.828125 0.7703125  0.6453125 0.953125  C 0.462499999999999 1.1359375  0.4625 1.4328125  0.6453125 1.615625  L 5.028125 6  L 0.6453125 10.3828125  C 0.4625 10.565625  0.4625 10.8625  0.6453125 11.0453125  C 0.7375 11.1375  0.85625 11.1828125  0.9765625 11.1828125  C 1.096875 11.1828125  1.2171875 11.1375  1.3078125 11.0453125  L 6.021875 6.3296875  Z " fill-rule="nonzero" fill="#0085ff" stroke="none" transform="matrix(1 0 0 1 285 167 )" />
  </g>
</svg>