<?xml version="1.0" encoding="utf-8"?>
<svg version="1.1" xmlns:xlink="http://www.w3.org/1999/xlink" width="82px" height="82px" xmlns="http://www.w3.org/2000/svg">
  <g transform="matrix(1 0 0 1 -611 -243 )">
    <path d="M 3.5 1  L 50.375 1  C 52.1008898432212 0.375  53.5 1.77411015677877  53 3.5  L 53 31  L 78.99375 35.08125  C 80.5092412819995 35.3237434051884  81.6243260406229 36.6308558241449  81 38.165625  L 81 78.5  C 81.625 80.2258898432212  80.2258898432212 81.625  78.5 81  L 3.5 81  C 1.77411015677877 81.625  0.375 80.2258898432212  1 78.5  L 1 3.5  C 0.375 1.77411015677877  1.77411015677877 0.375  3.5 1  Z M 22.25 58.1875  C 22.25 57.3245550783894  21.5504449216106 56.625  20.6875 56.625  L 11.3125 56.625  C 10.5578365291987 56.6247484105479  9.91083939035556 57.1639126929172  9.775 57.90625  L 9.75 58.1875  L 9.75 67.5625  C 9.74974841054792 68.3171634708013  10.2889126929172 68.9641606096444  11.03125 69.1  L 11.3125 69.125  L 20.6875 69.125  C 21.4421634708013 69.1252515894521  22.0891606096444 68.5860873070828  22.225 67.84375  L 22.25 67.5625  L 22.25 58.1875  Z M 44.125 58.1875  C 44.125 57.3245550783894  43.4254449216106 56.625  42.5625 56.625  L 33.1875 56.625  C 32.4328365291987 56.6247484105479  31.7858393903556 57.1639126929172  31.65 57.90625  L 31.625 58.1875  L 31.625 67.5625  C 31.6247484105479 68.3171634708013  32.1639126929172 68.9641606096444  32.90625 69.1  L 33.1875 69.125  L 42.5625 69.125  C 43.3171634708013 69.1252515894521  43.9641606096444 68.5860873070828  44.1 67.84375  L 44.125 67.5625  L 44.125 58.1875  Z M 74.915625 59.771875  L 74.75 59  L 60.375 59  C 60.0934342538605 59.749788400349  59.8464898642874 59.9378755778995  59.771875 60.209375  L 59.75 60.375  L 59.75 65.375  C 59.749788400349 65.6565657461395  59.9378755778995 65.9035101357127  60.209375 65.978125  L 60.375 66  L 74.75 66  C 75.0315657461395 66.000211599651  75.2785101357126 65.8121244221005  75.353125 65.540625  L 75.375 65.375  L 75.375 60.375  C 75.375211599651 60.0934342538605  75.1871244221005 59.8464898642874  74.915625 59.771875  Z M 74.915625 47.271875  L 74.75 47  L 60.375 47  C 60.0934342538605 47.249788400349  59.8464898642874 47.4378755778995  59.771875 47.709375  L 59.75 47.875  L 59.75 52.875  C 59.749788400349 53.1565657461395  59.9378755778995 53.4035101357127  60.209375 53.478125  L 60.375 53  L 74.75 53  C 75.0315657461395 53.500211599651  75.2785101357126 53.3121244221005  75.353125 53.040625  L 75.375 52.875  L 75.375 47.875  C 75.375211599651 47.5934342538605  75.1871244221005 47.3464898642874  74.915625 47.271875  Z M 22.25 36.3125  C 22.25 35.4495550783894  21.5504449216106 34.75  20.6875 34.75  L 11.3125 34.75  C 10.5578365291987 34.7497484105479  9.91083939035556 35.2889126929172  9.775 36.03125  L 9.75 36.3125  L 9.75 45.6875  C 9.74974841054792 46.4421634708013  10.2889126929172 47.0891606096444  11.03125 47.225  L 11.3125 47.25  L 20.6875 47.25  C 21.4421634708013 47.2502515894521  22.0891606096444 46.7110873070828  22.225 45.96875  L 22.25 45.6875  L 22.25 36.3125  Z M 44.125 36.3125  C 44.125 35.4495550783894  43.4254449216106 34.75  42.5625 34.75  L 33.1875 34.75  C 32.4328365291987 34.7497484105479  31.7858393903556 35.2889126929172  31.65 36.03125  L 31.625 36.3125  L 31.625 45.6875  C 31.6247484105479 46.4421634708013  32.1639126929172 47.0891606096444  32.90625 47.225  L 33.1875 47.25  L 42.5625 47.25  C 43.3171634708013 47.2502515894521  43.9641606096444 46.7110873070828  44.1 45.96875  L 44.125 45.6875  L 44.125 36.3125  Z M 22.25 14.4375  C 22.25 13.5745550783894  21.5504449216106 12.875  20.6875 12.875  L 11.3125 12.875  C 10.5578365291987 12.8747484105479  9.91083939035556 13.4139126929172  9.775 14.15625  L 9.75 14.4375  L 9.75 23.8125  C 9.74974841054792 24.5671634708013  10.2889126929172 25.2141606096444  11.03125 25.35  L 11.3125 25.375  L 20.6875 25.375  C 21.4421634708013 25.3752515894521  22.0891606096444 24.8360873070828  22.225 24.09375  L 22.25 23.8125  L 22.25 14.4375  Z M 44.125 14.4375  C 44.125 13.5745550783894  43.4254449216106 12.875  42.5625 12.875  L 33.1875 12.875  C 32.4328365291987 12.8747484105479  31.7858393903556 13.4139126929172  31.65 14.15625  L 31.625 14.4375  L 31.625 23.8125  C 31.6247484105479 24.5671634708013  32.1639126929172 25.2141606096444  32.90625 25.35  L 33.1875 25.375  L 42.5625 25.375  C 43.3171634708013 25.3752515894521  43.9641606096444 24.8360873070828  44.1 24.09375  L 44.125 23.8125  L 44.125 14.4375  Z " fill-rule="nonzero" fill="#d7d7d7" stroke="none" transform="matrix(1 0 0 1 611 243 )" />
  </g>
</svg>