<?xml version="1.0" encoding="utf-8"?>
<svg version="1.1" xmlns:xlink="http://www.w3.org/1999/xlink" width="176px" height="176px" xmlns="http://www.w3.org/2000/svg">
  <g transform="matrix(1 0 0 1 -564 -196 )">
    <path d="M 175.412563453412 87.90625  C 175.412563453412 111.114239838295  166.192614242795 133.371560300778  149.78125 149.78125  C 133.3720736196 166.188752060067  111.117459344886 175.40625  87.9125634534117 175.40625  C 39.5876478432172 175.40625  0.412563453411657 136.231165610194  0.412563453411657 87.90625  C 0.412563453411657 39.5813343898056  39.5876478432172 0.406250000000011  87.9125634534117 0.406250000000011  C 111.117459344886 0.406250000000011  133.3720736196 9.62374793993305  149.78125 26.03125  C 166.192614242795 42.4409396992217  175.412563453412 64.6982601617046  175.412563453412 87.90625  Z M 33.46875 45.96875  C 12.4032635374015 73.3369092814639  14.8899192135526 112.080609009883  39.28125 136.53125  C 63.7318909901173 160.922580786447  102.475590718536 163.409236462598  129.84375 142.34375  L 33.46875 45.96875  Z M 142.34375 129.84375  C 163.409236462599 102.475590718536  160.922580786447 63.7318909901173  136.53125 39.28125  C 112.080609009883 14.8899192135526  73.3369092814639 12.4032635374015  45.96875 33.46875  L 142.34375 129.84375  Z " fill-rule="nonzero" fill="#d7d7d7" stroke="none" transform="matrix(1 0 0 1 564 196 )" />
  </g>
</svg>