<?xml version="1.0" encoding="utf-8"?>
<svg version="1.1" xmlns:xlink="http://www.w3.org/1999/xlink" width="44px" height="44px" xmlns="http://www.w3.org/2000/svg">
  <g transform="matrix(1 0 0 1 -154 -81 )">
    <path d="M 43 1  L 43 43  L 1 43  L 1 1  L 43 1  Z M 5 39.60825  L 4.155 39  L 39 39  L 39 5  L 5 5  L 5 39.60825  Z M 8.026 20.01375  L 8.02625 20  L 35.8075 20  L 35.8075 24  L 8.026 24  L 8.026 20.01375  Z M 20 8.101  L 19.93075 8.10125  L 24 8.10125  L 24 35.88225  L 20 35.88225  L 20 8.101  Z " fill-rule="nonzero" fill="#8a8a8a" stroke="none" transform="matrix(1 0 0 1 154 81 )" />
  </g>
</svg>