<?xml version="1.0" encoding="utf-8"?>
<svg version="1.1" xmlns:xlink="http://www.w3.org/1999/xlink" width="1304px" height="73px" xmlns="http://www.w3.org/2000/svg">
  <g>
    <path d="M 1 5  A 4 4 0 0 1 5 1 L 1299 1  A 4 4 0 0 1 1303 5 L 1303 68  A 4 4 0 0 1 1299 72 L 5 72  A 4 4 0 0 1 1 68 L 1 5  Z " fill-rule="nonzero" fill="#f3f3f3" stroke="none" />
    <path d="M 0.5 5  A 4.5 4.5 0 0 1 5 0.5 L 1299 0.5  A 4.5 4.5 0 0 1 1303.5 5 L 1303.5 68  A 4.5 4.5 0 0 1 1299 72.5 L 5 72.5  A 4.5 4.5 0 0 1 0.5 68 L 0.5 5  Z " stroke-width="1" stroke-dasharray="3,1" stroke="#cacaca" fill="none" stroke-dashoffset="0.5" />
  </g>
</svg>