<?xml version="1.0" encoding="utf-8"?>
<svg version="1.1" xmlns:xlink="http://www.w3.org/1999/xlink" width="13px" height="14px" xmlns="http://www.w3.org/2000/svg">
  <g transform="matrix(1 0 0 1 -1558 -20 )">
    <path d="M 12.3702466972656 1.25032358007813  C 12.3702466972656 0.559788934447136  11.8104577628185 0  11.1199231171875 0  L 1.3347820390625 0  C 0.644247379759636 0  0.0844584453125001 0.559788934447136  0.0844584453125001 1.25032358007813  C 0.0844584453125001 1.25032358007813  0.0844584453125 1.25032358007813  0 1.25032358007813  L 0 12.7496764199219  C 0.0844584453125012 13.4402110655529  0.644247379759637 14  1.33478202539063 14  L 4.84656044140625 14  L 5.76346441015625 11.0028475292969  L 11.9244791640625 4.89619466601563  C 12.0407655482662 4.77507872084483  12.2023754919127 4.70806971740281  12.3702466972656 4.71136421875  L 12.3702466972656 1.25032358007813  Z M 4.56387859375 10.3070152773437  L 2.38940279101563 10.3070152773437  C 2.18924782022791 10.3070152773437  2.02699015722656 10.1447576143424  2.02699015722656 9.94460264355469  C 2.02699015722656 9.74444767276698  2.18924782022791 9.58219000976563  2.38940279101563 9.58219000976563  L 4.56387859375 9.58219000976563  C 4.76403356453771 9.58219000976563  4.92629122753906 9.74444767276698  4.92629122753906 9.94460264355469  C 4.92629122753906 10.1447576143424  4.76403356453771 10.3070152773437  4.56387859375 10.3070152773437  Z M 6.97029846679687 6.682888953125  L 6.98479497460938 6.682888953125  L 2.374906296875 6.682888953125  C 2.17475132608729 6.682888953125  2.01249366308594 6.52063129012365  2.01249366308594 6.32047631933594  C 2.01249366308594 6.12032134854823  2.17475132608729 5.95806368554688  2.374906296875 5.95806368554688  L 6.97029846679687 5.95806368554688  C 7.17045343758459 5.95806368554688  7.33271110058594 6.12032134854823  7.33271110058594 6.32047631933594  C 7.33271110058594 6.52063129012365  7.17045343758459 6.682888953125  6.97029846679687 6.682888953125  Z M 10.0326852226563 3.05876261523437  L 10.0363093496094 3.05876261523437  L 2.374906296875 3.05876261523437  C 2.17475132608729 3.05876261523437  2.01249366308594 2.89650495223302  2.01249366308594 2.69634998144531  C 2.01249366308594 2.4961950106576  2.17475132608729 2.33393734765625  2.374906296875 2.33393734765625  L 10.0326852226563 2.33393734765625  C 10.232840193444 2.33393734765625  10.3950978564453 2.4961950106576  10.3950978564453 2.69634998144531  C 10.3950978564453 2.89650495223302  10.232840193444 3.05876261523437  10.0326852226563 3.05876261523437  Z " fill-rule="nonzero" fill="#ffffff" stroke="none" transform="matrix(1 0 0 1 1558 20 )" />
  </g>
</svg>