<?xml version="1.0" encoding="utf-8"?>
<svg version="1.1" xmlns:xlink="http://www.w3.org/1999/xlink" width="14px" height="13px" xmlns="http://www.w3.org/2000/svg">
  <g transform="matrix(1 0 0 1 -1328 -20 )">
    <path d="M 7 0.745882359375  L 7 11.55717646875  L 8.254588234375 11.55717646875  L 8.254588234375 3.4  L 12.26682353125 5.11952940625  C 12.4975262626796 5.21851598555859  12.6470738757999 5.44542857944591  12.647058828125 5.69647059375  L 12.647058828125 11.55717646875  L 13.9016470625 11.55717646875  L 13.9016470625 12.811764703125  L 0.0983529375000001 12.811764703125  L 0.0983529375000001 11.55717646875  L 1.352941171875 11.55717646875  L 1.352941171875 3.180705875  C 1.35274223304464 2.93247735695347  1.49883034375212 2.70744264848108  1.7256470625 2.606588234375  L 6.558588234375 0.45882353125  C 6.59885641365165 0.440806319907123  6.64247461195867 0.431493125761729  6.68658975864131 0.431493125761729  C 6.85968229721354 0.431493125761729  7.00000152426631 0.571812352814498  7.00000152426631 0.744904891386729  Z " fill-rule="nonzero" fill="#ffffff" stroke="none" transform="matrix(1 0 0 1 1328 20 )" />
  </g>
</svg>