<?xml version="1.0" encoding="utf-8"?>
<svg version="1.1" xmlns:xlink="http://www.w3.org/1999/xlink" width="23px" height="25px" xmlns="http://www.w3.org/2000/svg">
  <g transform="matrix(1 0 0 1 -108 -11 )">
    <path d="M 4.34444444444445 7.30263157894737  L 0.383333333333333 11.5131578947368  C 0.255555555555556 11.6447368421053  0.127777777777778 11.8421052631579  0.127777777777778 12.1052631578947  C 0.127777777777778 12.3026315789474  0.191666666666667 12.5  0.383333333333333 12.6973684210526  L 4.34444444444445 16.9078947368421  C 4.47222222222222 16.9736842105263  4.66388888888889 17.1052631578947  4.91944444444444 17.1052631578947  C 5.11111111111111 17.1052631578947  5.36666666666667 17.0394736842105  5.49444444444445 16.8421052631579  L 9.64722222222222 12.6315789473684  C 9.775 12.5  9.90277777777778 12.3026315789474  9.90277777777778 12.0394736842105  C 9.90277777777778 11.7763157894737  9.83888888888889 11.5789473684211  9.64722222222222 11.4473684210526  L 5.49444444444445 7.30263157894737  C 5.36666666666667 7.17105263157895  5.175 7.03947368421053  4.91944444444445 7.03947368421053  C 4.72777777777778 7.03947368421053  4.53611111111111 7.10526315789474  4.34444444444445 7.30263157894737  Z M 22.8722222222222 6.71052631578947  L 22.8722222222222 1.44736842105263  C 22.8722222222222 1.25  22.8083333333333 1.05263157894737  22.6166666666667 0.855263157894737  C 22.4888888888889 0.723684210526316  22.2333333333333 0.592105263157895  22.0416666666667 0.592105263157895  L 15.7166666666667 0.592105263157895  C 15.525 0.592105263157895  15.3333333333333 0.657894736842105  15.1416666666667 0.855263157894737  C 15.0138888888889 0.986842105263158  14.8861111111111 1.25  14.8861111111111 1.44736842105263  L 14.8861111111111 3.0921052631579  L 11.3083333333333 3.0921052631579  C 11.1166666666667 3.0921052631579  10.925 3.15789473684211  10.7333333333333 3.35526315789474  C 10.6055555555556 3.48684210526316  10.4777777777778 3.75  10.4777777777778 3.94736842105263  L 10.4777777777778 20.3947368421053  C 10.4777777777778 20.5921052631579  10.5416666666667 20.7894736842105  10.7333333333333 20.9868421052632  C 10.8611111111111 21.1184210526316  11.1166666666667 21.25  11.3083333333333 21.25  L 14.8861111111111 21.25  L 14.8861111111111 23.6842105263158  C 14.8861111111111 23.8815789473684  14.95 24.0789473684211  15.1416666666667 24.2763157894737  C 15.2694444444444 24.4078947368421  15.525 24.5394736842105  15.7166666666667 24.5394736842105  L 22.0416666666667 24.5394736842105  C 22.2333333333333 24.5394736842105  22.425 24.4736842105263  22.6166666666667 24.2763157894737  C 22.7444444444444 24.1447368421053  22.8722222222222 23.8815789473684  22.8722222222222 23.6842105263158  L 22.8722222222222 18.3552631578947  C 22.8722222222222 18.1578947368421  22.8083333333333 17.9605263157895  22.6166666666667 17.7631578947368  C 22.4888888888889 17.6315789473684  22.2333333333333 17.5  22.0416666666667 17.5  L 15.7166666666667 17.5  C 15.525 17.5  15.3333333333333 17.5657894736842  15.1416666666667 17.7631578947368  C 15.0138888888889 17.8947368421053  14.8861111111111 18.1578947368421  14.8861111111111 18.3552631578947  L 14.8861111111111 18.75  L 13.2888888888889 18.75  C 13.0972222222222 18.75  12.9055555555556 18.6842105263158  12.7138888888889 18.4868421052632  C 12.5861111111111 18.3552631578947  12.4583333333333 18.0921052631579  12 17.8947368421053  L 12 5.92105263157895  C 12.4583333333333 5.72368421052632  12.5222222222222 5.52631578947368  12.7138888888889 5.32894736842105  C 12.8416666666667 5.19736842105263  13.0972222222222 5.06578947368421  13.2888888888889 5.06578947368421  L 14.8861111111111 5.06578947368421  L 14.8861111111111 6.71052631578947  C 14.8861111111111 6.90789473684211  14.95 7.10526315789474  15.1416666666667 7.30263157894737  C 15.2694444444444 7.43421052631579  15.525 7.56578947368421  15.7166666666667 7.56578947368421  L 22.0416666666667 7.56578947368421  C 22.2333333333333 7.56578947368421  22.425 7.5  22.6166666666667 7.30263157894737  C 22.7444444444444 7.17105263157895  22.8722222222222 6.90789473684211  22.8722222222222 6.71052631578947  Z " fill-rule="nonzero" fill="#0085ff" stroke="none" transform="matrix(1 0 0 1 108 11 )" />
  </g>
</svg>