<?xml version="1.0" encoding="utf-8"?>
<svg version="1.1" xmlns:xlink="http://www.w3.org/1999/xlink" width="14px" height="14px" xmlns="http://www.w3.org/2000/svg">
  <g transform="matrix(1 0 0 1 -179 -293 )">
    <path d="M 6.180125 5.85025  C 7 1.98275  11.57275 0.99925  11.916625 1.031625  C 10.728375 2.293375  8.88475 3.569125  8.999375 5.817  C 8.90688070001334 5.91171312807488  8.82339614480553 6.01482387696312  8.75 6.125  L 10.11325 6.104  C 10.274491562853 6.10624064809879  10.4040277479491 6.23758940284791  10.4040277479491 6.39884653321793  C 10.4040277479491 6.46409139336389  10.3823889134465 6.52749393997285  10.3425 6.579125  L 7.909125 9.496375  C 7.81116127803026 9.62062318268942  7.63112000922038 9.64214985613408  7.506625 9.5445  C 7.48870334788205 9.53045545067611  7.47254454932389 9.51429665211795  7.4585 9.496375  L 4.844875 6.587875  C 4.80058349701725 6.53484444235789  4.77632054169885 6.46794443080945  4.77632054169885 6.39885045654032  C 4.77632054169885 6.23599549093396  4.90834057609249 6.10397545654032  5.07119554169885 6.10397545654032  C 5.07246373404955 6.10397545654032  5.0737319132053 6.10398363786379  5.075 6.104  L 6.125 6.125  C 6.27025 6.125  6.16 5.99375  6.180125 5.85025  Z M 11.375 13.125  L 11.09675 13.125  L 2.625 13.125  C 1.12875 13.220375  0.923125 12.09075  0.875 11.375  L 0.882875 2.61975  C 0.875940858755702 2.55965422761134  0.872465197479311 2.49920969453305  0.872465197479311 2.43871519747931  C 0.872465197479311 1.5664504707153  1.5795754707153 0.859340197479312  2.45184019747931 0.859340197479312  C 2.51233469453305 0.859340197479312  2.57277922761134 0.862815858755702  2.632875 0.86975  C 1.162 0.88375  6.125 0.875  6.125 0.875  C 6.36662457805097 0.875  6.5625 1.07087542194903  6.5625 1.3125  C 6.5625 1.55412457805097  6.36662457805097 1.75  6.125 1.75  L 2.631125 1.75  C 2.56986081640679 1.73323336522764  2.50662912238592 1.72473703623635  2.44311203623635 1.72473703623635  C 2.04974722316937 1.72473703623635  1.73086203623635 2.04362222316937  1.73086203623635 2.43698703623635  C 1.73086203623635 2.50050412238592  1.73935836522764 2.56373581640679  1.756125 2.625  L 1.756125 10.920875  C 1.743 11.580625  1.96 12.236875  2.625 12.25  L 11.375 12.25  C 11.3856989665531 12.2504075975996  11.3964047239713 12.2506114518144  11.4071114518144 12.2506114518144  C 11.8729636382967 12.2506114518144  12.2506114518144 11.8729636382967  12.2506114518144 11.4071114518144  C 12.2506114518144 11.3964047239713  12.2504075975996 11.3856989665531  12.25 11.375  L 12.243 7.85925  C 12.243 7.61762542194903  12.438875421949 7.42175  12.6805 7.42175  C 12.922124578051 7.42175  13.118 7.61762542194903  13.118 7.85925  L 13.125 11.375  C 13.1315397341389 11.4334612055963  13.1348172197915 11.4922413693312  13.1348172197915 11.5510672197915  C 13.1348172197915 12.425748192336  12.425748192336 13.1348172197915  11.5510672197915 13.1348172197915  C 11.4922413693311 13.1348172197915  11.4334612055963 13.1315397341389  11.375 13.125  Z " fill-rule="nonzero" fill="#666666" stroke="none" transform="matrix(1 0 0 1 179 293 )" />
  </g>
</svg>