<?xml version="1.0" encoding="utf-8"?>
<svg version="1.1" xmlns:xlink="http://www.w3.org/1999/xlink" width="14px" height="14px" xmlns="http://www.w3.org/2000/svg">
  <g transform="matrix(1 0 0 1 -877 -42 )">
    <path d="M 13.4166666666667 6.87555555555555  C 13.4166666666667 3.33172841080796  10.5438271447476 0.45888888888889  7 0.458888888888889  C 3.45617285525241 0.45888888888889  0.583333333333332 3.33172841080796  0.583333333333332 6.87555555555556  C 0.583333333333332 10.4193827003031  3.45617285525241 13.2922222222222  7 13.2922222222222  C 10.5438271447476 13.2922222222222  13.4166666666667 10.4193827003031  13.4166666666667 6.87555555555556  Z M 7.40444444444444 10.0333333333333  L 7.40444444444444 10.0255555555556  C 7.27623743663185 10.146556451985  7.10628616809776 10.2134225248509  6.93 10.2122222222222  C 6.75178974890624 10.2156861270537  6.58007788129191 10.1453124108183  6.45555555555556 10.0177777777778  C 6.32922261853441 9.89564957044824  6.25887303640123 9.72681057332859  6.26111111111111 9.55111111111111  C 6.25387496060393 9.37448166654733  6.32504292089279 9.20367856185408  6.45555555555556 9.08444444444444  C 6.58139348829424 8.9597616364677  6.75293889685384 8.89226836096885  6.93 8.89777777777778  C 7.10957175858857 8.89103495971479  7.28399283749101 8.95855279670928  7.41222222222222 9.08444444444444  C 7.54273485688499 9.20367856185408  7.61390281717385 9.37448166654733  7.60666666666667 9.55111111111111  C 7.60932933543716 9.73299445274435  7.53604338871225 9.90775324878067  7.40444444444444 10.0333333333333  Z M 8.72666666666667 6.45555555555555  L 8.72666666666667 6.44777777777778  C 8.48106128464911 6.70072396920148  8.2213899606488 6.93962158728177  7.94888888888889 7.16333333333333  C 7.78895762623461 7.29198116171891  7.65891587829809 7.45386986833376  7.56777777777778 7.63777777777778  C 7.46710806020766 7.82390405818741  7.41620566353458 8.03287179189795  7.42 8.24444444444445  L 7.42 8.4  L 6.44777777777778 8.4  L 6.44777777777778 8.24444444444445  C 6.43687390838404 7.94309386553677  6.50101775076213 7.643755934439  6.63444444444444 7.37333333333333  C 6.91136184353485 6.93602762082821  7.258196677347 6.54715220109944  7.66111111111111 6.22222222222222  L 7.81666666666667 6.05111111111111  C 7.97576057627649 5.86380127892035  8.06628968930203 5.62787692376288  8.07333333333333 5.38222222222222  C 8.06877697019138 5.11492509416709  7.96317905453443 4.85926698257659  7.77777777777778 4.66666666666667  C 7.56597562029344 4.47451934236024  7.28539823626459 4.37631725795014  7 4.39444444444444  C 6.65371737256697 4.36549113819436  6.31655545139374 4.5150151206277  6.10555555555556 4.79111111111111  C 5.92565234041068 5.06792842406708  5.83848536205852 5.39480459288766  5.85666666666667 5.72444444444444  L 4.92333333333333 5.72444444444444  C 4.8972566149395 5.14947885289749  5.10485128365495 4.58841218069357  5.49888888888889 4.16888888888889  C 5.9271317443022 3.76279905107636  6.50413496083008 3.55170031332226  7.09333333333333 3.58555555555555  C 7.61953865003216 3.54053995878677  8.14294743051991 3.69923304648785  8.55555555555556 4.02888888888889  C 8.93027891196852 4.36001947010957  9.13358045781763 4.84393441727154  9.10777777777778 5.34333333333333  C 9.11091150148348 5.74662514935836  8.97648237586646 6.1389387200366  8.72666666666667 6.45555555555555  Z " fill-rule="nonzero" fill="#666666" stroke="none" transform="matrix(1 0 0 1 877 42 )" />
  </g>
</svg>