<?xml version="1.0" encoding="utf-8"?>
<svg version="1.1" xmlns:xlink="http://www.w3.org/1999/xlink" width="16px" height="16px" xmlns="http://www.w3.org/2000/svg">
  <g transform="matrix(1 0 0 1 -28 -141 )">
    <path d="M 15.9984378125 8.0015621875  C 15.9984378125 5.8472954375  15.156414765625 3.8242530625  13.630150359375 2.30736184375  C 12.130443265625 0.818590125  10.152704546875 0.0015621875  8.053114625 0.0015621875  L 7.9984378125 0.0015621875  C 5.834797890625 0.017184140625  3.816442109375 0.85452059375  2.313610625 2.36047646875  C 0.810779140625 3.864870140625  -0.009373171875 5.869166171875  0.0015621875 8.003124390625  C 0.0265573125 12.411638359375  3.614918953125 16  8 16  C 12.41007615625 16  15.9984378125 12.411638359375  15.9984378125 8.0015621875  Z M 8.79984378125 11.8492481875  C 8.79984378125 12.289787140625  8.44210115625 12.64909196875  8 12.64909196875  C 7.55789884375 12.64909196875  7.20015621875 12.29134934375  7.20015621875 11.8492481875  C 7.20015621875 11.40714703125  7.55789884375 11.04940440625  8 11.04940440625  C 8.44210115625 11.04940440625  8.79984378125 11.40714703125  8.79984378125 11.8492481875  Z M 9.277875421875 4.631907828125  L 8.64049990625 9.810583875  C 8.64049990625 10.163639921875  8.35461825 10.45108378125  8 10.451083765625  C 7.646943953125 10.451083765625  7.35950009375 10.165202109375  7.35950009375 9.810583875  L 6.7190001875 4.631907828125  C 6.7190001875 3.925795734375  7.292325703125 3.35247021875  7.9984378125 3.35247021875  C 8.704549921875 3.35247021875  9.277875421875 3.925795734375  9.277875421875 4.631907828125  Z " fill-rule="nonzero" fill="#d81e06" stroke="none" transform="matrix(1 0 0 1 28 141 )" />
  </g>
</svg>