<?xml version="1.0" encoding="utf-8"?>
<svg version="1.1" xmlns:xlink="http://www.w3.org/1999/xlink" width="50px" height="50px" xmlns="http://www.w3.org/2000/svg">
  <g transform="matrix(1 0 0 1 -502 -202 )">
    <path d="M 49.9658203125 24.98046875  C 49.9609375 22.6220703125  48.0322265625 20.693359375  45.6689453125 21  L 29 21  L 29 4.3310546875  C 29.306640625 1.97265625  27.373046875 0.0390624999999999  25.0146484375 0.0390624999999999  L 24.98046875 0.0390624999999999  C 22.6220703125 0.0390624999999999  20.6884765625 1.97265625  21 4.3310546875  L 21 21  L 4.3310546875 21  C 1.97265625 20.693359375  0.0390625 22.626953125  0.0390625 24.9853515625  L 0.0390625 25.01953125  C 0.0390625 27.3779296875  1.97265625 29.3115234375  4.3310546875 29  L 21 29  L 21 45.673828125  C 20.693359375 48.0322265625  22.626953125 49.9658203125  24.9853515625 49.9658203125  L 25.01953125 49.9658203125  C 27.3779296875 49.9658203125  29.3115234375 48.0322265625  29 45.673828125  L 29 29  L 45.673828125 29  C 48.0322265625 29.306640625  49.9658203125 27.373046875  49.9658203125 25.0146484375  L 49.9658203125 24.98046875  Z " fill-rule="nonzero" fill="#666666" stroke="none" transform="matrix(1 0 0 1 502 202 )" />
  </g>
</svg>