<?xml version="1.0" encoding="utf-8"?>
<svg version="1.1" xmlns:xlink="http://www.w3.org/1999/xlink" width="14px" height="18px" xmlns="http://www.w3.org/2000/svg">
  <g transform="matrix(1 0 0 1 -336 -92 )">
    <path d="M 13.06770609375 6.3995630859375  C 13.0676861132813 3.0493145703125  10.3502285546875 0.3318569921875  7 0.3318569921875  C 3.6497714453125 0.3318569921875  0.932293906249999 3.04931455078125  0.932293906249999 6.3995630859375  C 0.932293906249999 10.95033765625  7 17.6681429882813  7 17.6681429882813  C 7 17.6681429882813  13.06770609375 10.95033765625  13.06770609375 6.3995630859375  Z M 9.16703076171875 6.39956310546875  C 9.16703076171875 7.59577208984375  8.19620896484375 8.56659384765625  7 8.56659384765625  C 5.80379103515625 8.56659384765625  4.83296923828125 7.5957720703125  4.83296923828125 6.3995630859375  C 4.83296923828125 5.2033541015625  5.80379103515625 4.23251236328125  7 4.23251236328125  C 8.19620896484375 4.23251236328125  9.16703076171875 5.20335412109375  9.16703076171875 6.39956310546875  Z " fill-rule="nonzero" fill="#0085ff" stroke="none" transform="matrix(1 0 0 1 336 92 )" />
  </g>
</svg>