<?xml version="1.0" encoding="utf-8"?>
<svg version="1.1" xmlns:xlink="http://www.w3.org/1999/xlink" width="253px" height="53px" xmlns="http://www.w3.org/2000/svg">
  <g transform="matrix(1 0 0 1 -10 -87 )">
    <path d="M 10 120.170909090909  C 10 120.170909090909  10 90  10 90  C 10 88.3431457505076  11.3431457505076 87  13 87  C 13 87  260 87  260 87  C 261.656854249492 87  263 88.3431457505076  263 90  C 263 90  263 120.170909090909  263 120.170909090909  C 263 121.827763340401  261.656854249492 123.170909090909  260 123.170909090909  C 260 123.170909090909  44.6376811594203 123.170909090909  44.6376811594203 123.170909090909  C 44.6376811594203 123.170909090909  35.6521739130435 139.420289855072  35.6521739130435 139.420289855072  C 35.6521739130435 139.420289855072  24.6376811594203 123.170909090909  24.6376811594203 123.170909090909  C 24.6376811594203 123.170909090909  13 123.170909090909  13 123.170909090909  C 11.3431457505076 123.170909090909  10 121.827763340401  10 120.170909090909  Z " fill-rule="nonzero" fill="#282828" stroke="none" />
  </g>
</svg>