<?xml version="1.0" encoding="utf-8"?>
<svg version="1.1" xmlns:xlink="http://www.w3.org/1999/xlink" width="12px" height="12px" xmlns="http://www.w3.org/2000/svg">
  <g transform="matrix(1 0 0 1 -180 -313 )">
    <path d="M 5.6171875 0.159375  C 5.978125 0.159375  6.2734375 0.4546875  6.2734375 0.815625  L 6.2734375 4.9609375  L 10.41875 4.9609375  C 10.7796875 4.9609375  11.075 5.25625  11.075 5.6171875  C 11.075 5.978125  10.7796875 6.2734375  10.41875 6.2734375  L 6.2734375 6.2734375  L 6.2734375 10.41875  C 6.2734375 10.7796875  5.978125 11.075  5.6171875 11.075  C 5.25625 11.075  4.9609375 10.7796875  4.9609375 10.41875  L 4.9609375 6.2734375  L 0.815625 6.2734375  C 0.4546875 6.2734375  0.159375 5.978125  0.159375 5.6171875  C 0.159375 5.25625  0.4546875 4.9609375  0.815625 4.9609375  L 4.9609375 4.9609375  L 4.9609375 0.815625  C 4.9609375 0.4546875  5.25625 0.159375  5.6171875 0.159375  Z " fill-rule="nonzero" fill="#000000" stroke="none" transform="matrix(1 0 0 1 180 313 )" />
  </g>
</svg>