<?xml version="1.0" encoding="utf-8"?>
<svg version="1.1" xmlns:xlink="http://www.w3.org/1999/xlink" width="26px" height="26px" xmlns="http://www.w3.org/2000/svg">
  <g transform="matrix(1 0 0 1 -1596 -90 )">
    <path d="M 24.349755859375 7.1705078125  C 25.245947265625 6.268984375  25.24451171875 4.813017578125  24.346884765625 3.912958984375  L 22.083349609375 1.64798828125  C 21.18572265625 0.750859375  19.73119140625 0.750859375  18.833974609375 1.648515625  C 18.83306640625 1.649951171875  18.8316015625 1.650859375  18.830166015625 1.652294921875  L 15.292275390625 5.193525390625  L 12.4580078125 2.357763671875  C 11.56462890625 1.46107421875  10.112529296875 1.458173828125  9.215810546875 2.352021484375  C 9.21390625 2.353955078125  9.211943359375 2.355830078125  9.210068359375 2.357763671875  L 5.589267578125 5.975634765625  L 5.583056640625 5.980439453125  C 5.57974609375 5.981875  5.581591796875 5.98626953125  5.578251953125 5.9880859375  L 1.652236328125 9.91228515625  C 0.754580078125 10.8109375  0.754580078125 12.266875  1.652236328125 13.165439453125  L 3.77482421875 15.286181640625  L 3.78537109375 15.30296875  L 3.800693359375 15.313955078125  L 7.2302734375 18.743095703125  L 7.2408203125 18.75982421875  L 7.257578125 18.770869140625  L 10.68671875 22.198486328125  C 10.69146484375 22.20419921875  10.6929296875 22.211875  10.69767578125 22.2166796875  C 10.70201171875 22.221484375  10.7096875 22.22294921875  10.7144921875 22.22916015625  L 12.8337109375 24.3484375  C 13.729931640625 25.24802734375  15.1854296875 25.250400390625  16.08501953125 24.35470703125  C 16.085927734375 24.353681640625  16.086923828125 24.35224609375  16.088388671875 24.35130859375  L 23.644287109375 16.795380859375  C 24.541943359375 15.89916015625  24.542880859375 14.44416015625  23.646689453125 13.54650390625  C 23.646689453125 13.54603515625  23.64619140625 13.54603515625  23.645693359375 13.545537109375  L 20.80849609375 10.70833984375  L 24.349755859375 7.1705078125  Z M 18.0025 19.375732421875  L 14.857568359375 22.517529296875  C 14.578955078125 22.793857421875  14.129013671875 22.7920703125  13.85259765625 22.51310546875  L 12.376767578125 21.03771484375  L 13.634892578125 19.78357421875  C 13.91306640625 19.505458984375  13.91306640625 19.0549609375  13.634892578125 18.77728515625  C 13.357216796875 18.499228515625  12.9063671875 18.499228515625  12.62869140625 18.77728515625  L 11.37185546875 20.032333984375  L 9.1727734375 17.83193359375  L 11.435869140625 15.5728515625  C 11.71041015625 15.29388671875  11.71041015625 14.8455859375  11.435869140625 14.5662109375  C 11.156845703125 14.292548828125  10.70986328125 14.292548828125  10.430927734375 14.5662109375  L 8.16736328125 16.8265234375  L 5.96828125 14.6287890625  L 7.2251171875 13.376435546875  C 7.50279296875 13.098349609375  7.50279296875 12.647822265625  7.2251171875 12.36970703125  C 6.94697265625 12.09162109375  6.49650390625 12.09162109375  6.218388671875 12.36970703125  L 4.962958984375 13.622470703125  L 3.49146484375 12.151123046875  C 3.2137890625 11.8769921875  3.2107421875 11.4296875  3.484375 11.151513671875  C 3.48619140625 11.149697265625  3.488359375 11.14802734375  3.49017578125 11.1457421875  L 6.630712890625 8.00526367187501  L 18.0025 19.375732421875  Z M 22.771123046875 6.199755859375  L 22.767080078125 6.203857421875  L 19.486240234375 9.486484375  L 19.14056640625 9.83294921875  L 18.479541015625 10.4940625  L 18.48923828125 10.4940625  L 22.1189453125 14.123681640625  C 22.396064453125 14.401826171875  22.397060546875 14.851416015625  22.120263671875 15.1303515625  L 19.261474609375 17.98791015625  L 7.892734375 6.61744140625  L 10.75029296875 3.759853515625  C 11.023017578125 3.480888671875  11.4708203125 3.47646484375  11.748935546875 3.7496875  C 11.750681120453 3.75101917623124  11.7523082747722 3.75249929853363  11.753798828125 3.754111328125  L 15.37767578125 7.37798828125  L 15.374599609375 7.386396484375  L 16.153837890625 6.608974609375  L 16.381298828125 6.381455078125  L 19.663984375 3.101494140625  C 19.94125 2.82431640625  20.391220703125 2.82431640625  20.668896484375 3.101494140625  L 22.7702734375 5.202900390625  C 23.045693359375 5.478349609375  23.04619140625 5.924365234375  22.771123046875 6.199755859375  Z " fill-rule="nonzero" fill="#0085ff" stroke="none" transform="matrix(1 0 0 1 1596 90 )" />
  </g>
</svg>