<?xml version="1.0" encoding="utf-8"?>
<svg version="1.1" xmlns:xlink="http://www.w3.org/1999/xlink" width="21px" height="20px" xmlns="http://www.w3.org/2000/svg">
  <g transform="matrix(1 0 0 1 -92 -281 )">
    <path d="M 20.9953921558442 11.4707661371367  L 0.00539865584415584 11.4707661371367  L 0.00539865584415584 10  L 20.9953921558442 10  L 20.9953921558442 11.4707661371367  Z M 18.591188512987 6.71420788883735  L 18.591188512987 2.7116292903525  C 18.591188512987 2.28851994434137  18.2462740714286 1.94574783549784  17.8209795584416 1.94574783549784  L 14.1492903116883 1.94574783549784  L 14.1492903116883 0.10513296227582  L 18.7507489285714 0.10513296227582  C 19.708111461039 0.10513296227582  20.4843189350649 0.873989873222017  20.4843189350649 1.82256410405071  L 20.4843189350649 6.71420788883735  L 18.591188512987 6.71420788883735  Z M 3.1780117012987 1.94574783549784  C 2.75271718831169 1.94574783549784  2.4072029025974 2.28851994434137  2.4072029025974 2.7116292903525  L 2.4072029025974 6.71420788883735  L 0.548264006493506 6.71420788883735  L 0.548264006493506 1.82256410405071  C 0.548264006493506 0.873989873222017  1.32447146103896 0.10513296227582  2.28183399350649 0.10513296227582  L 6.99846405194805 0.10513296227582  L 6.99846405194805 1.94574783549784  L 3.1780117012987 1.94574783549784  Z M 2.4072029025974 13.8523182591218  L 2.4072029025974 17.2544505643166  C 2.4072029025974 17.6769648075139  2.75271718831169 18.0197369163575  3.1780117012987 18.0197369163575  L 6.99846405194805 18.0197369163575  L 6.99846405194805 19.8663027017625  L 2.28183399350649 19.85678125  C 1.32447146103896 19.85678125  0.548264006493506 19.0879243390538  0.548264006493506 18.1393501082251  L 0.548264006493506 13.8523182591218  L 2.4072029025974 13.8523182591218  Z M 17.8209795584416 18.0197369163575  C 18.2462740714286 18.0197369163575  18.591188512987 17.6769648075139  18.591188512987 17.2544505643166  L 18.591188512987 13.8523182591218  L 20.4843189350649 13.8523182591218  L 20.4843189350649 18.1393501082251  C 20.4843189350649 19.0879243390538  19.7572992662338 19.8889161255411  18.7999367337662 19.8889161255411  L 14.1492903116883 19.8799897765925  L 14.1492903116883 18.0197369163575  L 17.8209795584416 18.0197369163575  Z " fill-rule="nonzero" fill="#8a8a8a" stroke="none" transform="matrix(1 0 0 1 92 281 )" />
  </g>
</svg>