<?xml version="1.0" encoding="utf-8"?>
<svg version="1.1" xmlns:xlink="http://www.w3.org/1999/xlink" width="10px" height="11px" xmlns="http://www.w3.org/2000/svg">
  <g transform="matrix(1 0 0 1 -95 -328 )">
    <path d="M 0.70361328125 1.642578125  C 0.70361328125 2.14794921875  1.1162109375 2.560546875  1.62158203125 2.560546875  L 7.556640625 2.560546875  C 8.06201171875 2.560546875  8.474609375 2.14794921875  8.474609375 1.642578125  C 8.474609375 1.13720703125  8.06201171875 0.724609374999999  7.556640625 0.724609374999999  L 1.62158203125 0.724609374999999  C 1.1162109375 0.724609374999999  0.70361328125 1.13720703125  0.70361328125 1.642578125  Z M 7.44677734375 6.3056640625  C 7.53466796875 6.0419921875  7.6640625 5.79541015625  7.830078125 5.57080078125  C 8.12548828125 5.11181640625  8.56982421875 4.76025390625  9.08984375 4.56494140625  L 1.62158203125 4.56494140625  C 1.1162109375 4.56494140625  0.70361328125 4.9775390625  0.70361328125 5.48291015625  C 0.70361328125 5.98828125  1.1162109375 6.40087890625  1.62158203125 6.40087890625  L 7.42724609375 6.40087890625  C 7.43701171875 6.369140625  7.43701171875 6.33740234375  7.44677734375 6.3056640625  Z M 9.48046875 10.2412109375  C 9.255859375 9.89697265625  9.06298828125 9.7578125  8.81396484375 9.591796875  C 8.48193359375 9.3671875  8.09619140625 9.103515625  7.78125 8.634765625  C 7.732421875 8.5615234375  7.703125 8.48095703125  7.66162109375 8.4052734375  L 1.62158203125 8.4052734375  C 1.1162109375 8.4052734375  0.70361328125 8.81787109375  0.70361328125 9.3232421875  C 0.70361328125 9.82861328125  1.1162109375 10.2412109375  1.62158203125 10.2412109375  L 9.48046875 10.2412109375  Z " fill-rule="nonzero" fill="#848181" stroke="none" transform="matrix(1 0 0 1 95 328 )" />
  </g>
</svg>