<?xml version="1.0" encoding="utf-8"?>
<svg version="1.1" xmlns:xlink="http://www.w3.org/1999/xlink" width="14px" height="13px" xmlns="http://www.w3.org/2000/svg">
  <g transform="matrix(1 0 0 1 -103 -333 )">
    <path d="M 13.111328125 8.87402343750001  C 13.26513671875 7.51904296875001  11.68310546875 3.19042968750001  11.666015625 3.146484375  C 11.490234375 2.6630859375  11.00927734375 2.33837890625  10.46728515625 2.33837890625  C 10.3134765625 2.33837890625  10.16455078125 2.365234375  10.025390625 2.41650390625  C 9.9326171875 2.45068359375  9.83251953125 2.501953125  9.73974609375 2.5654296875  C 9.48583984375 2.1357421875  9.01953125 1.8671875  8.50927734375 1.8671875  C 8.34814453125 1.8671875  8.18212890625 1.896484375  8.01611328125 1.955078125  C 7.75732421875 2.0478515625  7.53271484375 2.2138671875  7.3642578125 2.43359375  C 7.1005859375 2.18212890625  6.75146484375 2.04296875  6.3828125 2.04296875  C 6.2216796875 2.04296875  6.0556640625 2.072265625  5.8896484375 2.130859375  C 5.52587890625 2.2626953125  5.2060546875 2.521484375  5.01806640625 2.82421875  C 4.99121093749999 2.8583984375  4.96679687499999 2.892578125  4.94482421874999 2.9267578125  C 4.64208984375 2.47998046875  4.38085937499999 2.14794921875  4.14648437499999 1.91357421875  C 3.57275390624999 1.33740234375  2.72558593749999 0.653808593750002  1.94677734374999 0.653808593750002  C 1.80761718749999 0.653808593750002  1.67333984374999 0.678222656250002  1.54150390624999 0.724609375000002  C 1.25097656249999 0.82958984375  1.00683593749999 1.0322265625  0.857910156249993 1.28369140625  C 0.757812499999993 1.408203125  0.682128906249993 1.54736328125  0.633300781249993 1.69873046875  C 0.496582031249993 2.111328125  0.562499999999993 2.560546875  0.813964843749993 2.93408203125  C 0.997070312499993 3.205078125  1.23876953124999 3.36865234375  1.50244140624999 3.546875  C 1.85400390624999 3.77880859375  2.24951171874999 4.04248046875  2.66943359374999 4.77734375  C 2.99658203124999 5.34619140625  3.42626953124999 6.32763671875  3.91699218749999 7.6240234375  L 2.95996093749999 7.150390625  C 2.73779296874999 7.0478515625  2.50097656249999 6.994140625  2.25927734374999 6.994140625  C 1.69042968749999 6.994140625  1.15332031249999 7.296875  0.860351562499989 7.775390625  C 0.787109374999989 7.87060546875  0.726074218749989 7.97314453125  0.672363281249989 8.0830078125  C 0.289062499999989 8.9130859375  0.640624999999989 9.90185546875  1.50244140624999 10.3046875  C 1.75390624999999 10.4365234375  2.95019531249999 11.06396484375  4.54443359374999 11.80859375  L 4.83740234374999 11.9453125  C 5.98730468749999 12.4873046875  7.07617187499999 12.99755859375  8.36279296874999 12.99755859375  C 8.97558593749999 12.99755859375  9.58593749999999 12.8828125  10.22802734375 12.6484375  C 11.22900390625 12.28466796875  11.93212890625 11.779296875  12.369140625 11.10791015625  C 12.89892578125 10.39013671875  13.0283203125 9.5771484375  13.111328125 8.87402343750001  Z M 1.66845703125 8.92041015625  C 1.59033203125 8.72021484375  1.60009765625 8.49560546875001  1.6953125 8.29541015625  C 1.75634765625 8.15625  1.8515625 8.04150390625  1.939453125 7.9755859375  C 2.017578125 7.95361328125  2.095703125 7.94140625  2.173828125 7.94140625  C 2.30078125 7.94140625  2.4228515625 7.970703125  2.52783203125 8.0244140625  L 4.55419921875 9.02294921875  C 4.6103515625 9.0498046875  4.67138671875 9.064453125  4.73486328125 9.064453125  C 4.8349609375 9.064453125  4.93017578125 9.02783203125  4.99853515625 8.966796875  C 5.04736328125 8.927734375  5.083984375 8.87646484375  5.05224609375 8.87646484375  C 5.05224609375 8.87646484375  5.04736328125 8.87890625  5.044921875 8.87890625  L 5.15478515625 8.810546875  C 5.27685546875 8.70556640625  5.3232421875 8.53466796875  5.23779296875 8.29296875  C 4.60791015625 6.5107421875  4.0244140625 5.1142578125  3.5947265625 4.35986328125  C 3.1015625 3.4931640625  2.59375 3.1513671875  2.22021484375 2.89990234375  C 2.02490234375 2.76806640625  1.87353515625 2.66552734375  1.7783203125 2.52392578125  C 1.6708984375 2.3603515625  1.6416015625 2.1748046875  1.6953125 2.013671875  C 1.74658203125 1.8623046875  1.85888671875 1.74755859375  2.01025390625 1.69140625  L 2.16650390625 1.6669921875  C 2.53759765625 1.8037109375  3.0087890625 2.1455078125  3.49462890625 2.62890625  C 4.12939453125 3.263671875  4.927734375 4.71875  5.08642578125 5.01171875  C 5.15478515625 5.1484375  5.29150390625 5.23388671875  5.4453125 5.23388671875  L 5.5771484375 5.19970703125  L 5.6015625 5.1875  L 5.7236328125 5.1630859375  L 5.748046875 5.15087890625  C 5.9384765625 5.06298828125  6.02880859375 4.84814453125  5.9580078125 4.650390625  L 5.71142578125 3.96923828125  C 5.5380859375 3.4931640625  5.9140625 3.1611328125  6.20703125 3.0537109375  C 6.265625 3.03173828125  6.32421875 3.01953125  6.43408203125 3.01953125  C 6.45361328125 3.01953125  6.470703125 3.02197265625  6.49267578125 3.02197265625  C 6.67578125 3.0830078125  6.82470703125 3.224609375  6.890625 3.40283203125  L 7.2421875 4.3671875  C 7.29833984375 4.52587890625  7.4521484375 4.63330078125  7.623046875 4.63330078125  C 7.671875 4.63330078125  7.71826171875 4.62353515625  7.818359375 4.58935546875  C 8.0185546875 4.513671875  8.1259765625 4.28662109375  8.052734375 4.0791015625  L 7.89892578125 3.65185546875  C 7.84521484375 3.498046875  7.85009765625 3.33447265625  7.91845703125 3.19287109375  C 7.98681640625 3.04882812500001  8.1064453125 2.93896484375001  8.25537109375 2.88525390625  C 8.3212890625 2.86083984375  8.3896484375 2.84619140625  8.45556640625 2.84619140625  C 8.70703125 2.84619140625  8.931640625 3.0048828125  9.01708984375 3.24169921875  L 9.41748046875 4.34521484375001  C 9.43701171875 4.40380859375  9.47119140625 4.45751953125001  9.52001953125 4.50390625000001  C 9.595703125 4.58203125000001  9.703125 4.62597656250001  9.810546875 4.62597656250001  L 9.947265625 4.60156250000001  C 10.04736328125 4.56494140625001  10.1279296875 4.49169921875001  10.17431640625 4.39648437500001  C 10.220703125 4.29882812500001  10.22802734375 4.18408203125  10.19140625 4.08154296875001  L 9.9716796875 3.478515625  C 10.01806640625 3.43945312500001  10.083984375 3.39306640625001  10.1865234375 3.32958984375001  C 10.23291015625 3.3125  10.28662109375 3.302734375  10.3427734375 3.302734375  C 10.53076171875 3.302734375  10.70654296875 3.4150390625  10.76025390625 3.56640625  C 11.24365234375 4.89208984375  12.212890625 7.90966796875  12.11279296875 8.76904296875  C 11.9736328125 9.99951171875  11.724609375 10.99072265625  9.9326171875 11.64990234375  C 9.3955078125 11.84521484375  8.89501953125 11.9404296875  8.3994140625 11.9404296875  C 7.3447265625 11.9404296875  6.41455078125 11.5009765625  5.3330078125 10.99072265625  L 5.0498046875 10.85888671875  C 3.32861328125 10.05322265625  2.10546875 9.3916015625  2.08837890625 9.3818359375  C 1.890625 9.28906250000001  1.74169921875 9.1279296875  1.66845703125 8.92041015625  Z " fill-rule="nonzero" fill="#848181" stroke="none" transform="matrix(1 0 0 1 103 333 )" />
  </g>
</svg>