<?xml version="1.0" encoding="utf-8"?>
<svg version="1.1" xmlns:xlink="http://www.w3.org/1999/xlink" width="26px" height="25px" xmlns="http://www.w3.org/2000/svg">
  <g transform="matrix(1 0 0 1 -38 -29 )">
    <path d="M 5.5 8  C 5.5 3.857864375  8.857864375 0.5  13 0.5  C 17.142135625 0.5  20.5 3.857864375  20.5 8  C 20.5 10.3892068333333  19.3828229166667 12.517483  17.6423564166667 13.89094075  C 21.878226125 15.5858149583333  24.9699622083333 19.5321775  25.4383057083333 24.2502495416667  L 22.9226337916667 24.250008  C 22.30751475 19.3171146666667  18.0995248333333 15.5  13 15.5  C 7.90047516666667 15.5  3.69248525 19.3171146666667  3.07736620833333 24.250008  L 0.561694279166666 24.2502495416667  C 1.0300378 19.5321775  4.121773875 15.5858149583333  8.35759554166667 13.8904688333333  C 6.61717708333333 12.517483  5.5 10.3892068333333  5.5 8  Z M 18 8  C 18 5.23857625  15.76142375 3  13 3  C 10.23857625 3  8 5.23857625  8 8  C 8 10.76142375  10.23857625 13  13 13  C 15.76142375 13  18 10.76142375  18 8  Z " fill-rule="nonzero" fill="#ffffff" stroke="none" transform="matrix(1 0 0 1 38 29 )" />
  </g>
</svg>