<?xml version="1.0" encoding="utf-8"?>
<svg version="1.1" xmlns:xlink="http://www.w3.org/1999/xlink" width="16px" height="16px" xmlns="http://www.w3.org/2000/svg">
  <g transform="matrix(1 0 0 1 -55 -46 )">
    <path d="M 8 16  C 3.581793109375 16  0 12.418206890625  0 8  C 0 3.581793109375  3.581793109375 0  8 0  C 12.418206890625 0  16 3.581793109375  16 8  C 16 12.418206890625  12.418206890625 16  8 16  Z M 6.551724140625 11.041103453125  C 6.76074686628012 11.2566439365859  7.10375459270764 11.2654704371115  7.323586203125 11.060965515625  L 12.56606896875 6.187034484375  C 12.6772118436568 6.08274168097397  12.7402606728851 5.93711829854251  12.7402606728851 5.78470528241922  C 12.7402606728851 5.47999645343853  12.4932453612408 5.23298114179422  12.1885365322601 5.23298114179422  C 12.05011250484 5.23298114179422  11.916745944246 5.28501476321507  11.814896546875 5.378758625  L 6.98482759375 9.902896546875  L 4.717241375 7.56468965625  C 4.61312496818937 7.4555340742394  4.46885516644294 7.39376920079602  4.31800700685447 7.39376920079602  C 4.01329817787378 7.39376920079602  3.76628286622947 7.64078451244034  3.76628286622947 7.94549334142102  C 3.76628286622947 8.09052306180594  3.82338797228668 8.22972064093068  3.925241375 8.332965515625  L 6.552 11.041103453125  Z " fill-rule="nonzero" fill="#0085ff" stroke="none" transform="matrix(1 0 0 1 55 46 )" />
  </g>
</svg>