<?xml version="1.0" encoding="utf-8"?>
<svg version="1.1" xmlns:xlink="http://www.w3.org/1999/xlink" width="18px" height="18px" xmlns="http://www.w3.org/2000/svg">
  <g transform="matrix(1 0 0 1 -112 -445 )">
    <path d="M 17.2499999941406 9  C 17.2499999941406 13.55625  13.55625 17.2499999941406  9 17.2499999941406  C 4.44375 17.2499999941406  0.750000005859375 13.55625  0.750000005859375 9  C 0.750000005859375 4.44375  4.44375 0.750000005859375  9 0.750000005859375  C 13.55625 0.750000005859375  17.2499999941406 4.44375  17.2499999941406 9  Z M 12.58875 11.8110000058594  L 9.77774999414062 9  L 12.58875 6.18899999414063  C 12.6918860617094 6.08586393243127  12.7498272978543 5.94598141430943  12.7498272978543 5.80012499707031  C 12.7498272978543 5.49639473144899  12.503605268551 5.25017270214568  12.1998750029297 5.25017270214568  C 12.0540185856906 5.25017270214568  11.9141360675687 5.30811393829065  11.8110000058594 5.41125  L 9 8.22225000585937  L 6.18899999414063 5.41125  C 6.08586393243127 5.30811393829065  5.94598141430943 5.25017270214568  5.80012499707031 5.25017270214568  C 5.49639473144899 5.25017270214568  5.25017270214568 5.49639473144899  5.25017270214568 5.80012499707031  C 5.25017270214568 5.94598141430943  5.30811393829065 6.08586393243127  5.41125 6.18899999414062  L 8.22225000585937 9  L 5.41125 11.8110000058594  C 5.30811393829065 11.9141360675687  5.25017270214568 12.0540185856906  5.25017270214568 12.1998750029297  C 5.25017270214568 12.503605268551  5.49639473144899 12.7498272978543  5.80012499707031 12.7498272978543  C 5.94598141430942 12.7498272978543  6.08586393243128 12.6918860617094  6.18899999414062 12.58875  L 9 9.77774999414062  L 11.8110000058594 12.58875  C 11.9141360675687 12.6918860617094  12.0540185856906 12.7498272978543  12.1998750029297 12.7498272978543  C 12.503605268551 12.7498272978543  12.7498272978543 12.503605268551  12.7498272978543 12.1998750029297  C 12.7498272978543 12.0540185856906  12.6918860617094 11.9141360675687  12.58875 11.8110000058594  Z " fill-rule="nonzero" fill="#f5222d" stroke="none" transform="matrix(1 0 0 1 112 445 )" />
  </g>
</svg>