<?xml version="1.0" encoding="utf-8"?>
<svg version="1.1" xmlns:xlink="http://www.w3.org/1999/xlink" width="253px" height="54px" xmlns="http://www.w3.org/2000/svg">
  <g transform="matrix(1 0 0 1 -32 -226 )">
    <path d="M 32 259.170909090909  C 32 259.170909090909  32 229  32 229  C 32 227.343145750508  33.3431457505076 226  35 226  C 35 226  282 226  282 226  C 283.656854249492 226  285 227.343145750508  285 229  C 285 229  285 259.170909090909  285 259.170909090909  C 285 260.827763340401  283.656854249492 262.170909090909  282 262.170909090909  C 282 262.170909090909  86.0481522956327 262.170909090909  86.0481522956327 262.170909090909  C 86.0481522956327 262.170909090909  77.3947368421053 279.289473684211  77.3947368421053 279.289473684211  C 77.3947368421053 279.289473684211  66.0481522956327 262.170909090909  66.0481522956327 262.170909090909  C 66.0481522956327 262.170909090909  35 262.170909090909  35 262.170909090909  C 33.3431457505076 262.170909090909  32 260.827763340401  32 259.170909090909  Z " fill-rule="nonzero" fill="#282828" stroke="none" />
  </g>
</svg>